<?xml version="1.0" standalone="no"?>
<svg xmlns="http://www.w3.org/2000/svg" version="1.1" width="213" height="213">
	<!-- Created with https://api.qrserver.com (QR Code API, see goQR.me/api for information) -->
	<title>QR Code</title>
	<desc>BEGIN:VCARD
VERSION:3.0
N:Yeo;Kheng Meng
TITLE:Senior IoT Engineer II
ORG:SP Digital
EMAIL;type=INTERNET;type=WORK;:yeokhengmeng@spgroup.com.sg
EMAIL;type=INTERNET;type=PERSONAL;:yeokm1@gmail.com
TEL;TYPE=WORK,VOICE:+65 69196184
TEL;TYPE=CELL,VOICE:+65 97390391
URL;WORK:https://www.spgroup.com.sg
URL:http://yeokhengmeng.com
URL:https://www.linkedin.com/in/yeokhengmeng
END:VCARD</desc>
	<rect style="fill:rgb(255, 255, 255);fill-opacity:1" x="0" y="0" width="213" height="213" />
	<g id="elements">
		<path style="fill:rgb(0, 0, 0)" d="M 3,3 l 3,0 0,3 -3,0 z M 6,3 l 3,0 0,3 -3,0 z M 9,3 l 3,0 0,3 -3,0 z M 12,3 l 3,0 0,3 -3,0 z M 15,3 l 3,0 0,3 -3,0 z M 18,3 l 3,0 0,3 -3,0 z M 21,3 l 3,0 0,3 -3,0 z M 39,3 l 3,0 0,3 -3,0 z M 42,3 l 3,0 0,3 -3,0 z M 48,3 l 3,0 0,3 -3,0 z M 51,3 l 3,0 0,3 -3,0 z M 54,3 l 3,0 0,3 -3,0 z M 57,3 l 3,0 0,3 -3,0 z M 66,3 l 3,0 0,3 -3,0 z M 69,3 l 3,0 0,3 -3,0 z M 72,3 l 3,0 0,3 -3,0 z M 75,3 l 3,0 0,3 -3,0 z M 87,3 l 3,0 0,3 -3,0 z M 102,3 l 3,0 0,3 -3,0 z M 105,3 l 3,0 0,3 -3,0 z M 114,3 l 3,0 0,3 -3,0 z M 117,3 l 3,0 0,3 -3,0 z M 126,3 l 3,0 0,3 -3,0 z M 135,3 l 3,0 0,3 -3,0 z M 138,3 l 3,0 0,3 -3,0 z M 144,3 l 3,0 0,3 -3,0 z M 147,3 l 3,0 0,3 -3,0 z M 150,3 l 3,0 0,3 -3,0 z M 156,3 l 3,0 0,3 -3,0 z M 159,3 l 3,0 0,3 -3,0 z M 162,3 l 3,0 0,3 -3,0 z M 165,3 l 3,0 0,3 -3,0 z M 171,3 l 3,0 0,3 -3,0 z M 177,3 l 3,0 0,3 -3,0 z M 180,3 l 3,0 0,3 -3,0 z M 183,3 l 3,0 0,3 -3,0 z M 189,3 l 3,0 0,3 -3,0 z M 192,3 l 3,0 0,3 -3,0 z M 195,3 l 3,0 0,3 -3,0 z M 198,3 l 3,0 0,3 -3,0 z M 201,3 l 3,0 0,3 -3,0 z M 204,3 l 3,0 0,3 -3,0 z M 207,3 l 3,0 0,3 -3,0 z M 3,6 l 3,0 0,3 -3,0 z M 21,6 l 3,0 0,3 -3,0 z M 27,6 l 3,0 0,3 -3,0 z M 30,6 l 3,0 0,3 -3,0 z M 33,6 l 3,0 0,3 -3,0 z M 36,6 l 3,0 0,3 -3,0 z M 45,6 l 3,0 0,3 -3,0 z M 48,6 l 3,0 0,3 -3,0 z M 51,6 l 3,0 0,3 -3,0 z M 54,6 l 3,0 0,3 -3,0 z M 57,6 l 3,0 0,3 -3,0 z M 60,6 l 3,0 0,3 -3,0 z M 72,6 l 3,0 0,3 -3,0 z M 75,6 l 3,0 0,3 -3,0 z M 78,6 l 3,0 0,3 -3,0 z M 81,6 l 3,0 0,3 -3,0 z M 84,6 l 3,0 0,3 -3,0 z M 87,6 l 3,0 0,3 -3,0 z M 90,6 l 3,0 0,3 -3,0 z M 99,6 l 3,0 0,3 -3,0 z M 102,6 l 3,0 0,3 -3,0 z M 111,6 l 3,0 0,3 -3,0 z M 114,6 l 3,0 0,3 -3,0 z M 132,6 l 3,0 0,3 -3,0 z M 144,6 l 3,0 0,3 -3,0 z M 147,6 l 3,0 0,3 -3,0 z M 150,6 l 3,0 0,3 -3,0 z M 171,6 l 3,0 0,3 -3,0 z M 189,6 l 3,0 0,3 -3,0 z M 207,6 l 3,0 0,3 -3,0 z M 3,9 l 3,0 0,3 -3,0 z M 9,9 l 3,0 0,3 -3,0 z M 12,9 l 3,0 0,3 -3,0 z M 15,9 l 3,0 0,3 -3,0 z M 21,9 l 3,0 0,3 -3,0 z M 33,9 l 3,0 0,3 -3,0 z M 36,9 l 3,0 0,3 -3,0 z M 39,9 l 3,0 0,3 -3,0 z M 45,9 l 3,0 0,3 -3,0 z M 48,9 l 3,0 0,3 -3,0 z M 57,9 l 3,0 0,3 -3,0 z M 75,9 l 3,0 0,3 -3,0 z M 87,9 l 3,0 0,3 -3,0 z M 90,9 l 3,0 0,3 -3,0 z M 93,9 l 3,0 0,3 -3,0 z M 96,9 l 3,0 0,3 -3,0 z M 99,9 l 3,0 0,3 -3,0 z M 102,9 l 3,0 0,3 -3,0 z M 108,9 l 3,0 0,3 -3,0 z M 117,9 l 3,0 0,3 -3,0 z M 126,9 l 3,0 0,3 -3,0 z M 132,9 l 3,0 0,3 -3,0 z M 138,9 l 3,0 0,3 -3,0 z M 141,9 l 3,0 0,3 -3,0 z M 144,9 l 3,0 0,3 -3,0 z M 147,9 l 3,0 0,3 -3,0 z M 150,9 l 3,0 0,3 -3,0 z M 153,9 l 3,0 0,3 -3,0 z M 162,9 l 3,0 0,3 -3,0 z M 168,9 l 3,0 0,3 -3,0 z M 177,9 l 3,0 0,3 -3,0 z M 189,9 l 3,0 0,3 -3,0 z M 195,9 l 3,0 0,3 -3,0 z M 198,9 l 3,0 0,3 -3,0 z M 201,9 l 3,0 0,3 -3,0 z M 207,9 l 3,0 0,3 -3,0 z M 3,12 l 3,0 0,3 -3,0 z M 9,12 l 3,0 0,3 -3,0 z M 12,12 l 3,0 0,3 -3,0 z M 15,12 l 3,0 0,3 -3,0 z M 21,12 l 3,0 0,3 -3,0 z M 27,12 l 3,0 0,3 -3,0 z M 33,12 l 3,0 0,3 -3,0 z M 36,12 l 3,0 0,3 -3,0 z M 39,12 l 3,0 0,3 -3,0 z M 42,12 l 3,0 0,3 -3,0 z M 48,12 l 3,0 0,3 -3,0 z M 51,12 l 3,0 0,3 -3,0 z M 57,12 l 3,0 0,3 -3,0 z M 78,12 l 3,0 0,3 -3,0 z M 81,12 l 3,0 0,3 -3,0 z M 84,12 l 3,0 0,3 -3,0 z M 90,12 l 3,0 0,3 -3,0 z M 105,12 l 3,0 0,3 -3,0 z M 108,12 l 3,0 0,3 -3,0 z M 111,12 l 3,0 0,3 -3,0 z M 120,12 l 3,0 0,3 -3,0 z M 123,12 l 3,0 0,3 -3,0 z M 129,12 l 3,0 0,3 -3,0 z M 135,12 l 3,0 0,3 -3,0 z M 141,12 l 3,0 0,3 -3,0 z M 156,12 l 3,0 0,3 -3,0 z M 162,12 l 3,0 0,3 -3,0 z M 165,12 l 3,0 0,3 -3,0 z M 171,12 l 3,0 0,3 -3,0 z M 183,12 l 3,0 0,3 -3,0 z M 189,12 l 3,0 0,3 -3,0 z M 195,12 l 3,0 0,3 -3,0 z M 198,12 l 3,0 0,3 -3,0 z M 201,12 l 3,0 0,3 -3,0 z M 207,12 l 3,0 0,3 -3,0 z M 3,15 l 3,0 0,3 -3,0 z M 9,15 l 3,0 0,3 -3,0 z M 12,15 l 3,0 0,3 -3,0 z M 15,15 l 3,0 0,3 -3,0 z M 21,15 l 3,0 0,3 -3,0 z M 30,15 l 3,0 0,3 -3,0 z M 48,15 l 3,0 0,3 -3,0 z M 51,15 l 3,0 0,3 -3,0 z M 57,15 l 3,0 0,3 -3,0 z M 63,15 l 3,0 0,3 -3,0 z M 75,15 l 3,0 0,3 -3,0 z M 81,15 l 3,0 0,3 -3,0 z M 84,15 l 3,0 0,3 -3,0 z M 93,15 l 3,0 0,3 -3,0 z M 96,15 l 3,0 0,3 -3,0 z M 99,15 l 3,0 0,3 -3,0 z M 102,15 l 3,0 0,3 -3,0 z M 105,15 l 3,0 0,3 -3,0 z M 108,15 l 3,0 0,3 -3,0 z M 111,15 l 3,0 0,3 -3,0 z M 114,15 l 3,0 0,3 -3,0 z M 117,15 l 3,0 0,3 -3,0 z M 129,15 l 3,0 0,3 -3,0 z M 132,15 l 3,0 0,3 -3,0 z M 135,15 l 3,0 0,3 -3,0 z M 138,15 l 3,0 0,3 -3,0 z M 141,15 l 3,0 0,3 -3,0 z M 162,15 l 3,0 0,3 -3,0 z M 168,15 l 3,0 0,3 -3,0 z M 171,15 l 3,0 0,3 -3,0 z M 174,15 l 3,0 0,3 -3,0 z M 177,15 l 3,0 0,3 -3,0 z M 183,15 l 3,0 0,3 -3,0 z M 189,15 l 3,0 0,3 -3,0 z M 195,15 l 3,0 0,3 -3,0 z M 198,15 l 3,0 0,3 -3,0 z M 201,15 l 3,0 0,3 -3,0 z M 207,15 l 3,0 0,3 -3,0 z M 3,18 l 3,0 0,3 -3,0 z M 21,18 l 3,0 0,3 -3,0 z M 27,18 l 3,0 0,3 -3,0 z M 42,18 l 3,0 0,3 -3,0 z M 45,18 l 3,0 0,3 -3,0 z M 54,18 l 3,0 0,3 -3,0 z M 57,18 l 3,0 0,3 -3,0 z M 63,18 l 3,0 0,3 -3,0 z M 66,18 l 3,0 0,3 -3,0 z M 75,18 l 3,0 0,3 -3,0 z M 78,18 l 3,0 0,3 -3,0 z M 84,18 l 3,0 0,3 -3,0 z M 90,18 l 3,0 0,3 -3,0 z M 99,18 l 3,0 0,3 -3,0 z M 111,18 l 3,0 0,3 -3,0 z M 114,18 l 3,0 0,3 -3,0 z M 126,18 l 3,0 0,3 -3,0 z M 129,18 l 3,0 0,3 -3,0 z M 135,18 l 3,0 0,3 -3,0 z M 138,18 l 3,0 0,3 -3,0 z M 147,18 l 3,0 0,3 -3,0 z M 156,18 l 3,0 0,3 -3,0 z M 159,18 l 3,0 0,3 -3,0 z M 162,18 l 3,0 0,3 -3,0 z M 165,18 l 3,0 0,3 -3,0 z M 171,18 l 3,0 0,3 -3,0 z M 177,18 l 3,0 0,3 -3,0 z M 189,18 l 3,0 0,3 -3,0 z M 207,18 l 3,0 0,3 -3,0 z M 3,21 l 3,0 0,3 -3,0 z M 6,21 l 3,0 0,3 -3,0 z M 9,21 l 3,0 0,3 -3,0 z M 12,21 l 3,0 0,3 -3,0 z M 15,21 l 3,0 0,3 -3,0 z M 18,21 l 3,0 0,3 -3,0 z M 21,21 l 3,0 0,3 -3,0 z M 27,21 l 3,0 0,3 -3,0 z M 33,21 l 3,0 0,3 -3,0 z M 39,21 l 3,0 0,3 -3,0 z M 45,21 l 3,0 0,3 -3,0 z M 51,21 l 3,0 0,3 -3,0 z M 57,21 l 3,0 0,3 -3,0 z M 63,21 l 3,0 0,3 -3,0 z M 69,21 l 3,0 0,3 -3,0 z M 75,21 l 3,0 0,3 -3,0 z M 81,21 l 3,0 0,3 -3,0 z M 87,21 l 3,0 0,3 -3,0 z M 93,21 l 3,0 0,3 -3,0 z M 99,21 l 3,0 0,3 -3,0 z M 105,21 l 3,0 0,3 -3,0 z M 111,21 l 3,0 0,3 -3,0 z M 117,21 l 3,0 0,3 -3,0 z M 123,21 l 3,0 0,3 -3,0 z M 129,21 l 3,0 0,3 -3,0 z M 135,21 l 3,0 0,3 -3,0 z M 141,21 l 3,0 0,3 -3,0 z M 147,21 l 3,0 0,3 -3,0 z M 153,21 l 3,0 0,3 -3,0 z M 159,21 l 3,0 0,3 -3,0 z M 165,21 l 3,0 0,3 -3,0 z M 171,21 l 3,0 0,3 -3,0 z M 177,21 l 3,0 0,3 -3,0 z M 183,21 l 3,0 0,3 -3,0 z M 189,21 l 3,0 0,3 -3,0 z M 192,21 l 3,0 0,3 -3,0 z M 195,21 l 3,0 0,3 -3,0 z M 198,21 l 3,0 0,3 -3,0 z M 201,21 l 3,0 0,3 -3,0 z M 204,21 l 3,0 0,3 -3,0 z M 207,21 l 3,0 0,3 -3,0 z M 30,24 l 3,0 0,3 -3,0 z M 33,24 l 3,0 0,3 -3,0 z M 36,24 l 3,0 0,3 -3,0 z M 39,24 l 3,0 0,3 -3,0 z M 45,24 l 3,0 0,3 -3,0 z M 54,24 l 3,0 0,3 -3,0 z M 57,24 l 3,0 0,3 -3,0 z M 60,24 l 3,0 0,3 -3,0 z M 63,24 l 3,0 0,3 -3,0 z M 78,24 l 3,0 0,3 -3,0 z M 87,24 l 3,0 0,3 -3,0 z M 96,24 l 3,0 0,3 -3,0 z M 99,24 l 3,0 0,3 -3,0 z M 111,24 l 3,0 0,3 -3,0 z M 114,24 l 3,0 0,3 -3,0 z M 120,24 l 3,0 0,3 -3,0 z M 126,24 l 3,0 0,3 -3,0 z M 135,24 l 3,0 0,3 -3,0 z M 153,24 l 3,0 0,3 -3,0 z M 156,24 l 3,0 0,3 -3,0 z M 159,24 l 3,0 0,3 -3,0 z M 162,24 l 3,0 0,3 -3,0 z M 165,24 l 3,0 0,3 -3,0 z M 171,24 l 3,0 0,3 -3,0 z M 174,24 l 3,0 0,3 -3,0 z M 3,27 l 3,0 0,3 -3,0 z M 6,27 l 3,0 0,3 -3,0 z M 9,27 l 3,0 0,3 -3,0 z M 12,27 l 3,0 0,3 -3,0 z M 15,27 l 3,0 0,3 -3,0 z M 21,27 l 3,0 0,3 -3,0 z M 24,27 l 3,0 0,3 -3,0 z M 27,27 l 3,0 0,3 -3,0 z M 45,27 l 3,0 0,3 -3,0 z M 51,27 l 3,0 0,3 -3,0 z M 54,27 l 3,0 0,3 -3,0 z M 57,27 l 3,0 0,3 -3,0 z M 66,27 l 3,0 0,3 -3,0 z M 75,27 l 3,0 0,3 -3,0 z M 78,27 l 3,0 0,3 -3,0 z M 84,27 l 3,0 0,3 -3,0 z M 87,27 l 3,0 0,3 -3,0 z M 90,27 l 3,0 0,3 -3,0 z M 99,27 l 3,0 0,3 -3,0 z M 102,27 l 3,0 0,3 -3,0 z M 105,27 l 3,0 0,3 -3,0 z M 108,27 l 3,0 0,3 -3,0 z M 111,27 l 3,0 0,3 -3,0 z M 120,27 l 3,0 0,3 -3,0 z M 126,27 l 3,0 0,3 -3,0 z M 129,27 l 3,0 0,3 -3,0 z M 132,27 l 3,0 0,3 -3,0 z M 153,27 l 3,0 0,3 -3,0 z M 156,27 l 3,0 0,3 -3,0 z M 165,27 l 3,0 0,3 -3,0 z M 171,27 l 3,0 0,3 -3,0 z M 177,27 l 3,0 0,3 -3,0 z M 180,27 l 3,0 0,3 -3,0 z M 186,27 l 3,0 0,3 -3,0 z M 192,27 l 3,0 0,3 -3,0 z M 198,27 l 3,0 0,3 -3,0 z M 204,27 l 3,0 0,3 -3,0 z M 9,30 l 3,0 0,3 -3,0 z M 12,30 l 3,0 0,3 -3,0 z M 18,30 l 3,0 0,3 -3,0 z M 27,30 l 3,0 0,3 -3,0 z M 36,30 l 3,0 0,3 -3,0 z M 39,30 l 3,0 0,3 -3,0 z M 45,30 l 3,0 0,3 -3,0 z M 48,30 l 3,0 0,3 -3,0 z M 51,30 l 3,0 0,3 -3,0 z M 57,30 l 3,0 0,3 -3,0 z M 60,30 l 3,0 0,3 -3,0 z M 72,30 l 3,0 0,3 -3,0 z M 81,30 l 3,0 0,3 -3,0 z M 93,30 l 3,0 0,3 -3,0 z M 105,30 l 3,0 0,3 -3,0 z M 111,30 l 3,0 0,3 -3,0 z M 114,30 l 3,0 0,3 -3,0 z M 120,30 l 3,0 0,3 -3,0 z M 123,30 l 3,0 0,3 -3,0 z M 129,30 l 3,0 0,3 -3,0 z M 132,30 l 3,0 0,3 -3,0 z M 135,30 l 3,0 0,3 -3,0 z M 147,30 l 3,0 0,3 -3,0 z M 150,30 l 3,0 0,3 -3,0 z M 156,30 l 3,0 0,3 -3,0 z M 159,30 l 3,0 0,3 -3,0 z M 162,30 l 3,0 0,3 -3,0 z M 177,30 l 3,0 0,3 -3,0 z M 189,30 l 3,0 0,3 -3,0 z M 192,30 l 3,0 0,3 -3,0 z M 195,30 l 3,0 0,3 -3,0 z M 6,33 l 3,0 0,3 -3,0 z M 12,33 l 3,0 0,3 -3,0 z M 15,33 l 3,0 0,3 -3,0 z M 21,33 l 3,0 0,3 -3,0 z M 24,33 l 3,0 0,3 -3,0 z M 27,33 l 3,0 0,3 -3,0 z M 30,33 l 3,0 0,3 -3,0 z M 33,33 l 3,0 0,3 -3,0 z M 36,33 l 3,0 0,3 -3,0 z M 39,33 l 3,0 0,3 -3,0 z M 48,33 l 3,0 0,3 -3,0 z M 66,33 l 3,0 0,3 -3,0 z M 69,33 l 3,0 0,3 -3,0 z M 81,33 l 3,0 0,3 -3,0 z M 90,33 l 3,0 0,3 -3,0 z M 96,33 l 3,0 0,3 -3,0 z M 102,33 l 3,0 0,3 -3,0 z M 108,33 l 3,0 0,3 -3,0 z M 114,33 l 3,0 0,3 -3,0 z M 120,33 l 3,0 0,3 -3,0 z M 129,33 l 3,0 0,3 -3,0 z M 132,33 l 3,0 0,3 -3,0 z M 135,33 l 3,0 0,3 -3,0 z M 138,33 l 3,0 0,3 -3,0 z M 147,33 l 3,0 0,3 -3,0 z M 153,33 l 3,0 0,3 -3,0 z M 156,33 l 3,0 0,3 -3,0 z M 159,33 l 3,0 0,3 -3,0 z M 177,33 l 3,0 0,3 -3,0 z M 180,33 l 3,0 0,3 -3,0 z M 183,33 l 3,0 0,3 -3,0 z M 189,33 l 3,0 0,3 -3,0 z M 192,33 l 3,0 0,3 -3,0 z M 198,33 l 3,0 0,3 -3,0 z M 204,33 l 3,0 0,3 -3,0 z M 3,36 l 3,0 0,3 -3,0 z M 6,36 l 3,0 0,3 -3,0 z M 9,36 l 3,0 0,3 -3,0 z M 15,36 l 3,0 0,3 -3,0 z M 18,36 l 3,0 0,3 -3,0 z M 27,36 l 3,0 0,3 -3,0 z M 30,36 l 3,0 0,3 -3,0 z M 48,36 l 3,0 0,3 -3,0 z M 51,36 l 3,0 0,3 -3,0 z M 54,36 l 3,0 0,3 -3,0 z M 60,36 l 3,0 0,3 -3,0 z M 72,36 l 3,0 0,3 -3,0 z M 78,36 l 3,0 0,3 -3,0 z M 81,36 l 3,0 0,3 -3,0 z M 84,36 l 3,0 0,3 -3,0 z M 87,36 l 3,0 0,3 -3,0 z M 90,36 l 3,0 0,3 -3,0 z M 93,36 l 3,0 0,3 -3,0 z M 102,36 l 3,0 0,3 -3,0 z M 114,36 l 3,0 0,3 -3,0 z M 120,36 l 3,0 0,3 -3,0 z M 123,36 l 3,0 0,3 -3,0 z M 132,36 l 3,0 0,3 -3,0 z M 138,36 l 3,0 0,3 -3,0 z M 144,36 l 3,0 0,3 -3,0 z M 147,36 l 3,0 0,3 -3,0 z M 153,36 l 3,0 0,3 -3,0 z M 168,36 l 3,0 0,3 -3,0 z M 177,36 l 3,0 0,3 -3,0 z M 180,36 l 3,0 0,3 -3,0 z M 189,36 l 3,0 0,3 -3,0 z M 198,36 l 3,0 0,3 -3,0 z M 201,36 l 3,0 0,3 -3,0 z M 207,36 l 3,0 0,3 -3,0 z M 3,39 l 3,0 0,3 -3,0 z M 9,39 l 3,0 0,3 -3,0 z M 12,39 l 3,0 0,3 -3,0 z M 15,39 l 3,0 0,3 -3,0 z M 21,39 l 3,0 0,3 -3,0 z M 27,39 l 3,0 0,3 -3,0 z M 36,39 l 3,0 0,3 -3,0 z M 51,39 l 3,0 0,3 -3,0 z M 54,39 l 3,0 0,3 -3,0 z M 63,39 l 3,0 0,3 -3,0 z M 66,39 l 3,0 0,3 -3,0 z M 72,39 l 3,0 0,3 -3,0 z M 75,39 l 3,0 0,3 -3,0 z M 81,39 l 3,0 0,3 -3,0 z M 84,39 l 3,0 0,3 -3,0 z M 87,39 l 3,0 0,3 -3,0 z M 90,39 l 3,0 0,3 -3,0 z M 93,39 l 3,0 0,3 -3,0 z M 96,39 l 3,0 0,3 -3,0 z M 108,39 l 3,0 0,3 -3,0 z M 120,39 l 3,0 0,3 -3,0 z M 123,39 l 3,0 0,3 -3,0 z M 126,39 l 3,0 0,3 -3,0 z M 129,39 l 3,0 0,3 -3,0 z M 132,39 l 3,0 0,3 -3,0 z M 144,39 l 3,0 0,3 -3,0 z M 147,39 l 3,0 0,3 -3,0 z M 153,39 l 3,0 0,3 -3,0 z M 162,39 l 3,0 0,3 -3,0 z M 165,39 l 3,0 0,3 -3,0 z M 168,39 l 3,0 0,3 -3,0 z M 171,39 l 3,0 0,3 -3,0 z M 180,39 l 3,0 0,3 -3,0 z M 183,39 l 3,0 0,3 -3,0 z M 186,39 l 3,0 0,3 -3,0 z M 189,39 l 3,0 0,3 -3,0 z M 195,39 l 3,0 0,3 -3,0 z M 198,39 l 3,0 0,3 -3,0 z M 201,39 l 3,0 0,3 -3,0 z M 6,42 l 3,0 0,3 -3,0 z M 15,42 l 3,0 0,3 -3,0 z M 18,42 l 3,0 0,3 -3,0 z M 24,42 l 3,0 0,3 -3,0 z M 30,42 l 3,0 0,3 -3,0 z M 33,42 l 3,0 0,3 -3,0 z M 42,42 l 3,0 0,3 -3,0 z M 45,42 l 3,0 0,3 -3,0 z M 48,42 l 3,0 0,3 -3,0 z M 51,42 l 3,0 0,3 -3,0 z M 57,42 l 3,0 0,3 -3,0 z M 63,42 l 3,0 0,3 -3,0 z M 66,42 l 3,0 0,3 -3,0 z M 69,42 l 3,0 0,3 -3,0 z M 78,42 l 3,0 0,3 -3,0 z M 84,42 l 3,0 0,3 -3,0 z M 90,42 l 3,0 0,3 -3,0 z M 102,42 l 3,0 0,3 -3,0 z M 108,42 l 3,0 0,3 -3,0 z M 111,42 l 3,0 0,3 -3,0 z M 117,42 l 3,0 0,3 -3,0 z M 120,42 l 3,0 0,3 -3,0 z M 126,42 l 3,0 0,3 -3,0 z M 135,42 l 3,0 0,3 -3,0 z M 150,42 l 3,0 0,3 -3,0 z M 162,42 l 3,0 0,3 -3,0 z M 168,42 l 3,0 0,3 -3,0 z M 174,42 l 3,0 0,3 -3,0 z M 183,42 l 3,0 0,3 -3,0 z M 186,42 l 3,0 0,3 -3,0 z M 195,42 l 3,0 0,3 -3,0 z M 201,42 l 3,0 0,3 -3,0 z M 204,42 l 3,0 0,3 -3,0 z M 3,45 l 3,0 0,3 -3,0 z M 6,45 l 3,0 0,3 -3,0 z M 12,45 l 3,0 0,3 -3,0 z M 21,45 l 3,0 0,3 -3,0 z M 24,45 l 3,0 0,3 -3,0 z M 27,45 l 3,0 0,3 -3,0 z M 33,45 l 3,0 0,3 -3,0 z M 36,45 l 3,0 0,3 -3,0 z M 39,45 l 3,0 0,3 -3,0 z M 42,45 l 3,0 0,3 -3,0 z M 51,45 l 3,0 0,3 -3,0 z M 54,45 l 3,0 0,3 -3,0 z M 60,45 l 3,0 0,3 -3,0 z M 63,45 l 3,0 0,3 -3,0 z M 66,45 l 3,0 0,3 -3,0 z M 69,45 l 3,0 0,3 -3,0 z M 90,45 l 3,0 0,3 -3,0 z M 93,45 l 3,0 0,3 -3,0 z M 96,45 l 3,0 0,3 -3,0 z M 111,45 l 3,0 0,3 -3,0 z M 114,45 l 3,0 0,3 -3,0 z M 126,45 l 3,0 0,3 -3,0 z M 129,45 l 3,0 0,3 -3,0 z M 132,45 l 3,0 0,3 -3,0 z M 135,45 l 3,0 0,3 -3,0 z M 150,45 l 3,0 0,3 -3,0 z M 159,45 l 3,0 0,3 -3,0 z M 162,45 l 3,0 0,3 -3,0 z M 165,45 l 3,0 0,3 -3,0 z M 168,45 l 3,0 0,3 -3,0 z M 171,45 l 3,0 0,3 -3,0 z M 192,45 l 3,0 0,3 -3,0 z M 198,45 l 3,0 0,3 -3,0 z M 201,45 l 3,0 0,3 -3,0 z M 204,45 l 3,0 0,3 -3,0 z M 207,45 l 3,0 0,3 -3,0 z M 3,48 l 3,0 0,3 -3,0 z M 6,48 l 3,0 0,3 -3,0 z M 18,48 l 3,0 0,3 -3,0 z M 36,48 l 3,0 0,3 -3,0 z M 39,48 l 3,0 0,3 -3,0 z M 42,48 l 3,0 0,3 -3,0 z M 45,48 l 3,0 0,3 -3,0 z M 60,48 l 3,0 0,3 -3,0 z M 75,48 l 3,0 0,3 -3,0 z M 78,48 l 3,0 0,3 -3,0 z M 87,48 l 3,0 0,3 -3,0 z M 90,48 l 3,0 0,3 -3,0 z M 96,48 l 3,0 0,3 -3,0 z M 99,48 l 3,0 0,3 -3,0 z M 102,48 l 3,0 0,3 -3,0 z M 108,48 l 3,0 0,3 -3,0 z M 111,48 l 3,0 0,3 -3,0 z M 126,48 l 3,0 0,3 -3,0 z M 129,48 l 3,0 0,3 -3,0 z M 132,48 l 3,0 0,3 -3,0 z M 144,48 l 3,0 0,3 -3,0 z M 147,48 l 3,0 0,3 -3,0 z M 150,48 l 3,0 0,3 -3,0 z M 156,48 l 3,0 0,3 -3,0 z M 165,48 l 3,0 0,3 -3,0 z M 171,48 l 3,0 0,3 -3,0 z M 192,48 l 3,0 0,3 -3,0 z M 198,48 l 3,0 0,3 -3,0 z M 201,48 l 3,0 0,3 -3,0 z M 207,48 l 3,0 0,3 -3,0 z M 6,51 l 3,0 0,3 -3,0 z M 9,51 l 3,0 0,3 -3,0 z M 15,51 l 3,0 0,3 -3,0 z M 18,51 l 3,0 0,3 -3,0 z M 21,51 l 3,0 0,3 -3,0 z M 30,51 l 3,0 0,3 -3,0 z M 45,51 l 3,0 0,3 -3,0 z M 54,51 l 3,0 0,3 -3,0 z M 96,51 l 3,0 0,3 -3,0 z M 108,51 l 3,0 0,3 -3,0 z M 114,51 l 3,0 0,3 -3,0 z M 117,51 l 3,0 0,3 -3,0 z M 123,51 l 3,0 0,3 -3,0 z M 132,51 l 3,0 0,3 -3,0 z M 141,51 l 3,0 0,3 -3,0 z M 153,51 l 3,0 0,3 -3,0 z M 156,51 l 3,0 0,3 -3,0 z M 159,51 l 3,0 0,3 -3,0 z M 162,51 l 3,0 0,3 -3,0 z M 165,51 l 3,0 0,3 -3,0 z M 174,51 l 3,0 0,3 -3,0 z M 180,51 l 3,0 0,3 -3,0 z M 192,51 l 3,0 0,3 -3,0 z M 201,51 l 3,0 0,3 -3,0 z M 204,51 l 3,0 0,3 -3,0 z M 207,51 l 3,0 0,3 -3,0 z M 6,54 l 3,0 0,3 -3,0 z M 12,54 l 3,0 0,3 -3,0 z M 18,54 l 3,0 0,3 -3,0 z M 24,54 l 3,0 0,3 -3,0 z M 27,54 l 3,0 0,3 -3,0 z M 33,54 l 3,0 0,3 -3,0 z M 36,54 l 3,0 0,3 -3,0 z M 39,54 l 3,0 0,3 -3,0 z M 42,54 l 3,0 0,3 -3,0 z M 45,54 l 3,0 0,3 -3,0 z M 51,54 l 3,0 0,3 -3,0 z M 57,54 l 3,0 0,3 -3,0 z M 60,54 l 3,0 0,3 -3,0 z M 63,54 l 3,0 0,3 -3,0 z M 66,54 l 3,0 0,3 -3,0 z M 69,54 l 3,0 0,3 -3,0 z M 72,54 l 3,0 0,3 -3,0 z M 75,54 l 3,0 0,3 -3,0 z M 78,54 l 3,0 0,3 -3,0 z M 84,54 l 3,0 0,3 -3,0 z M 90,54 l 3,0 0,3 -3,0 z M 93,54 l 3,0 0,3 -3,0 z M 96,54 l 3,0 0,3 -3,0 z M 99,54 l 3,0 0,3 -3,0 z M 102,54 l 3,0 0,3 -3,0 z M 108,54 l 3,0 0,3 -3,0 z M 114,54 l 3,0 0,3 -3,0 z M 117,54 l 3,0 0,3 -3,0 z M 120,54 l 3,0 0,3 -3,0 z M 123,54 l 3,0 0,3 -3,0 z M 135,54 l 3,0 0,3 -3,0 z M 138,54 l 3,0 0,3 -3,0 z M 144,54 l 3,0 0,3 -3,0 z M 147,54 l 3,0 0,3 -3,0 z M 150,54 l 3,0 0,3 -3,0 z M 153,54 l 3,0 0,3 -3,0 z M 156,54 l 3,0 0,3 -3,0 z M 159,54 l 3,0 0,3 -3,0 z M 162,54 l 3,0 0,3 -3,0 z M 171,54 l 3,0 0,3 -3,0 z M 174,54 l 3,0 0,3 -3,0 z M 192,54 l 3,0 0,3 -3,0 z M 198,54 l 3,0 0,3 -3,0 z M 204,54 l 3,0 0,3 -3,0 z M 207,54 l 3,0 0,3 -3,0 z M 6,57 l 3,0 0,3 -3,0 z M 12,57 l 3,0 0,3 -3,0 z M 15,57 l 3,0 0,3 -3,0 z M 21,57 l 3,0 0,3 -3,0 z M 33,57 l 3,0 0,3 -3,0 z M 45,57 l 3,0 0,3 -3,0 z M 48,57 l 3,0 0,3 -3,0 z M 51,57 l 3,0 0,3 -3,0 z M 57,57 l 3,0 0,3 -3,0 z M 63,57 l 3,0 0,3 -3,0 z M 72,57 l 3,0 0,3 -3,0 z M 75,57 l 3,0 0,3 -3,0 z M 78,57 l 3,0 0,3 -3,0 z M 81,57 l 3,0 0,3 -3,0 z M 99,57 l 3,0 0,3 -3,0 z M 102,57 l 3,0 0,3 -3,0 z M 105,57 l 3,0 0,3 -3,0 z M 114,57 l 3,0 0,3 -3,0 z M 123,57 l 3,0 0,3 -3,0 z M 126,57 l 3,0 0,3 -3,0 z M 129,57 l 3,0 0,3 -3,0 z M 132,57 l 3,0 0,3 -3,0 z M 138,57 l 3,0 0,3 -3,0 z M 144,57 l 3,0 0,3 -3,0 z M 153,57 l 3,0 0,3 -3,0 z M 162,57 l 3,0 0,3 -3,0 z M 165,57 l 3,0 0,3 -3,0 z M 174,57 l 3,0 0,3 -3,0 z M 177,57 l 3,0 0,3 -3,0 z M 186,57 l 3,0 0,3 -3,0 z M 192,57 l 3,0 0,3 -3,0 z M 198,57 l 3,0 0,3 -3,0 z M 201,57 l 3,0 0,3 -3,0 z M 204,57 l 3,0 0,3 -3,0 z M 9,60 l 3,0 0,3 -3,0 z M 18,60 l 3,0 0,3 -3,0 z M 24,60 l 3,0 0,3 -3,0 z M 27,60 l 3,0 0,3 -3,0 z M 30,60 l 3,0 0,3 -3,0 z M 33,60 l 3,0 0,3 -3,0 z M 36,60 l 3,0 0,3 -3,0 z M 39,60 l 3,0 0,3 -3,0 z M 42,60 l 3,0 0,3 -3,0 z M 51,60 l 3,0 0,3 -3,0 z M 60,60 l 3,0 0,3 -3,0 z M 63,60 l 3,0 0,3 -3,0 z M 66,60 l 3,0 0,3 -3,0 z M 72,60 l 3,0 0,3 -3,0 z M 78,60 l 3,0 0,3 -3,0 z M 84,60 l 3,0 0,3 -3,0 z M 90,60 l 3,0 0,3 -3,0 z M 96,60 l 3,0 0,3 -3,0 z M 102,60 l 3,0 0,3 -3,0 z M 111,60 l 3,0 0,3 -3,0 z M 114,60 l 3,0 0,3 -3,0 z M 123,60 l 3,0 0,3 -3,0 z M 132,60 l 3,0 0,3 -3,0 z M 138,60 l 3,0 0,3 -3,0 z M 141,60 l 3,0 0,3 -3,0 z M 147,60 l 3,0 0,3 -3,0 z M 153,60 l 3,0 0,3 -3,0 z M 162,60 l 3,0 0,3 -3,0 z M 168,60 l 3,0 0,3 -3,0 z M 174,60 l 3,0 0,3 -3,0 z M 177,60 l 3,0 0,3 -3,0 z M 183,60 l 3,0 0,3 -3,0 z M 186,60 l 3,0 0,3 -3,0 z M 201,60 l 3,0 0,3 -3,0 z M 204,60 l 3,0 0,3 -3,0 z M 3,63 l 3,0 0,3 -3,0 z M 9,63 l 3,0 0,3 -3,0 z M 21,63 l 3,0 0,3 -3,0 z M 27,63 l 3,0 0,3 -3,0 z M 30,63 l 3,0 0,3 -3,0 z M 51,63 l 3,0 0,3 -3,0 z M 57,63 l 3,0 0,3 -3,0 z M 66,63 l 3,0 0,3 -3,0 z M 69,63 l 3,0 0,3 -3,0 z M 96,63 l 3,0 0,3 -3,0 z M 99,63 l 3,0 0,3 -3,0 z M 102,63 l 3,0 0,3 -3,0 z M 108,63 l 3,0 0,3 -3,0 z M 120,63 l 3,0 0,3 -3,0 z M 126,63 l 3,0 0,3 -3,0 z M 129,63 l 3,0 0,3 -3,0 z M 132,63 l 3,0 0,3 -3,0 z M 141,63 l 3,0 0,3 -3,0 z M 144,63 l 3,0 0,3 -3,0 z M 150,63 l 3,0 0,3 -3,0 z M 153,63 l 3,0 0,3 -3,0 z M 162,63 l 3,0 0,3 -3,0 z M 165,63 l 3,0 0,3 -3,0 z M 168,63 l 3,0 0,3 -3,0 z M 174,63 l 3,0 0,3 -3,0 z M 177,63 l 3,0 0,3 -3,0 z M 180,63 l 3,0 0,3 -3,0 z M 183,63 l 3,0 0,3 -3,0 z M 195,63 l 3,0 0,3 -3,0 z M 198,63 l 3,0 0,3 -3,0 z M 201,63 l 3,0 0,3 -3,0 z M 204,63 l 3,0 0,3 -3,0 z M 12,66 l 3,0 0,3 -3,0 z M 15,66 l 3,0 0,3 -3,0 z M 18,66 l 3,0 0,3 -3,0 z M 30,66 l 3,0 0,3 -3,0 z M 33,66 l 3,0 0,3 -3,0 z M 39,66 l 3,0 0,3 -3,0 z M 42,66 l 3,0 0,3 -3,0 z M 51,66 l 3,0 0,3 -3,0 z M 54,66 l 3,0 0,3 -3,0 z M 57,66 l 3,0 0,3 -3,0 z M 81,66 l 3,0 0,3 -3,0 z M 90,66 l 3,0 0,3 -3,0 z M 93,66 l 3,0 0,3 -3,0 z M 102,66 l 3,0 0,3 -3,0 z M 108,66 l 3,0 0,3 -3,0 z M 111,66 l 3,0 0,3 -3,0 z M 114,66 l 3,0 0,3 -3,0 z M 117,66 l 3,0 0,3 -3,0 z M 123,66 l 3,0 0,3 -3,0 z M 126,66 l 3,0 0,3 -3,0 z M 129,66 l 3,0 0,3 -3,0 z M 132,66 l 3,0 0,3 -3,0 z M 141,66 l 3,0 0,3 -3,0 z M 144,66 l 3,0 0,3 -3,0 z M 147,66 l 3,0 0,3 -3,0 z M 153,66 l 3,0 0,3 -3,0 z M 162,66 l 3,0 0,3 -3,0 z M 168,66 l 3,0 0,3 -3,0 z M 177,66 l 3,0 0,3 -3,0 z M 180,66 l 3,0 0,3 -3,0 z M 183,66 l 3,0 0,3 -3,0 z M 189,66 l 3,0 0,3 -3,0 z M 195,66 l 3,0 0,3 -3,0 z M 204,66 l 3,0 0,3 -3,0 z M 3,69 l 3,0 0,3 -3,0 z M 12,69 l 3,0 0,3 -3,0 z M 15,69 l 3,0 0,3 -3,0 z M 21,69 l 3,0 0,3 -3,0 z M 27,69 l 3,0 0,3 -3,0 z M 39,69 l 3,0 0,3 -3,0 z M 42,69 l 3,0 0,3 -3,0 z M 45,69 l 3,0 0,3 -3,0 z M 48,69 l 3,0 0,3 -3,0 z M 51,69 l 3,0 0,3 -3,0 z M 54,69 l 3,0 0,3 -3,0 z M 69,69 l 3,0 0,3 -3,0 z M 72,69 l 3,0 0,3 -3,0 z M 75,69 l 3,0 0,3 -3,0 z M 78,69 l 3,0 0,3 -3,0 z M 81,69 l 3,0 0,3 -3,0 z M 93,69 l 3,0 0,3 -3,0 z M 96,69 l 3,0 0,3 -3,0 z M 102,69 l 3,0 0,3 -3,0 z M 105,69 l 3,0 0,3 -3,0 z M 108,69 l 3,0 0,3 -3,0 z M 111,69 l 3,0 0,3 -3,0 z M 117,69 l 3,0 0,3 -3,0 z M 123,69 l 3,0 0,3 -3,0 z M 129,69 l 3,0 0,3 -3,0 z M 135,69 l 3,0 0,3 -3,0 z M 150,69 l 3,0 0,3 -3,0 z M 156,69 l 3,0 0,3 -3,0 z M 159,69 l 3,0 0,3 -3,0 z M 165,69 l 3,0 0,3 -3,0 z M 171,69 l 3,0 0,3 -3,0 z M 180,69 l 3,0 0,3 -3,0 z M 183,69 l 3,0 0,3 -3,0 z M 186,69 l 3,0 0,3 -3,0 z M 192,69 l 3,0 0,3 -3,0 z M 195,69 l 3,0 0,3 -3,0 z M 198,69 l 3,0 0,3 -3,0 z M 204,69 l 3,0 0,3 -3,0 z M 207,69 l 3,0 0,3 -3,0 z M 3,72 l 3,0 0,3 -3,0 z M 6,72 l 3,0 0,3 -3,0 z M 18,72 l 3,0 0,3 -3,0 z M 24,72 l 3,0 0,3 -3,0 z M 27,72 l 3,0 0,3 -3,0 z M 33,72 l 3,0 0,3 -3,0 z M 36,72 l 3,0 0,3 -3,0 z M 39,72 l 3,0 0,3 -3,0 z M 42,72 l 3,0 0,3 -3,0 z M 51,72 l 3,0 0,3 -3,0 z M 57,72 l 3,0 0,3 -3,0 z M 60,72 l 3,0 0,3 -3,0 z M 63,72 l 3,0 0,3 -3,0 z M 66,72 l 3,0 0,3 -3,0 z M 69,72 l 3,0 0,3 -3,0 z M 78,72 l 3,0 0,3 -3,0 z M 81,72 l 3,0 0,3 -3,0 z M 87,72 l 3,0 0,3 -3,0 z M 90,72 l 3,0 0,3 -3,0 z M 93,72 l 3,0 0,3 -3,0 z M 102,72 l 3,0 0,3 -3,0 z M 105,72 l 3,0 0,3 -3,0 z M 114,72 l 3,0 0,3 -3,0 z M 120,72 l 3,0 0,3 -3,0 z M 129,72 l 3,0 0,3 -3,0 z M 144,72 l 3,0 0,3 -3,0 z M 165,72 l 3,0 0,3 -3,0 z M 168,72 l 3,0 0,3 -3,0 z M 171,72 l 3,0 0,3 -3,0 z M 174,72 l 3,0 0,3 -3,0 z M 195,72 l 3,0 0,3 -3,0 z M 201,72 l 3,0 0,3 -3,0 z M 204,72 l 3,0 0,3 -3,0 z M 9,75 l 3,0 0,3 -3,0 z M 12,75 l 3,0 0,3 -3,0 z M 15,75 l 3,0 0,3 -3,0 z M 18,75 l 3,0 0,3 -3,0 z M 21,75 l 3,0 0,3 -3,0 z M 30,75 l 3,0 0,3 -3,0 z M 36,75 l 3,0 0,3 -3,0 z M 42,75 l 3,0 0,3 -3,0 z M 45,75 l 3,0 0,3 -3,0 z M 48,75 l 3,0 0,3 -3,0 z M 57,75 l 3,0 0,3 -3,0 z M 60,75 l 3,0 0,3 -3,0 z M 69,75 l 3,0 0,3 -3,0 z M 72,75 l 3,0 0,3 -3,0 z M 75,75 l 3,0 0,3 -3,0 z M 78,75 l 3,0 0,3 -3,0 z M 87,75 l 3,0 0,3 -3,0 z M 93,75 l 3,0 0,3 -3,0 z M 96,75 l 3,0 0,3 -3,0 z M 108,75 l 3,0 0,3 -3,0 z M 111,75 l 3,0 0,3 -3,0 z M 117,75 l 3,0 0,3 -3,0 z M 129,75 l 3,0 0,3 -3,0 z M 138,75 l 3,0 0,3 -3,0 z M 144,75 l 3,0 0,3 -3,0 z M 147,75 l 3,0 0,3 -3,0 z M 153,75 l 3,0 0,3 -3,0 z M 156,75 l 3,0 0,3 -3,0 z M 162,75 l 3,0 0,3 -3,0 z M 168,75 l 3,0 0,3 -3,0 z M 171,75 l 3,0 0,3 -3,0 z M 174,75 l 3,0 0,3 -3,0 z M 189,75 l 3,0 0,3 -3,0 z M 192,75 l 3,0 0,3 -3,0 z M 195,75 l 3,0 0,3 -3,0 z M 207,75 l 3,0 0,3 -3,0 z M 9,78 l 3,0 0,3 -3,0 z M 12,78 l 3,0 0,3 -3,0 z M 18,78 l 3,0 0,3 -3,0 z M 33,78 l 3,0 0,3 -3,0 z M 36,78 l 3,0 0,3 -3,0 z M 39,78 l 3,0 0,3 -3,0 z M 45,78 l 3,0 0,3 -3,0 z M 51,78 l 3,0 0,3 -3,0 z M 54,78 l 3,0 0,3 -3,0 z M 60,78 l 3,0 0,3 -3,0 z M 66,78 l 3,0 0,3 -3,0 z M 75,78 l 3,0 0,3 -3,0 z M 81,78 l 3,0 0,3 -3,0 z M 90,78 l 3,0 0,3 -3,0 z M 93,78 l 3,0 0,3 -3,0 z M 105,78 l 3,0 0,3 -3,0 z M 111,78 l 3,0 0,3 -3,0 z M 114,78 l 3,0 0,3 -3,0 z M 117,78 l 3,0 0,3 -3,0 z M 129,78 l 3,0 0,3 -3,0 z M 132,78 l 3,0 0,3 -3,0 z M 135,78 l 3,0 0,3 -3,0 z M 138,78 l 3,0 0,3 -3,0 z M 141,78 l 3,0 0,3 -3,0 z M 150,78 l 3,0 0,3 -3,0 z M 156,78 l 3,0 0,3 -3,0 z M 159,78 l 3,0 0,3 -3,0 z M 171,78 l 3,0 0,3 -3,0 z M 180,78 l 3,0 0,3 -3,0 z M 183,78 l 3,0 0,3 -3,0 z M 186,78 l 3,0 0,3 -3,0 z M 189,78 l 3,0 0,3 -3,0 z M 204,78 l 3,0 0,3 -3,0 z M 6,81 l 3,0 0,3 -3,0 z M 12,81 l 3,0 0,3 -3,0 z M 15,81 l 3,0 0,3 -3,0 z M 21,81 l 3,0 0,3 -3,0 z M 27,81 l 3,0 0,3 -3,0 z M 30,81 l 3,0 0,3 -3,0 z M 33,81 l 3,0 0,3 -3,0 z M 36,81 l 3,0 0,3 -3,0 z M 39,81 l 3,0 0,3 -3,0 z M 42,81 l 3,0 0,3 -3,0 z M 45,81 l 3,0 0,3 -3,0 z M 48,81 l 3,0 0,3 -3,0 z M 51,81 l 3,0 0,3 -3,0 z M 63,81 l 3,0 0,3 -3,0 z M 66,81 l 3,0 0,3 -3,0 z M 69,81 l 3,0 0,3 -3,0 z M 72,81 l 3,0 0,3 -3,0 z M 75,81 l 3,0 0,3 -3,0 z M 81,81 l 3,0 0,3 -3,0 z M 84,81 l 3,0 0,3 -3,0 z M 87,81 l 3,0 0,3 -3,0 z M 90,81 l 3,0 0,3 -3,0 z M 102,81 l 3,0 0,3 -3,0 z M 111,81 l 3,0 0,3 -3,0 z M 117,81 l 3,0 0,3 -3,0 z M 126,81 l 3,0 0,3 -3,0 z M 129,81 l 3,0 0,3 -3,0 z M 132,81 l 3,0 0,3 -3,0 z M 135,81 l 3,0 0,3 -3,0 z M 144,81 l 3,0 0,3 -3,0 z M 147,81 l 3,0 0,3 -3,0 z M 153,81 l 3,0 0,3 -3,0 z M 156,81 l 3,0 0,3 -3,0 z M 159,81 l 3,0 0,3 -3,0 z M 174,81 l 3,0 0,3 -3,0 z M 177,81 l 3,0 0,3 -3,0 z M 189,81 l 3,0 0,3 -3,0 z M 192,81 l 3,0 0,3 -3,0 z M 195,81 l 3,0 0,3 -3,0 z M 198,81 l 3,0 0,3 -3,0 z M 201,81 l 3,0 0,3 -3,0 z M 204,81 l 3,0 0,3 -3,0 z M 9,84 l 3,0 0,3 -3,0 z M 18,84 l 3,0 0,3 -3,0 z M 24,84 l 3,0 0,3 -3,0 z M 33,84 l 3,0 0,3 -3,0 z M 36,84 l 3,0 0,3 -3,0 z M 45,84 l 3,0 0,3 -3,0 z M 51,84 l 3,0 0,3 -3,0 z M 54,84 l 3,0 0,3 -3,0 z M 63,84 l 3,0 0,3 -3,0 z M 75,84 l 3,0 0,3 -3,0 z M 84,84 l 3,0 0,3 -3,0 z M 87,84 l 3,0 0,3 -3,0 z M 96,84 l 3,0 0,3 -3,0 z M 99,84 l 3,0 0,3 -3,0 z M 105,84 l 3,0 0,3 -3,0 z M 111,84 l 3,0 0,3 -3,0 z M 117,84 l 3,0 0,3 -3,0 z M 120,84 l 3,0 0,3 -3,0 z M 132,84 l 3,0 0,3 -3,0 z M 138,84 l 3,0 0,3 -3,0 z M 144,84 l 3,0 0,3 -3,0 z M 147,84 l 3,0 0,3 -3,0 z M 153,84 l 3,0 0,3 -3,0 z M 165,84 l 3,0 0,3 -3,0 z M 168,84 l 3,0 0,3 -3,0 z M 177,84 l 3,0 0,3 -3,0 z M 180,84 l 3,0 0,3 -3,0 z M 183,84 l 3,0 0,3 -3,0 z M 198,84 l 3,0 0,3 -3,0 z M 201,84 l 3,0 0,3 -3,0 z M 204,84 l 3,0 0,3 -3,0 z M 207,84 l 3,0 0,3 -3,0 z M 9,87 l 3,0 0,3 -3,0 z M 18,87 l 3,0 0,3 -3,0 z M 21,87 l 3,0 0,3 -3,0 z M 30,87 l 3,0 0,3 -3,0 z M 42,87 l 3,0 0,3 -3,0 z M 45,87 l 3,0 0,3 -3,0 z M 54,87 l 3,0 0,3 -3,0 z M 63,87 l 3,0 0,3 -3,0 z M 66,87 l 3,0 0,3 -3,0 z M 69,87 l 3,0 0,3 -3,0 z M 75,87 l 3,0 0,3 -3,0 z M 78,87 l 3,0 0,3 -3,0 z M 81,87 l 3,0 0,3 -3,0 z M 84,87 l 3,0 0,3 -3,0 z M 90,87 l 3,0 0,3 -3,0 z M 93,87 l 3,0 0,3 -3,0 z M 99,87 l 3,0 0,3 -3,0 z M 102,87 l 3,0 0,3 -3,0 z M 111,87 l 3,0 0,3 -3,0 z M 117,87 l 3,0 0,3 -3,0 z M 120,87 l 3,0 0,3 -3,0 z M 126,87 l 3,0 0,3 -3,0 z M 141,87 l 3,0 0,3 -3,0 z M 144,87 l 3,0 0,3 -3,0 z M 150,87 l 3,0 0,3 -3,0 z M 153,87 l 3,0 0,3 -3,0 z M 159,87 l 3,0 0,3 -3,0 z M 165,87 l 3,0 0,3 -3,0 z M 168,87 l 3,0 0,3 -3,0 z M 171,87 l 3,0 0,3 -3,0 z M 180,87 l 3,0 0,3 -3,0 z M 183,87 l 3,0 0,3 -3,0 z M 189,87 l 3,0 0,3 -3,0 z M 195,87 l 3,0 0,3 -3,0 z M 198,87 l 3,0 0,3 -3,0 z M 201,87 l 3,0 0,3 -3,0 z M 204,87 l 3,0 0,3 -3,0 z M 207,87 l 3,0 0,3 -3,0 z M 3,90 l 3,0 0,3 -3,0 z M 6,90 l 3,0 0,3 -3,0 z M 18,90 l 3,0 0,3 -3,0 z M 24,90 l 3,0 0,3 -3,0 z M 30,90 l 3,0 0,3 -3,0 z M 33,90 l 3,0 0,3 -3,0 z M 45,90 l 3,0 0,3 -3,0 z M 48,90 l 3,0 0,3 -3,0 z M 54,90 l 3,0 0,3 -3,0 z M 57,90 l 3,0 0,3 -3,0 z M 63,90 l 3,0 0,3 -3,0 z M 66,90 l 3,0 0,3 -3,0 z M 72,90 l 3,0 0,3 -3,0 z M 78,90 l 3,0 0,3 -3,0 z M 90,90 l 3,0 0,3 -3,0 z M 93,90 l 3,0 0,3 -3,0 z M 96,90 l 3,0 0,3 -3,0 z M 99,90 l 3,0 0,3 -3,0 z M 105,90 l 3,0 0,3 -3,0 z M 108,90 l 3,0 0,3 -3,0 z M 111,90 l 3,0 0,3 -3,0 z M 120,90 l 3,0 0,3 -3,0 z M 126,90 l 3,0 0,3 -3,0 z M 129,90 l 3,0 0,3 -3,0 z M 132,90 l 3,0 0,3 -3,0 z M 144,90 l 3,0 0,3 -3,0 z M 153,90 l 3,0 0,3 -3,0 z M 159,90 l 3,0 0,3 -3,0 z M 165,90 l 3,0 0,3 -3,0 z M 168,90 l 3,0 0,3 -3,0 z M 171,90 l 3,0 0,3 -3,0 z M 174,90 l 3,0 0,3 -3,0 z M 189,90 l 3,0 0,3 -3,0 z M 201,90 l 3,0 0,3 -3,0 z M 6,93 l 3,0 0,3 -3,0 z M 9,93 l 3,0 0,3 -3,0 z M 12,93 l 3,0 0,3 -3,0 z M 21,93 l 3,0 0,3 -3,0 z M 24,93 l 3,0 0,3 -3,0 z M 27,93 l 3,0 0,3 -3,0 z M 33,93 l 3,0 0,3 -3,0 z M 45,93 l 3,0 0,3 -3,0 z M 48,93 l 3,0 0,3 -3,0 z M 51,93 l 3,0 0,3 -3,0 z M 57,93 l 3,0 0,3 -3,0 z M 69,93 l 3,0 0,3 -3,0 z M 72,93 l 3,0 0,3 -3,0 z M 75,93 l 3,0 0,3 -3,0 z M 78,93 l 3,0 0,3 -3,0 z M 81,93 l 3,0 0,3 -3,0 z M 84,93 l 3,0 0,3 -3,0 z M 87,93 l 3,0 0,3 -3,0 z M 90,93 l 3,0 0,3 -3,0 z M 96,93 l 3,0 0,3 -3,0 z M 102,93 l 3,0 0,3 -3,0 z M 105,93 l 3,0 0,3 -3,0 z M 111,93 l 3,0 0,3 -3,0 z M 120,93 l 3,0 0,3 -3,0 z M 123,93 l 3,0 0,3 -3,0 z M 126,93 l 3,0 0,3 -3,0 z M 129,93 l 3,0 0,3 -3,0 z M 132,93 l 3,0 0,3 -3,0 z M 135,93 l 3,0 0,3 -3,0 z M 156,93 l 3,0 0,3 -3,0 z M 159,93 l 3,0 0,3 -3,0 z M 162,93 l 3,0 0,3 -3,0 z M 165,93 l 3,0 0,3 -3,0 z M 171,93 l 3,0 0,3 -3,0 z M 186,93 l 3,0 0,3 -3,0 z M 198,93 l 3,0 0,3 -3,0 z M 204,93 l 3,0 0,3 -3,0 z M 207,93 l 3,0 0,3 -3,0 z M 6,96 l 3,0 0,3 -3,0 z M 9,96 l 3,0 0,3 -3,0 z M 12,96 l 3,0 0,3 -3,0 z M 33,96 l 3,0 0,3 -3,0 z M 36,96 l 3,0 0,3 -3,0 z M 42,96 l 3,0 0,3 -3,0 z M 45,96 l 3,0 0,3 -3,0 z M 48,96 l 3,0 0,3 -3,0 z M 51,96 l 3,0 0,3 -3,0 z M 54,96 l 3,0 0,3 -3,0 z M 57,96 l 3,0 0,3 -3,0 z M 60,96 l 3,0 0,3 -3,0 z M 63,96 l 3,0 0,3 -3,0 z M 66,96 l 3,0 0,3 -3,0 z M 81,96 l 3,0 0,3 -3,0 z M 84,96 l 3,0 0,3 -3,0 z M 90,96 l 3,0 0,3 -3,0 z M 93,96 l 3,0 0,3 -3,0 z M 96,96 l 3,0 0,3 -3,0 z M 99,96 l 3,0 0,3 -3,0 z M 105,96 l 3,0 0,3 -3,0 z M 108,96 l 3,0 0,3 -3,0 z M 111,96 l 3,0 0,3 -3,0 z M 114,96 l 3,0 0,3 -3,0 z M 120,96 l 3,0 0,3 -3,0 z M 126,96 l 3,0 0,3 -3,0 z M 129,96 l 3,0 0,3 -3,0 z M 132,96 l 3,0 0,3 -3,0 z M 135,96 l 3,0 0,3 -3,0 z M 141,96 l 3,0 0,3 -3,0 z M 147,96 l 3,0 0,3 -3,0 z M 150,96 l 3,0 0,3 -3,0 z M 159,96 l 3,0 0,3 -3,0 z M 171,96 l 3,0 0,3 -3,0 z M 174,96 l 3,0 0,3 -3,0 z M 177,96 l 3,0 0,3 -3,0 z M 180,96 l 3,0 0,3 -3,0 z M 192,96 l 3,0 0,3 -3,0 z M 198,96 l 3,0 0,3 -3,0 z M 201,96 l 3,0 0,3 -3,0 z M 6,99 l 3,0 0,3 -3,0 z M 15,99 l 3,0 0,3 -3,0 z M 18,99 l 3,0 0,3 -3,0 z M 21,99 l 3,0 0,3 -3,0 z M 24,99 l 3,0 0,3 -3,0 z M 27,99 l 3,0 0,3 -3,0 z M 33,99 l 3,0 0,3 -3,0 z M 36,99 l 3,0 0,3 -3,0 z M 39,99 l 3,0 0,3 -3,0 z M 42,99 l 3,0 0,3 -3,0 z M 51,99 l 3,0 0,3 -3,0 z M 57,99 l 3,0 0,3 -3,0 z M 60,99 l 3,0 0,3 -3,0 z M 66,99 l 3,0 0,3 -3,0 z M 78,99 l 3,0 0,3 -3,0 z M 81,99 l 3,0 0,3 -3,0 z M 84,99 l 3,0 0,3 -3,0 z M 90,99 l 3,0 0,3 -3,0 z M 93,99 l 3,0 0,3 -3,0 z M 96,99 l 3,0 0,3 -3,0 z M 99,99 l 3,0 0,3 -3,0 z M 102,99 l 3,0 0,3 -3,0 z M 105,99 l 3,0 0,3 -3,0 z M 108,99 l 3,0 0,3 -3,0 z M 111,99 l 3,0 0,3 -3,0 z M 120,99 l 3,0 0,3 -3,0 z M 138,99 l 3,0 0,3 -3,0 z M 141,99 l 3,0 0,3 -3,0 z M 144,99 l 3,0 0,3 -3,0 z M 153,99 l 3,0 0,3 -3,0 z M 156,99 l 3,0 0,3 -3,0 z M 159,99 l 3,0 0,3 -3,0 z M 171,99 l 3,0 0,3 -3,0 z M 174,99 l 3,0 0,3 -3,0 z M 183,99 l 3,0 0,3 -3,0 z M 186,99 l 3,0 0,3 -3,0 z M 189,99 l 3,0 0,3 -3,0 z M 192,99 l 3,0 0,3 -3,0 z M 195,99 l 3,0 0,3 -3,0 z M 198,99 l 3,0 0,3 -3,0 z M 204,99 l 3,0 0,3 -3,0 z M 207,99 l 3,0 0,3 -3,0 z M 3,102 l 3,0 0,3 -3,0 z M 15,102 l 3,0 0,3 -3,0 z M 27,102 l 3,0 0,3 -3,0 z M 39,102 l 3,0 0,3 -3,0 z M 42,102 l 3,0 0,3 -3,0 z M 48,102 l 3,0 0,3 -3,0 z M 54,102 l 3,0 0,3 -3,0 z M 57,102 l 3,0 0,3 -3,0 z M 66,102 l 3,0 0,3 -3,0 z M 69,102 l 3,0 0,3 -3,0 z M 72,102 l 3,0 0,3 -3,0 z M 75,102 l 3,0 0,3 -3,0 z M 87,102 l 3,0 0,3 -3,0 z M 90,102 l 3,0 0,3 -3,0 z M 99,102 l 3,0 0,3 -3,0 z M 111,102 l 3,0 0,3 -3,0 z M 117,102 l 3,0 0,3 -3,0 z M 123,102 l 3,0 0,3 -3,0 z M 126,102 l 3,0 0,3 -3,0 z M 132,102 l 3,0 0,3 -3,0 z M 138,102 l 3,0 0,3 -3,0 z M 150,102 l 3,0 0,3 -3,0 z M 156,102 l 3,0 0,3 -3,0 z M 171,102 l 3,0 0,3 -3,0 z M 180,102 l 3,0 0,3 -3,0 z M 183,102 l 3,0 0,3 -3,0 z M 195,102 l 3,0 0,3 -3,0 z M 198,102 l 3,0 0,3 -3,0 z M 204,102 l 3,0 0,3 -3,0 z M 207,102 l 3,0 0,3 -3,0 z M 3,105 l 3,0 0,3 -3,0 z M 12,105 l 3,0 0,3 -3,0 z M 15,105 l 3,0 0,3 -3,0 z M 21,105 l 3,0 0,3 -3,0 z M 27,105 l 3,0 0,3 -3,0 z M 30,105 l 3,0 0,3 -3,0 z M 39,105 l 3,0 0,3 -3,0 z M 42,105 l 3,0 0,3 -3,0 z M 60,105 l 3,0 0,3 -3,0 z M 66,105 l 3,0 0,3 -3,0 z M 72,105 l 3,0 0,3 -3,0 z M 78,105 l 3,0 0,3 -3,0 z M 81,105 l 3,0 0,3 -3,0 z M 84,105 l 3,0 0,3 -3,0 z M 87,105 l 3,0 0,3 -3,0 z M 90,105 l 3,0 0,3 -3,0 z M 96,105 l 3,0 0,3 -3,0 z M 99,105 l 3,0 0,3 -3,0 z M 105,105 l 3,0 0,3 -3,0 z M 111,105 l 3,0 0,3 -3,0 z M 114,105 l 3,0 0,3 -3,0 z M 120,105 l 3,0 0,3 -3,0 z M 126,105 l 3,0 0,3 -3,0 z M 132,105 l 3,0 0,3 -3,0 z M 138,105 l 3,0 0,3 -3,0 z M 141,105 l 3,0 0,3 -3,0 z M 144,105 l 3,0 0,3 -3,0 z M 147,105 l 3,0 0,3 -3,0 z M 150,105 l 3,0 0,3 -3,0 z M 153,105 l 3,0 0,3 -3,0 z M 174,105 l 3,0 0,3 -3,0 z M 177,105 l 3,0 0,3 -3,0 z M 183,105 l 3,0 0,3 -3,0 z M 189,105 l 3,0 0,3 -3,0 z M 195,105 l 3,0 0,3 -3,0 z M 204,105 l 3,0 0,3 -3,0 z M 207,105 l 3,0 0,3 -3,0 z M 3,108 l 3,0 0,3 -3,0 z M 6,108 l 3,0 0,3 -3,0 z M 9,108 l 3,0 0,3 -3,0 z M 15,108 l 3,0 0,3 -3,0 z M 27,108 l 3,0 0,3 -3,0 z M 36,108 l 3,0 0,3 -3,0 z M 39,108 l 3,0 0,3 -3,0 z M 69,108 l 3,0 0,3 -3,0 z M 72,108 l 3,0 0,3 -3,0 z M 75,108 l 3,0 0,3 -3,0 z M 81,108 l 3,0 0,3 -3,0 z M 87,108 l 3,0 0,3 -3,0 z M 93,108 l 3,0 0,3 -3,0 z M 96,108 l 3,0 0,3 -3,0 z M 99,108 l 3,0 0,3 -3,0 z M 111,108 l 3,0 0,3 -3,0 z M 117,108 l 3,0 0,3 -3,0 z M 120,108 l 3,0 0,3 -3,0 z M 126,108 l 3,0 0,3 -3,0 z M 132,108 l 3,0 0,3 -3,0 z M 141,108 l 3,0 0,3 -3,0 z M 144,108 l 3,0 0,3 -3,0 z M 147,108 l 3,0 0,3 -3,0 z M 153,108 l 3,0 0,3 -3,0 z M 168,108 l 3,0 0,3 -3,0 z M 174,108 l 3,0 0,3 -3,0 z M 177,108 l 3,0 0,3 -3,0 z M 183,108 l 3,0 0,3 -3,0 z M 195,108 l 3,0 0,3 -3,0 z M 198,108 l 3,0 0,3 -3,0 z M 201,108 l 3,0 0,3 -3,0 z M 204,108 l 3,0 0,3 -3,0 z M 207,108 l 3,0 0,3 -3,0 z M 6,111 l 3,0 0,3 -3,0 z M 9,111 l 3,0 0,3 -3,0 z M 12,111 l 3,0 0,3 -3,0 z M 15,111 l 3,0 0,3 -3,0 z M 18,111 l 3,0 0,3 -3,0 z M 21,111 l 3,0 0,3 -3,0 z M 24,111 l 3,0 0,3 -3,0 z M 27,111 l 3,0 0,3 -3,0 z M 30,111 l 3,0 0,3 -3,0 z M 36,111 l 3,0 0,3 -3,0 z M 48,111 l 3,0 0,3 -3,0 z M 57,111 l 3,0 0,3 -3,0 z M 60,111 l 3,0 0,3 -3,0 z M 66,111 l 3,0 0,3 -3,0 z M 81,111 l 3,0 0,3 -3,0 z M 90,111 l 3,0 0,3 -3,0 z M 96,111 l 3,0 0,3 -3,0 z M 99,111 l 3,0 0,3 -3,0 z M 102,111 l 3,0 0,3 -3,0 z M 105,111 l 3,0 0,3 -3,0 z M 108,111 l 3,0 0,3 -3,0 z M 111,111 l 3,0 0,3 -3,0 z M 114,111 l 3,0 0,3 -3,0 z M 117,111 l 3,0 0,3 -3,0 z M 126,111 l 3,0 0,3 -3,0 z M 138,111 l 3,0 0,3 -3,0 z M 141,111 l 3,0 0,3 -3,0 z M 144,111 l 3,0 0,3 -3,0 z M 159,111 l 3,0 0,3 -3,0 z M 162,111 l 3,0 0,3 -3,0 z M 168,111 l 3,0 0,3 -3,0 z M 174,111 l 3,0 0,3 -3,0 z M 177,111 l 3,0 0,3 -3,0 z M 183,111 l 3,0 0,3 -3,0 z M 186,111 l 3,0 0,3 -3,0 z M 189,111 l 3,0 0,3 -3,0 z M 192,111 l 3,0 0,3 -3,0 z M 195,111 l 3,0 0,3 -3,0 z M 198,111 l 3,0 0,3 -3,0 z M 201,111 l 3,0 0,3 -3,0 z M 204,111 l 3,0 0,3 -3,0 z M 3,114 l 3,0 0,3 -3,0 z M 6,114 l 3,0 0,3 -3,0 z M 18,114 l 3,0 0,3 -3,0 z M 24,114 l 3,0 0,3 -3,0 z M 27,114 l 3,0 0,3 -3,0 z M 30,114 l 3,0 0,3 -3,0 z M 33,114 l 3,0 0,3 -3,0 z M 36,114 l 3,0 0,3 -3,0 z M 42,114 l 3,0 0,3 -3,0 z M 57,114 l 3,0 0,3 -3,0 z M 66,114 l 3,0 0,3 -3,0 z M 87,114 l 3,0 0,3 -3,0 z M 90,114 l 3,0 0,3 -3,0 z M 93,114 l 3,0 0,3 -3,0 z M 96,114 l 3,0 0,3 -3,0 z M 99,114 l 3,0 0,3 -3,0 z M 102,114 l 3,0 0,3 -3,0 z M 108,114 l 3,0 0,3 -3,0 z M 114,114 l 3,0 0,3 -3,0 z M 120,114 l 3,0 0,3 -3,0 z M 123,114 l 3,0 0,3 -3,0 z M 126,114 l 3,0 0,3 -3,0 z M 129,114 l 3,0 0,3 -3,0 z M 135,114 l 3,0 0,3 -3,0 z M 147,114 l 3,0 0,3 -3,0 z M 150,114 l 3,0 0,3 -3,0 z M 153,114 l 3,0 0,3 -3,0 z M 156,114 l 3,0 0,3 -3,0 z M 159,114 l 3,0 0,3 -3,0 z M 168,114 l 3,0 0,3 -3,0 z M 171,114 l 3,0 0,3 -3,0 z M 174,114 l 3,0 0,3 -3,0 z M 183,114 l 3,0 0,3 -3,0 z M 198,114 l 3,0 0,3 -3,0 z M 204,114 l 3,0 0,3 -3,0 z M 9,117 l 3,0 0,3 -3,0 z M 15,117 l 3,0 0,3 -3,0 z M 18,117 l 3,0 0,3 -3,0 z M 21,117 l 3,0 0,3 -3,0 z M 27,117 l 3,0 0,3 -3,0 z M 30,117 l 3,0 0,3 -3,0 z M 42,117 l 3,0 0,3 -3,0 z M 45,117 l 3,0 0,3 -3,0 z M 48,117 l 3,0 0,3 -3,0 z M 51,117 l 3,0 0,3 -3,0 z M 60,117 l 3,0 0,3 -3,0 z M 66,117 l 3,0 0,3 -3,0 z M 75,117 l 3,0 0,3 -3,0 z M 81,117 l 3,0 0,3 -3,0 z M 87,117 l 3,0 0,3 -3,0 z M 90,117 l 3,0 0,3 -3,0 z M 108,117 l 3,0 0,3 -3,0 z M 114,117 l 3,0 0,3 -3,0 z M 120,117 l 3,0 0,3 -3,0 z M 123,117 l 3,0 0,3 -3,0 z M 129,117 l 3,0 0,3 -3,0 z M 135,117 l 3,0 0,3 -3,0 z M 144,117 l 3,0 0,3 -3,0 z M 150,117 l 3,0 0,3 -3,0 z M 156,117 l 3,0 0,3 -3,0 z M 159,117 l 3,0 0,3 -3,0 z M 162,117 l 3,0 0,3 -3,0 z M 165,117 l 3,0 0,3 -3,0 z M 171,117 l 3,0 0,3 -3,0 z M 189,117 l 3,0 0,3 -3,0 z M 201,117 l 3,0 0,3 -3,0 z M 207,117 l 3,0 0,3 -3,0 z M 3,120 l 3,0 0,3 -3,0 z M 6,120 l 3,0 0,3 -3,0 z M 12,120 l 3,0 0,3 -3,0 z M 24,120 l 3,0 0,3 -3,0 z M 39,120 l 3,0 0,3 -3,0 z M 45,120 l 3,0 0,3 -3,0 z M 48,120 l 3,0 0,3 -3,0 z M 51,120 l 3,0 0,3 -3,0 z M 54,120 l 3,0 0,3 -3,0 z M 60,120 l 3,0 0,3 -3,0 z M 63,120 l 3,0 0,3 -3,0 z M 78,120 l 3,0 0,3 -3,0 z M 81,120 l 3,0 0,3 -3,0 z M 84,120 l 3,0 0,3 -3,0 z M 87,120 l 3,0 0,3 -3,0 z M 96,120 l 3,0 0,3 -3,0 z M 99,120 l 3,0 0,3 -3,0 z M 102,120 l 3,0 0,3 -3,0 z M 111,120 l 3,0 0,3 -3,0 z M 114,120 l 3,0 0,3 -3,0 z M 123,120 l 3,0 0,3 -3,0 z M 135,120 l 3,0 0,3 -3,0 z M 156,120 l 3,0 0,3 -3,0 z M 159,120 l 3,0 0,3 -3,0 z M 162,120 l 3,0 0,3 -3,0 z M 165,120 l 3,0 0,3 -3,0 z M 174,120 l 3,0 0,3 -3,0 z M 177,120 l 3,0 0,3 -3,0 z M 189,120 l 3,0 0,3 -3,0 z M 195,120 l 3,0 0,3 -3,0 z M 201,120 l 3,0 0,3 -3,0 z M 204,120 l 3,0 0,3 -3,0 z M 207,120 l 3,0 0,3 -3,0 z M 12,123 l 3,0 0,3 -3,0 z M 21,123 l 3,0 0,3 -3,0 z M 24,123 l 3,0 0,3 -3,0 z M 27,123 l 3,0 0,3 -3,0 z M 33,123 l 3,0 0,3 -3,0 z M 36,123 l 3,0 0,3 -3,0 z M 42,123 l 3,0 0,3 -3,0 z M 45,123 l 3,0 0,3 -3,0 z M 54,123 l 3,0 0,3 -3,0 z M 57,123 l 3,0 0,3 -3,0 z M 66,123 l 3,0 0,3 -3,0 z M 75,123 l 3,0 0,3 -3,0 z M 78,123 l 3,0 0,3 -3,0 z M 87,123 l 3,0 0,3 -3,0 z M 90,123 l 3,0 0,3 -3,0 z M 96,123 l 3,0 0,3 -3,0 z M 102,123 l 3,0 0,3 -3,0 z M 105,123 l 3,0 0,3 -3,0 z M 117,123 l 3,0 0,3 -3,0 z M 123,123 l 3,0 0,3 -3,0 z M 126,123 l 3,0 0,3 -3,0 z M 132,123 l 3,0 0,3 -3,0 z M 144,123 l 3,0 0,3 -3,0 z M 150,123 l 3,0 0,3 -3,0 z M 159,123 l 3,0 0,3 -3,0 z M 162,123 l 3,0 0,3 -3,0 z M 165,123 l 3,0 0,3 -3,0 z M 174,123 l 3,0 0,3 -3,0 z M 177,123 l 3,0 0,3 -3,0 z M 183,123 l 3,0 0,3 -3,0 z M 207,123 l 3,0 0,3 -3,0 z M 6,126 l 3,0 0,3 -3,0 z M 24,126 l 3,0 0,3 -3,0 z M 27,126 l 3,0 0,3 -3,0 z M 33,126 l 3,0 0,3 -3,0 z M 36,126 l 3,0 0,3 -3,0 z M 39,126 l 3,0 0,3 -3,0 z M 48,126 l 3,0 0,3 -3,0 z M 54,126 l 3,0 0,3 -3,0 z M 57,126 l 3,0 0,3 -3,0 z M 72,126 l 3,0 0,3 -3,0 z M 81,126 l 3,0 0,3 -3,0 z M 84,126 l 3,0 0,3 -3,0 z M 93,126 l 3,0 0,3 -3,0 z M 114,126 l 3,0 0,3 -3,0 z M 120,126 l 3,0 0,3 -3,0 z M 123,126 l 3,0 0,3 -3,0 z M 135,126 l 3,0 0,3 -3,0 z M 150,126 l 3,0 0,3 -3,0 z M 174,126 l 3,0 0,3 -3,0 z M 180,126 l 3,0 0,3 -3,0 z M 189,126 l 3,0 0,3 -3,0 z M 195,126 l 3,0 0,3 -3,0 z M 3,129 l 3,0 0,3 -3,0 z M 9,129 l 3,0 0,3 -3,0 z M 12,129 l 3,0 0,3 -3,0 z M 15,129 l 3,0 0,3 -3,0 z M 18,129 l 3,0 0,3 -3,0 z M 21,129 l 3,0 0,3 -3,0 z M 24,129 l 3,0 0,3 -3,0 z M 27,129 l 3,0 0,3 -3,0 z M 42,129 l 3,0 0,3 -3,0 z M 54,129 l 3,0 0,3 -3,0 z M 60,129 l 3,0 0,3 -3,0 z M 81,129 l 3,0 0,3 -3,0 z M 87,129 l 3,0 0,3 -3,0 z M 93,129 l 3,0 0,3 -3,0 z M 105,129 l 3,0 0,3 -3,0 z M 108,129 l 3,0 0,3 -3,0 z M 111,129 l 3,0 0,3 -3,0 z M 114,129 l 3,0 0,3 -3,0 z M 117,129 l 3,0 0,3 -3,0 z M 129,129 l 3,0 0,3 -3,0 z M 132,129 l 3,0 0,3 -3,0 z M 135,129 l 3,0 0,3 -3,0 z M 138,129 l 3,0 0,3 -3,0 z M 144,129 l 3,0 0,3 -3,0 z M 147,129 l 3,0 0,3 -3,0 z M 153,129 l 3,0 0,3 -3,0 z M 156,129 l 3,0 0,3 -3,0 z M 159,129 l 3,0 0,3 -3,0 z M 162,129 l 3,0 0,3 -3,0 z M 165,129 l 3,0 0,3 -3,0 z M 174,129 l 3,0 0,3 -3,0 z M 177,129 l 3,0 0,3 -3,0 z M 180,129 l 3,0 0,3 -3,0 z M 183,129 l 3,0 0,3 -3,0 z M 186,129 l 3,0 0,3 -3,0 z M 189,129 l 3,0 0,3 -3,0 z M 192,129 l 3,0 0,3 -3,0 z M 198,129 l 3,0 0,3 -3,0 z M 204,129 l 3,0 0,3 -3,0 z M 12,132 l 3,0 0,3 -3,0 z M 15,132 l 3,0 0,3 -3,0 z M 30,132 l 3,0 0,3 -3,0 z M 48,132 l 3,0 0,3 -3,0 z M 60,132 l 3,0 0,3 -3,0 z M 63,132 l 3,0 0,3 -3,0 z M 69,132 l 3,0 0,3 -3,0 z M 72,132 l 3,0 0,3 -3,0 z M 78,132 l 3,0 0,3 -3,0 z M 81,132 l 3,0 0,3 -3,0 z M 84,132 l 3,0 0,3 -3,0 z M 87,132 l 3,0 0,3 -3,0 z M 93,132 l 3,0 0,3 -3,0 z M 96,132 l 3,0 0,3 -3,0 z M 102,132 l 3,0 0,3 -3,0 z M 105,132 l 3,0 0,3 -3,0 z M 108,132 l 3,0 0,3 -3,0 z M 111,132 l 3,0 0,3 -3,0 z M 120,132 l 3,0 0,3 -3,0 z M 132,132 l 3,0 0,3 -3,0 z M 138,132 l 3,0 0,3 -3,0 z M 147,132 l 3,0 0,3 -3,0 z M 153,132 l 3,0 0,3 -3,0 z M 162,132 l 3,0 0,3 -3,0 z M 177,132 l 3,0 0,3 -3,0 z M 183,132 l 3,0 0,3 -3,0 z M 192,132 l 3,0 0,3 -3,0 z M 195,132 l 3,0 0,3 -3,0 z M 204,132 l 3,0 0,3 -3,0 z M 207,132 l 3,0 0,3 -3,0 z M 9,135 l 3,0 0,3 -3,0 z M 12,135 l 3,0 0,3 -3,0 z M 18,135 l 3,0 0,3 -3,0 z M 21,135 l 3,0 0,3 -3,0 z M 24,135 l 3,0 0,3 -3,0 z M 27,135 l 3,0 0,3 -3,0 z M 30,135 l 3,0 0,3 -3,0 z M 39,135 l 3,0 0,3 -3,0 z M 42,135 l 3,0 0,3 -3,0 z M 54,135 l 3,0 0,3 -3,0 z M 57,135 l 3,0 0,3 -3,0 z M 72,135 l 3,0 0,3 -3,0 z M 75,135 l 3,0 0,3 -3,0 z M 78,135 l 3,0 0,3 -3,0 z M 81,135 l 3,0 0,3 -3,0 z M 84,135 l 3,0 0,3 -3,0 z M 90,135 l 3,0 0,3 -3,0 z M 93,135 l 3,0 0,3 -3,0 z M 99,135 l 3,0 0,3 -3,0 z M 102,135 l 3,0 0,3 -3,0 z M 105,135 l 3,0 0,3 -3,0 z M 120,135 l 3,0 0,3 -3,0 z M 123,135 l 3,0 0,3 -3,0 z M 126,135 l 3,0 0,3 -3,0 z M 129,135 l 3,0 0,3 -3,0 z M 132,135 l 3,0 0,3 -3,0 z M 135,135 l 3,0 0,3 -3,0 z M 138,135 l 3,0 0,3 -3,0 z M 144,135 l 3,0 0,3 -3,0 z M 147,135 l 3,0 0,3 -3,0 z M 150,135 l 3,0 0,3 -3,0 z M 153,135 l 3,0 0,3 -3,0 z M 156,135 l 3,0 0,3 -3,0 z M 159,135 l 3,0 0,3 -3,0 z M 165,135 l 3,0 0,3 -3,0 z M 168,135 l 3,0 0,3 -3,0 z M 171,135 l 3,0 0,3 -3,0 z M 174,135 l 3,0 0,3 -3,0 z M 183,135 l 3,0 0,3 -3,0 z M 198,135 l 3,0 0,3 -3,0 z M 201,135 l 3,0 0,3 -3,0 z M 204,135 l 3,0 0,3 -3,0 z M 6,138 l 3,0 0,3 -3,0 z M 18,138 l 3,0 0,3 -3,0 z M 24,138 l 3,0 0,3 -3,0 z M 27,138 l 3,0 0,3 -3,0 z M 30,138 l 3,0 0,3 -3,0 z M 45,138 l 3,0 0,3 -3,0 z M 51,138 l 3,0 0,3 -3,0 z M 54,138 l 3,0 0,3 -3,0 z M 57,138 l 3,0 0,3 -3,0 z M 66,138 l 3,0 0,3 -3,0 z M 69,138 l 3,0 0,3 -3,0 z M 72,138 l 3,0 0,3 -3,0 z M 78,138 l 3,0 0,3 -3,0 z M 84,138 l 3,0 0,3 -3,0 z M 90,138 l 3,0 0,3 -3,0 z M 93,138 l 3,0 0,3 -3,0 z M 108,138 l 3,0 0,3 -3,0 z M 111,138 l 3,0 0,3 -3,0 z M 120,138 l 3,0 0,3 -3,0 z M 123,138 l 3,0 0,3 -3,0 z M 126,138 l 3,0 0,3 -3,0 z M 129,138 l 3,0 0,3 -3,0 z M 135,138 l 3,0 0,3 -3,0 z M 144,138 l 3,0 0,3 -3,0 z M 153,138 l 3,0 0,3 -3,0 z M 156,138 l 3,0 0,3 -3,0 z M 162,138 l 3,0 0,3 -3,0 z M 168,138 l 3,0 0,3 -3,0 z M 171,138 l 3,0 0,3 -3,0 z M 174,138 l 3,0 0,3 -3,0 z M 180,138 l 3,0 0,3 -3,0 z M 186,138 l 3,0 0,3 -3,0 z M 195,138 l 3,0 0,3 -3,0 z M 6,141 l 3,0 0,3 -3,0 z M 12,141 l 3,0 0,3 -3,0 z M 18,141 l 3,0 0,3 -3,0 z M 21,141 l 3,0 0,3 -3,0 z M 24,141 l 3,0 0,3 -3,0 z M 30,141 l 3,0 0,3 -3,0 z M 36,141 l 3,0 0,3 -3,0 z M 39,141 l 3,0 0,3 -3,0 z M 48,141 l 3,0 0,3 -3,0 z M 51,141 l 3,0 0,3 -3,0 z M 54,141 l 3,0 0,3 -3,0 z M 63,141 l 3,0 0,3 -3,0 z M 69,141 l 3,0 0,3 -3,0 z M 75,141 l 3,0 0,3 -3,0 z M 84,141 l 3,0 0,3 -3,0 z M 90,141 l 3,0 0,3 -3,0 z M 93,141 l 3,0 0,3 -3,0 z M 99,141 l 3,0 0,3 -3,0 z M 105,141 l 3,0 0,3 -3,0 z M 120,141 l 3,0 0,3 -3,0 z M 126,141 l 3,0 0,3 -3,0 z M 129,141 l 3,0 0,3 -3,0 z M 132,141 l 3,0 0,3 -3,0 z M 135,141 l 3,0 0,3 -3,0 z M 150,141 l 3,0 0,3 -3,0 z M 159,141 l 3,0 0,3 -3,0 z M 162,141 l 3,0 0,3 -3,0 z M 165,141 l 3,0 0,3 -3,0 z M 171,141 l 3,0 0,3 -3,0 z M 183,141 l 3,0 0,3 -3,0 z M 186,141 l 3,0 0,3 -3,0 z M 189,141 l 3,0 0,3 -3,0 z M 192,141 l 3,0 0,3 -3,0 z M 195,141 l 3,0 0,3 -3,0 z M 3,144 l 3,0 0,3 -3,0 z M 6,144 l 3,0 0,3 -3,0 z M 9,144 l 3,0 0,3 -3,0 z M 12,144 l 3,0 0,3 -3,0 z M 15,144 l 3,0 0,3 -3,0 z M 27,144 l 3,0 0,3 -3,0 z M 33,144 l 3,0 0,3 -3,0 z M 45,144 l 3,0 0,3 -3,0 z M 48,144 l 3,0 0,3 -3,0 z M 51,144 l 3,0 0,3 -3,0 z M 60,144 l 3,0 0,3 -3,0 z M 63,144 l 3,0 0,3 -3,0 z M 66,144 l 3,0 0,3 -3,0 z M 69,144 l 3,0 0,3 -3,0 z M 72,144 l 3,0 0,3 -3,0 z M 78,144 l 3,0 0,3 -3,0 z M 84,144 l 3,0 0,3 -3,0 z M 93,144 l 3,0 0,3 -3,0 z M 102,144 l 3,0 0,3 -3,0 z M 105,144 l 3,0 0,3 -3,0 z M 126,144 l 3,0 0,3 -3,0 z M 129,144 l 3,0 0,3 -3,0 z M 135,144 l 3,0 0,3 -3,0 z M 138,144 l 3,0 0,3 -3,0 z M 144,144 l 3,0 0,3 -3,0 z M 147,144 l 3,0 0,3 -3,0 z M 159,144 l 3,0 0,3 -3,0 z M 165,144 l 3,0 0,3 -3,0 z M 168,144 l 3,0 0,3 -3,0 z M 177,144 l 3,0 0,3 -3,0 z M 183,144 l 3,0 0,3 -3,0 z M 192,144 l 3,0 0,3 -3,0 z M 198,144 l 3,0 0,3 -3,0 z M 3,147 l 3,0 0,3 -3,0 z M 6,147 l 3,0 0,3 -3,0 z M 9,147 l 3,0 0,3 -3,0 z M 21,147 l 3,0 0,3 -3,0 z M 24,147 l 3,0 0,3 -3,0 z M 27,147 l 3,0 0,3 -3,0 z M 30,147 l 3,0 0,3 -3,0 z M 33,147 l 3,0 0,3 -3,0 z M 36,147 l 3,0 0,3 -3,0 z M 39,147 l 3,0 0,3 -3,0 z M 42,147 l 3,0 0,3 -3,0 z M 45,147 l 3,0 0,3 -3,0 z M 48,147 l 3,0 0,3 -3,0 z M 54,147 l 3,0 0,3 -3,0 z M 93,147 l 3,0 0,3 -3,0 z M 99,147 l 3,0 0,3 -3,0 z M 102,147 l 3,0 0,3 -3,0 z M 105,147 l 3,0 0,3 -3,0 z M 108,147 l 3,0 0,3 -3,0 z M 111,147 l 3,0 0,3 -3,0 z M 117,147 l 3,0 0,3 -3,0 z M 120,147 l 3,0 0,3 -3,0 z M 123,147 l 3,0 0,3 -3,0 z M 126,147 l 3,0 0,3 -3,0 z M 135,147 l 3,0 0,3 -3,0 z M 138,147 l 3,0 0,3 -3,0 z M 147,147 l 3,0 0,3 -3,0 z M 153,147 l 3,0 0,3 -3,0 z M 156,147 l 3,0 0,3 -3,0 z M 159,147 l 3,0 0,3 -3,0 z M 168,147 l 3,0 0,3 -3,0 z M 174,147 l 3,0 0,3 -3,0 z M 177,147 l 3,0 0,3 -3,0 z M 186,147 l 3,0 0,3 -3,0 z M 198,147 l 3,0 0,3 -3,0 z M 3,150 l 3,0 0,3 -3,0 z M 6,150 l 3,0 0,3 -3,0 z M 9,150 l 3,0 0,3 -3,0 z M 12,150 l 3,0 0,3 -3,0 z M 15,150 l 3,0 0,3 -3,0 z M 18,150 l 3,0 0,3 -3,0 z M 27,150 l 3,0 0,3 -3,0 z M 30,150 l 3,0 0,3 -3,0 z M 33,150 l 3,0 0,3 -3,0 z M 36,150 l 3,0 0,3 -3,0 z M 42,150 l 3,0 0,3 -3,0 z M 57,150 l 3,0 0,3 -3,0 z M 60,150 l 3,0 0,3 -3,0 z M 63,150 l 3,0 0,3 -3,0 z M 66,150 l 3,0 0,3 -3,0 z M 69,150 l 3,0 0,3 -3,0 z M 72,150 l 3,0 0,3 -3,0 z M 75,150 l 3,0 0,3 -3,0 z M 78,150 l 3,0 0,3 -3,0 z M 84,150 l 3,0 0,3 -3,0 z M 93,150 l 3,0 0,3 -3,0 z M 99,150 l 3,0 0,3 -3,0 z M 102,150 l 3,0 0,3 -3,0 z M 114,150 l 3,0 0,3 -3,0 z M 117,150 l 3,0 0,3 -3,0 z M 120,150 l 3,0 0,3 -3,0 z M 129,150 l 3,0 0,3 -3,0 z M 132,150 l 3,0 0,3 -3,0 z M 135,150 l 3,0 0,3 -3,0 z M 138,150 l 3,0 0,3 -3,0 z M 141,150 l 3,0 0,3 -3,0 z M 144,150 l 3,0 0,3 -3,0 z M 159,150 l 3,0 0,3 -3,0 z M 162,150 l 3,0 0,3 -3,0 z M 174,150 l 3,0 0,3 -3,0 z M 180,150 l 3,0 0,3 -3,0 z M 183,150 l 3,0 0,3 -3,0 z M 186,150 l 3,0 0,3 -3,0 z M 198,150 l 3,0 0,3 -3,0 z M 207,150 l 3,0 0,3 -3,0 z M 6,153 l 3,0 0,3 -3,0 z M 9,153 l 3,0 0,3 -3,0 z M 18,153 l 3,0 0,3 -3,0 z M 21,153 l 3,0 0,3 -3,0 z M 24,153 l 3,0 0,3 -3,0 z M 33,153 l 3,0 0,3 -3,0 z M 36,153 l 3,0 0,3 -3,0 z M 39,153 l 3,0 0,3 -3,0 z M 42,153 l 3,0 0,3 -3,0 z M 48,153 l 3,0 0,3 -3,0 z M 54,153 l 3,0 0,3 -3,0 z M 63,153 l 3,0 0,3 -3,0 z M 69,153 l 3,0 0,3 -3,0 z M 75,153 l 3,0 0,3 -3,0 z M 78,153 l 3,0 0,3 -3,0 z M 81,153 l 3,0 0,3 -3,0 z M 90,153 l 3,0 0,3 -3,0 z M 96,153 l 3,0 0,3 -3,0 z M 99,153 l 3,0 0,3 -3,0 z M 102,153 l 3,0 0,3 -3,0 z M 108,153 l 3,0 0,3 -3,0 z M 111,153 l 3,0 0,3 -3,0 z M 138,153 l 3,0 0,3 -3,0 z M 141,153 l 3,0 0,3 -3,0 z M 156,153 l 3,0 0,3 -3,0 z M 165,153 l 3,0 0,3 -3,0 z M 171,153 l 3,0 0,3 -3,0 z M 174,153 l 3,0 0,3 -3,0 z M 177,153 l 3,0 0,3 -3,0 z M 183,153 l 3,0 0,3 -3,0 z M 186,153 l 3,0 0,3 -3,0 z M 195,153 l 3,0 0,3 -3,0 z M 201,153 l 3,0 0,3 -3,0 z M 204,153 l 3,0 0,3 -3,0 z M 6,156 l 3,0 0,3 -3,0 z M 9,156 l 3,0 0,3 -3,0 z M 12,156 l 3,0 0,3 -3,0 z M 18,156 l 3,0 0,3 -3,0 z M 24,156 l 3,0 0,3 -3,0 z M 27,156 l 3,0 0,3 -3,0 z M 33,156 l 3,0 0,3 -3,0 z M 36,156 l 3,0 0,3 -3,0 z M 48,156 l 3,0 0,3 -3,0 z M 54,156 l 3,0 0,3 -3,0 z M 57,156 l 3,0 0,3 -3,0 z M 60,156 l 3,0 0,3 -3,0 z M 63,156 l 3,0 0,3 -3,0 z M 66,156 l 3,0 0,3 -3,0 z M 69,156 l 3,0 0,3 -3,0 z M 75,156 l 3,0 0,3 -3,0 z M 84,156 l 3,0 0,3 -3,0 z M 93,156 l 3,0 0,3 -3,0 z M 96,156 l 3,0 0,3 -3,0 z M 111,156 l 3,0 0,3 -3,0 z M 114,156 l 3,0 0,3 -3,0 z M 117,156 l 3,0 0,3 -3,0 z M 132,156 l 3,0 0,3 -3,0 z M 138,156 l 3,0 0,3 -3,0 z M 141,156 l 3,0 0,3 -3,0 z M 144,156 l 3,0 0,3 -3,0 z M 147,156 l 3,0 0,3 -3,0 z M 153,156 l 3,0 0,3 -3,0 z M 168,156 l 3,0 0,3 -3,0 z M 174,156 l 3,0 0,3 -3,0 z M 177,156 l 3,0 0,3 -3,0 z M 186,156 l 3,0 0,3 -3,0 z M 195,156 l 3,0 0,3 -3,0 z M 201,156 l 3,0 0,3 -3,0 z M 204,156 l 3,0 0,3 -3,0 z M 9,159 l 3,0 0,3 -3,0 z M 12,159 l 3,0 0,3 -3,0 z M 21,159 l 3,0 0,3 -3,0 z M 24,159 l 3,0 0,3 -3,0 z M 39,159 l 3,0 0,3 -3,0 z M 42,159 l 3,0 0,3 -3,0 z M 45,159 l 3,0 0,3 -3,0 z M 48,159 l 3,0 0,3 -3,0 z M 57,159 l 3,0 0,3 -3,0 z M 60,159 l 3,0 0,3 -3,0 z M 66,159 l 3,0 0,3 -3,0 z M 69,159 l 3,0 0,3 -3,0 z M 75,159 l 3,0 0,3 -3,0 z M 93,159 l 3,0 0,3 -3,0 z M 96,159 l 3,0 0,3 -3,0 z M 102,159 l 3,0 0,3 -3,0 z M 114,159 l 3,0 0,3 -3,0 z M 117,159 l 3,0 0,3 -3,0 z M 120,159 l 3,0 0,3 -3,0 z M 129,159 l 3,0 0,3 -3,0 z M 132,159 l 3,0 0,3 -3,0 z M 135,159 l 3,0 0,3 -3,0 z M 150,159 l 3,0 0,3 -3,0 z M 153,159 l 3,0 0,3 -3,0 z M 156,159 l 3,0 0,3 -3,0 z M 159,159 l 3,0 0,3 -3,0 z M 162,159 l 3,0 0,3 -3,0 z M 168,159 l 3,0 0,3 -3,0 z M 171,159 l 3,0 0,3 -3,0 z M 183,159 l 3,0 0,3 -3,0 z M 192,159 l 3,0 0,3 -3,0 z M 198,159 l 3,0 0,3 -3,0 z M 201,159 l 3,0 0,3 -3,0 z M 3,162 l 3,0 0,3 -3,0 z M 6,162 l 3,0 0,3 -3,0 z M 12,162 l 3,0 0,3 -3,0 z M 15,162 l 3,0 0,3 -3,0 z M 24,162 l 3,0 0,3 -3,0 z M 27,162 l 3,0 0,3 -3,0 z M 36,162 l 3,0 0,3 -3,0 z M 39,162 l 3,0 0,3 -3,0 z M 42,162 l 3,0 0,3 -3,0 z M 51,162 l 3,0 0,3 -3,0 z M 72,162 l 3,0 0,3 -3,0 z M 75,162 l 3,0 0,3 -3,0 z M 81,162 l 3,0 0,3 -3,0 z M 84,162 l 3,0 0,3 -3,0 z M 87,162 l 3,0 0,3 -3,0 z M 90,162 l 3,0 0,3 -3,0 z M 93,162 l 3,0 0,3 -3,0 z M 114,162 l 3,0 0,3 -3,0 z M 117,162 l 3,0 0,3 -3,0 z M 120,162 l 3,0 0,3 -3,0 z M 129,162 l 3,0 0,3 -3,0 z M 135,162 l 3,0 0,3 -3,0 z M 144,162 l 3,0 0,3 -3,0 z M 150,162 l 3,0 0,3 -3,0 z M 153,162 l 3,0 0,3 -3,0 z M 159,162 l 3,0 0,3 -3,0 z M 165,162 l 3,0 0,3 -3,0 z M 168,162 l 3,0 0,3 -3,0 z M 189,162 l 3,0 0,3 -3,0 z M 201,162 l 3,0 0,3 -3,0 z M 204,162 l 3,0 0,3 -3,0 z M 6,165 l 3,0 0,3 -3,0 z M 9,165 l 3,0 0,3 -3,0 z M 18,165 l 3,0 0,3 -3,0 z M 21,165 l 3,0 0,3 -3,0 z M 24,165 l 3,0 0,3 -3,0 z M 30,165 l 3,0 0,3 -3,0 z M 33,165 l 3,0 0,3 -3,0 z M 36,165 l 3,0 0,3 -3,0 z M 45,165 l 3,0 0,3 -3,0 z M 48,165 l 3,0 0,3 -3,0 z M 51,165 l 3,0 0,3 -3,0 z M 54,165 l 3,0 0,3 -3,0 z M 57,165 l 3,0 0,3 -3,0 z M 60,165 l 3,0 0,3 -3,0 z M 69,165 l 3,0 0,3 -3,0 z M 72,165 l 3,0 0,3 -3,0 z M 75,165 l 3,0 0,3 -3,0 z M 78,165 l 3,0 0,3 -3,0 z M 81,165 l 3,0 0,3 -3,0 z M 84,165 l 3,0 0,3 -3,0 z M 93,165 l 3,0 0,3 -3,0 z M 96,165 l 3,0 0,3 -3,0 z M 108,165 l 3,0 0,3 -3,0 z M 129,165 l 3,0 0,3 -3,0 z M 135,165 l 3,0 0,3 -3,0 z M 150,165 l 3,0 0,3 -3,0 z M 156,165 l 3,0 0,3 -3,0 z M 159,165 l 3,0 0,3 -3,0 z M 162,165 l 3,0 0,3 -3,0 z M 165,165 l 3,0 0,3 -3,0 z M 171,165 l 3,0 0,3 -3,0 z M 195,165 l 3,0 0,3 -3,0 z M 201,165 l 3,0 0,3 -3,0 z M 204,165 l 3,0 0,3 -3,0 z M 6,168 l 3,0 0,3 -3,0 z M 15,168 l 3,0 0,3 -3,0 z M 36,168 l 3,0 0,3 -3,0 z M 42,168 l 3,0 0,3 -3,0 z M 45,168 l 3,0 0,3 -3,0 z M 48,168 l 3,0 0,3 -3,0 z M 51,168 l 3,0 0,3 -3,0 z M 57,168 l 3,0 0,3 -3,0 z M 60,168 l 3,0 0,3 -3,0 z M 63,168 l 3,0 0,3 -3,0 z M 66,168 l 3,0 0,3 -3,0 z M 69,168 l 3,0 0,3 -3,0 z M 75,168 l 3,0 0,3 -3,0 z M 78,168 l 3,0 0,3 -3,0 z M 87,168 l 3,0 0,3 -3,0 z M 90,168 l 3,0 0,3 -3,0 z M 93,168 l 3,0 0,3 -3,0 z M 102,168 l 3,0 0,3 -3,0 z M 114,168 l 3,0 0,3 -3,0 z M 129,168 l 3,0 0,3 -3,0 z M 132,168 l 3,0 0,3 -3,0 z M 144,168 l 3,0 0,3 -3,0 z M 147,168 l 3,0 0,3 -3,0 z M 156,168 l 3,0 0,3 -3,0 z M 159,168 l 3,0 0,3 -3,0 z M 162,168 l 3,0 0,3 -3,0 z M 165,168 l 3,0 0,3 -3,0 z M 174,168 l 3,0 0,3 -3,0 z M 183,168 l 3,0 0,3 -3,0 z M 201,168 l 3,0 0,3 -3,0 z M 204,168 l 3,0 0,3 -3,0 z M 6,171 l 3,0 0,3 -3,0 z M 9,171 l 3,0 0,3 -3,0 z M 21,171 l 3,0 0,3 -3,0 z M 24,171 l 3,0 0,3 -3,0 z M 27,171 l 3,0 0,3 -3,0 z M 36,171 l 3,0 0,3 -3,0 z M 39,171 l 3,0 0,3 -3,0 z M 48,171 l 3,0 0,3 -3,0 z M 54,171 l 3,0 0,3 -3,0 z M 57,171 l 3,0 0,3 -3,0 z M 63,171 l 3,0 0,3 -3,0 z M 69,171 l 3,0 0,3 -3,0 z M 72,171 l 3,0 0,3 -3,0 z M 75,171 l 3,0 0,3 -3,0 z M 87,171 l 3,0 0,3 -3,0 z M 93,171 l 3,0 0,3 -3,0 z M 96,171 l 3,0 0,3 -3,0 z M 102,171 l 3,0 0,3 -3,0 z M 105,171 l 3,0 0,3 -3,0 z M 108,171 l 3,0 0,3 -3,0 z M 111,171 l 3,0 0,3 -3,0 z M 117,171 l 3,0 0,3 -3,0 z M 120,171 l 3,0 0,3 -3,0 z M 123,171 l 3,0 0,3 -3,0 z M 138,171 l 3,0 0,3 -3,0 z M 144,171 l 3,0 0,3 -3,0 z M 147,171 l 3,0 0,3 -3,0 z M 150,171 l 3,0 0,3 -3,0 z M 156,171 l 3,0 0,3 -3,0 z M 168,171 l 3,0 0,3 -3,0 z M 174,171 l 3,0 0,3 -3,0 z M 180,171 l 3,0 0,3 -3,0 z M 183,171 l 3,0 0,3 -3,0 z M 186,171 l 3,0 0,3 -3,0 z M 189,171 l 3,0 0,3 -3,0 z M 198,171 l 3,0 0,3 -3,0 z M 201,171 l 3,0 0,3 -3,0 z M 207,171 l 3,0 0,3 -3,0 z M 3,174 l 3,0 0,3 -3,0 z M 6,174 l 3,0 0,3 -3,0 z M 12,174 l 3,0 0,3 -3,0 z M 15,174 l 3,0 0,3 -3,0 z M 33,174 l 3,0 0,3 -3,0 z M 36,174 l 3,0 0,3 -3,0 z M 39,174 l 3,0 0,3 -3,0 z M 42,174 l 3,0 0,3 -3,0 z M 45,174 l 3,0 0,3 -3,0 z M 51,174 l 3,0 0,3 -3,0 z M 54,174 l 3,0 0,3 -3,0 z M 57,174 l 3,0 0,3 -3,0 z M 60,174 l 3,0 0,3 -3,0 z M 66,174 l 3,0 0,3 -3,0 z M 75,174 l 3,0 0,3 -3,0 z M 78,174 l 3,0 0,3 -3,0 z M 81,174 l 3,0 0,3 -3,0 z M 84,174 l 3,0 0,3 -3,0 z M 90,174 l 3,0 0,3 -3,0 z M 93,174 l 3,0 0,3 -3,0 z M 96,174 l 3,0 0,3 -3,0 z M 108,174 l 3,0 0,3 -3,0 z M 117,174 l 3,0 0,3 -3,0 z M 120,174 l 3,0 0,3 -3,0 z M 132,174 l 3,0 0,3 -3,0 z M 141,174 l 3,0 0,3 -3,0 z M 156,174 l 3,0 0,3 -3,0 z M 159,174 l 3,0 0,3 -3,0 z M 162,174 l 3,0 0,3 -3,0 z M 165,174 l 3,0 0,3 -3,0 z M 174,174 l 3,0 0,3 -3,0 z M 180,174 l 3,0 0,3 -3,0 z M 189,174 l 3,0 0,3 -3,0 z M 192,174 l 3,0 0,3 -3,0 z M 195,174 l 3,0 0,3 -3,0 z M 204,174 l 3,0 0,3 -3,0 z M 3,177 l 3,0 0,3 -3,0 z M 9,177 l 3,0 0,3 -3,0 z M 15,177 l 3,0 0,3 -3,0 z M 18,177 l 3,0 0,3 -3,0 z M 21,177 l 3,0 0,3 -3,0 z M 33,177 l 3,0 0,3 -3,0 z M 36,177 l 3,0 0,3 -3,0 z M 39,177 l 3,0 0,3 -3,0 z M 48,177 l 3,0 0,3 -3,0 z M 51,177 l 3,0 0,3 -3,0 z M 60,177 l 3,0 0,3 -3,0 z M 63,177 l 3,0 0,3 -3,0 z M 69,177 l 3,0 0,3 -3,0 z M 72,177 l 3,0 0,3 -3,0 z M 75,177 l 3,0 0,3 -3,0 z M 81,177 l 3,0 0,3 -3,0 z M 90,177 l 3,0 0,3 -3,0 z M 96,177 l 3,0 0,3 -3,0 z M 102,177 l 3,0 0,3 -3,0 z M 114,177 l 3,0 0,3 -3,0 z M 126,177 l 3,0 0,3 -3,0 z M 129,177 l 3,0 0,3 -3,0 z M 138,177 l 3,0 0,3 -3,0 z M 144,177 l 3,0 0,3 -3,0 z M 147,177 l 3,0 0,3 -3,0 z M 156,177 l 3,0 0,3 -3,0 z M 162,177 l 3,0 0,3 -3,0 z M 165,177 l 3,0 0,3 -3,0 z M 174,177 l 3,0 0,3 -3,0 z M 180,177 l 3,0 0,3 -3,0 z M 186,177 l 3,0 0,3 -3,0 z M 189,177 l 3,0 0,3 -3,0 z M 195,177 l 3,0 0,3 -3,0 z M 198,177 l 3,0 0,3 -3,0 z M 201,177 l 3,0 0,3 -3,0 z M 204,177 l 3,0 0,3 -3,0 z M 3,180 l 3,0 0,3 -3,0 z M 24,180 l 3,0 0,3 -3,0 z M 27,180 l 3,0 0,3 -3,0 z M 30,180 l 3,0 0,3 -3,0 z M 33,180 l 3,0 0,3 -3,0 z M 36,180 l 3,0 0,3 -3,0 z M 39,180 l 3,0 0,3 -3,0 z M 51,180 l 3,0 0,3 -3,0 z M 54,180 l 3,0 0,3 -3,0 z M 57,180 l 3,0 0,3 -3,0 z M 60,180 l 3,0 0,3 -3,0 z M 63,180 l 3,0 0,3 -3,0 z M 66,180 l 3,0 0,3 -3,0 z M 69,180 l 3,0 0,3 -3,0 z M 75,180 l 3,0 0,3 -3,0 z M 78,180 l 3,0 0,3 -3,0 z M 81,180 l 3,0 0,3 -3,0 z M 84,180 l 3,0 0,3 -3,0 z M 93,180 l 3,0 0,3 -3,0 z M 102,180 l 3,0 0,3 -3,0 z M 108,180 l 3,0 0,3 -3,0 z M 120,180 l 3,0 0,3 -3,0 z M 138,180 l 3,0 0,3 -3,0 z M 144,180 l 3,0 0,3 -3,0 z M 147,180 l 3,0 0,3 -3,0 z M 153,180 l 3,0 0,3 -3,0 z M 162,180 l 3,0 0,3 -3,0 z M 177,180 l 3,0 0,3 -3,0 z M 180,180 l 3,0 0,3 -3,0 z M 192,180 l 3,0 0,3 -3,0 z M 195,180 l 3,0 0,3 -3,0 z M 198,180 l 3,0 0,3 -3,0 z M 204,180 l 3,0 0,3 -3,0 z M 3,183 l 3,0 0,3 -3,0 z M 12,183 l 3,0 0,3 -3,0 z M 15,183 l 3,0 0,3 -3,0 z M 21,183 l 3,0 0,3 -3,0 z M 24,183 l 3,0 0,3 -3,0 z M 27,183 l 3,0 0,3 -3,0 z M 39,183 l 3,0 0,3 -3,0 z M 45,183 l 3,0 0,3 -3,0 z M 54,183 l 3,0 0,3 -3,0 z M 57,183 l 3,0 0,3 -3,0 z M 63,183 l 3,0 0,3 -3,0 z M 66,183 l 3,0 0,3 -3,0 z M 69,183 l 3,0 0,3 -3,0 z M 72,183 l 3,0 0,3 -3,0 z M 75,183 l 3,0 0,3 -3,0 z M 78,183 l 3,0 0,3 -3,0 z M 84,183 l 3,0 0,3 -3,0 z M 90,183 l 3,0 0,3 -3,0 z M 99,183 l 3,0 0,3 -3,0 z M 102,183 l 3,0 0,3 -3,0 z M 105,183 l 3,0 0,3 -3,0 z M 108,183 l 3,0 0,3 -3,0 z M 111,183 l 3,0 0,3 -3,0 z M 114,183 l 3,0 0,3 -3,0 z M 117,183 l 3,0 0,3 -3,0 z M 123,183 l 3,0 0,3 -3,0 z M 126,183 l 3,0 0,3 -3,0 z M 138,183 l 3,0 0,3 -3,0 z M 141,183 l 3,0 0,3 -3,0 z M 144,183 l 3,0 0,3 -3,0 z M 159,183 l 3,0 0,3 -3,0 z M 165,183 l 3,0 0,3 -3,0 z M 171,183 l 3,0 0,3 -3,0 z M 174,183 l 3,0 0,3 -3,0 z M 183,183 l 3,0 0,3 -3,0 z M 186,183 l 3,0 0,3 -3,0 z M 189,183 l 3,0 0,3 -3,0 z M 192,183 l 3,0 0,3 -3,0 z M 195,183 l 3,0 0,3 -3,0 z M 201,183 l 3,0 0,3 -3,0 z M 204,183 l 3,0 0,3 -3,0 z M 207,183 l 3,0 0,3 -3,0 z M 27,186 l 3,0 0,3 -3,0 z M 30,186 l 3,0 0,3 -3,0 z M 42,186 l 3,0 0,3 -3,0 z M 51,186 l 3,0 0,3 -3,0 z M 54,186 l 3,0 0,3 -3,0 z M 57,186 l 3,0 0,3 -3,0 z M 66,186 l 3,0 0,3 -3,0 z M 84,186 l 3,0 0,3 -3,0 z M 87,186 l 3,0 0,3 -3,0 z M 93,186 l 3,0 0,3 -3,0 z M 99,186 l 3,0 0,3 -3,0 z M 111,186 l 3,0 0,3 -3,0 z M 132,186 l 3,0 0,3 -3,0 z M 135,186 l 3,0 0,3 -3,0 z M 144,186 l 3,0 0,3 -3,0 z M 150,186 l 3,0 0,3 -3,0 z M 153,186 l 3,0 0,3 -3,0 z M 165,186 l 3,0 0,3 -3,0 z M 171,186 l 3,0 0,3 -3,0 z M 177,186 l 3,0 0,3 -3,0 z M 180,186 l 3,0 0,3 -3,0 z M 183,186 l 3,0 0,3 -3,0 z M 195,186 l 3,0 0,3 -3,0 z M 198,186 l 3,0 0,3 -3,0 z M 3,189 l 3,0 0,3 -3,0 z M 6,189 l 3,0 0,3 -3,0 z M 9,189 l 3,0 0,3 -3,0 z M 12,189 l 3,0 0,3 -3,0 z M 15,189 l 3,0 0,3 -3,0 z M 18,189 l 3,0 0,3 -3,0 z M 21,189 l 3,0 0,3 -3,0 z M 27,189 l 3,0 0,3 -3,0 z M 30,189 l 3,0 0,3 -3,0 z M 33,189 l 3,0 0,3 -3,0 z M 36,189 l 3,0 0,3 -3,0 z M 42,189 l 3,0 0,3 -3,0 z M 51,189 l 3,0 0,3 -3,0 z M 57,189 l 3,0 0,3 -3,0 z M 60,189 l 3,0 0,3 -3,0 z M 63,189 l 3,0 0,3 -3,0 z M 66,189 l 3,0 0,3 -3,0 z M 72,189 l 3,0 0,3 -3,0 z M 78,189 l 3,0 0,3 -3,0 z M 81,189 l 3,0 0,3 -3,0 z M 84,189 l 3,0 0,3 -3,0 z M 87,189 l 3,0 0,3 -3,0 z M 93,189 l 3,0 0,3 -3,0 z M 99,189 l 3,0 0,3 -3,0 z M 105,189 l 3,0 0,3 -3,0 z M 111,189 l 3,0 0,3 -3,0 z M 114,189 l 3,0 0,3 -3,0 z M 120,189 l 3,0 0,3 -3,0 z M 123,189 l 3,0 0,3 -3,0 z M 126,189 l 3,0 0,3 -3,0 z M 129,189 l 3,0 0,3 -3,0 z M 150,189 l 3,0 0,3 -3,0 z M 156,189 l 3,0 0,3 -3,0 z M 159,189 l 3,0 0,3 -3,0 z M 162,189 l 3,0 0,3 -3,0 z M 165,189 l 3,0 0,3 -3,0 z M 168,189 l 3,0 0,3 -3,0 z M 171,189 l 3,0 0,3 -3,0 z M 174,189 l 3,0 0,3 -3,0 z M 183,189 l 3,0 0,3 -3,0 z M 189,189 l 3,0 0,3 -3,0 z M 195,189 l 3,0 0,3 -3,0 z M 3,192 l 3,0 0,3 -3,0 z M 21,192 l 3,0 0,3 -3,0 z M 33,192 l 3,0 0,3 -3,0 z M 39,192 l 3,0 0,3 -3,0 z M 48,192 l 3,0 0,3 -3,0 z M 51,192 l 3,0 0,3 -3,0 z M 54,192 l 3,0 0,3 -3,0 z M 57,192 l 3,0 0,3 -3,0 z M 60,192 l 3,0 0,3 -3,0 z M 63,192 l 3,0 0,3 -3,0 z M 69,192 l 3,0 0,3 -3,0 z M 81,192 l 3,0 0,3 -3,0 z M 84,192 l 3,0 0,3 -3,0 z M 93,192 l 3,0 0,3 -3,0 z M 96,192 l 3,0 0,3 -3,0 z M 99,192 l 3,0 0,3 -3,0 z M 111,192 l 3,0 0,3 -3,0 z M 114,192 l 3,0 0,3 -3,0 z M 117,192 l 3,0 0,3 -3,0 z M 129,192 l 3,0 0,3 -3,0 z M 132,192 l 3,0 0,3 -3,0 z M 138,192 l 3,0 0,3 -3,0 z M 150,192 l 3,0 0,3 -3,0 z M 159,192 l 3,0 0,3 -3,0 z M 168,192 l 3,0 0,3 -3,0 z M 171,192 l 3,0 0,3 -3,0 z M 177,192 l 3,0 0,3 -3,0 z M 183,192 l 3,0 0,3 -3,0 z M 195,192 l 3,0 0,3 -3,0 z M 198,192 l 3,0 0,3 -3,0 z M 201,192 l 3,0 0,3 -3,0 z M 204,192 l 3,0 0,3 -3,0 z M 3,195 l 3,0 0,3 -3,0 z M 9,195 l 3,0 0,3 -3,0 z M 12,195 l 3,0 0,3 -3,0 z M 15,195 l 3,0 0,3 -3,0 z M 21,195 l 3,0 0,3 -3,0 z M 27,195 l 3,0 0,3 -3,0 z M 33,195 l 3,0 0,3 -3,0 z M 36,195 l 3,0 0,3 -3,0 z M 42,195 l 3,0 0,3 -3,0 z M 57,195 l 3,0 0,3 -3,0 z M 60,195 l 3,0 0,3 -3,0 z M 75,195 l 3,0 0,3 -3,0 z M 78,195 l 3,0 0,3 -3,0 z M 81,195 l 3,0 0,3 -3,0 z M 84,195 l 3,0 0,3 -3,0 z M 93,195 l 3,0 0,3 -3,0 z M 96,195 l 3,0 0,3 -3,0 z M 99,195 l 3,0 0,3 -3,0 z M 102,195 l 3,0 0,3 -3,0 z M 105,195 l 3,0 0,3 -3,0 z M 108,195 l 3,0 0,3 -3,0 z M 111,195 l 3,0 0,3 -3,0 z M 117,195 l 3,0 0,3 -3,0 z M 132,195 l 3,0 0,3 -3,0 z M 138,195 l 3,0 0,3 -3,0 z M 141,195 l 3,0 0,3 -3,0 z M 159,195 l 3,0 0,3 -3,0 z M 168,195 l 3,0 0,3 -3,0 z M 174,195 l 3,0 0,3 -3,0 z M 183,195 l 3,0 0,3 -3,0 z M 186,195 l 3,0 0,3 -3,0 z M 189,195 l 3,0 0,3 -3,0 z M 192,195 l 3,0 0,3 -3,0 z M 195,195 l 3,0 0,3 -3,0 z M 198,195 l 3,0 0,3 -3,0 z M 204,195 l 3,0 0,3 -3,0 z M 207,195 l 3,0 0,3 -3,0 z M 3,198 l 3,0 0,3 -3,0 z M 9,198 l 3,0 0,3 -3,0 z M 12,198 l 3,0 0,3 -3,0 z M 15,198 l 3,0 0,3 -3,0 z M 21,198 l 3,0 0,3 -3,0 z M 27,198 l 3,0 0,3 -3,0 z M 30,198 l 3,0 0,3 -3,0 z M 33,198 l 3,0 0,3 -3,0 z M 36,198 l 3,0 0,3 -3,0 z M 42,198 l 3,0 0,3 -3,0 z M 54,198 l 3,0 0,3 -3,0 z M 57,198 l 3,0 0,3 -3,0 z M 66,198 l 3,0 0,3 -3,0 z M 69,198 l 3,0 0,3 -3,0 z M 72,198 l 3,0 0,3 -3,0 z M 75,198 l 3,0 0,3 -3,0 z M 87,198 l 3,0 0,3 -3,0 z M 99,198 l 3,0 0,3 -3,0 z M 102,198 l 3,0 0,3 -3,0 z M 117,198 l 3,0 0,3 -3,0 z M 129,198 l 3,0 0,3 -3,0 z M 138,198 l 3,0 0,3 -3,0 z M 147,198 l 3,0 0,3 -3,0 z M 150,198 l 3,0 0,3 -3,0 z M 153,198 l 3,0 0,3 -3,0 z M 156,198 l 3,0 0,3 -3,0 z M 159,198 l 3,0 0,3 -3,0 z M 180,198 l 3,0 0,3 -3,0 z M 183,198 l 3,0 0,3 -3,0 z M 186,198 l 3,0 0,3 -3,0 z M 192,198 l 3,0 0,3 -3,0 z M 195,198 l 3,0 0,3 -3,0 z M 3,201 l 3,0 0,3 -3,0 z M 9,201 l 3,0 0,3 -3,0 z M 12,201 l 3,0 0,3 -3,0 z M 15,201 l 3,0 0,3 -3,0 z M 21,201 l 3,0 0,3 -3,0 z M 27,201 l 3,0 0,3 -3,0 z M 33,201 l 3,0 0,3 -3,0 z M 36,201 l 3,0 0,3 -3,0 z M 39,201 l 3,0 0,3 -3,0 z M 42,201 l 3,0 0,3 -3,0 z M 45,201 l 3,0 0,3 -3,0 z M 54,201 l 3,0 0,3 -3,0 z M 57,201 l 3,0 0,3 -3,0 z M 60,201 l 3,0 0,3 -3,0 z M 66,201 l 3,0 0,3 -3,0 z M 69,201 l 3,0 0,3 -3,0 z M 72,201 l 3,0 0,3 -3,0 z M 75,201 l 3,0 0,3 -3,0 z M 78,201 l 3,0 0,3 -3,0 z M 81,201 l 3,0 0,3 -3,0 z M 84,201 l 3,0 0,3 -3,0 z M 87,201 l 3,0 0,3 -3,0 z M 96,201 l 3,0 0,3 -3,0 z M 99,201 l 3,0 0,3 -3,0 z M 102,201 l 3,0 0,3 -3,0 z M 108,201 l 3,0 0,3 -3,0 z M 111,201 l 3,0 0,3 -3,0 z M 114,201 l 3,0 0,3 -3,0 z M 129,201 l 3,0 0,3 -3,0 z M 132,201 l 3,0 0,3 -3,0 z M 138,201 l 3,0 0,3 -3,0 z M 147,201 l 3,0 0,3 -3,0 z M 150,201 l 3,0 0,3 -3,0 z M 165,201 l 3,0 0,3 -3,0 z M 174,201 l 3,0 0,3 -3,0 z M 198,201 l 3,0 0,3 -3,0 z M 201,201 l 3,0 0,3 -3,0 z M 3,204 l 3,0 0,3 -3,0 z M 21,204 l 3,0 0,3 -3,0 z M 27,204 l 3,0 0,3 -3,0 z M 36,204 l 3,0 0,3 -3,0 z M 48,204 l 3,0 0,3 -3,0 z M 51,204 l 3,0 0,3 -3,0 z M 54,204 l 3,0 0,3 -3,0 z M 66,204 l 3,0 0,3 -3,0 z M 69,204 l 3,0 0,3 -3,0 z M 75,204 l 3,0 0,3 -3,0 z M 78,204 l 3,0 0,3 -3,0 z M 87,204 l 3,0 0,3 -3,0 z M 90,204 l 3,0 0,3 -3,0 z M 93,204 l 3,0 0,3 -3,0 z M 102,204 l 3,0 0,3 -3,0 z M 105,204 l 3,0 0,3 -3,0 z M 114,204 l 3,0 0,3 -3,0 z M 117,204 l 3,0 0,3 -3,0 z M 123,204 l 3,0 0,3 -3,0 z M 126,204 l 3,0 0,3 -3,0 z M 129,204 l 3,0 0,3 -3,0 z M 132,204 l 3,0 0,3 -3,0 z M 138,204 l 3,0 0,3 -3,0 z M 141,204 l 3,0 0,3 -3,0 z M 147,204 l 3,0 0,3 -3,0 z M 153,204 l 3,0 0,3 -3,0 z M 168,204 l 3,0 0,3 -3,0 z M 174,204 l 3,0 0,3 -3,0 z M 177,204 l 3,0 0,3 -3,0 z M 183,204 l 3,0 0,3 -3,0 z M 198,204 l 3,0 0,3 -3,0 z M 201,204 l 3,0 0,3 -3,0 z M 207,204 l 3,0 0,3 -3,0 z M 3,207 l 3,0 0,3 -3,0 z M 6,207 l 3,0 0,3 -3,0 z M 9,207 l 3,0 0,3 -3,0 z M 12,207 l 3,0 0,3 -3,0 z M 15,207 l 3,0 0,3 -3,0 z M 18,207 l 3,0 0,3 -3,0 z M 21,207 l 3,0 0,3 -3,0 z M 27,207 l 3,0 0,3 -3,0 z M 42,207 l 3,0 0,3 -3,0 z M 45,207 l 3,0 0,3 -3,0 z M 60,207 l 3,0 0,3 -3,0 z M 66,207 l 3,0 0,3 -3,0 z M 75,207 l 3,0 0,3 -3,0 z M 81,207 l 3,0 0,3 -3,0 z M 90,207 l 3,0 0,3 -3,0 z M 96,207 l 3,0 0,3 -3,0 z M 99,207 l 3,0 0,3 -3,0 z M 105,207 l 3,0 0,3 -3,0 z M 108,207 l 3,0 0,3 -3,0 z M 117,207 l 3,0 0,3 -3,0 z M 120,207 l 3,0 0,3 -3,0 z M 129,207 l 3,0 0,3 -3,0 z M 132,207 l 3,0 0,3 -3,0 z M 135,207 l 3,0 0,3 -3,0 z M 141,207 l 3,0 0,3 -3,0 z M 144,207 l 3,0 0,3 -3,0 z M 147,207 l 3,0 0,3 -3,0 z M 150,207 l 3,0 0,3 -3,0 z M 153,207 l 3,0 0,3 -3,0 z M 171,207 l 3,0 0,3 -3,0 z M 177,207 l 3,0 0,3 -3,0 z M 180,207 l 3,0 0,3 -3,0 z M 183,207 l 3,0 0,3 -3,0 z M 186,207 l 3,0 0,3 -3,0 z M 201,207 l 3,0 0,3 -3,0 z " />
	</g>
</svg>
