<?xml version="1.0" standalone="no"?>
<svg xmlns="http://www.w3.org/2000/svg" version="1.1" width="236" height="236">
	<!-- Created with https://api.qrserver.com (QR Code API, see goQR.me/api for information) -->
	<title>QR Code</title>
	<desc>BEGIN:VCARD
N:Yeo;Kheng Meng
EMAIL:yeokhengmeng@spgroup.com.sg
EMAIL:yeokm1@gmail.com
ORG:SP Group Ltd
TEL;CELL:+65 97390391
TITLE:IoT Engineer
URL;WORK:http://spgroup.com.sg
URL:http://yeokhengmeng.com
URL:https://www.linkedin.com/in/yeokhengmeng
END:VCARD</desc>
	<rect style="fill:rgb(255, 255, 255);fill-opacity:1" x="0" y="0" width="236" height="236" />
	<g id="elements">
		<path style="fill:rgb(0, 0, 0)" d="M 4,4 l 4,0 0,4 -4,0 z M 8,4 l 4,0 0,4 -4,0 z M 12,4 l 4,0 0,4 -4,0 z M 16,4 l 4,0 0,4 -4,0 z M 20,4 l 4,0 0,4 -4,0 z M 24,4 l 4,0 0,4 -4,0 z M 28,4 l 4,0 0,4 -4,0 z M 40,4 l 4,0 0,4 -4,0 z M 44,4 l 4,0 0,4 -4,0 z M 52,4 l 4,0 0,4 -4,0 z M 64,4 l 4,0 0,4 -4,0 z M 80,4 l 4,0 0,4 -4,0 z M 88,4 l 4,0 0,4 -4,0 z M 92,4 l 4,0 0,4 -4,0 z M 96,4 l 4,0 0,4 -4,0 z M 100,4 l 4,0 0,4 -4,0 z M 108,4 l 4,0 0,4 -4,0 z M 112,4 l 4,0 0,4 -4,0 z M 116,4 l 4,0 0,4 -4,0 z M 152,4 l 4,0 0,4 -4,0 z M 172,4 l 4,0 0,4 -4,0 z M 180,4 l 4,0 0,4 -4,0 z M 188,4 l 4,0 0,4 -4,0 z M 192,4 l 4,0 0,4 -4,0 z M 204,4 l 4,0 0,4 -4,0 z M 208,4 l 4,0 0,4 -4,0 z M 212,4 l 4,0 0,4 -4,0 z M 216,4 l 4,0 0,4 -4,0 z M 220,4 l 4,0 0,4 -4,0 z M 224,4 l 4,0 0,4 -4,0 z M 228,4 l 4,0 0,4 -4,0 z M 4,8 l 4,0 0,4 -4,0 z M 28,8 l 4,0 0,4 -4,0 z M 36,8 l 4,0 0,4 -4,0 z M 40,8 l 4,0 0,4 -4,0 z M 60,8 l 4,0 0,4 -4,0 z M 64,8 l 4,0 0,4 -4,0 z M 72,8 l 4,0 0,4 -4,0 z M 76,8 l 4,0 0,4 -4,0 z M 80,8 l 4,0 0,4 -4,0 z M 84,8 l 4,0 0,4 -4,0 z M 100,8 l 4,0 0,4 -4,0 z M 108,8 l 4,0 0,4 -4,0 z M 112,8 l 4,0 0,4 -4,0 z M 116,8 l 4,0 0,4 -4,0 z M 124,8 l 4,0 0,4 -4,0 z M 128,8 l 4,0 0,4 -4,0 z M 132,8 l 4,0 0,4 -4,0 z M 136,8 l 4,0 0,4 -4,0 z M 144,8 l 4,0 0,4 -4,0 z M 152,8 l 4,0 0,4 -4,0 z M 156,8 l 4,0 0,4 -4,0 z M 164,8 l 4,0 0,4 -4,0 z M 168,8 l 4,0 0,4 -4,0 z M 176,8 l 4,0 0,4 -4,0 z M 184,8 l 4,0 0,4 -4,0 z M 192,8 l 4,0 0,4 -4,0 z M 204,8 l 4,0 0,4 -4,0 z M 228,8 l 4,0 0,4 -4,0 z M 4,12 l 4,0 0,4 -4,0 z M 12,12 l 4,0 0,4 -4,0 z M 16,12 l 4,0 0,4 -4,0 z M 20,12 l 4,0 0,4 -4,0 z M 28,12 l 4,0 0,4 -4,0 z M 44,12 l 4,0 0,4 -4,0 z M 48,12 l 4,0 0,4 -4,0 z M 56,12 l 4,0 0,4 -4,0 z M 64,12 l 4,0 0,4 -4,0 z M 88,12 l 4,0 0,4 -4,0 z M 100,12 l 4,0 0,4 -4,0 z M 104,12 l 4,0 0,4 -4,0 z M 108,12 l 4,0 0,4 -4,0 z M 112,12 l 4,0 0,4 -4,0 z M 116,12 l 4,0 0,4 -4,0 z M 120,12 l 4,0 0,4 -4,0 z M 132,12 l 4,0 0,4 -4,0 z M 140,12 l 4,0 0,4 -4,0 z M 144,12 l 4,0 0,4 -4,0 z M 152,12 l 4,0 0,4 -4,0 z M 156,12 l 4,0 0,4 -4,0 z M 160,12 l 4,0 0,4 -4,0 z M 164,12 l 4,0 0,4 -4,0 z M 184,12 l 4,0 0,4 -4,0 z M 188,12 l 4,0 0,4 -4,0 z M 192,12 l 4,0 0,4 -4,0 z M 204,12 l 4,0 0,4 -4,0 z M 212,12 l 4,0 0,4 -4,0 z M 216,12 l 4,0 0,4 -4,0 z M 220,12 l 4,0 0,4 -4,0 z M 228,12 l 4,0 0,4 -4,0 z M 4,16 l 4,0 0,4 -4,0 z M 12,16 l 4,0 0,4 -4,0 z M 16,16 l 4,0 0,4 -4,0 z M 20,16 l 4,0 0,4 -4,0 z M 28,16 l 4,0 0,4 -4,0 z M 36,16 l 4,0 0,4 -4,0 z M 40,16 l 4,0 0,4 -4,0 z M 44,16 l 4,0 0,4 -4,0 z M 60,16 l 4,0 0,4 -4,0 z M 120,16 l 4,0 0,4 -4,0 z M 124,16 l 4,0 0,4 -4,0 z M 128,16 l 4,0 0,4 -4,0 z M 136,16 l 4,0 0,4 -4,0 z M 140,16 l 4,0 0,4 -4,0 z M 148,16 l 4,0 0,4 -4,0 z M 156,16 l 4,0 0,4 -4,0 z M 164,16 l 4,0 0,4 -4,0 z M 168,16 l 4,0 0,4 -4,0 z M 172,16 l 4,0 0,4 -4,0 z M 180,16 l 4,0 0,4 -4,0 z M 192,16 l 4,0 0,4 -4,0 z M 204,16 l 4,0 0,4 -4,0 z M 212,16 l 4,0 0,4 -4,0 z M 216,16 l 4,0 0,4 -4,0 z M 220,16 l 4,0 0,4 -4,0 z M 228,16 l 4,0 0,4 -4,0 z M 4,20 l 4,0 0,4 -4,0 z M 12,20 l 4,0 0,4 -4,0 z M 16,20 l 4,0 0,4 -4,0 z M 20,20 l 4,0 0,4 -4,0 z M 28,20 l 4,0 0,4 -4,0 z M 40,20 l 4,0 0,4 -4,0 z M 52,20 l 4,0 0,4 -4,0 z M 64,20 l 4,0 0,4 -4,0 z M 76,20 l 4,0 0,4 -4,0 z M 80,20 l 4,0 0,4 -4,0 z M 84,20 l 4,0 0,4 -4,0 z M 88,20 l 4,0 0,4 -4,0 z M 96,20 l 4,0 0,4 -4,0 z M 100,20 l 4,0 0,4 -4,0 z M 104,20 l 4,0 0,4 -4,0 z M 108,20 l 4,0 0,4 -4,0 z M 112,20 l 4,0 0,4 -4,0 z M 116,20 l 4,0 0,4 -4,0 z M 120,20 l 4,0 0,4 -4,0 z M 124,20 l 4,0 0,4 -4,0 z M 128,20 l 4,0 0,4 -4,0 z M 132,20 l 4,0 0,4 -4,0 z M 160,20 l 4,0 0,4 -4,0 z M 164,20 l 4,0 0,4 -4,0 z M 168,20 l 4,0 0,4 -4,0 z M 180,20 l 4,0 0,4 -4,0 z M 184,20 l 4,0 0,4 -4,0 z M 192,20 l 4,0 0,4 -4,0 z M 204,20 l 4,0 0,4 -4,0 z M 212,20 l 4,0 0,4 -4,0 z M 216,20 l 4,0 0,4 -4,0 z M 220,20 l 4,0 0,4 -4,0 z M 228,20 l 4,0 0,4 -4,0 z M 4,24 l 4,0 0,4 -4,0 z M 28,24 l 4,0 0,4 -4,0 z M 36,24 l 4,0 0,4 -4,0 z M 40,24 l 4,0 0,4 -4,0 z M 44,24 l 4,0 0,4 -4,0 z M 48,24 l 4,0 0,4 -4,0 z M 56,24 l 4,0 0,4 -4,0 z M 60,24 l 4,0 0,4 -4,0 z M 72,24 l 4,0 0,4 -4,0 z M 84,24 l 4,0 0,4 -4,0 z M 92,24 l 4,0 0,4 -4,0 z M 100,24 l 4,0 0,4 -4,0 z M 108,24 l 4,0 0,4 -4,0 z M 124,24 l 4,0 0,4 -4,0 z M 128,24 l 4,0 0,4 -4,0 z M 132,24 l 4,0 0,4 -4,0 z M 136,24 l 4,0 0,4 -4,0 z M 176,24 l 4,0 0,4 -4,0 z M 184,24 l 4,0 0,4 -4,0 z M 188,24 l 4,0 0,4 -4,0 z M 204,24 l 4,0 0,4 -4,0 z M 228,24 l 4,0 0,4 -4,0 z M 4,28 l 4,0 0,4 -4,0 z M 8,28 l 4,0 0,4 -4,0 z M 12,28 l 4,0 0,4 -4,0 z M 16,28 l 4,0 0,4 -4,0 z M 20,28 l 4,0 0,4 -4,0 z M 24,28 l 4,0 0,4 -4,0 z M 28,28 l 4,0 0,4 -4,0 z M 36,28 l 4,0 0,4 -4,0 z M 44,28 l 4,0 0,4 -4,0 z M 52,28 l 4,0 0,4 -4,0 z M 60,28 l 4,0 0,4 -4,0 z M 68,28 l 4,0 0,4 -4,0 z M 76,28 l 4,0 0,4 -4,0 z M 84,28 l 4,0 0,4 -4,0 z M 92,28 l 4,0 0,4 -4,0 z M 100,28 l 4,0 0,4 -4,0 z M 108,28 l 4,0 0,4 -4,0 z M 116,28 l 4,0 0,4 -4,0 z M 124,28 l 4,0 0,4 -4,0 z M 132,28 l 4,0 0,4 -4,0 z M 140,28 l 4,0 0,4 -4,0 z M 148,28 l 4,0 0,4 -4,0 z M 156,28 l 4,0 0,4 -4,0 z M 164,28 l 4,0 0,4 -4,0 z M 172,28 l 4,0 0,4 -4,0 z M 180,28 l 4,0 0,4 -4,0 z M 188,28 l 4,0 0,4 -4,0 z M 196,28 l 4,0 0,4 -4,0 z M 204,28 l 4,0 0,4 -4,0 z M 208,28 l 4,0 0,4 -4,0 z M 212,28 l 4,0 0,4 -4,0 z M 216,28 l 4,0 0,4 -4,0 z M 220,28 l 4,0 0,4 -4,0 z M 224,28 l 4,0 0,4 -4,0 z M 228,28 l 4,0 0,4 -4,0 z M 40,32 l 4,0 0,4 -4,0 z M 44,32 l 4,0 0,4 -4,0 z M 56,32 l 4,0 0,4 -4,0 z M 64,32 l 4,0 0,4 -4,0 z M 72,32 l 4,0 0,4 -4,0 z M 76,32 l 4,0 0,4 -4,0 z M 80,32 l 4,0 0,4 -4,0 z M 84,32 l 4,0 0,4 -4,0 z M 88,32 l 4,0 0,4 -4,0 z M 92,32 l 4,0 0,4 -4,0 z M 96,32 l 4,0 0,4 -4,0 z M 100,32 l 4,0 0,4 -4,0 z M 104,32 l 4,0 0,4 -4,0 z M 108,32 l 4,0 0,4 -4,0 z M 124,32 l 4,0 0,4 -4,0 z M 132,32 l 4,0 0,4 -4,0 z M 140,32 l 4,0 0,4 -4,0 z M 152,32 l 4,0 0,4 -4,0 z M 156,32 l 4,0 0,4 -4,0 z M 160,32 l 4,0 0,4 -4,0 z M 168,32 l 4,0 0,4 -4,0 z M 172,32 l 4,0 0,4 -4,0 z M 180,32 l 4,0 0,4 -4,0 z M 188,32 l 4,0 0,4 -4,0 z M 192,32 l 4,0 0,4 -4,0 z M 4,36 l 4,0 0,4 -4,0 z M 8,36 l 4,0 0,4 -4,0 z M 12,36 l 4,0 0,4 -4,0 z M 16,36 l 4,0 0,4 -4,0 z M 20,36 l 4,0 0,4 -4,0 z M 28,36 l 4,0 0,4 -4,0 z M 32,36 l 4,0 0,4 -4,0 z M 36,36 l 4,0 0,4 -4,0 z M 44,36 l 4,0 0,4 -4,0 z M 56,36 l 4,0 0,4 -4,0 z M 60,36 l 4,0 0,4 -4,0 z M 64,36 l 4,0 0,4 -4,0 z M 68,36 l 4,0 0,4 -4,0 z M 72,36 l 4,0 0,4 -4,0 z M 76,36 l 4,0 0,4 -4,0 z M 84,36 l 4,0 0,4 -4,0 z M 88,36 l 4,0 0,4 -4,0 z M 100,36 l 4,0 0,4 -4,0 z M 108,36 l 4,0 0,4 -4,0 z M 112,36 l 4,0 0,4 -4,0 z M 116,36 l 4,0 0,4 -4,0 z M 120,36 l 4,0 0,4 -4,0 z M 124,36 l 4,0 0,4 -4,0 z M 128,36 l 4,0 0,4 -4,0 z M 144,36 l 4,0 0,4 -4,0 z M 152,36 l 4,0 0,4 -4,0 z M 160,36 l 4,0 0,4 -4,0 z M 164,36 l 4,0 0,4 -4,0 z M 168,36 l 4,0 0,4 -4,0 z M 172,36 l 4,0 0,4 -4,0 z M 176,36 l 4,0 0,4 -4,0 z M 180,36 l 4,0 0,4 -4,0 z M 184,36 l 4,0 0,4 -4,0 z M 188,36 l 4,0 0,4 -4,0 z M 196,36 l 4,0 0,4 -4,0 z M 200,36 l 4,0 0,4 -4,0 z M 208,36 l 4,0 0,4 -4,0 z M 216,36 l 4,0 0,4 -4,0 z M 224,36 l 4,0 0,4 -4,0 z M 8,40 l 4,0 0,4 -4,0 z M 12,40 l 4,0 0,4 -4,0 z M 16,40 l 4,0 0,4 -4,0 z M 20,40 l 4,0 0,4 -4,0 z M 36,40 l 4,0 0,4 -4,0 z M 48,40 l 4,0 0,4 -4,0 z M 52,40 l 4,0 0,4 -4,0 z M 64,40 l 4,0 0,4 -4,0 z M 68,40 l 4,0 0,4 -4,0 z M 80,40 l 4,0 0,4 -4,0 z M 84,40 l 4,0 0,4 -4,0 z M 88,40 l 4,0 0,4 -4,0 z M 104,40 l 4,0 0,4 -4,0 z M 108,40 l 4,0 0,4 -4,0 z M 116,40 l 4,0 0,4 -4,0 z M 128,40 l 4,0 0,4 -4,0 z M 136,40 l 4,0 0,4 -4,0 z M 144,40 l 4,0 0,4 -4,0 z M 148,40 l 4,0 0,4 -4,0 z M 160,40 l 4,0 0,4 -4,0 z M 168,40 l 4,0 0,4 -4,0 z M 180,40 l 4,0 0,4 -4,0 z M 196,40 l 4,0 0,4 -4,0 z M 200,40 l 4,0 0,4 -4,0 z M 208,40 l 4,0 0,4 -4,0 z M 212,40 l 4,0 0,4 -4,0 z M 216,40 l 4,0 0,4 -4,0 z M 220,40 l 4,0 0,4 -4,0 z M 228,40 l 4,0 0,4 -4,0 z M 16,44 l 4,0 0,4 -4,0 z M 24,44 l 4,0 0,4 -4,0 z M 28,44 l 4,0 0,4 -4,0 z M 56,44 l 4,0 0,4 -4,0 z M 60,44 l 4,0 0,4 -4,0 z M 64,44 l 4,0 0,4 -4,0 z M 76,44 l 4,0 0,4 -4,0 z M 80,44 l 4,0 0,4 -4,0 z M 88,44 l 4,0 0,4 -4,0 z M 92,44 l 4,0 0,4 -4,0 z M 104,44 l 4,0 0,4 -4,0 z M 128,44 l 4,0 0,4 -4,0 z M 132,44 l 4,0 0,4 -4,0 z M 136,44 l 4,0 0,4 -4,0 z M 140,44 l 4,0 0,4 -4,0 z M 144,44 l 4,0 0,4 -4,0 z M 148,44 l 4,0 0,4 -4,0 z M 156,44 l 4,0 0,4 -4,0 z M 164,44 l 4,0 0,4 -4,0 z M 172,44 l 4,0 0,4 -4,0 z M 176,44 l 4,0 0,4 -4,0 z M 180,44 l 4,0 0,4 -4,0 z M 184,44 l 4,0 0,4 -4,0 z M 188,44 l 4,0 0,4 -4,0 z M 196,44 l 4,0 0,4 -4,0 z M 200,44 l 4,0 0,4 -4,0 z M 216,44 l 4,0 0,4 -4,0 z M 220,44 l 4,0 0,4 -4,0 z M 224,44 l 4,0 0,4 -4,0 z M 228,44 l 4,0 0,4 -4,0 z M 4,48 l 4,0 0,4 -4,0 z M 12,48 l 4,0 0,4 -4,0 z M 16,48 l 4,0 0,4 -4,0 z M 20,48 l 4,0 0,4 -4,0 z M 24,48 l 4,0 0,4 -4,0 z M 32,48 l 4,0 0,4 -4,0 z M 36,48 l 4,0 0,4 -4,0 z M 48,48 l 4,0 0,4 -4,0 z M 60,48 l 4,0 0,4 -4,0 z M 68,48 l 4,0 0,4 -4,0 z M 72,48 l 4,0 0,4 -4,0 z M 76,48 l 4,0 0,4 -4,0 z M 80,48 l 4,0 0,4 -4,0 z M 84,48 l 4,0 0,4 -4,0 z M 88,48 l 4,0 0,4 -4,0 z M 92,48 l 4,0 0,4 -4,0 z M 96,48 l 4,0 0,4 -4,0 z M 104,48 l 4,0 0,4 -4,0 z M 112,48 l 4,0 0,4 -4,0 z M 116,48 l 4,0 0,4 -4,0 z M 120,48 l 4,0 0,4 -4,0 z M 132,48 l 4,0 0,4 -4,0 z M 140,48 l 4,0 0,4 -4,0 z M 152,48 l 4,0 0,4 -4,0 z M 160,48 l 4,0 0,4 -4,0 z M 168,48 l 4,0 0,4 -4,0 z M 172,48 l 4,0 0,4 -4,0 z M 180,48 l 4,0 0,4 -4,0 z M 184,48 l 4,0 0,4 -4,0 z M 192,48 l 4,0 0,4 -4,0 z M 196,48 l 4,0 0,4 -4,0 z M 200,48 l 4,0 0,4 -4,0 z M 204,48 l 4,0 0,4 -4,0 z M 208,48 l 4,0 0,4 -4,0 z M 216,48 l 4,0 0,4 -4,0 z M 220,48 l 4,0 0,4 -4,0 z M 224,48 l 4,0 0,4 -4,0 z M 8,52 l 4,0 0,4 -4,0 z M 12,52 l 4,0 0,4 -4,0 z M 20,52 l 4,0 0,4 -4,0 z M 24,52 l 4,0 0,4 -4,0 z M 28,52 l 4,0 0,4 -4,0 z M 32,52 l 4,0 0,4 -4,0 z M 36,52 l 4,0 0,4 -4,0 z M 40,52 l 4,0 0,4 -4,0 z M 48,52 l 4,0 0,4 -4,0 z M 52,52 l 4,0 0,4 -4,0 z M 56,52 l 4,0 0,4 -4,0 z M 60,52 l 4,0 0,4 -4,0 z M 64,52 l 4,0 0,4 -4,0 z M 76,52 l 4,0 0,4 -4,0 z M 80,52 l 4,0 0,4 -4,0 z M 84,52 l 4,0 0,4 -4,0 z M 100,52 l 4,0 0,4 -4,0 z M 108,52 l 4,0 0,4 -4,0 z M 120,52 l 4,0 0,4 -4,0 z M 124,52 l 4,0 0,4 -4,0 z M 128,52 l 4,0 0,4 -4,0 z M 132,52 l 4,0 0,4 -4,0 z M 144,52 l 4,0 0,4 -4,0 z M 156,52 l 4,0 0,4 -4,0 z M 160,52 l 4,0 0,4 -4,0 z M 164,52 l 4,0 0,4 -4,0 z M 176,52 l 4,0 0,4 -4,0 z M 180,52 l 4,0 0,4 -4,0 z M 188,52 l 4,0 0,4 -4,0 z M 216,52 l 4,0 0,4 -4,0 z M 224,52 l 4,0 0,4 -4,0 z M 228,52 l 4,0 0,4 -4,0 z M 8,56 l 4,0 0,4 -4,0 z M 12,56 l 4,0 0,4 -4,0 z M 16,56 l 4,0 0,4 -4,0 z M 20,56 l 4,0 0,4 -4,0 z M 24,56 l 4,0 0,4 -4,0 z M 36,56 l 4,0 0,4 -4,0 z M 40,56 l 4,0 0,4 -4,0 z M 44,56 l 4,0 0,4 -4,0 z M 48,56 l 4,0 0,4 -4,0 z M 52,56 l 4,0 0,4 -4,0 z M 64,56 l 4,0 0,4 -4,0 z M 68,56 l 4,0 0,4 -4,0 z M 72,56 l 4,0 0,4 -4,0 z M 76,56 l 4,0 0,4 -4,0 z M 84,56 l 4,0 0,4 -4,0 z M 92,56 l 4,0 0,4 -4,0 z M 104,56 l 4,0 0,4 -4,0 z M 116,56 l 4,0 0,4 -4,0 z M 124,56 l 4,0 0,4 -4,0 z M 128,56 l 4,0 0,4 -4,0 z M 140,56 l 4,0 0,4 -4,0 z M 148,56 l 4,0 0,4 -4,0 z M 152,56 l 4,0 0,4 -4,0 z M 160,56 l 4,0 0,4 -4,0 z M 164,56 l 4,0 0,4 -4,0 z M 168,56 l 4,0 0,4 -4,0 z M 172,56 l 4,0 0,4 -4,0 z M 180,56 l 4,0 0,4 -4,0 z M 184,56 l 4,0 0,4 -4,0 z M 188,56 l 4,0 0,4 -4,0 z M 192,56 l 4,0 0,4 -4,0 z M 200,56 l 4,0 0,4 -4,0 z M 204,56 l 4,0 0,4 -4,0 z M 212,56 l 4,0 0,4 -4,0 z M 220,56 l 4,0 0,4 -4,0 z M 228,56 l 4,0 0,4 -4,0 z M 4,60 l 4,0 0,4 -4,0 z M 20,60 l 4,0 0,4 -4,0 z M 24,60 l 4,0 0,4 -4,0 z M 28,60 l 4,0 0,4 -4,0 z M 32,60 l 4,0 0,4 -4,0 z M 44,60 l 4,0 0,4 -4,0 z M 48,60 l 4,0 0,4 -4,0 z M 56,60 l 4,0 0,4 -4,0 z M 60,60 l 4,0 0,4 -4,0 z M 64,60 l 4,0 0,4 -4,0 z M 68,60 l 4,0 0,4 -4,0 z M 72,60 l 4,0 0,4 -4,0 z M 80,60 l 4,0 0,4 -4,0 z M 84,60 l 4,0 0,4 -4,0 z M 100,60 l 4,0 0,4 -4,0 z M 124,60 l 4,0 0,4 -4,0 z M 128,60 l 4,0 0,4 -4,0 z M 132,60 l 4,0 0,4 -4,0 z M 144,60 l 4,0 0,4 -4,0 z M 152,60 l 4,0 0,4 -4,0 z M 156,60 l 4,0 0,4 -4,0 z M 164,60 l 4,0 0,4 -4,0 z M 168,60 l 4,0 0,4 -4,0 z M 172,60 l 4,0 0,4 -4,0 z M 180,60 l 4,0 0,4 -4,0 z M 184,60 l 4,0 0,4 -4,0 z M 188,60 l 4,0 0,4 -4,0 z M 196,60 l 4,0 0,4 -4,0 z M 204,60 l 4,0 0,4 -4,0 z M 216,60 l 4,0 0,4 -4,0 z M 24,64 l 4,0 0,4 -4,0 z M 32,64 l 4,0 0,4 -4,0 z M 36,64 l 4,0 0,4 -4,0 z M 52,64 l 4,0 0,4 -4,0 z M 64,64 l 4,0 0,4 -4,0 z M 68,64 l 4,0 0,4 -4,0 z M 72,64 l 4,0 0,4 -4,0 z M 80,64 l 4,0 0,4 -4,0 z M 92,64 l 4,0 0,4 -4,0 z M 96,64 l 4,0 0,4 -4,0 z M 112,64 l 4,0 0,4 -4,0 z M 116,64 l 4,0 0,4 -4,0 z M 140,64 l 4,0 0,4 -4,0 z M 152,64 l 4,0 0,4 -4,0 z M 156,64 l 4,0 0,4 -4,0 z M 160,64 l 4,0 0,4 -4,0 z M 168,64 l 4,0 0,4 -4,0 z M 172,64 l 4,0 0,4 -4,0 z M 180,64 l 4,0 0,4 -4,0 z M 192,64 l 4,0 0,4 -4,0 z M 196,64 l 4,0 0,4 -4,0 z M 200,64 l 4,0 0,4 -4,0 z M 208,64 l 4,0 0,4 -4,0 z M 216,64 l 4,0 0,4 -4,0 z M 224,64 l 4,0 0,4 -4,0 z M 8,68 l 4,0 0,4 -4,0 z M 28,68 l 4,0 0,4 -4,0 z M 36,68 l 4,0 0,4 -4,0 z M 40,68 l 4,0 0,4 -4,0 z M 44,68 l 4,0 0,4 -4,0 z M 56,68 l 4,0 0,4 -4,0 z M 60,68 l 4,0 0,4 -4,0 z M 64,68 l 4,0 0,4 -4,0 z M 68,68 l 4,0 0,4 -4,0 z M 72,68 l 4,0 0,4 -4,0 z M 76,68 l 4,0 0,4 -4,0 z M 84,68 l 4,0 0,4 -4,0 z M 96,68 l 4,0 0,4 -4,0 z M 112,68 l 4,0 0,4 -4,0 z M 116,68 l 4,0 0,4 -4,0 z M 120,68 l 4,0 0,4 -4,0 z M 132,68 l 4,0 0,4 -4,0 z M 156,68 l 4,0 0,4 -4,0 z M 176,68 l 4,0 0,4 -4,0 z M 180,68 l 4,0 0,4 -4,0 z M 184,68 l 4,0 0,4 -4,0 z M 188,68 l 4,0 0,4 -4,0 z M 196,68 l 4,0 0,4 -4,0 z M 200,68 l 4,0 0,4 -4,0 z M 204,68 l 4,0 0,4 -4,0 z M 208,68 l 4,0 0,4 -4,0 z M 212,68 l 4,0 0,4 -4,0 z M 216,68 l 4,0 0,4 -4,0 z M 220,68 l 4,0 0,4 -4,0 z M 228,68 l 4,0 0,4 -4,0 z M 4,72 l 4,0 0,4 -4,0 z M 20,72 l 4,0 0,4 -4,0 z M 36,72 l 4,0 0,4 -4,0 z M 40,72 l 4,0 0,4 -4,0 z M 44,72 l 4,0 0,4 -4,0 z M 52,72 l 4,0 0,4 -4,0 z M 60,72 l 4,0 0,4 -4,0 z M 64,72 l 4,0 0,4 -4,0 z M 80,72 l 4,0 0,4 -4,0 z M 92,72 l 4,0 0,4 -4,0 z M 96,72 l 4,0 0,4 -4,0 z M 100,72 l 4,0 0,4 -4,0 z M 108,72 l 4,0 0,4 -4,0 z M 120,72 l 4,0 0,4 -4,0 z M 124,72 l 4,0 0,4 -4,0 z M 132,72 l 4,0 0,4 -4,0 z M 140,72 l 4,0 0,4 -4,0 z M 144,72 l 4,0 0,4 -4,0 z M 148,72 l 4,0 0,4 -4,0 z M 152,72 l 4,0 0,4 -4,0 z M 168,72 l 4,0 0,4 -4,0 z M 180,72 l 4,0 0,4 -4,0 z M 196,72 l 4,0 0,4 -4,0 z M 200,72 l 4,0 0,4 -4,0 z M 216,72 l 4,0 0,4 -4,0 z M 228,72 l 4,0 0,4 -4,0 z M 4,76 l 4,0 0,4 -4,0 z M 8,76 l 4,0 0,4 -4,0 z M 12,76 l 4,0 0,4 -4,0 z M 16,76 l 4,0 0,4 -4,0 z M 24,76 l 4,0 0,4 -4,0 z M 28,76 l 4,0 0,4 -4,0 z M 32,76 l 4,0 0,4 -4,0 z M 44,76 l 4,0 0,4 -4,0 z M 64,76 l 4,0 0,4 -4,0 z M 68,76 l 4,0 0,4 -4,0 z M 76,76 l 4,0 0,4 -4,0 z M 84,76 l 4,0 0,4 -4,0 z M 92,76 l 4,0 0,4 -4,0 z M 96,76 l 4,0 0,4 -4,0 z M 108,76 l 4,0 0,4 -4,0 z M 116,76 l 4,0 0,4 -4,0 z M 128,76 l 4,0 0,4 -4,0 z M 132,76 l 4,0 0,4 -4,0 z M 136,76 l 4,0 0,4 -4,0 z M 140,76 l 4,0 0,4 -4,0 z M 148,76 l 4,0 0,4 -4,0 z M 152,76 l 4,0 0,4 -4,0 z M 160,76 l 4,0 0,4 -4,0 z M 168,76 l 4,0 0,4 -4,0 z M 188,76 l 4,0 0,4 -4,0 z M 208,76 l 4,0 0,4 -4,0 z M 212,76 l 4,0 0,4 -4,0 z M 216,76 l 4,0 0,4 -4,0 z M 220,76 l 4,0 0,4 -4,0 z M 228,76 l 4,0 0,4 -4,0 z M 4,80 l 4,0 0,4 -4,0 z M 8,80 l 4,0 0,4 -4,0 z M 12,80 l 4,0 0,4 -4,0 z M 20,80 l 4,0 0,4 -4,0 z M 24,80 l 4,0 0,4 -4,0 z M 36,80 l 4,0 0,4 -4,0 z M 40,80 l 4,0 0,4 -4,0 z M 52,80 l 4,0 0,4 -4,0 z M 56,80 l 4,0 0,4 -4,0 z M 64,80 l 4,0 0,4 -4,0 z M 68,80 l 4,0 0,4 -4,0 z M 76,80 l 4,0 0,4 -4,0 z M 80,80 l 4,0 0,4 -4,0 z M 84,80 l 4,0 0,4 -4,0 z M 88,80 l 4,0 0,4 -4,0 z M 92,80 l 4,0 0,4 -4,0 z M 100,80 l 4,0 0,4 -4,0 z M 104,80 l 4,0 0,4 -4,0 z M 112,80 l 4,0 0,4 -4,0 z M 124,80 l 4,0 0,4 -4,0 z M 132,80 l 4,0 0,4 -4,0 z M 140,80 l 4,0 0,4 -4,0 z M 152,80 l 4,0 0,4 -4,0 z M 176,80 l 4,0 0,4 -4,0 z M 180,80 l 4,0 0,4 -4,0 z M 184,80 l 4,0 0,4 -4,0 z M 192,80 l 4,0 0,4 -4,0 z M 200,80 l 4,0 0,4 -4,0 z M 204,80 l 4,0 0,4 -4,0 z M 208,80 l 4,0 0,4 -4,0 z M 216,80 l 4,0 0,4 -4,0 z M 228,80 l 4,0 0,4 -4,0 z M 8,84 l 4,0 0,4 -4,0 z M 20,84 l 4,0 0,4 -4,0 z M 28,84 l 4,0 0,4 -4,0 z M 48,84 l 4,0 0,4 -4,0 z M 64,84 l 4,0 0,4 -4,0 z M 76,84 l 4,0 0,4 -4,0 z M 96,84 l 4,0 0,4 -4,0 z M 100,84 l 4,0 0,4 -4,0 z M 120,84 l 4,0 0,4 -4,0 z M 124,84 l 4,0 0,4 -4,0 z M 128,84 l 4,0 0,4 -4,0 z M 144,84 l 4,0 0,4 -4,0 z M 152,84 l 4,0 0,4 -4,0 z M 156,84 l 4,0 0,4 -4,0 z M 180,84 l 4,0 0,4 -4,0 z M 200,84 l 4,0 0,4 -4,0 z M 212,84 l 4,0 0,4 -4,0 z M 224,84 l 4,0 0,4 -4,0 z M 228,84 l 4,0 0,4 -4,0 z M 4,88 l 4,0 0,4 -4,0 z M 20,88 l 4,0 0,4 -4,0 z M 32,88 l 4,0 0,4 -4,0 z M 40,88 l 4,0 0,4 -4,0 z M 52,88 l 4,0 0,4 -4,0 z M 56,88 l 4,0 0,4 -4,0 z M 68,88 l 4,0 0,4 -4,0 z M 76,88 l 4,0 0,4 -4,0 z M 88,88 l 4,0 0,4 -4,0 z M 96,88 l 4,0 0,4 -4,0 z M 100,88 l 4,0 0,4 -4,0 z M 104,88 l 4,0 0,4 -4,0 z M 108,88 l 4,0 0,4 -4,0 z M 120,88 l 4,0 0,4 -4,0 z M 124,88 l 4,0 0,4 -4,0 z M 128,88 l 4,0 0,4 -4,0 z M 140,88 l 4,0 0,4 -4,0 z M 148,88 l 4,0 0,4 -4,0 z M 152,88 l 4,0 0,4 -4,0 z M 160,88 l 4,0 0,4 -4,0 z M 164,88 l 4,0 0,4 -4,0 z M 168,88 l 4,0 0,4 -4,0 z M 172,88 l 4,0 0,4 -4,0 z M 200,88 l 4,0 0,4 -4,0 z M 216,88 l 4,0 0,4 -4,0 z M 224,88 l 4,0 0,4 -4,0 z M 228,88 l 4,0 0,4 -4,0 z M 16,92 l 4,0 0,4 -4,0 z M 28,92 l 4,0 0,4 -4,0 z M 36,92 l 4,0 0,4 -4,0 z M 56,92 l 4,0 0,4 -4,0 z M 60,92 l 4,0 0,4 -4,0 z M 64,92 l 4,0 0,4 -4,0 z M 68,92 l 4,0 0,4 -4,0 z M 72,92 l 4,0 0,4 -4,0 z M 104,92 l 4,0 0,4 -4,0 z M 112,92 l 4,0 0,4 -4,0 z M 124,92 l 4,0 0,4 -4,0 z M 128,92 l 4,0 0,4 -4,0 z M 136,92 l 4,0 0,4 -4,0 z M 140,92 l 4,0 0,4 -4,0 z M 148,92 l 4,0 0,4 -4,0 z M 172,92 l 4,0 0,4 -4,0 z M 176,92 l 4,0 0,4 -4,0 z M 184,92 l 4,0 0,4 -4,0 z M 196,92 l 4,0 0,4 -4,0 z M 212,92 l 4,0 0,4 -4,0 z M 216,92 l 4,0 0,4 -4,0 z M 220,92 l 4,0 0,4 -4,0 z M 224,92 l 4,0 0,4 -4,0 z M 228,92 l 4,0 0,4 -4,0 z M 8,96 l 4,0 0,4 -4,0 z M 16,96 l 4,0 0,4 -4,0 z M 44,96 l 4,0 0,4 -4,0 z M 48,96 l 4,0 0,4 -4,0 z M 52,96 l 4,0 0,4 -4,0 z M 56,96 l 4,0 0,4 -4,0 z M 68,96 l 4,0 0,4 -4,0 z M 72,96 l 4,0 0,4 -4,0 z M 76,96 l 4,0 0,4 -4,0 z M 92,96 l 4,0 0,4 -4,0 z M 100,96 l 4,0 0,4 -4,0 z M 104,96 l 4,0 0,4 -4,0 z M 108,96 l 4,0 0,4 -4,0 z M 112,96 l 4,0 0,4 -4,0 z M 120,96 l 4,0 0,4 -4,0 z M 124,96 l 4,0 0,4 -4,0 z M 132,96 l 4,0 0,4 -4,0 z M 140,96 l 4,0 0,4 -4,0 z M 152,96 l 4,0 0,4 -4,0 z M 156,96 l 4,0 0,4 -4,0 z M 160,96 l 4,0 0,4 -4,0 z M 164,96 l 4,0 0,4 -4,0 z M 168,96 l 4,0 0,4 -4,0 z M 180,96 l 4,0 0,4 -4,0 z M 192,96 l 4,0 0,4 -4,0 z M 200,96 l 4,0 0,4 -4,0 z M 224,96 l 4,0 0,4 -4,0 z M 228,96 l 4,0 0,4 -4,0 z M 4,100 l 4,0 0,4 -4,0 z M 8,100 l 4,0 0,4 -4,0 z M 20,100 l 4,0 0,4 -4,0 z M 24,100 l 4,0 0,4 -4,0 z M 28,100 l 4,0 0,4 -4,0 z M 32,100 l 4,0 0,4 -4,0 z M 40,100 l 4,0 0,4 -4,0 z M 48,100 l 4,0 0,4 -4,0 z M 60,100 l 4,0 0,4 -4,0 z M 64,100 l 4,0 0,4 -4,0 z M 68,100 l 4,0 0,4 -4,0 z M 76,100 l 4,0 0,4 -4,0 z M 84,100 l 4,0 0,4 -4,0 z M 100,100 l 4,0 0,4 -4,0 z M 112,100 l 4,0 0,4 -4,0 z M 116,100 l 4,0 0,4 -4,0 z M 120,100 l 4,0 0,4 -4,0 z M 124,100 l 4,0 0,4 -4,0 z M 128,100 l 4,0 0,4 -4,0 z M 132,100 l 4,0 0,4 -4,0 z M 152,100 l 4,0 0,4 -4,0 z M 160,100 l 4,0 0,4 -4,0 z M 164,100 l 4,0 0,4 -4,0 z M 168,100 l 4,0 0,4 -4,0 z M 172,100 l 4,0 0,4 -4,0 z M 176,100 l 4,0 0,4 -4,0 z M 180,100 l 4,0 0,4 -4,0 z M 188,100 l 4,0 0,4 -4,0 z M 192,100 l 4,0 0,4 -4,0 z M 196,100 l 4,0 0,4 -4,0 z M 204,100 l 4,0 0,4 -4,0 z M 208,100 l 4,0 0,4 -4,0 z M 212,100 l 4,0 0,4 -4,0 z M 224,100 l 4,0 0,4 -4,0 z M 8,104 l 4,0 0,4 -4,0 z M 16,104 l 4,0 0,4 -4,0 z M 36,104 l 4,0 0,4 -4,0 z M 44,104 l 4,0 0,4 -4,0 z M 52,104 l 4,0 0,4 -4,0 z M 64,104 l 4,0 0,4 -4,0 z M 68,104 l 4,0 0,4 -4,0 z M 76,104 l 4,0 0,4 -4,0 z M 84,104 l 4,0 0,4 -4,0 z M 88,104 l 4,0 0,4 -4,0 z M 104,104 l 4,0 0,4 -4,0 z M 120,104 l 4,0 0,4 -4,0 z M 128,104 l 4,0 0,4 -4,0 z M 140,104 l 4,0 0,4 -4,0 z M 144,104 l 4,0 0,4 -4,0 z M 148,104 l 4,0 0,4 -4,0 z M 152,104 l 4,0 0,4 -4,0 z M 156,104 l 4,0 0,4 -4,0 z M 160,104 l 4,0 0,4 -4,0 z M 180,104 l 4,0 0,4 -4,0 z M 196,104 l 4,0 0,4 -4,0 z M 200,104 l 4,0 0,4 -4,0 z M 204,104 l 4,0 0,4 -4,0 z M 212,104 l 4,0 0,4 -4,0 z M 220,104 l 4,0 0,4 -4,0 z M 228,104 l 4,0 0,4 -4,0 z M 8,108 l 4,0 0,4 -4,0 z M 20,108 l 4,0 0,4 -4,0 z M 24,108 l 4,0 0,4 -4,0 z M 28,108 l 4,0 0,4 -4,0 z M 32,108 l 4,0 0,4 -4,0 z M 36,108 l 4,0 0,4 -4,0 z M 52,108 l 4,0 0,4 -4,0 z M 60,108 l 4,0 0,4 -4,0 z M 72,108 l 4,0 0,4 -4,0 z M 108,108 l 4,0 0,4 -4,0 z M 112,108 l 4,0 0,4 -4,0 z M 116,108 l 4,0 0,4 -4,0 z M 120,108 l 4,0 0,4 -4,0 z M 124,108 l 4,0 0,4 -4,0 z M 128,108 l 4,0 0,4 -4,0 z M 132,108 l 4,0 0,4 -4,0 z M 136,108 l 4,0 0,4 -4,0 z M 144,108 l 4,0 0,4 -4,0 z M 164,108 l 4,0 0,4 -4,0 z M 172,108 l 4,0 0,4 -4,0 z M 176,108 l 4,0 0,4 -4,0 z M 180,108 l 4,0 0,4 -4,0 z M 184,108 l 4,0 0,4 -4,0 z M 192,108 l 4,0 0,4 -4,0 z M 196,108 l 4,0 0,4 -4,0 z M 200,108 l 4,0 0,4 -4,0 z M 204,108 l 4,0 0,4 -4,0 z M 208,108 l 4,0 0,4 -4,0 z M 212,108 l 4,0 0,4 -4,0 z M 216,108 l 4,0 0,4 -4,0 z M 220,108 l 4,0 0,4 -4,0 z M 224,108 l 4,0 0,4 -4,0 z M 12,112 l 4,0 0,4 -4,0 z M 20,112 l 4,0 0,4 -4,0 z M 36,112 l 4,0 0,4 -4,0 z M 40,112 l 4,0 0,4 -4,0 z M 48,112 l 4,0 0,4 -4,0 z M 52,112 l 4,0 0,4 -4,0 z M 56,112 l 4,0 0,4 -4,0 z M 68,112 l 4,0 0,4 -4,0 z M 80,112 l 4,0 0,4 -4,0 z M 84,112 l 4,0 0,4 -4,0 z M 96,112 l 4,0 0,4 -4,0 z M 104,112 l 4,0 0,4 -4,0 z M 108,112 l 4,0 0,4 -4,0 z M 124,112 l 4,0 0,4 -4,0 z M 132,112 l 4,0 0,4 -4,0 z M 148,112 l 4,0 0,4 -4,0 z M 160,112 l 4,0 0,4 -4,0 z M 168,112 l 4,0 0,4 -4,0 z M 172,112 l 4,0 0,4 -4,0 z M 180,112 l 4,0 0,4 -4,0 z M 192,112 l 4,0 0,4 -4,0 z M 196,112 l 4,0 0,4 -4,0 z M 212,112 l 4,0 0,4 -4,0 z M 216,112 l 4,0 0,4 -4,0 z M 220,112 l 4,0 0,4 -4,0 z M 8,116 l 4,0 0,4 -4,0 z M 20,116 l 4,0 0,4 -4,0 z M 28,116 l 4,0 0,4 -4,0 z M 36,116 l 4,0 0,4 -4,0 z M 52,116 l 4,0 0,4 -4,0 z M 64,116 l 4,0 0,4 -4,0 z M 68,116 l 4,0 0,4 -4,0 z M 72,116 l 4,0 0,4 -4,0 z M 88,116 l 4,0 0,4 -4,0 z M 92,116 l 4,0 0,4 -4,0 z M 96,116 l 4,0 0,4 -4,0 z M 108,116 l 4,0 0,4 -4,0 z M 116,116 l 4,0 0,4 -4,0 z M 124,116 l 4,0 0,4 -4,0 z M 128,116 l 4,0 0,4 -4,0 z M 136,116 l 4,0 0,4 -4,0 z M 148,116 l 4,0 0,4 -4,0 z M 160,116 l 4,0 0,4 -4,0 z M 164,116 l 4,0 0,4 -4,0 z M 176,116 l 4,0 0,4 -4,0 z M 196,116 l 4,0 0,4 -4,0 z M 204,116 l 4,0 0,4 -4,0 z M 212,116 l 4,0 0,4 -4,0 z M 220,116 l 4,0 0,4 -4,0 z M 224,116 l 4,0 0,4 -4,0 z M 228,116 l 4,0 0,4 -4,0 z M 4,120 l 4,0 0,4 -4,0 z M 12,120 l 4,0 0,4 -4,0 z M 20,120 l 4,0 0,4 -4,0 z M 36,120 l 4,0 0,4 -4,0 z M 44,120 l 4,0 0,4 -4,0 z M 52,120 l 4,0 0,4 -4,0 z M 56,120 l 4,0 0,4 -4,0 z M 64,120 l 4,0 0,4 -4,0 z M 76,120 l 4,0 0,4 -4,0 z M 84,120 l 4,0 0,4 -4,0 z M 88,120 l 4,0 0,4 -4,0 z M 92,120 l 4,0 0,4 -4,0 z M 96,120 l 4,0 0,4 -4,0 z M 104,120 l 4,0 0,4 -4,0 z M 108,120 l 4,0 0,4 -4,0 z M 124,120 l 4,0 0,4 -4,0 z M 136,120 l 4,0 0,4 -4,0 z M 156,120 l 4,0 0,4 -4,0 z M 160,120 l 4,0 0,4 -4,0 z M 164,120 l 4,0 0,4 -4,0 z M 168,120 l 4,0 0,4 -4,0 z M 176,120 l 4,0 0,4 -4,0 z M 180,120 l 4,0 0,4 -4,0 z M 184,120 l 4,0 0,4 -4,0 z M 188,120 l 4,0 0,4 -4,0 z M 196,120 l 4,0 0,4 -4,0 z M 212,120 l 4,0 0,4 -4,0 z M 216,120 l 4,0 0,4 -4,0 z M 4,124 l 4,0 0,4 -4,0 z M 8,124 l 4,0 0,4 -4,0 z M 12,124 l 4,0 0,4 -4,0 z M 20,124 l 4,0 0,4 -4,0 z M 24,124 l 4,0 0,4 -4,0 z M 28,124 l 4,0 0,4 -4,0 z M 32,124 l 4,0 0,4 -4,0 z M 36,124 l 4,0 0,4 -4,0 z M 52,124 l 4,0 0,4 -4,0 z M 56,124 l 4,0 0,4 -4,0 z M 72,124 l 4,0 0,4 -4,0 z M 80,124 l 4,0 0,4 -4,0 z M 84,124 l 4,0 0,4 -4,0 z M 88,124 l 4,0 0,4 -4,0 z M 104,124 l 4,0 0,4 -4,0 z M 108,124 l 4,0 0,4 -4,0 z M 112,124 l 4,0 0,4 -4,0 z M 116,124 l 4,0 0,4 -4,0 z M 120,124 l 4,0 0,4 -4,0 z M 124,124 l 4,0 0,4 -4,0 z M 128,124 l 4,0 0,4 -4,0 z M 132,124 l 4,0 0,4 -4,0 z M 136,124 l 4,0 0,4 -4,0 z M 144,124 l 4,0 0,4 -4,0 z M 156,124 l 4,0 0,4 -4,0 z M 164,124 l 4,0 0,4 -4,0 z M 176,124 l 4,0 0,4 -4,0 z M 196,124 l 4,0 0,4 -4,0 z M 200,124 l 4,0 0,4 -4,0 z M 204,124 l 4,0 0,4 -4,0 z M 208,124 l 4,0 0,4 -4,0 z M 212,124 l 4,0 0,4 -4,0 z M 216,124 l 4,0 0,4 -4,0 z M 220,124 l 4,0 0,4 -4,0 z M 224,124 l 4,0 0,4 -4,0 z M 8,128 l 4,0 0,4 -4,0 z M 20,128 l 4,0 0,4 -4,0 z M 24,128 l 4,0 0,4 -4,0 z M 36,128 l 4,0 0,4 -4,0 z M 40,128 l 4,0 0,4 -4,0 z M 60,128 l 4,0 0,4 -4,0 z M 64,128 l 4,0 0,4 -4,0 z M 68,128 l 4,0 0,4 -4,0 z M 72,128 l 4,0 0,4 -4,0 z M 76,128 l 4,0 0,4 -4,0 z M 80,128 l 4,0 0,4 -4,0 z M 88,128 l 4,0 0,4 -4,0 z M 92,128 l 4,0 0,4 -4,0 z M 96,128 l 4,0 0,4 -4,0 z M 100,128 l 4,0 0,4 -4,0 z M 112,128 l 4,0 0,4 -4,0 z M 116,128 l 4,0 0,4 -4,0 z M 124,128 l 4,0 0,4 -4,0 z M 140,128 l 4,0 0,4 -4,0 z M 148,128 l 4,0 0,4 -4,0 z M 168,128 l 4,0 0,4 -4,0 z M 172,128 l 4,0 0,4 -4,0 z M 192,128 l 4,0 0,4 -4,0 z M 196,128 l 4,0 0,4 -4,0 z M 200,128 l 4,0 0,4 -4,0 z M 204,128 l 4,0 0,4 -4,0 z M 216,128 l 4,0 0,4 -4,0 z M 220,128 l 4,0 0,4 -4,0 z M 224,128 l 4,0 0,4 -4,0 z M 228,128 l 4,0 0,4 -4,0 z M 4,132 l 4,0 0,4 -4,0 z M 28,132 l 4,0 0,4 -4,0 z M 32,132 l 4,0 0,4 -4,0 z M 44,132 l 4,0 0,4 -4,0 z M 52,132 l 4,0 0,4 -4,0 z M 60,132 l 4,0 0,4 -4,0 z M 64,132 l 4,0 0,4 -4,0 z M 76,132 l 4,0 0,4 -4,0 z M 84,132 l 4,0 0,4 -4,0 z M 96,132 l 4,0 0,4 -4,0 z M 104,132 l 4,0 0,4 -4,0 z M 112,132 l 4,0 0,4 -4,0 z M 116,132 l 4,0 0,4 -4,0 z M 120,132 l 4,0 0,4 -4,0 z M 132,132 l 4,0 0,4 -4,0 z M 136,132 l 4,0 0,4 -4,0 z M 140,132 l 4,0 0,4 -4,0 z M 148,132 l 4,0 0,4 -4,0 z M 160,132 l 4,0 0,4 -4,0 z M 176,132 l 4,0 0,4 -4,0 z M 180,132 l 4,0 0,4 -4,0 z M 184,132 l 4,0 0,4 -4,0 z M 188,132 l 4,0 0,4 -4,0 z M 192,132 l 4,0 0,4 -4,0 z M 196,132 l 4,0 0,4 -4,0 z M 200,132 l 4,0 0,4 -4,0 z M 204,132 l 4,0 0,4 -4,0 z M 212,132 l 4,0 0,4 -4,0 z M 220,132 l 4,0 0,4 -4,0 z M 224,132 l 4,0 0,4 -4,0 z M 12,136 l 4,0 0,4 -4,0 z M 20,136 l 4,0 0,4 -4,0 z M 24,136 l 4,0 0,4 -4,0 z M 40,136 l 4,0 0,4 -4,0 z M 44,136 l 4,0 0,4 -4,0 z M 56,136 l 4,0 0,4 -4,0 z M 64,136 l 4,0 0,4 -4,0 z M 88,136 l 4,0 0,4 -4,0 z M 92,136 l 4,0 0,4 -4,0 z M 96,136 l 4,0 0,4 -4,0 z M 100,136 l 4,0 0,4 -4,0 z M 124,136 l 4,0 0,4 -4,0 z M 128,136 l 4,0 0,4 -4,0 z M 136,136 l 4,0 0,4 -4,0 z M 140,136 l 4,0 0,4 -4,0 z M 148,136 l 4,0 0,4 -4,0 z M 152,136 l 4,0 0,4 -4,0 z M 168,136 l 4,0 0,4 -4,0 z M 180,136 l 4,0 0,4 -4,0 z M 188,136 l 4,0 0,4 -4,0 z M 196,136 l 4,0 0,4 -4,0 z M 200,136 l 4,0 0,4 -4,0 z M 8,140 l 4,0 0,4 -4,0 z M 16,140 l 4,0 0,4 -4,0 z M 28,140 l 4,0 0,4 -4,0 z M 32,140 l 4,0 0,4 -4,0 z M 36,140 l 4,0 0,4 -4,0 z M 44,140 l 4,0 0,4 -4,0 z M 60,140 l 4,0 0,4 -4,0 z M 68,140 l 4,0 0,4 -4,0 z M 72,140 l 4,0 0,4 -4,0 z M 88,140 l 4,0 0,4 -4,0 z M 100,140 l 4,0 0,4 -4,0 z M 108,140 l 4,0 0,4 -4,0 z M 112,140 l 4,0 0,4 -4,0 z M 116,140 l 4,0 0,4 -4,0 z M 132,140 l 4,0 0,4 -4,0 z M 136,140 l 4,0 0,4 -4,0 z M 140,140 l 4,0 0,4 -4,0 z M 148,140 l 4,0 0,4 -4,0 z M 152,140 l 4,0 0,4 -4,0 z M 160,140 l 4,0 0,4 -4,0 z M 168,140 l 4,0 0,4 -4,0 z M 172,140 l 4,0 0,4 -4,0 z M 176,140 l 4,0 0,4 -4,0 z M 196,140 l 4,0 0,4 -4,0 z M 208,140 l 4,0 0,4 -4,0 z M 212,140 l 4,0 0,4 -4,0 z M 12,144 l 4,0 0,4 -4,0 z M 36,144 l 4,0 0,4 -4,0 z M 48,144 l 4,0 0,4 -4,0 z M 52,144 l 4,0 0,4 -4,0 z M 56,144 l 4,0 0,4 -4,0 z M 72,144 l 4,0 0,4 -4,0 z M 100,144 l 4,0 0,4 -4,0 z M 104,144 l 4,0 0,4 -4,0 z M 108,144 l 4,0 0,4 -4,0 z M 116,144 l 4,0 0,4 -4,0 z M 132,144 l 4,0 0,4 -4,0 z M 140,144 l 4,0 0,4 -4,0 z M 144,144 l 4,0 0,4 -4,0 z M 152,144 l 4,0 0,4 -4,0 z M 176,144 l 4,0 0,4 -4,0 z M 180,144 l 4,0 0,4 -4,0 z M 184,144 l 4,0 0,4 -4,0 z M 188,144 l 4,0 0,4 -4,0 z M 196,144 l 4,0 0,4 -4,0 z M 204,144 l 4,0 0,4 -4,0 z M 212,144 l 4,0 0,4 -4,0 z M 224,144 l 4,0 0,4 -4,0 z M 228,144 l 4,0 0,4 -4,0 z M 12,148 l 4,0 0,4 -4,0 z M 16,148 l 4,0 0,4 -4,0 z M 20,148 l 4,0 0,4 -4,0 z M 28,148 l 4,0 0,4 -4,0 z M 32,148 l 4,0 0,4 -4,0 z M 36,148 l 4,0 0,4 -4,0 z M 40,148 l 4,0 0,4 -4,0 z M 52,148 l 4,0 0,4 -4,0 z M 56,148 l 4,0 0,4 -4,0 z M 80,148 l 4,0 0,4 -4,0 z M 88,148 l 4,0 0,4 -4,0 z M 100,148 l 4,0 0,4 -4,0 z M 112,148 l 4,0 0,4 -4,0 z M 116,148 l 4,0 0,4 -4,0 z M 128,148 l 4,0 0,4 -4,0 z M 136,148 l 4,0 0,4 -4,0 z M 140,148 l 4,0 0,4 -4,0 z M 148,148 l 4,0 0,4 -4,0 z M 152,148 l 4,0 0,4 -4,0 z M 164,148 l 4,0 0,4 -4,0 z M 168,148 l 4,0 0,4 -4,0 z M 172,148 l 4,0 0,4 -4,0 z M 180,148 l 4,0 0,4 -4,0 z M 184,148 l 4,0 0,4 -4,0 z M 188,148 l 4,0 0,4 -4,0 z M 192,148 l 4,0 0,4 -4,0 z M 196,148 l 4,0 0,4 -4,0 z M 200,148 l 4,0 0,4 -4,0 z M 204,148 l 4,0 0,4 -4,0 z M 208,148 l 4,0 0,4 -4,0 z M 220,148 l 4,0 0,4 -4,0 z M 4,152 l 4,0 0,4 -4,0 z M 8,152 l 4,0 0,4 -4,0 z M 16,152 l 4,0 0,4 -4,0 z M 24,152 l 4,0 0,4 -4,0 z M 44,152 l 4,0 0,4 -4,0 z M 48,152 l 4,0 0,4 -4,0 z M 52,152 l 4,0 0,4 -4,0 z M 60,152 l 4,0 0,4 -4,0 z M 64,152 l 4,0 0,4 -4,0 z M 76,152 l 4,0 0,4 -4,0 z M 80,152 l 4,0 0,4 -4,0 z M 84,152 l 4,0 0,4 -4,0 z M 88,152 l 4,0 0,4 -4,0 z M 100,152 l 4,0 0,4 -4,0 z M 104,152 l 4,0 0,4 -4,0 z M 108,152 l 4,0 0,4 -4,0 z M 116,152 l 4,0 0,4 -4,0 z M 124,152 l 4,0 0,4 -4,0 z M 128,152 l 4,0 0,4 -4,0 z M 136,152 l 4,0 0,4 -4,0 z M 140,152 l 4,0 0,4 -4,0 z M 152,152 l 4,0 0,4 -4,0 z M 156,152 l 4,0 0,4 -4,0 z M 160,152 l 4,0 0,4 -4,0 z M 168,152 l 4,0 0,4 -4,0 z M 172,152 l 4,0 0,4 -4,0 z M 176,152 l 4,0 0,4 -4,0 z M 180,152 l 4,0 0,4 -4,0 z M 184,152 l 4,0 0,4 -4,0 z M 188,152 l 4,0 0,4 -4,0 z M 192,152 l 4,0 0,4 -4,0 z M 200,152 l 4,0 0,4 -4,0 z M 220,152 l 4,0 0,4 -4,0 z M 228,152 l 4,0 0,4 -4,0 z M 4,156 l 4,0 0,4 -4,0 z M 8,156 l 4,0 0,4 -4,0 z M 16,156 l 4,0 0,4 -4,0 z M 28,156 l 4,0 0,4 -4,0 z M 32,156 l 4,0 0,4 -4,0 z M 44,156 l 4,0 0,4 -4,0 z M 52,156 l 4,0 0,4 -4,0 z M 60,156 l 4,0 0,4 -4,0 z M 72,156 l 4,0 0,4 -4,0 z M 100,156 l 4,0 0,4 -4,0 z M 112,156 l 4,0 0,4 -4,0 z M 120,156 l 4,0 0,4 -4,0 z M 124,156 l 4,0 0,4 -4,0 z M 132,156 l 4,0 0,4 -4,0 z M 136,156 l 4,0 0,4 -4,0 z M 140,156 l 4,0 0,4 -4,0 z M 156,156 l 4,0 0,4 -4,0 z M 184,156 l 4,0 0,4 -4,0 z M 188,156 l 4,0 0,4 -4,0 z M 192,156 l 4,0 0,4 -4,0 z M 196,156 l 4,0 0,4 -4,0 z M 208,156 l 4,0 0,4 -4,0 z M 212,156 l 4,0 0,4 -4,0 z M 216,156 l 4,0 0,4 -4,0 z M 220,156 l 4,0 0,4 -4,0 z M 224,156 l 4,0 0,4 -4,0 z M 4,160 l 4,0 0,4 -4,0 z M 8,160 l 4,0 0,4 -4,0 z M 12,160 l 4,0 0,4 -4,0 z M 16,160 l 4,0 0,4 -4,0 z M 36,160 l 4,0 0,4 -4,0 z M 40,160 l 4,0 0,4 -4,0 z M 48,160 l 4,0 0,4 -4,0 z M 60,160 l 4,0 0,4 -4,0 z M 64,160 l 4,0 0,4 -4,0 z M 76,160 l 4,0 0,4 -4,0 z M 80,160 l 4,0 0,4 -4,0 z M 96,160 l 4,0 0,4 -4,0 z M 100,160 l 4,0 0,4 -4,0 z M 104,160 l 4,0 0,4 -4,0 z M 116,160 l 4,0 0,4 -4,0 z M 132,160 l 4,0 0,4 -4,0 z M 152,160 l 4,0 0,4 -4,0 z M 160,160 l 4,0 0,4 -4,0 z M 164,160 l 4,0 0,4 -4,0 z M 168,160 l 4,0 0,4 -4,0 z M 180,160 l 4,0 0,4 -4,0 z M 192,160 l 4,0 0,4 -4,0 z M 196,160 l 4,0 0,4 -4,0 z M 208,160 l 4,0 0,4 -4,0 z M 212,160 l 4,0 0,4 -4,0 z M 216,160 l 4,0 0,4 -4,0 z M 220,160 l 4,0 0,4 -4,0 z M 224,160 l 4,0 0,4 -4,0 z M 4,164 l 4,0 0,4 -4,0 z M 8,164 l 4,0 0,4 -4,0 z M 12,164 l 4,0 0,4 -4,0 z M 28,164 l 4,0 0,4 -4,0 z M 32,164 l 4,0 0,4 -4,0 z M 52,164 l 4,0 0,4 -4,0 z M 64,164 l 4,0 0,4 -4,0 z M 68,164 l 4,0 0,4 -4,0 z M 84,164 l 4,0 0,4 -4,0 z M 92,164 l 4,0 0,4 -4,0 z M 100,164 l 4,0 0,4 -4,0 z M 108,164 l 4,0 0,4 -4,0 z M 112,164 l 4,0 0,4 -4,0 z M 116,164 l 4,0 0,4 -4,0 z M 132,164 l 4,0 0,4 -4,0 z M 144,164 l 4,0 0,4 -4,0 z M 152,164 l 4,0 0,4 -4,0 z M 168,164 l 4,0 0,4 -4,0 z M 172,164 l 4,0 0,4 -4,0 z M 176,164 l 4,0 0,4 -4,0 z M 180,164 l 4,0 0,4 -4,0 z M 192,164 l 4,0 0,4 -4,0 z M 196,164 l 4,0 0,4 -4,0 z M 208,164 l 4,0 0,4 -4,0 z M 212,164 l 4,0 0,4 -4,0 z M 220,164 l 4,0 0,4 -4,0 z M 8,168 l 4,0 0,4 -4,0 z M 40,168 l 4,0 0,4 -4,0 z M 48,168 l 4,0 0,4 -4,0 z M 52,168 l 4,0 0,4 -4,0 z M 56,168 l 4,0 0,4 -4,0 z M 60,168 l 4,0 0,4 -4,0 z M 68,168 l 4,0 0,4 -4,0 z M 88,168 l 4,0 0,4 -4,0 z M 92,168 l 4,0 0,4 -4,0 z M 100,168 l 4,0 0,4 -4,0 z M 104,168 l 4,0 0,4 -4,0 z M 116,168 l 4,0 0,4 -4,0 z M 140,168 l 4,0 0,4 -4,0 z M 144,168 l 4,0 0,4 -4,0 z M 148,168 l 4,0 0,4 -4,0 z M 152,168 l 4,0 0,4 -4,0 z M 156,168 l 4,0 0,4 -4,0 z M 172,168 l 4,0 0,4 -4,0 z M 180,168 l 4,0 0,4 -4,0 z M 188,168 l 4,0 0,4 -4,0 z M 208,168 l 4,0 0,4 -4,0 z M 212,168 l 4,0 0,4 -4,0 z M 220,168 l 4,0 0,4 -4,0 z M 20,172 l 4,0 0,4 -4,0 z M 24,172 l 4,0 0,4 -4,0 z M 28,172 l 4,0 0,4 -4,0 z M 40,172 l 4,0 0,4 -4,0 z M 48,172 l 4,0 0,4 -4,0 z M 56,172 l 4,0 0,4 -4,0 z M 60,172 l 4,0 0,4 -4,0 z M 64,172 l 4,0 0,4 -4,0 z M 76,172 l 4,0 0,4 -4,0 z M 80,172 l 4,0 0,4 -4,0 z M 84,172 l 4,0 0,4 -4,0 z M 92,172 l 4,0 0,4 -4,0 z M 96,172 l 4,0 0,4 -4,0 z M 100,172 l 4,0 0,4 -4,0 z M 104,172 l 4,0 0,4 -4,0 z M 108,172 l 4,0 0,4 -4,0 z M 112,172 l 4,0 0,4 -4,0 z M 128,172 l 4,0 0,4 -4,0 z M 132,172 l 4,0 0,4 -4,0 z M 136,172 l 4,0 0,4 -4,0 z M 140,172 l 4,0 0,4 -4,0 z M 144,172 l 4,0 0,4 -4,0 z M 164,172 l 4,0 0,4 -4,0 z M 176,172 l 4,0 0,4 -4,0 z M 180,172 l 4,0 0,4 -4,0 z M 184,172 l 4,0 0,4 -4,0 z M 188,172 l 4,0 0,4 -4,0 z M 192,172 l 4,0 0,4 -4,0 z M 208,172 l 4,0 0,4 -4,0 z M 216,172 l 4,0 0,4 -4,0 z M 224,172 l 4,0 0,4 -4,0 z M 228,172 l 4,0 0,4 -4,0 z M 12,176 l 4,0 0,4 -4,0 z M 16,176 l 4,0 0,4 -4,0 z M 20,176 l 4,0 0,4 -4,0 z M 24,176 l 4,0 0,4 -4,0 z M 40,176 l 4,0 0,4 -4,0 z M 60,176 l 4,0 0,4 -4,0 z M 68,176 l 4,0 0,4 -4,0 z M 72,176 l 4,0 0,4 -4,0 z M 76,176 l 4,0 0,4 -4,0 z M 80,176 l 4,0 0,4 -4,0 z M 84,176 l 4,0 0,4 -4,0 z M 92,176 l 4,0 0,4 -4,0 z M 96,176 l 4,0 0,4 -4,0 z M 104,176 l 4,0 0,4 -4,0 z M 116,176 l 4,0 0,4 -4,0 z M 124,176 l 4,0 0,4 -4,0 z M 136,176 l 4,0 0,4 -4,0 z M 160,176 l 4,0 0,4 -4,0 z M 168,176 l 4,0 0,4 -4,0 z M 172,176 l 4,0 0,4 -4,0 z M 208,176 l 4,0 0,4 -4,0 z M 212,176 l 4,0 0,4 -4,0 z M 216,176 l 4,0 0,4 -4,0 z M 220,176 l 4,0 0,4 -4,0 z M 224,176 l 4,0 0,4 -4,0 z M 8,180 l 4,0 0,4 -4,0 z M 16,180 l 4,0 0,4 -4,0 z M 28,180 l 4,0 0,4 -4,0 z M 44,180 l 4,0 0,4 -4,0 z M 48,180 l 4,0 0,4 -4,0 z M 56,180 l 4,0 0,4 -4,0 z M 60,180 l 4,0 0,4 -4,0 z M 64,180 l 4,0 0,4 -4,0 z M 76,180 l 4,0 0,4 -4,0 z M 80,180 l 4,0 0,4 -4,0 z M 84,180 l 4,0 0,4 -4,0 z M 92,180 l 4,0 0,4 -4,0 z M 100,180 l 4,0 0,4 -4,0 z M 104,180 l 4,0 0,4 -4,0 z M 108,180 l 4,0 0,4 -4,0 z M 112,180 l 4,0 0,4 -4,0 z M 116,180 l 4,0 0,4 -4,0 z M 120,180 l 4,0 0,4 -4,0 z M 128,180 l 4,0 0,4 -4,0 z M 132,180 l 4,0 0,4 -4,0 z M 136,180 l 4,0 0,4 -4,0 z M 144,180 l 4,0 0,4 -4,0 z M 148,180 l 4,0 0,4 -4,0 z M 156,180 l 4,0 0,4 -4,0 z M 160,180 l 4,0 0,4 -4,0 z M 180,180 l 4,0 0,4 -4,0 z M 184,180 l 4,0 0,4 -4,0 z M 188,180 l 4,0 0,4 -4,0 z M 192,180 l 4,0 0,4 -4,0 z M 196,180 l 4,0 0,4 -4,0 z M 200,180 l 4,0 0,4 -4,0 z M 216,180 l 4,0 0,4 -4,0 z M 224,180 l 4,0 0,4 -4,0 z M 4,184 l 4,0 0,4 -4,0 z M 8,184 l 4,0 0,4 -4,0 z M 20,184 l 4,0 0,4 -4,0 z M 24,184 l 4,0 0,4 -4,0 z M 40,184 l 4,0 0,4 -4,0 z M 44,184 l 4,0 0,4 -4,0 z M 52,184 l 4,0 0,4 -4,0 z M 60,184 l 4,0 0,4 -4,0 z M 64,184 l 4,0 0,4 -4,0 z M 68,184 l 4,0 0,4 -4,0 z M 72,184 l 4,0 0,4 -4,0 z M 76,184 l 4,0 0,4 -4,0 z M 88,184 l 4,0 0,4 -4,0 z M 92,184 l 4,0 0,4 -4,0 z M 96,184 l 4,0 0,4 -4,0 z M 112,184 l 4,0 0,4 -4,0 z M 116,184 l 4,0 0,4 -4,0 z M 128,184 l 4,0 0,4 -4,0 z M 136,184 l 4,0 0,4 -4,0 z M 168,184 l 4,0 0,4 -4,0 z M 172,184 l 4,0 0,4 -4,0 z M 176,184 l 4,0 0,4 -4,0 z M 192,184 l 4,0 0,4 -4,0 z M 204,184 l 4,0 0,4 -4,0 z M 208,184 l 4,0 0,4 -4,0 z M 220,184 l 4,0 0,4 -4,0 z M 228,184 l 4,0 0,4 -4,0 z M 4,188 l 4,0 0,4 -4,0 z M 12,188 l 4,0 0,4 -4,0 z M 24,188 l 4,0 0,4 -4,0 z M 28,188 l 4,0 0,4 -4,0 z M 32,188 l 4,0 0,4 -4,0 z M 36,188 l 4,0 0,4 -4,0 z M 56,188 l 4,0 0,4 -4,0 z M 64,188 l 4,0 0,4 -4,0 z M 68,188 l 4,0 0,4 -4,0 z M 72,188 l 4,0 0,4 -4,0 z M 80,188 l 4,0 0,4 -4,0 z M 84,188 l 4,0 0,4 -4,0 z M 92,188 l 4,0 0,4 -4,0 z M 96,188 l 4,0 0,4 -4,0 z M 104,188 l 4,0 0,4 -4,0 z M 108,188 l 4,0 0,4 -4,0 z M 112,188 l 4,0 0,4 -4,0 z M 120,188 l 4,0 0,4 -4,0 z M 124,188 l 4,0 0,4 -4,0 z M 128,188 l 4,0 0,4 -4,0 z M 144,188 l 4,0 0,4 -4,0 z M 164,188 l 4,0 0,4 -4,0 z M 168,188 l 4,0 0,4 -4,0 z M 180,188 l 4,0 0,4 -4,0 z M 196,188 l 4,0 0,4 -4,0 z M 204,188 l 4,0 0,4 -4,0 z M 220,188 l 4,0 0,4 -4,0 z M 228,188 l 4,0 0,4 -4,0 z M 4,192 l 4,0 0,4 -4,0 z M 8,192 l 4,0 0,4 -4,0 z M 12,192 l 4,0 0,4 -4,0 z M 16,192 l 4,0 0,4 -4,0 z M 20,192 l 4,0 0,4 -4,0 z M 36,192 l 4,0 0,4 -4,0 z M 44,192 l 4,0 0,4 -4,0 z M 64,192 l 4,0 0,4 -4,0 z M 68,192 l 4,0 0,4 -4,0 z M 80,192 l 4,0 0,4 -4,0 z M 84,192 l 4,0 0,4 -4,0 z M 92,192 l 4,0 0,4 -4,0 z M 100,192 l 4,0 0,4 -4,0 z M 112,192 l 4,0 0,4 -4,0 z M 116,192 l 4,0 0,4 -4,0 z M 140,192 l 4,0 0,4 -4,0 z M 148,192 l 4,0 0,4 -4,0 z M 152,192 l 4,0 0,4 -4,0 z M 156,192 l 4,0 0,4 -4,0 z M 160,192 l 4,0 0,4 -4,0 z M 172,192 l 4,0 0,4 -4,0 z M 176,192 l 4,0 0,4 -4,0 z M 192,192 l 4,0 0,4 -4,0 z M 196,192 l 4,0 0,4 -4,0 z M 200,192 l 4,0 0,4 -4,0 z M 204,192 l 4,0 0,4 -4,0 z M 208,192 l 4,0 0,4 -4,0 z M 220,192 l 4,0 0,4 -4,0 z M 28,196 l 4,0 0,4 -4,0 z M 56,196 l 4,0 0,4 -4,0 z M 60,196 l 4,0 0,4 -4,0 z M 64,196 l 4,0 0,4 -4,0 z M 68,196 l 4,0 0,4 -4,0 z M 72,196 l 4,0 0,4 -4,0 z M 76,196 l 4,0 0,4 -4,0 z M 80,196 l 4,0 0,4 -4,0 z M 84,196 l 4,0 0,4 -4,0 z M 100,196 l 4,0 0,4 -4,0 z M 108,196 l 4,0 0,4 -4,0 z M 112,196 l 4,0 0,4 -4,0 z M 116,196 l 4,0 0,4 -4,0 z M 120,196 l 4,0 0,4 -4,0 z M 124,196 l 4,0 0,4 -4,0 z M 136,196 l 4,0 0,4 -4,0 z M 140,196 l 4,0 0,4 -4,0 z M 160,196 l 4,0 0,4 -4,0 z M 172,196 l 4,0 0,4 -4,0 z M 180,196 l 4,0 0,4 -4,0 z M 184,196 l 4,0 0,4 -4,0 z M 188,196 l 4,0 0,4 -4,0 z M 196,196 l 4,0 0,4 -4,0 z M 200,196 l 4,0 0,4 -4,0 z M 204,196 l 4,0 0,4 -4,0 z M 208,196 l 4,0 0,4 -4,0 z M 212,196 l 4,0 0,4 -4,0 z M 220,196 l 4,0 0,4 -4,0 z M 228,196 l 4,0 0,4 -4,0 z M 36,200 l 4,0 0,4 -4,0 z M 40,200 l 4,0 0,4 -4,0 z M 56,200 l 4,0 0,4 -4,0 z M 72,200 l 4,0 0,4 -4,0 z M 80,200 l 4,0 0,4 -4,0 z M 92,200 l 4,0 0,4 -4,0 z M 96,200 l 4,0 0,4 -4,0 z M 100,200 l 4,0 0,4 -4,0 z M 108,200 l 4,0 0,4 -4,0 z M 124,200 l 4,0 0,4 -4,0 z M 136,200 l 4,0 0,4 -4,0 z M 148,200 l 4,0 0,4 -4,0 z M 152,200 l 4,0 0,4 -4,0 z M 156,200 l 4,0 0,4 -4,0 z M 160,200 l 4,0 0,4 -4,0 z M 164,200 l 4,0 0,4 -4,0 z M 180,200 l 4,0 0,4 -4,0 z M 184,200 l 4,0 0,4 -4,0 z M 192,200 l 4,0 0,4 -4,0 z M 196,200 l 4,0 0,4 -4,0 z M 212,200 l 4,0 0,4 -4,0 z M 216,200 l 4,0 0,4 -4,0 z M 220,200 l 4,0 0,4 -4,0 z M 228,200 l 4,0 0,4 -4,0 z M 4,204 l 4,0 0,4 -4,0 z M 8,204 l 4,0 0,4 -4,0 z M 12,204 l 4,0 0,4 -4,0 z M 16,204 l 4,0 0,4 -4,0 z M 20,204 l 4,0 0,4 -4,0 z M 24,204 l 4,0 0,4 -4,0 z M 28,204 l 4,0 0,4 -4,0 z M 36,204 l 4,0 0,4 -4,0 z M 40,204 l 4,0 0,4 -4,0 z M 44,204 l 4,0 0,4 -4,0 z M 48,204 l 4,0 0,4 -4,0 z M 52,204 l 4,0 0,4 -4,0 z M 60,204 l 4,0 0,4 -4,0 z M 68,204 l 4,0 0,4 -4,0 z M 76,204 l 4,0 0,4 -4,0 z M 80,204 l 4,0 0,4 -4,0 z M 88,204 l 4,0 0,4 -4,0 z M 96,204 l 4,0 0,4 -4,0 z M 104,204 l 4,0 0,4 -4,0 z M 108,204 l 4,0 0,4 -4,0 z M 116,204 l 4,0 0,4 -4,0 z M 124,204 l 4,0 0,4 -4,0 z M 128,204 l 4,0 0,4 -4,0 z M 136,204 l 4,0 0,4 -4,0 z M 160,204 l 4,0 0,4 -4,0 z M 176,204 l 4,0 0,4 -4,0 z M 196,204 l 4,0 0,4 -4,0 z M 204,204 l 4,0 0,4 -4,0 z M 212,204 l 4,0 0,4 -4,0 z M 220,204 l 4,0 0,4 -4,0 z M 228,204 l 4,0 0,4 -4,0 z M 4,208 l 4,0 0,4 -4,0 z M 28,208 l 4,0 0,4 -4,0 z M 40,208 l 4,0 0,4 -4,0 z M 44,208 l 4,0 0,4 -4,0 z M 48,208 l 4,0 0,4 -4,0 z M 52,208 l 4,0 0,4 -4,0 z M 56,208 l 4,0 0,4 -4,0 z M 60,208 l 4,0 0,4 -4,0 z M 64,208 l 4,0 0,4 -4,0 z M 72,208 l 4,0 0,4 -4,0 z M 76,208 l 4,0 0,4 -4,0 z M 80,208 l 4,0 0,4 -4,0 z M 88,208 l 4,0 0,4 -4,0 z M 96,208 l 4,0 0,4 -4,0 z M 100,208 l 4,0 0,4 -4,0 z M 108,208 l 4,0 0,4 -4,0 z M 124,208 l 4,0 0,4 -4,0 z M 128,208 l 4,0 0,4 -4,0 z M 132,208 l 4,0 0,4 -4,0 z M 140,208 l 4,0 0,4 -4,0 z M 148,208 l 4,0 0,4 -4,0 z M 152,208 l 4,0 0,4 -4,0 z M 160,208 l 4,0 0,4 -4,0 z M 168,208 l 4,0 0,4 -4,0 z M 172,208 l 4,0 0,4 -4,0 z M 176,208 l 4,0 0,4 -4,0 z M 180,208 l 4,0 0,4 -4,0 z M 184,208 l 4,0 0,4 -4,0 z M 188,208 l 4,0 0,4 -4,0 z M 196,208 l 4,0 0,4 -4,0 z M 212,208 l 4,0 0,4 -4,0 z M 220,208 l 4,0 0,4 -4,0 z M 4,212 l 4,0 0,4 -4,0 z M 12,212 l 4,0 0,4 -4,0 z M 16,212 l 4,0 0,4 -4,0 z M 20,212 l 4,0 0,4 -4,0 z M 28,212 l 4,0 0,4 -4,0 z M 36,212 l 4,0 0,4 -4,0 z M 40,212 l 4,0 0,4 -4,0 z M 44,212 l 4,0 0,4 -4,0 z M 48,212 l 4,0 0,4 -4,0 z M 52,212 l 4,0 0,4 -4,0 z M 64,212 l 4,0 0,4 -4,0 z M 72,212 l 4,0 0,4 -4,0 z M 76,212 l 4,0 0,4 -4,0 z M 80,212 l 4,0 0,4 -4,0 z M 84,212 l 4,0 0,4 -4,0 z M 88,212 l 4,0 0,4 -4,0 z M 92,212 l 4,0 0,4 -4,0 z M 100,212 l 4,0 0,4 -4,0 z M 104,212 l 4,0 0,4 -4,0 z M 108,212 l 4,0 0,4 -4,0 z M 112,212 l 4,0 0,4 -4,0 z M 116,212 l 4,0 0,4 -4,0 z M 120,212 l 4,0 0,4 -4,0 z M 124,212 l 4,0 0,4 -4,0 z M 128,212 l 4,0 0,4 -4,0 z M 136,212 l 4,0 0,4 -4,0 z M 140,212 l 4,0 0,4 -4,0 z M 144,212 l 4,0 0,4 -4,0 z M 152,212 l 4,0 0,4 -4,0 z M 160,212 l 4,0 0,4 -4,0 z M 168,212 l 4,0 0,4 -4,0 z M 176,212 l 4,0 0,4 -4,0 z M 180,212 l 4,0 0,4 -4,0 z M 184,212 l 4,0 0,4 -4,0 z M 188,212 l 4,0 0,4 -4,0 z M 196,212 l 4,0 0,4 -4,0 z M 200,212 l 4,0 0,4 -4,0 z M 204,212 l 4,0 0,4 -4,0 z M 208,212 l 4,0 0,4 -4,0 z M 212,212 l 4,0 0,4 -4,0 z M 220,212 l 4,0 0,4 -4,0 z M 224,212 l 4,0 0,4 -4,0 z M 228,212 l 4,0 0,4 -4,0 z M 4,216 l 4,0 0,4 -4,0 z M 12,216 l 4,0 0,4 -4,0 z M 16,216 l 4,0 0,4 -4,0 z M 20,216 l 4,0 0,4 -4,0 z M 28,216 l 4,0 0,4 -4,0 z M 36,216 l 4,0 0,4 -4,0 z M 48,216 l 4,0 0,4 -4,0 z M 56,216 l 4,0 0,4 -4,0 z M 60,216 l 4,0 0,4 -4,0 z M 68,216 l 4,0 0,4 -4,0 z M 76,216 l 4,0 0,4 -4,0 z M 80,216 l 4,0 0,4 -4,0 z M 88,216 l 4,0 0,4 -4,0 z M 96,216 l 4,0 0,4 -4,0 z M 100,216 l 4,0 0,4 -4,0 z M 104,216 l 4,0 0,4 -4,0 z M 112,216 l 4,0 0,4 -4,0 z M 116,216 l 4,0 0,4 -4,0 z M 120,216 l 4,0 0,4 -4,0 z M 136,216 l 4,0 0,4 -4,0 z M 148,216 l 4,0 0,4 -4,0 z M 152,216 l 4,0 0,4 -4,0 z M 156,216 l 4,0 0,4 -4,0 z M 160,216 l 4,0 0,4 -4,0 z M 164,216 l 4,0 0,4 -4,0 z M 168,216 l 4,0 0,4 -4,0 z M 172,216 l 4,0 0,4 -4,0 z M 180,216 l 4,0 0,4 -4,0 z M 196,216 l 4,0 0,4 -4,0 z M 200,216 l 4,0 0,4 -4,0 z M 204,216 l 4,0 0,4 -4,0 z M 212,216 l 4,0 0,4 -4,0 z M 4,220 l 4,0 0,4 -4,0 z M 12,220 l 4,0 0,4 -4,0 z M 16,220 l 4,0 0,4 -4,0 z M 20,220 l 4,0 0,4 -4,0 z M 28,220 l 4,0 0,4 -4,0 z M 36,220 l 4,0 0,4 -4,0 z M 44,220 l 4,0 0,4 -4,0 z M 48,220 l 4,0 0,4 -4,0 z M 52,220 l 4,0 0,4 -4,0 z M 64,220 l 4,0 0,4 -4,0 z M 68,220 l 4,0 0,4 -4,0 z M 72,220 l 4,0 0,4 -4,0 z M 80,220 l 4,0 0,4 -4,0 z M 84,220 l 4,0 0,4 -4,0 z M 96,220 l 4,0 0,4 -4,0 z M 100,220 l 4,0 0,4 -4,0 z M 104,220 l 4,0 0,4 -4,0 z M 120,220 l 4,0 0,4 -4,0 z M 124,220 l 4,0 0,4 -4,0 z M 128,220 l 4,0 0,4 -4,0 z M 132,220 l 4,0 0,4 -4,0 z M 136,220 l 4,0 0,4 -4,0 z M 148,220 l 4,0 0,4 -4,0 z M 156,220 l 4,0 0,4 -4,0 z M 160,220 l 4,0 0,4 -4,0 z M 172,220 l 4,0 0,4 -4,0 z M 176,220 l 4,0 0,4 -4,0 z M 184,220 l 4,0 0,4 -4,0 z M 200,220 l 4,0 0,4 -4,0 z M 212,220 l 4,0 0,4 -4,0 z M 4,224 l 4,0 0,4 -4,0 z M 28,224 l 4,0 0,4 -4,0 z M 36,224 l 4,0 0,4 -4,0 z M 56,224 l 4,0 0,4 -4,0 z M 68,224 l 4,0 0,4 -4,0 z M 72,224 l 4,0 0,4 -4,0 z M 76,224 l 4,0 0,4 -4,0 z M 80,224 l 4,0 0,4 -4,0 z M 100,224 l 4,0 0,4 -4,0 z M 104,224 l 4,0 0,4 -4,0 z M 108,224 l 4,0 0,4 -4,0 z M 120,224 l 4,0 0,4 -4,0 z M 132,224 l 4,0 0,4 -4,0 z M 140,224 l 4,0 0,4 -4,0 z M 152,224 l 4,0 0,4 -4,0 z M 156,224 l 4,0 0,4 -4,0 z M 160,224 l 4,0 0,4 -4,0 z M 168,224 l 4,0 0,4 -4,0 z M 180,224 l 4,0 0,4 -4,0 z M 200,224 l 4,0 0,4 -4,0 z M 204,224 l 4,0 0,4 -4,0 z M 208,224 l 4,0 0,4 -4,0 z M 212,224 l 4,0 0,4 -4,0 z M 228,224 l 4,0 0,4 -4,0 z M 4,228 l 4,0 0,4 -4,0 z M 8,228 l 4,0 0,4 -4,0 z M 12,228 l 4,0 0,4 -4,0 z M 16,228 l 4,0 0,4 -4,0 z M 20,228 l 4,0 0,4 -4,0 z M 24,228 l 4,0 0,4 -4,0 z M 28,228 l 4,0 0,4 -4,0 z M 36,228 l 4,0 0,4 -4,0 z M 52,228 l 4,0 0,4 -4,0 z M 56,228 l 4,0 0,4 -4,0 z M 64,228 l 4,0 0,4 -4,0 z M 72,228 l 4,0 0,4 -4,0 z M 84,228 l 4,0 0,4 -4,0 z M 92,228 l 4,0 0,4 -4,0 z M 100,228 l 4,0 0,4 -4,0 z M 104,228 l 4,0 0,4 -4,0 z M 124,228 l 4,0 0,4 -4,0 z M 140,228 l 4,0 0,4 -4,0 z M 144,228 l 4,0 0,4 -4,0 z M 148,228 l 4,0 0,4 -4,0 z M 164,228 l 4,0 0,4 -4,0 z M 168,228 l 4,0 0,4 -4,0 z M 172,228 l 4,0 0,4 -4,0 z M 176,228 l 4,0 0,4 -4,0 z M 180,228 l 4,0 0,4 -4,0 z M 192,228 l 4,0 0,4 -4,0 z M 208,228 l 4,0 0,4 -4,0 z M 212,228 l 4,0 0,4 -4,0 z " />
	</g>
</svg>
