<?xml version="1.0" standalone="no"?>
<svg xmlns="http://www.w3.org/2000/svg" version="1.1" width="201" height="201">
	<!-- Created with https://api.qrserver.com (QR Code API, see goQR.me/api for information) -->
	<title>QR Code</title>
	<desc>BEGIN:VCARD
VERSION:3.0
N:Yeo;Kheng Meng
TITLE:IoT Engineer
ORG:SP Group
EMAIL;type=INTERNET;type=WORK;:yeokhengmeng@spgroup.com.sg
EMAIL;type=INTERNET;type=OTHER;:yeokm1@gmail.com
TEL;TYPE=WORK,VOICE:+65 69196184
TEL;TYPE=CELL,VOICE:+65 97390391
URL;WORK:https://www.spgroup.com.sg
URL:http://yeokhengmeng.com
URL:https://www.linkedin.com/in/yeokhengmeng
END:VCARD</desc>
	<rect style="fill:rgb(255, 255, 255);fill-opacity:1" x="0" y="0" width="201" height="201" />
	<g id="elements">
		<path style="fill:rgb(0, 0, 0)" d="M 3,3 l 3,0 0,3 -3,0 z M 6,3 l 3,0 0,3 -3,0 z M 9,3 l 3,0 0,3 -3,0 z M 12,3 l 3,0 0,3 -3,0 z M 15,3 l 3,0 0,3 -3,0 z M 18,3 l 3,0 0,3 -3,0 z M 21,3 l 3,0 0,3 -3,0 z M 30,3 l 3,0 0,3 -3,0 z M 36,3 l 3,0 0,3 -3,0 z M 39,3 l 3,0 0,3 -3,0 z M 48,3 l 3,0 0,3 -3,0 z M 51,3 l 3,0 0,3 -3,0 z M 60,3 l 3,0 0,3 -3,0 z M 63,3 l 3,0 0,3 -3,0 z M 66,3 l 3,0 0,3 -3,0 z M 75,3 l 3,0 0,3 -3,0 z M 93,3 l 3,0 0,3 -3,0 z M 99,3 l 3,0 0,3 -3,0 z M 102,3 l 3,0 0,3 -3,0 z M 105,3 l 3,0 0,3 -3,0 z M 108,3 l 3,0 0,3 -3,0 z M 111,3 l 3,0 0,3 -3,0 z M 114,3 l 3,0 0,3 -3,0 z M 120,3 l 3,0 0,3 -3,0 z M 123,3 l 3,0 0,3 -3,0 z M 135,3 l 3,0 0,3 -3,0 z M 138,3 l 3,0 0,3 -3,0 z M 141,3 l 3,0 0,3 -3,0 z M 147,3 l 3,0 0,3 -3,0 z M 153,3 l 3,0 0,3 -3,0 z M 156,3 l 3,0 0,3 -3,0 z M 162,3 l 3,0 0,3 -3,0 z M 168,3 l 3,0 0,3 -3,0 z M 177,3 l 3,0 0,3 -3,0 z M 180,3 l 3,0 0,3 -3,0 z M 183,3 l 3,0 0,3 -3,0 z M 186,3 l 3,0 0,3 -3,0 z M 189,3 l 3,0 0,3 -3,0 z M 192,3 l 3,0 0,3 -3,0 z M 195,3 l 3,0 0,3 -3,0 z M 3,6 l 3,0 0,3 -3,0 z M 21,6 l 3,0 0,3 -3,0 z M 27,6 l 3,0 0,3 -3,0 z M 39,6 l 3,0 0,3 -3,0 z M 48,6 l 3,0 0,3 -3,0 z M 57,6 l 3,0 0,3 -3,0 z M 63,6 l 3,0 0,3 -3,0 z M 69,6 l 3,0 0,3 -3,0 z M 72,6 l 3,0 0,3 -3,0 z M 75,6 l 3,0 0,3 -3,0 z M 78,6 l 3,0 0,3 -3,0 z M 81,6 l 3,0 0,3 -3,0 z M 84,6 l 3,0 0,3 -3,0 z M 87,6 l 3,0 0,3 -3,0 z M 93,6 l 3,0 0,3 -3,0 z M 102,6 l 3,0 0,3 -3,0 z M 108,6 l 3,0 0,3 -3,0 z M 117,6 l 3,0 0,3 -3,0 z M 123,6 l 3,0 0,3 -3,0 z M 135,6 l 3,0 0,3 -3,0 z M 138,6 l 3,0 0,3 -3,0 z M 141,6 l 3,0 0,3 -3,0 z M 144,6 l 3,0 0,3 -3,0 z M 153,6 l 3,0 0,3 -3,0 z M 159,6 l 3,0 0,3 -3,0 z M 171,6 l 3,0 0,3 -3,0 z M 177,6 l 3,0 0,3 -3,0 z M 195,6 l 3,0 0,3 -3,0 z M 3,9 l 3,0 0,3 -3,0 z M 9,9 l 3,0 0,3 -3,0 z M 12,9 l 3,0 0,3 -3,0 z M 15,9 l 3,0 0,3 -3,0 z M 21,9 l 3,0 0,3 -3,0 z M 30,9 l 3,0 0,3 -3,0 z M 36,9 l 3,0 0,3 -3,0 z M 42,9 l 3,0 0,3 -3,0 z M 45,9 l 3,0 0,3 -3,0 z M 60,9 l 3,0 0,3 -3,0 z M 63,9 l 3,0 0,3 -3,0 z M 72,9 l 3,0 0,3 -3,0 z M 78,9 l 3,0 0,3 -3,0 z M 84,9 l 3,0 0,3 -3,0 z M 87,9 l 3,0 0,3 -3,0 z M 90,9 l 3,0 0,3 -3,0 z M 93,9 l 3,0 0,3 -3,0 z M 99,9 l 3,0 0,3 -3,0 z M 111,9 l 3,0 0,3 -3,0 z M 123,9 l 3,0 0,3 -3,0 z M 126,9 l 3,0 0,3 -3,0 z M 129,9 l 3,0 0,3 -3,0 z M 135,9 l 3,0 0,3 -3,0 z M 144,9 l 3,0 0,3 -3,0 z M 165,9 l 3,0 0,3 -3,0 z M 171,9 l 3,0 0,3 -3,0 z M 177,9 l 3,0 0,3 -3,0 z M 183,9 l 3,0 0,3 -3,0 z M 186,9 l 3,0 0,3 -3,0 z M 189,9 l 3,0 0,3 -3,0 z M 195,9 l 3,0 0,3 -3,0 z M 3,12 l 3,0 0,3 -3,0 z M 9,12 l 3,0 0,3 -3,0 z M 12,12 l 3,0 0,3 -3,0 z M 15,12 l 3,0 0,3 -3,0 z M 21,12 l 3,0 0,3 -3,0 z M 27,12 l 3,0 0,3 -3,0 z M 33,12 l 3,0 0,3 -3,0 z M 45,12 l 3,0 0,3 -3,0 z M 48,12 l 3,0 0,3 -3,0 z M 54,12 l 3,0 0,3 -3,0 z M 57,12 l 3,0 0,3 -3,0 z M 63,12 l 3,0 0,3 -3,0 z M 69,12 l 3,0 0,3 -3,0 z M 72,12 l 3,0 0,3 -3,0 z M 75,12 l 3,0 0,3 -3,0 z M 78,12 l 3,0 0,3 -3,0 z M 81,12 l 3,0 0,3 -3,0 z M 87,12 l 3,0 0,3 -3,0 z M 90,12 l 3,0 0,3 -3,0 z M 93,12 l 3,0 0,3 -3,0 z M 102,12 l 3,0 0,3 -3,0 z M 105,12 l 3,0 0,3 -3,0 z M 114,12 l 3,0 0,3 -3,0 z M 117,12 l 3,0 0,3 -3,0 z M 120,12 l 3,0 0,3 -3,0 z M 132,12 l 3,0 0,3 -3,0 z M 135,12 l 3,0 0,3 -3,0 z M 138,12 l 3,0 0,3 -3,0 z M 147,12 l 3,0 0,3 -3,0 z M 153,12 l 3,0 0,3 -3,0 z M 162,12 l 3,0 0,3 -3,0 z M 165,12 l 3,0 0,3 -3,0 z M 168,12 l 3,0 0,3 -3,0 z M 177,12 l 3,0 0,3 -3,0 z M 183,12 l 3,0 0,3 -3,0 z M 186,12 l 3,0 0,3 -3,0 z M 189,12 l 3,0 0,3 -3,0 z M 195,12 l 3,0 0,3 -3,0 z M 3,15 l 3,0 0,3 -3,0 z M 9,15 l 3,0 0,3 -3,0 z M 12,15 l 3,0 0,3 -3,0 z M 15,15 l 3,0 0,3 -3,0 z M 21,15 l 3,0 0,3 -3,0 z M 30,15 l 3,0 0,3 -3,0 z M 33,15 l 3,0 0,3 -3,0 z M 42,15 l 3,0 0,3 -3,0 z M 45,15 l 3,0 0,3 -3,0 z M 48,15 l 3,0 0,3 -3,0 z M 51,15 l 3,0 0,3 -3,0 z M 54,15 l 3,0 0,3 -3,0 z M 57,15 l 3,0 0,3 -3,0 z M 63,15 l 3,0 0,3 -3,0 z M 66,15 l 3,0 0,3 -3,0 z M 75,15 l 3,0 0,3 -3,0 z M 84,15 l 3,0 0,3 -3,0 z M 87,15 l 3,0 0,3 -3,0 z M 90,15 l 3,0 0,3 -3,0 z M 93,15 l 3,0 0,3 -3,0 z M 96,15 l 3,0 0,3 -3,0 z M 99,15 l 3,0 0,3 -3,0 z M 102,15 l 3,0 0,3 -3,0 z M 105,15 l 3,0 0,3 -3,0 z M 117,15 l 3,0 0,3 -3,0 z M 126,15 l 3,0 0,3 -3,0 z M 138,15 l 3,0 0,3 -3,0 z M 141,15 l 3,0 0,3 -3,0 z M 147,15 l 3,0 0,3 -3,0 z M 150,15 l 3,0 0,3 -3,0 z M 162,15 l 3,0 0,3 -3,0 z M 171,15 l 3,0 0,3 -3,0 z M 177,15 l 3,0 0,3 -3,0 z M 183,15 l 3,0 0,3 -3,0 z M 186,15 l 3,0 0,3 -3,0 z M 189,15 l 3,0 0,3 -3,0 z M 195,15 l 3,0 0,3 -3,0 z M 3,18 l 3,0 0,3 -3,0 z M 21,18 l 3,0 0,3 -3,0 z M 27,18 l 3,0 0,3 -3,0 z M 30,18 l 3,0 0,3 -3,0 z M 45,18 l 3,0 0,3 -3,0 z M 51,18 l 3,0 0,3 -3,0 z M 54,18 l 3,0 0,3 -3,0 z M 66,18 l 3,0 0,3 -3,0 z M 69,18 l 3,0 0,3 -3,0 z M 72,18 l 3,0 0,3 -3,0 z M 75,18 l 3,0 0,3 -3,0 z M 84,18 l 3,0 0,3 -3,0 z M 93,18 l 3,0 0,3 -3,0 z M 105,18 l 3,0 0,3 -3,0 z M 117,18 l 3,0 0,3 -3,0 z M 141,18 l 3,0 0,3 -3,0 z M 150,18 l 3,0 0,3 -3,0 z M 156,18 l 3,0 0,3 -3,0 z M 159,18 l 3,0 0,3 -3,0 z M 165,18 l 3,0 0,3 -3,0 z M 177,18 l 3,0 0,3 -3,0 z M 195,18 l 3,0 0,3 -3,0 z M 3,21 l 3,0 0,3 -3,0 z M 6,21 l 3,0 0,3 -3,0 z M 9,21 l 3,0 0,3 -3,0 z M 12,21 l 3,0 0,3 -3,0 z M 15,21 l 3,0 0,3 -3,0 z M 18,21 l 3,0 0,3 -3,0 z M 21,21 l 3,0 0,3 -3,0 z M 27,21 l 3,0 0,3 -3,0 z M 33,21 l 3,0 0,3 -3,0 z M 39,21 l 3,0 0,3 -3,0 z M 45,21 l 3,0 0,3 -3,0 z M 51,21 l 3,0 0,3 -3,0 z M 57,21 l 3,0 0,3 -3,0 z M 63,21 l 3,0 0,3 -3,0 z M 69,21 l 3,0 0,3 -3,0 z M 75,21 l 3,0 0,3 -3,0 z M 81,21 l 3,0 0,3 -3,0 z M 87,21 l 3,0 0,3 -3,0 z M 93,21 l 3,0 0,3 -3,0 z M 99,21 l 3,0 0,3 -3,0 z M 105,21 l 3,0 0,3 -3,0 z M 111,21 l 3,0 0,3 -3,0 z M 117,21 l 3,0 0,3 -3,0 z M 123,21 l 3,0 0,3 -3,0 z M 129,21 l 3,0 0,3 -3,0 z M 135,21 l 3,0 0,3 -3,0 z M 141,21 l 3,0 0,3 -3,0 z M 147,21 l 3,0 0,3 -3,0 z M 153,21 l 3,0 0,3 -3,0 z M 159,21 l 3,0 0,3 -3,0 z M 165,21 l 3,0 0,3 -3,0 z M 171,21 l 3,0 0,3 -3,0 z M 177,21 l 3,0 0,3 -3,0 z M 180,21 l 3,0 0,3 -3,0 z M 183,21 l 3,0 0,3 -3,0 z M 186,21 l 3,0 0,3 -3,0 z M 189,21 l 3,0 0,3 -3,0 z M 192,21 l 3,0 0,3 -3,0 z M 195,21 l 3,0 0,3 -3,0 z M 30,24 l 3,0 0,3 -3,0 z M 36,24 l 3,0 0,3 -3,0 z M 39,24 l 3,0 0,3 -3,0 z M 42,24 l 3,0 0,3 -3,0 z M 45,24 l 3,0 0,3 -3,0 z M 48,24 l 3,0 0,3 -3,0 z M 51,24 l 3,0 0,3 -3,0 z M 57,24 l 3,0 0,3 -3,0 z M 63,24 l 3,0 0,3 -3,0 z M 87,24 l 3,0 0,3 -3,0 z M 93,24 l 3,0 0,3 -3,0 z M 105,24 l 3,0 0,3 -3,0 z M 111,24 l 3,0 0,3 -3,0 z M 132,24 l 3,0 0,3 -3,0 z M 141,24 l 3,0 0,3 -3,0 z M 144,24 l 3,0 0,3 -3,0 z M 147,24 l 3,0 0,3 -3,0 z M 153,24 l 3,0 0,3 -3,0 z M 162,24 l 3,0 0,3 -3,0 z M 168,24 l 3,0 0,3 -3,0 z M 3,27 l 3,0 0,3 -3,0 z M 6,27 l 3,0 0,3 -3,0 z M 9,27 l 3,0 0,3 -3,0 z M 12,27 l 3,0 0,3 -3,0 z M 15,27 l 3,0 0,3 -3,0 z M 21,27 l 3,0 0,3 -3,0 z M 24,27 l 3,0 0,3 -3,0 z M 27,27 l 3,0 0,3 -3,0 z M 30,27 l 3,0 0,3 -3,0 z M 33,27 l 3,0 0,3 -3,0 z M 42,27 l 3,0 0,3 -3,0 z M 48,27 l 3,0 0,3 -3,0 z M 51,27 l 3,0 0,3 -3,0 z M 66,27 l 3,0 0,3 -3,0 z M 69,27 l 3,0 0,3 -3,0 z M 84,27 l 3,0 0,3 -3,0 z M 90,27 l 3,0 0,3 -3,0 z M 93,27 l 3,0 0,3 -3,0 z M 96,27 l 3,0 0,3 -3,0 z M 99,27 l 3,0 0,3 -3,0 z M 102,27 l 3,0 0,3 -3,0 z M 105,27 l 3,0 0,3 -3,0 z M 108,27 l 3,0 0,3 -3,0 z M 111,27 l 3,0 0,3 -3,0 z M 126,27 l 3,0 0,3 -3,0 z M 132,27 l 3,0 0,3 -3,0 z M 135,27 l 3,0 0,3 -3,0 z M 138,27 l 3,0 0,3 -3,0 z M 144,27 l 3,0 0,3 -3,0 z M 150,27 l 3,0 0,3 -3,0 z M 153,27 l 3,0 0,3 -3,0 z M 174,27 l 3,0 0,3 -3,0 z M 180,27 l 3,0 0,3 -3,0 z M 186,27 l 3,0 0,3 -3,0 z M 192,27 l 3,0 0,3 -3,0 z M 6,30 l 3,0 0,3 -3,0 z M 9,30 l 3,0 0,3 -3,0 z M 15,30 l 3,0 0,3 -3,0 z M 24,30 l 3,0 0,3 -3,0 z M 27,30 l 3,0 0,3 -3,0 z M 30,30 l 3,0 0,3 -3,0 z M 39,30 l 3,0 0,3 -3,0 z M 45,30 l 3,0 0,3 -3,0 z M 48,30 l 3,0 0,3 -3,0 z M 66,30 l 3,0 0,3 -3,0 z M 69,30 l 3,0 0,3 -3,0 z M 84,30 l 3,0 0,3 -3,0 z M 87,30 l 3,0 0,3 -3,0 z M 90,30 l 3,0 0,3 -3,0 z M 93,30 l 3,0 0,3 -3,0 z M 96,30 l 3,0 0,3 -3,0 z M 102,30 l 3,0 0,3 -3,0 z M 105,30 l 3,0 0,3 -3,0 z M 108,30 l 3,0 0,3 -3,0 z M 111,30 l 3,0 0,3 -3,0 z M 114,30 l 3,0 0,3 -3,0 z M 123,30 l 3,0 0,3 -3,0 z M 126,30 l 3,0 0,3 -3,0 z M 138,30 l 3,0 0,3 -3,0 z M 147,30 l 3,0 0,3 -3,0 z M 153,30 l 3,0 0,3 -3,0 z M 162,30 l 3,0 0,3 -3,0 z M 177,30 l 3,0 0,3 -3,0 z M 183,30 l 3,0 0,3 -3,0 z M 186,30 l 3,0 0,3 -3,0 z M 192,30 l 3,0 0,3 -3,0 z M 6,33 l 3,0 0,3 -3,0 z M 9,33 l 3,0 0,3 -3,0 z M 15,33 l 3,0 0,3 -3,0 z M 18,33 l 3,0 0,3 -3,0 z M 21,33 l 3,0 0,3 -3,0 z M 24,33 l 3,0 0,3 -3,0 z M 30,33 l 3,0 0,3 -3,0 z M 33,33 l 3,0 0,3 -3,0 z M 45,33 l 3,0 0,3 -3,0 z M 51,33 l 3,0 0,3 -3,0 z M 57,33 l 3,0 0,3 -3,0 z M 63,33 l 3,0 0,3 -3,0 z M 69,33 l 3,0 0,3 -3,0 z M 75,33 l 3,0 0,3 -3,0 z M 81,33 l 3,0 0,3 -3,0 z M 84,33 l 3,0 0,3 -3,0 z M 90,33 l 3,0 0,3 -3,0 z M 96,33 l 3,0 0,3 -3,0 z M 99,33 l 3,0 0,3 -3,0 z M 114,33 l 3,0 0,3 -3,0 z M 120,33 l 3,0 0,3 -3,0 z M 126,33 l 3,0 0,3 -3,0 z M 129,33 l 3,0 0,3 -3,0 z M 135,33 l 3,0 0,3 -3,0 z M 144,33 l 3,0 0,3 -3,0 z M 150,33 l 3,0 0,3 -3,0 z M 156,33 l 3,0 0,3 -3,0 z M 159,33 l 3,0 0,3 -3,0 z M 165,33 l 3,0 0,3 -3,0 z M 168,33 l 3,0 0,3 -3,0 z M 174,33 l 3,0 0,3 -3,0 z M 177,33 l 3,0 0,3 -3,0 z M 180,33 l 3,0 0,3 -3,0 z M 189,33 l 3,0 0,3 -3,0 z M 192,33 l 3,0 0,3 -3,0 z M 3,36 l 3,0 0,3 -3,0 z M 6,36 l 3,0 0,3 -3,0 z M 9,36 l 3,0 0,3 -3,0 z M 12,36 l 3,0 0,3 -3,0 z M 18,36 l 3,0 0,3 -3,0 z M 24,36 l 3,0 0,3 -3,0 z M 27,36 l 3,0 0,3 -3,0 z M 30,36 l 3,0 0,3 -3,0 z M 33,36 l 3,0 0,3 -3,0 z M 36,36 l 3,0 0,3 -3,0 z M 39,36 l 3,0 0,3 -3,0 z M 42,36 l 3,0 0,3 -3,0 z M 45,36 l 3,0 0,3 -3,0 z M 51,36 l 3,0 0,3 -3,0 z M 57,36 l 3,0 0,3 -3,0 z M 60,36 l 3,0 0,3 -3,0 z M 63,36 l 3,0 0,3 -3,0 z M 84,36 l 3,0 0,3 -3,0 z M 87,36 l 3,0 0,3 -3,0 z M 96,36 l 3,0 0,3 -3,0 z M 99,36 l 3,0 0,3 -3,0 z M 105,36 l 3,0 0,3 -3,0 z M 108,36 l 3,0 0,3 -3,0 z M 126,36 l 3,0 0,3 -3,0 z M 132,36 l 3,0 0,3 -3,0 z M 144,36 l 3,0 0,3 -3,0 z M 156,36 l 3,0 0,3 -3,0 z M 168,36 l 3,0 0,3 -3,0 z M 171,36 l 3,0 0,3 -3,0 z M 174,36 l 3,0 0,3 -3,0 z M 189,36 l 3,0 0,3 -3,0 z M 3,39 l 3,0 0,3 -3,0 z M 9,39 l 3,0 0,3 -3,0 z M 12,39 l 3,0 0,3 -3,0 z M 21,39 l 3,0 0,3 -3,0 z M 33,39 l 3,0 0,3 -3,0 z M 36,39 l 3,0 0,3 -3,0 z M 42,39 l 3,0 0,3 -3,0 z M 57,39 l 3,0 0,3 -3,0 z M 66,39 l 3,0 0,3 -3,0 z M 69,39 l 3,0 0,3 -3,0 z M 84,39 l 3,0 0,3 -3,0 z M 87,39 l 3,0 0,3 -3,0 z M 93,39 l 3,0 0,3 -3,0 z M 105,39 l 3,0 0,3 -3,0 z M 108,39 l 3,0 0,3 -3,0 z M 111,39 l 3,0 0,3 -3,0 z M 114,39 l 3,0 0,3 -3,0 z M 126,39 l 3,0 0,3 -3,0 z M 129,39 l 3,0 0,3 -3,0 z M 132,39 l 3,0 0,3 -3,0 z M 150,39 l 3,0 0,3 -3,0 z M 156,39 l 3,0 0,3 -3,0 z M 162,39 l 3,0 0,3 -3,0 z M 165,39 l 3,0 0,3 -3,0 z M 171,39 l 3,0 0,3 -3,0 z M 174,39 l 3,0 0,3 -3,0 z M 183,39 l 3,0 0,3 -3,0 z M 195,39 l 3,0 0,3 -3,0 z M 3,42 l 3,0 0,3 -3,0 z M 9,42 l 3,0 0,3 -3,0 z M 12,42 l 3,0 0,3 -3,0 z M 18,42 l 3,0 0,3 -3,0 z M 27,42 l 3,0 0,3 -3,0 z M 42,42 l 3,0 0,3 -3,0 z M 48,42 l 3,0 0,3 -3,0 z M 51,42 l 3,0 0,3 -3,0 z M 54,42 l 3,0 0,3 -3,0 z M 78,42 l 3,0 0,3 -3,0 z M 81,42 l 3,0 0,3 -3,0 z M 84,42 l 3,0 0,3 -3,0 z M 90,42 l 3,0 0,3 -3,0 z M 96,42 l 3,0 0,3 -3,0 z M 99,42 l 3,0 0,3 -3,0 z M 120,42 l 3,0 0,3 -3,0 z M 126,42 l 3,0 0,3 -3,0 z M 129,42 l 3,0 0,3 -3,0 z M 135,42 l 3,0 0,3 -3,0 z M 138,42 l 3,0 0,3 -3,0 z M 144,42 l 3,0 0,3 -3,0 z M 150,42 l 3,0 0,3 -3,0 z M 156,42 l 3,0 0,3 -3,0 z M 165,42 l 3,0 0,3 -3,0 z M 171,42 l 3,0 0,3 -3,0 z M 174,42 l 3,0 0,3 -3,0 z M 186,42 l 3,0 0,3 -3,0 z M 195,42 l 3,0 0,3 -3,0 z M 3,45 l 3,0 0,3 -3,0 z M 6,45 l 3,0 0,3 -3,0 z M 9,45 l 3,0 0,3 -3,0 z M 12,45 l 3,0 0,3 -3,0 z M 15,45 l 3,0 0,3 -3,0 z M 18,45 l 3,0 0,3 -3,0 z M 21,45 l 3,0 0,3 -3,0 z M 24,45 l 3,0 0,3 -3,0 z M 27,45 l 3,0 0,3 -3,0 z M 30,45 l 3,0 0,3 -3,0 z M 36,45 l 3,0 0,3 -3,0 z M 39,45 l 3,0 0,3 -3,0 z M 45,45 l 3,0 0,3 -3,0 z M 51,45 l 3,0 0,3 -3,0 z M 54,45 l 3,0 0,3 -3,0 z M 69,45 l 3,0 0,3 -3,0 z M 75,45 l 3,0 0,3 -3,0 z M 81,45 l 3,0 0,3 -3,0 z M 90,45 l 3,0 0,3 -3,0 z M 93,45 l 3,0 0,3 -3,0 z M 96,45 l 3,0 0,3 -3,0 z M 99,45 l 3,0 0,3 -3,0 z M 102,45 l 3,0 0,3 -3,0 z M 108,45 l 3,0 0,3 -3,0 z M 111,45 l 3,0 0,3 -3,0 z M 114,45 l 3,0 0,3 -3,0 z M 117,45 l 3,0 0,3 -3,0 z M 126,45 l 3,0 0,3 -3,0 z M 129,45 l 3,0 0,3 -3,0 z M 132,45 l 3,0 0,3 -3,0 z M 147,45 l 3,0 0,3 -3,0 z M 150,45 l 3,0 0,3 -3,0 z M 153,45 l 3,0 0,3 -3,0 z M 156,45 l 3,0 0,3 -3,0 z M 168,45 l 3,0 0,3 -3,0 z M 171,45 l 3,0 0,3 -3,0 z M 174,45 l 3,0 0,3 -3,0 z M 186,45 l 3,0 0,3 -3,0 z M 24,48 l 3,0 0,3 -3,0 z M 30,48 l 3,0 0,3 -3,0 z M 39,48 l 3,0 0,3 -3,0 z M 42,48 l 3,0 0,3 -3,0 z M 45,48 l 3,0 0,3 -3,0 z M 60,48 l 3,0 0,3 -3,0 z M 66,48 l 3,0 0,3 -3,0 z M 69,48 l 3,0 0,3 -3,0 z M 72,48 l 3,0 0,3 -3,0 z M 78,48 l 3,0 0,3 -3,0 z M 87,48 l 3,0 0,3 -3,0 z M 90,48 l 3,0 0,3 -3,0 z M 96,48 l 3,0 0,3 -3,0 z M 99,48 l 3,0 0,3 -3,0 z M 102,48 l 3,0 0,3 -3,0 z M 105,48 l 3,0 0,3 -3,0 z M 111,48 l 3,0 0,3 -3,0 z M 114,48 l 3,0 0,3 -3,0 z M 120,48 l 3,0 0,3 -3,0 z M 141,48 l 3,0 0,3 -3,0 z M 150,48 l 3,0 0,3 -3,0 z M 153,48 l 3,0 0,3 -3,0 z M 156,48 l 3,0 0,3 -3,0 z M 159,48 l 3,0 0,3 -3,0 z M 162,48 l 3,0 0,3 -3,0 z M 168,48 l 3,0 0,3 -3,0 z M 174,48 l 3,0 0,3 -3,0 z M 177,48 l 3,0 0,3 -3,0 z M 180,48 l 3,0 0,3 -3,0 z M 183,48 l 3,0 0,3 -3,0 z M 186,48 l 3,0 0,3 -3,0 z M 189,48 l 3,0 0,3 -3,0 z M 3,51 l 3,0 0,3 -3,0 z M 9,51 l 3,0 0,3 -3,0 z M 12,51 l 3,0 0,3 -3,0 z M 15,51 l 3,0 0,3 -3,0 z M 18,51 l 3,0 0,3 -3,0 z M 21,51 l 3,0 0,3 -3,0 z M 36,51 l 3,0 0,3 -3,0 z M 45,51 l 3,0 0,3 -3,0 z M 54,51 l 3,0 0,3 -3,0 z M 63,51 l 3,0 0,3 -3,0 z M 66,51 l 3,0 0,3 -3,0 z M 69,51 l 3,0 0,3 -3,0 z M 75,51 l 3,0 0,3 -3,0 z M 81,51 l 3,0 0,3 -3,0 z M 84,51 l 3,0 0,3 -3,0 z M 87,51 l 3,0 0,3 -3,0 z M 93,51 l 3,0 0,3 -3,0 z M 105,51 l 3,0 0,3 -3,0 z M 108,51 l 3,0 0,3 -3,0 z M 114,51 l 3,0 0,3 -3,0 z M 117,51 l 3,0 0,3 -3,0 z M 120,51 l 3,0 0,3 -3,0 z M 132,51 l 3,0 0,3 -3,0 z M 150,51 l 3,0 0,3 -3,0 z M 156,51 l 3,0 0,3 -3,0 z M 183,51 l 3,0 0,3 -3,0 z M 27,54 l 3,0 0,3 -3,0 z M 30,54 l 3,0 0,3 -3,0 z M 36,54 l 3,0 0,3 -3,0 z M 42,54 l 3,0 0,3 -3,0 z M 48,54 l 3,0 0,3 -3,0 z M 60,54 l 3,0 0,3 -3,0 z M 63,54 l 3,0 0,3 -3,0 z M 66,54 l 3,0 0,3 -3,0 z M 72,54 l 3,0 0,3 -3,0 z M 75,54 l 3,0 0,3 -3,0 z M 84,54 l 3,0 0,3 -3,0 z M 87,54 l 3,0 0,3 -3,0 z M 93,54 l 3,0 0,3 -3,0 z M 96,54 l 3,0 0,3 -3,0 z M 99,54 l 3,0 0,3 -3,0 z M 102,54 l 3,0 0,3 -3,0 z M 105,54 l 3,0 0,3 -3,0 z M 108,54 l 3,0 0,3 -3,0 z M 111,54 l 3,0 0,3 -3,0 z M 114,54 l 3,0 0,3 -3,0 z M 120,54 l 3,0 0,3 -3,0 z M 123,54 l 3,0 0,3 -3,0 z M 126,54 l 3,0 0,3 -3,0 z M 129,54 l 3,0 0,3 -3,0 z M 132,54 l 3,0 0,3 -3,0 z M 141,54 l 3,0 0,3 -3,0 z M 144,54 l 3,0 0,3 -3,0 z M 147,54 l 3,0 0,3 -3,0 z M 150,54 l 3,0 0,3 -3,0 z M 153,54 l 3,0 0,3 -3,0 z M 159,54 l 3,0 0,3 -3,0 z M 168,54 l 3,0 0,3 -3,0 z M 171,54 l 3,0 0,3 -3,0 z M 183,54 l 3,0 0,3 -3,0 z M 192,54 l 3,0 0,3 -3,0 z M 3,57 l 3,0 0,3 -3,0 z M 9,57 l 3,0 0,3 -3,0 z M 12,57 l 3,0 0,3 -3,0 z M 21,57 l 3,0 0,3 -3,0 z M 24,57 l 3,0 0,3 -3,0 z M 30,57 l 3,0 0,3 -3,0 z M 39,57 l 3,0 0,3 -3,0 z M 45,57 l 3,0 0,3 -3,0 z M 48,57 l 3,0 0,3 -3,0 z M 51,57 l 3,0 0,3 -3,0 z M 54,57 l 3,0 0,3 -3,0 z M 57,57 l 3,0 0,3 -3,0 z M 60,57 l 3,0 0,3 -3,0 z M 69,57 l 3,0 0,3 -3,0 z M 72,57 l 3,0 0,3 -3,0 z M 78,57 l 3,0 0,3 -3,0 z M 84,57 l 3,0 0,3 -3,0 z M 87,57 l 3,0 0,3 -3,0 z M 90,57 l 3,0 0,3 -3,0 z M 93,57 l 3,0 0,3 -3,0 z M 96,57 l 3,0 0,3 -3,0 z M 99,57 l 3,0 0,3 -3,0 z M 102,57 l 3,0 0,3 -3,0 z M 108,57 l 3,0 0,3 -3,0 z M 111,57 l 3,0 0,3 -3,0 z M 123,57 l 3,0 0,3 -3,0 z M 129,57 l 3,0 0,3 -3,0 z M 138,57 l 3,0 0,3 -3,0 z M 144,57 l 3,0 0,3 -3,0 z M 153,57 l 3,0 0,3 -3,0 z M 159,57 l 3,0 0,3 -3,0 z M 165,57 l 3,0 0,3 -3,0 z M 171,57 l 3,0 0,3 -3,0 z M 174,57 l 3,0 0,3 -3,0 z M 180,57 l 3,0 0,3 -3,0 z M 186,57 l 3,0 0,3 -3,0 z M 192,57 l 3,0 0,3 -3,0 z M 3,60 l 3,0 0,3 -3,0 z M 6,60 l 3,0 0,3 -3,0 z M 9,60 l 3,0 0,3 -3,0 z M 12,60 l 3,0 0,3 -3,0 z M 15,60 l 3,0 0,3 -3,0 z M 18,60 l 3,0 0,3 -3,0 z M 27,60 l 3,0 0,3 -3,0 z M 30,60 l 3,0 0,3 -3,0 z M 36,60 l 3,0 0,3 -3,0 z M 39,60 l 3,0 0,3 -3,0 z M 45,60 l 3,0 0,3 -3,0 z M 48,60 l 3,0 0,3 -3,0 z M 51,60 l 3,0 0,3 -3,0 z M 57,60 l 3,0 0,3 -3,0 z M 60,60 l 3,0 0,3 -3,0 z M 66,60 l 3,0 0,3 -3,0 z M 72,60 l 3,0 0,3 -3,0 z M 75,60 l 3,0 0,3 -3,0 z M 78,60 l 3,0 0,3 -3,0 z M 84,60 l 3,0 0,3 -3,0 z M 87,60 l 3,0 0,3 -3,0 z M 93,60 l 3,0 0,3 -3,0 z M 99,60 l 3,0 0,3 -3,0 z M 105,60 l 3,0 0,3 -3,0 z M 111,60 l 3,0 0,3 -3,0 z M 114,60 l 3,0 0,3 -3,0 z M 126,60 l 3,0 0,3 -3,0 z M 129,60 l 3,0 0,3 -3,0 z M 132,60 l 3,0 0,3 -3,0 z M 135,60 l 3,0 0,3 -3,0 z M 144,60 l 3,0 0,3 -3,0 z M 162,60 l 3,0 0,3 -3,0 z M 177,60 l 3,0 0,3 -3,0 z M 183,60 l 3,0 0,3 -3,0 z M 186,60 l 3,0 0,3 -3,0 z M 192,60 l 3,0 0,3 -3,0 z M 195,60 l 3,0 0,3 -3,0 z M 3,63 l 3,0 0,3 -3,0 z M 18,63 l 3,0 0,3 -3,0 z M 21,63 l 3,0 0,3 -3,0 z M 24,63 l 3,0 0,3 -3,0 z M 42,63 l 3,0 0,3 -3,0 z M 45,63 l 3,0 0,3 -3,0 z M 48,63 l 3,0 0,3 -3,0 z M 54,63 l 3,0 0,3 -3,0 z M 57,63 l 3,0 0,3 -3,0 z M 60,63 l 3,0 0,3 -3,0 z M 69,63 l 3,0 0,3 -3,0 z M 78,63 l 3,0 0,3 -3,0 z M 81,63 l 3,0 0,3 -3,0 z M 87,63 l 3,0 0,3 -3,0 z M 90,63 l 3,0 0,3 -3,0 z M 93,63 l 3,0 0,3 -3,0 z M 99,63 l 3,0 0,3 -3,0 z M 108,63 l 3,0 0,3 -3,0 z M 120,63 l 3,0 0,3 -3,0 z M 138,63 l 3,0 0,3 -3,0 z M 141,63 l 3,0 0,3 -3,0 z M 144,63 l 3,0 0,3 -3,0 z M 159,63 l 3,0 0,3 -3,0 z M 162,63 l 3,0 0,3 -3,0 z M 165,63 l 3,0 0,3 -3,0 z M 174,63 l 3,0 0,3 -3,0 z M 180,63 l 3,0 0,3 -3,0 z M 183,63 l 3,0 0,3 -3,0 z M 195,63 l 3,0 0,3 -3,0 z M 6,66 l 3,0 0,3 -3,0 z M 15,66 l 3,0 0,3 -3,0 z M 24,66 l 3,0 0,3 -3,0 z M 30,66 l 3,0 0,3 -3,0 z M 36,66 l 3,0 0,3 -3,0 z M 39,66 l 3,0 0,3 -3,0 z M 42,66 l 3,0 0,3 -3,0 z M 48,66 l 3,0 0,3 -3,0 z M 63,66 l 3,0 0,3 -3,0 z M 66,66 l 3,0 0,3 -3,0 z M 69,66 l 3,0 0,3 -3,0 z M 81,66 l 3,0 0,3 -3,0 z M 84,66 l 3,0 0,3 -3,0 z M 90,66 l 3,0 0,3 -3,0 z M 93,66 l 3,0 0,3 -3,0 z M 102,66 l 3,0 0,3 -3,0 z M 117,66 l 3,0 0,3 -3,0 z M 126,66 l 3,0 0,3 -3,0 z M 129,66 l 3,0 0,3 -3,0 z M 132,66 l 3,0 0,3 -3,0 z M 138,66 l 3,0 0,3 -3,0 z M 141,66 l 3,0 0,3 -3,0 z M 144,66 l 3,0 0,3 -3,0 z M 147,66 l 3,0 0,3 -3,0 z M 153,66 l 3,0 0,3 -3,0 z M 156,66 l 3,0 0,3 -3,0 z M 174,66 l 3,0 0,3 -3,0 z M 177,66 l 3,0 0,3 -3,0 z M 180,66 l 3,0 0,3 -3,0 z M 183,66 l 3,0 0,3 -3,0 z M 195,66 l 3,0 0,3 -3,0 z M 12,69 l 3,0 0,3 -3,0 z M 15,69 l 3,0 0,3 -3,0 z M 21,69 l 3,0 0,3 -3,0 z M 33,69 l 3,0 0,3 -3,0 z M 36,69 l 3,0 0,3 -3,0 z M 39,69 l 3,0 0,3 -3,0 z M 45,69 l 3,0 0,3 -3,0 z M 48,69 l 3,0 0,3 -3,0 z M 54,69 l 3,0 0,3 -3,0 z M 57,69 l 3,0 0,3 -3,0 z M 63,69 l 3,0 0,3 -3,0 z M 66,69 l 3,0 0,3 -3,0 z M 69,69 l 3,0 0,3 -3,0 z M 84,69 l 3,0 0,3 -3,0 z M 87,69 l 3,0 0,3 -3,0 z M 93,69 l 3,0 0,3 -3,0 z M 102,69 l 3,0 0,3 -3,0 z M 105,69 l 3,0 0,3 -3,0 z M 108,69 l 3,0 0,3 -3,0 z M 111,69 l 3,0 0,3 -3,0 z M 114,69 l 3,0 0,3 -3,0 z M 123,69 l 3,0 0,3 -3,0 z M 126,69 l 3,0 0,3 -3,0 z M 132,69 l 3,0 0,3 -3,0 z M 138,69 l 3,0 0,3 -3,0 z M 153,69 l 3,0 0,3 -3,0 z M 159,69 l 3,0 0,3 -3,0 z M 162,69 l 3,0 0,3 -3,0 z M 171,69 l 3,0 0,3 -3,0 z M 174,69 l 3,0 0,3 -3,0 z M 177,69 l 3,0 0,3 -3,0 z M 180,69 l 3,0 0,3 -3,0 z M 192,69 l 3,0 0,3 -3,0 z M 195,69 l 3,0 0,3 -3,0 z M 3,72 l 3,0 0,3 -3,0 z M 6,72 l 3,0 0,3 -3,0 z M 9,72 l 3,0 0,3 -3,0 z M 12,72 l 3,0 0,3 -3,0 z M 15,72 l 3,0 0,3 -3,0 z M 18,72 l 3,0 0,3 -3,0 z M 27,72 l 3,0 0,3 -3,0 z M 36,72 l 3,0 0,3 -3,0 z M 48,72 l 3,0 0,3 -3,0 z M 54,72 l 3,0 0,3 -3,0 z M 60,72 l 3,0 0,3 -3,0 z M 66,72 l 3,0 0,3 -3,0 z M 75,72 l 3,0 0,3 -3,0 z M 81,72 l 3,0 0,3 -3,0 z M 84,72 l 3,0 0,3 -3,0 z M 87,72 l 3,0 0,3 -3,0 z M 108,72 l 3,0 0,3 -3,0 z M 111,72 l 3,0 0,3 -3,0 z M 132,72 l 3,0 0,3 -3,0 z M 138,72 l 3,0 0,3 -3,0 z M 141,72 l 3,0 0,3 -3,0 z M 144,72 l 3,0 0,3 -3,0 z M 147,72 l 3,0 0,3 -3,0 z M 153,72 l 3,0 0,3 -3,0 z M 162,72 l 3,0 0,3 -3,0 z M 168,72 l 3,0 0,3 -3,0 z M 174,72 l 3,0 0,3 -3,0 z M 195,72 l 3,0 0,3 -3,0 z M 9,75 l 3,0 0,3 -3,0 z M 12,75 l 3,0 0,3 -3,0 z M 21,75 l 3,0 0,3 -3,0 z M 24,75 l 3,0 0,3 -3,0 z M 27,75 l 3,0 0,3 -3,0 z M 33,75 l 3,0 0,3 -3,0 z M 36,75 l 3,0 0,3 -3,0 z M 42,75 l 3,0 0,3 -3,0 z M 45,75 l 3,0 0,3 -3,0 z M 48,75 l 3,0 0,3 -3,0 z M 63,75 l 3,0 0,3 -3,0 z M 66,75 l 3,0 0,3 -3,0 z M 75,75 l 3,0 0,3 -3,0 z M 84,75 l 3,0 0,3 -3,0 z M 90,75 l 3,0 0,3 -3,0 z M 93,75 l 3,0 0,3 -3,0 z M 99,75 l 3,0 0,3 -3,0 z M 102,75 l 3,0 0,3 -3,0 z M 105,75 l 3,0 0,3 -3,0 z M 111,75 l 3,0 0,3 -3,0 z M 117,75 l 3,0 0,3 -3,0 z M 126,75 l 3,0 0,3 -3,0 z M 135,75 l 3,0 0,3 -3,0 z M 147,75 l 3,0 0,3 -3,0 z M 150,75 l 3,0 0,3 -3,0 z M 156,75 l 3,0 0,3 -3,0 z M 180,75 l 3,0 0,3 -3,0 z M 183,75 l 3,0 0,3 -3,0 z M 6,78 l 3,0 0,3 -3,0 z M 12,78 l 3,0 0,3 -3,0 z M 18,78 l 3,0 0,3 -3,0 z M 27,78 l 3,0 0,3 -3,0 z M 33,78 l 3,0 0,3 -3,0 z M 36,78 l 3,0 0,3 -3,0 z M 66,78 l 3,0 0,3 -3,0 z M 69,78 l 3,0 0,3 -3,0 z M 72,78 l 3,0 0,3 -3,0 z M 75,78 l 3,0 0,3 -3,0 z M 87,78 l 3,0 0,3 -3,0 z M 90,78 l 3,0 0,3 -3,0 z M 93,78 l 3,0 0,3 -3,0 z M 105,78 l 3,0 0,3 -3,0 z M 111,78 l 3,0 0,3 -3,0 z M 114,78 l 3,0 0,3 -3,0 z M 126,78 l 3,0 0,3 -3,0 z M 129,78 l 3,0 0,3 -3,0 z M 132,78 l 3,0 0,3 -3,0 z M 135,78 l 3,0 0,3 -3,0 z M 141,78 l 3,0 0,3 -3,0 z M 147,78 l 3,0 0,3 -3,0 z M 150,78 l 3,0 0,3 -3,0 z M 153,78 l 3,0 0,3 -3,0 z M 156,78 l 3,0 0,3 -3,0 z M 159,78 l 3,0 0,3 -3,0 z M 168,78 l 3,0 0,3 -3,0 z M 186,78 l 3,0 0,3 -3,0 z M 192,78 l 3,0 0,3 -3,0 z M 12,81 l 3,0 0,3 -3,0 z M 15,81 l 3,0 0,3 -3,0 z M 21,81 l 3,0 0,3 -3,0 z M 24,81 l 3,0 0,3 -3,0 z M 33,81 l 3,0 0,3 -3,0 z M 36,81 l 3,0 0,3 -3,0 z M 45,81 l 3,0 0,3 -3,0 z M 48,81 l 3,0 0,3 -3,0 z M 51,81 l 3,0 0,3 -3,0 z M 57,81 l 3,0 0,3 -3,0 z M 60,81 l 3,0 0,3 -3,0 z M 63,81 l 3,0 0,3 -3,0 z M 69,81 l 3,0 0,3 -3,0 z M 72,81 l 3,0 0,3 -3,0 z M 75,81 l 3,0 0,3 -3,0 z M 84,81 l 3,0 0,3 -3,0 z M 90,81 l 3,0 0,3 -3,0 z M 96,81 l 3,0 0,3 -3,0 z M 99,81 l 3,0 0,3 -3,0 z M 102,81 l 3,0 0,3 -3,0 z M 105,81 l 3,0 0,3 -3,0 z M 108,81 l 3,0 0,3 -3,0 z M 114,81 l 3,0 0,3 -3,0 z M 120,81 l 3,0 0,3 -3,0 z M 129,81 l 3,0 0,3 -3,0 z M 135,81 l 3,0 0,3 -3,0 z M 147,81 l 3,0 0,3 -3,0 z M 150,81 l 3,0 0,3 -3,0 z M 156,81 l 3,0 0,3 -3,0 z M 159,81 l 3,0 0,3 -3,0 z M 162,81 l 3,0 0,3 -3,0 z M 165,81 l 3,0 0,3 -3,0 z M 168,81 l 3,0 0,3 -3,0 z M 171,81 l 3,0 0,3 -3,0 z M 174,81 l 3,0 0,3 -3,0 z M 180,81 l 3,0 0,3 -3,0 z M 186,81 l 3,0 0,3 -3,0 z M 6,84 l 3,0 0,3 -3,0 z M 9,84 l 3,0 0,3 -3,0 z M 15,84 l 3,0 0,3 -3,0 z M 18,84 l 3,0 0,3 -3,0 z M 33,84 l 3,0 0,3 -3,0 z M 36,84 l 3,0 0,3 -3,0 z M 45,84 l 3,0 0,3 -3,0 z M 51,84 l 3,0 0,3 -3,0 z M 54,84 l 3,0 0,3 -3,0 z M 60,84 l 3,0 0,3 -3,0 z M 63,84 l 3,0 0,3 -3,0 z M 75,84 l 3,0 0,3 -3,0 z M 81,84 l 3,0 0,3 -3,0 z M 87,84 l 3,0 0,3 -3,0 z M 102,84 l 3,0 0,3 -3,0 z M 105,84 l 3,0 0,3 -3,0 z M 120,84 l 3,0 0,3 -3,0 z M 129,84 l 3,0 0,3 -3,0 z M 132,84 l 3,0 0,3 -3,0 z M 138,84 l 3,0 0,3 -3,0 z M 144,84 l 3,0 0,3 -3,0 z M 156,84 l 3,0 0,3 -3,0 z M 162,84 l 3,0 0,3 -3,0 z M 165,84 l 3,0 0,3 -3,0 z M 168,84 l 3,0 0,3 -3,0 z M 174,84 l 3,0 0,3 -3,0 z M 192,84 l 3,0 0,3 -3,0 z M 195,84 l 3,0 0,3 -3,0 z M 3,87 l 3,0 0,3 -3,0 z M 21,87 l 3,0 0,3 -3,0 z M 30,87 l 3,0 0,3 -3,0 z M 36,87 l 3,0 0,3 -3,0 z M 45,87 l 3,0 0,3 -3,0 z M 66,87 l 3,0 0,3 -3,0 z M 75,87 l 3,0 0,3 -3,0 z M 81,87 l 3,0 0,3 -3,0 z M 84,87 l 3,0 0,3 -3,0 z M 87,87 l 3,0 0,3 -3,0 z M 90,87 l 3,0 0,3 -3,0 z M 99,87 l 3,0 0,3 -3,0 z M 102,87 l 3,0 0,3 -3,0 z M 108,87 l 3,0 0,3 -3,0 z M 123,87 l 3,0 0,3 -3,0 z M 126,87 l 3,0 0,3 -3,0 z M 129,87 l 3,0 0,3 -3,0 z M 132,87 l 3,0 0,3 -3,0 z M 135,87 l 3,0 0,3 -3,0 z M 138,87 l 3,0 0,3 -3,0 z M 144,87 l 3,0 0,3 -3,0 z M 162,87 l 3,0 0,3 -3,0 z M 165,87 l 3,0 0,3 -3,0 z M 171,87 l 3,0 0,3 -3,0 z M 174,87 l 3,0 0,3 -3,0 z M 189,87 l 3,0 0,3 -3,0 z M 192,87 l 3,0 0,3 -3,0 z M 195,87 l 3,0 0,3 -3,0 z M 3,90 l 3,0 0,3 -3,0 z M 15,90 l 3,0 0,3 -3,0 z M 27,90 l 3,0 0,3 -3,0 z M 33,90 l 3,0 0,3 -3,0 z M 39,90 l 3,0 0,3 -3,0 z M 51,90 l 3,0 0,3 -3,0 z M 54,90 l 3,0 0,3 -3,0 z M 60,90 l 3,0 0,3 -3,0 z M 69,90 l 3,0 0,3 -3,0 z M 75,90 l 3,0 0,3 -3,0 z M 78,90 l 3,0 0,3 -3,0 z M 87,90 l 3,0 0,3 -3,0 z M 90,90 l 3,0 0,3 -3,0 z M 93,90 l 3,0 0,3 -3,0 z M 102,90 l 3,0 0,3 -3,0 z M 117,90 l 3,0 0,3 -3,0 z M 120,90 l 3,0 0,3 -3,0 z M 126,90 l 3,0 0,3 -3,0 z M 129,90 l 3,0 0,3 -3,0 z M 138,90 l 3,0 0,3 -3,0 z M 150,90 l 3,0 0,3 -3,0 z M 153,90 l 3,0 0,3 -3,0 z M 156,90 l 3,0 0,3 -3,0 z M 171,90 l 3,0 0,3 -3,0 z M 174,90 l 3,0 0,3 -3,0 z M 180,90 l 3,0 0,3 -3,0 z M 183,90 l 3,0 0,3 -3,0 z M 186,90 l 3,0 0,3 -3,0 z M 189,90 l 3,0 0,3 -3,0 z M 195,90 l 3,0 0,3 -3,0 z M 15,93 l 3,0 0,3 -3,0 z M 18,93 l 3,0 0,3 -3,0 z M 21,93 l 3,0 0,3 -3,0 z M 24,93 l 3,0 0,3 -3,0 z M 27,93 l 3,0 0,3 -3,0 z M 30,93 l 3,0 0,3 -3,0 z M 36,93 l 3,0 0,3 -3,0 z M 39,93 l 3,0 0,3 -3,0 z M 48,93 l 3,0 0,3 -3,0 z M 54,93 l 3,0 0,3 -3,0 z M 60,93 l 3,0 0,3 -3,0 z M 69,93 l 3,0 0,3 -3,0 z M 72,93 l 3,0 0,3 -3,0 z M 75,93 l 3,0 0,3 -3,0 z M 78,93 l 3,0 0,3 -3,0 z M 93,93 l 3,0 0,3 -3,0 z M 96,93 l 3,0 0,3 -3,0 z M 99,93 l 3,0 0,3 -3,0 z M 102,93 l 3,0 0,3 -3,0 z M 105,93 l 3,0 0,3 -3,0 z M 108,93 l 3,0 0,3 -3,0 z M 111,93 l 3,0 0,3 -3,0 z M 114,93 l 3,0 0,3 -3,0 z M 117,93 l 3,0 0,3 -3,0 z M 132,93 l 3,0 0,3 -3,0 z M 138,93 l 3,0 0,3 -3,0 z M 144,93 l 3,0 0,3 -3,0 z M 147,93 l 3,0 0,3 -3,0 z M 153,93 l 3,0 0,3 -3,0 z M 156,93 l 3,0 0,3 -3,0 z M 162,93 l 3,0 0,3 -3,0 z M 165,93 l 3,0 0,3 -3,0 z M 168,93 l 3,0 0,3 -3,0 z M 171,93 l 3,0 0,3 -3,0 z M 174,93 l 3,0 0,3 -3,0 z M 177,93 l 3,0 0,3 -3,0 z M 180,93 l 3,0 0,3 -3,0 z M 183,93 l 3,0 0,3 -3,0 z M 195,93 l 3,0 0,3 -3,0 z M 3,96 l 3,0 0,3 -3,0 z M 6,96 l 3,0 0,3 -3,0 z M 12,96 l 3,0 0,3 -3,0 z M 15,96 l 3,0 0,3 -3,0 z M 27,96 l 3,0 0,3 -3,0 z M 30,96 l 3,0 0,3 -3,0 z M 36,96 l 3,0 0,3 -3,0 z M 39,96 l 3,0 0,3 -3,0 z M 66,96 l 3,0 0,3 -3,0 z M 69,96 l 3,0 0,3 -3,0 z M 72,96 l 3,0 0,3 -3,0 z M 78,96 l 3,0 0,3 -3,0 z M 81,96 l 3,0 0,3 -3,0 z M 90,96 l 3,0 0,3 -3,0 z M 93,96 l 3,0 0,3 -3,0 z M 105,96 l 3,0 0,3 -3,0 z M 114,96 l 3,0 0,3 -3,0 z M 120,96 l 3,0 0,3 -3,0 z M 135,96 l 3,0 0,3 -3,0 z M 141,96 l 3,0 0,3 -3,0 z M 150,96 l 3,0 0,3 -3,0 z M 153,96 l 3,0 0,3 -3,0 z M 156,96 l 3,0 0,3 -3,0 z M 159,96 l 3,0 0,3 -3,0 z M 162,96 l 3,0 0,3 -3,0 z M 168,96 l 3,0 0,3 -3,0 z M 171,96 l 3,0 0,3 -3,0 z M 183,96 l 3,0 0,3 -3,0 z M 186,96 l 3,0 0,3 -3,0 z M 195,96 l 3,0 0,3 -3,0 z M 3,99 l 3,0 0,3 -3,0 z M 9,99 l 3,0 0,3 -3,0 z M 12,99 l 3,0 0,3 -3,0 z M 15,99 l 3,0 0,3 -3,0 z M 21,99 l 3,0 0,3 -3,0 z M 27,99 l 3,0 0,3 -3,0 z M 30,99 l 3,0 0,3 -3,0 z M 36,99 l 3,0 0,3 -3,0 z M 39,99 l 3,0 0,3 -3,0 z M 45,99 l 3,0 0,3 -3,0 z M 48,99 l 3,0 0,3 -3,0 z M 51,99 l 3,0 0,3 -3,0 z M 54,99 l 3,0 0,3 -3,0 z M 63,99 l 3,0 0,3 -3,0 z M 66,99 l 3,0 0,3 -3,0 z M 69,99 l 3,0 0,3 -3,0 z M 78,99 l 3,0 0,3 -3,0 z M 84,99 l 3,0 0,3 -3,0 z M 90,99 l 3,0 0,3 -3,0 z M 93,99 l 3,0 0,3 -3,0 z M 99,99 l 3,0 0,3 -3,0 z M 105,99 l 3,0 0,3 -3,0 z M 108,99 l 3,0 0,3 -3,0 z M 114,99 l 3,0 0,3 -3,0 z M 120,99 l 3,0 0,3 -3,0 z M 123,99 l 3,0 0,3 -3,0 z M 126,99 l 3,0 0,3 -3,0 z M 129,99 l 3,0 0,3 -3,0 z M 135,99 l 3,0 0,3 -3,0 z M 138,99 l 3,0 0,3 -3,0 z M 144,99 l 3,0 0,3 -3,0 z M 150,99 l 3,0 0,3 -3,0 z M 159,99 l 3,0 0,3 -3,0 z M 171,99 l 3,0 0,3 -3,0 z M 177,99 l 3,0 0,3 -3,0 z M 183,99 l 3,0 0,3 -3,0 z M 189,99 l 3,0 0,3 -3,0 z M 3,102 l 3,0 0,3 -3,0 z M 12,102 l 3,0 0,3 -3,0 z M 15,102 l 3,0 0,3 -3,0 z M 27,102 l 3,0 0,3 -3,0 z M 36,102 l 3,0 0,3 -3,0 z M 39,102 l 3,0 0,3 -3,0 z M 42,102 l 3,0 0,3 -3,0 z M 45,102 l 3,0 0,3 -3,0 z M 51,102 l 3,0 0,3 -3,0 z M 60,102 l 3,0 0,3 -3,0 z M 63,102 l 3,0 0,3 -3,0 z M 66,102 l 3,0 0,3 -3,0 z M 72,102 l 3,0 0,3 -3,0 z M 75,102 l 3,0 0,3 -3,0 z M 81,102 l 3,0 0,3 -3,0 z M 90,102 l 3,0 0,3 -3,0 z M 93,102 l 3,0 0,3 -3,0 z M 105,102 l 3,0 0,3 -3,0 z M 114,102 l 3,0 0,3 -3,0 z M 117,102 l 3,0 0,3 -3,0 z M 120,102 l 3,0 0,3 -3,0 z M 123,102 l 3,0 0,3 -3,0 z M 132,102 l 3,0 0,3 -3,0 z M 141,102 l 3,0 0,3 -3,0 z M 147,102 l 3,0 0,3 -3,0 z M 150,102 l 3,0 0,3 -3,0 z M 168,102 l 3,0 0,3 -3,0 z M 171,102 l 3,0 0,3 -3,0 z M 183,102 l 3,0 0,3 -3,0 z M 192,102 l 3,0 0,3 -3,0 z M 195,102 l 3,0 0,3 -3,0 z M 3,105 l 3,0 0,3 -3,0 z M 9,105 l 3,0 0,3 -3,0 z M 12,105 l 3,0 0,3 -3,0 z M 15,105 l 3,0 0,3 -3,0 z M 18,105 l 3,0 0,3 -3,0 z M 21,105 l 3,0 0,3 -3,0 z M 24,105 l 3,0 0,3 -3,0 z M 27,105 l 3,0 0,3 -3,0 z M 30,105 l 3,0 0,3 -3,0 z M 39,105 l 3,0 0,3 -3,0 z M 42,105 l 3,0 0,3 -3,0 z M 45,105 l 3,0 0,3 -3,0 z M 48,105 l 3,0 0,3 -3,0 z M 60,105 l 3,0 0,3 -3,0 z M 69,105 l 3,0 0,3 -3,0 z M 72,105 l 3,0 0,3 -3,0 z M 75,105 l 3,0 0,3 -3,0 z M 78,105 l 3,0 0,3 -3,0 z M 81,105 l 3,0 0,3 -3,0 z M 93,105 l 3,0 0,3 -3,0 z M 96,105 l 3,0 0,3 -3,0 z M 99,105 l 3,0 0,3 -3,0 z M 102,105 l 3,0 0,3 -3,0 z M 105,105 l 3,0 0,3 -3,0 z M 108,105 l 3,0 0,3 -3,0 z M 117,105 l 3,0 0,3 -3,0 z M 123,105 l 3,0 0,3 -3,0 z M 129,105 l 3,0 0,3 -3,0 z M 132,105 l 3,0 0,3 -3,0 z M 135,105 l 3,0 0,3 -3,0 z M 138,105 l 3,0 0,3 -3,0 z M 141,105 l 3,0 0,3 -3,0 z M 144,105 l 3,0 0,3 -3,0 z M 153,105 l 3,0 0,3 -3,0 z M 165,105 l 3,0 0,3 -3,0 z M 168,105 l 3,0 0,3 -3,0 z M 171,105 l 3,0 0,3 -3,0 z M 174,105 l 3,0 0,3 -3,0 z M 177,105 l 3,0 0,3 -3,0 z M 180,105 l 3,0 0,3 -3,0 z M 183,105 l 3,0 0,3 -3,0 z M 186,105 l 3,0 0,3 -3,0 z M 189,105 l 3,0 0,3 -3,0 z M 192,105 l 3,0 0,3 -3,0 z M 195,105 l 3,0 0,3 -3,0 z M 3,108 l 3,0 0,3 -3,0 z M 6,108 l 3,0 0,3 -3,0 z M 9,108 l 3,0 0,3 -3,0 z M 18,108 l 3,0 0,3 -3,0 z M 27,108 l 3,0 0,3 -3,0 z M 33,108 l 3,0 0,3 -3,0 z M 39,108 l 3,0 0,3 -3,0 z M 42,108 l 3,0 0,3 -3,0 z M 51,108 l 3,0 0,3 -3,0 z M 60,108 l 3,0 0,3 -3,0 z M 78,108 l 3,0 0,3 -3,0 z M 81,108 l 3,0 0,3 -3,0 z M 84,108 l 3,0 0,3 -3,0 z M 93,108 l 3,0 0,3 -3,0 z M 102,108 l 3,0 0,3 -3,0 z M 114,108 l 3,0 0,3 -3,0 z M 120,108 l 3,0 0,3 -3,0 z M 129,108 l 3,0 0,3 -3,0 z M 132,108 l 3,0 0,3 -3,0 z M 144,108 l 3,0 0,3 -3,0 z M 147,108 l 3,0 0,3 -3,0 z M 150,108 l 3,0 0,3 -3,0 z M 156,108 l 3,0 0,3 -3,0 z M 159,108 l 3,0 0,3 -3,0 z M 162,108 l 3,0 0,3 -3,0 z M 165,108 l 3,0 0,3 -3,0 z M 180,108 l 3,0 0,3 -3,0 z M 186,108 l 3,0 0,3 -3,0 z M 192,108 l 3,0 0,3 -3,0 z M 195,108 l 3,0 0,3 -3,0 z M 15,111 l 3,0 0,3 -3,0 z M 21,111 l 3,0 0,3 -3,0 z M 27,111 l 3,0 0,3 -3,0 z M 36,111 l 3,0 0,3 -3,0 z M 54,111 l 3,0 0,3 -3,0 z M 57,111 l 3,0 0,3 -3,0 z M 60,111 l 3,0 0,3 -3,0 z M 63,111 l 3,0 0,3 -3,0 z M 66,111 l 3,0 0,3 -3,0 z M 69,111 l 3,0 0,3 -3,0 z M 87,111 l 3,0 0,3 -3,0 z M 93,111 l 3,0 0,3 -3,0 z M 108,111 l 3,0 0,3 -3,0 z M 111,111 l 3,0 0,3 -3,0 z M 117,111 l 3,0 0,3 -3,0 z M 120,111 l 3,0 0,3 -3,0 z M 129,111 l 3,0 0,3 -3,0 z M 138,111 l 3,0 0,3 -3,0 z M 141,111 l 3,0 0,3 -3,0 z M 144,111 l 3,0 0,3 -3,0 z M 147,111 l 3,0 0,3 -3,0 z M 165,111 l 3,0 0,3 -3,0 z M 168,111 l 3,0 0,3 -3,0 z M 177,111 l 3,0 0,3 -3,0 z M 180,111 l 3,0 0,3 -3,0 z M 183,111 l 3,0 0,3 -3,0 z M 186,111 l 3,0 0,3 -3,0 z M 189,111 l 3,0 0,3 -3,0 z M 195,111 l 3,0 0,3 -3,0 z M 6,114 l 3,0 0,3 -3,0 z M 15,114 l 3,0 0,3 -3,0 z M 27,114 l 3,0 0,3 -3,0 z M 30,114 l 3,0 0,3 -3,0 z M 36,114 l 3,0 0,3 -3,0 z M 48,114 l 3,0 0,3 -3,0 z M 54,114 l 3,0 0,3 -3,0 z M 63,114 l 3,0 0,3 -3,0 z M 66,114 l 3,0 0,3 -3,0 z M 69,114 l 3,0 0,3 -3,0 z M 75,114 l 3,0 0,3 -3,0 z M 81,114 l 3,0 0,3 -3,0 z M 84,114 l 3,0 0,3 -3,0 z M 87,114 l 3,0 0,3 -3,0 z M 96,114 l 3,0 0,3 -3,0 z M 105,114 l 3,0 0,3 -3,0 z M 108,114 l 3,0 0,3 -3,0 z M 114,114 l 3,0 0,3 -3,0 z M 117,114 l 3,0 0,3 -3,0 z M 132,114 l 3,0 0,3 -3,0 z M 144,114 l 3,0 0,3 -3,0 z M 147,114 l 3,0 0,3 -3,0 z M 150,114 l 3,0 0,3 -3,0 z M 153,114 l 3,0 0,3 -3,0 z M 165,114 l 3,0 0,3 -3,0 z M 171,114 l 3,0 0,3 -3,0 z M 177,114 l 3,0 0,3 -3,0 z M 180,114 l 3,0 0,3 -3,0 z M 183,114 l 3,0 0,3 -3,0 z M 186,114 l 3,0 0,3 -3,0 z M 189,114 l 3,0 0,3 -3,0 z M 195,114 l 3,0 0,3 -3,0 z M 6,117 l 3,0 0,3 -3,0 z M 15,117 l 3,0 0,3 -3,0 z M 21,117 l 3,0 0,3 -3,0 z M 27,117 l 3,0 0,3 -3,0 z M 33,117 l 3,0 0,3 -3,0 z M 39,117 l 3,0 0,3 -3,0 z M 45,117 l 3,0 0,3 -3,0 z M 48,117 l 3,0 0,3 -3,0 z M 51,117 l 3,0 0,3 -3,0 z M 54,117 l 3,0 0,3 -3,0 z M 57,117 l 3,0 0,3 -3,0 z M 60,117 l 3,0 0,3 -3,0 z M 66,117 l 3,0 0,3 -3,0 z M 69,117 l 3,0 0,3 -3,0 z M 75,117 l 3,0 0,3 -3,0 z M 78,117 l 3,0 0,3 -3,0 z M 81,117 l 3,0 0,3 -3,0 z M 99,117 l 3,0 0,3 -3,0 z M 102,117 l 3,0 0,3 -3,0 z M 114,117 l 3,0 0,3 -3,0 z M 117,117 l 3,0 0,3 -3,0 z M 147,117 l 3,0 0,3 -3,0 z M 153,117 l 3,0 0,3 -3,0 z M 156,117 l 3,0 0,3 -3,0 z M 171,117 l 3,0 0,3 -3,0 z M 192,117 l 3,0 0,3 -3,0 z M 195,117 l 3,0 0,3 -3,0 z M 6,120 l 3,0 0,3 -3,0 z M 9,120 l 3,0 0,3 -3,0 z M 12,120 l 3,0 0,3 -3,0 z M 24,120 l 3,0 0,3 -3,0 z M 27,120 l 3,0 0,3 -3,0 z M 36,120 l 3,0 0,3 -3,0 z M 39,120 l 3,0 0,3 -3,0 z M 57,120 l 3,0 0,3 -3,0 z M 60,120 l 3,0 0,3 -3,0 z M 72,120 l 3,0 0,3 -3,0 z M 75,120 l 3,0 0,3 -3,0 z M 81,120 l 3,0 0,3 -3,0 z M 87,120 l 3,0 0,3 -3,0 z M 90,120 l 3,0 0,3 -3,0 z M 93,120 l 3,0 0,3 -3,0 z M 99,120 l 3,0 0,3 -3,0 z M 108,120 l 3,0 0,3 -3,0 z M 111,120 l 3,0 0,3 -3,0 z M 141,120 l 3,0 0,3 -3,0 z M 144,120 l 3,0 0,3 -3,0 z M 147,120 l 3,0 0,3 -3,0 z M 153,120 l 3,0 0,3 -3,0 z M 162,120 l 3,0 0,3 -3,0 z M 168,120 l 3,0 0,3 -3,0 z M 171,120 l 3,0 0,3 -3,0 z M 180,120 l 3,0 0,3 -3,0 z M 186,120 l 3,0 0,3 -3,0 z M 189,120 l 3,0 0,3 -3,0 z M 3,123 l 3,0 0,3 -3,0 z M 9,123 l 3,0 0,3 -3,0 z M 21,123 l 3,0 0,3 -3,0 z M 24,123 l 3,0 0,3 -3,0 z M 30,123 l 3,0 0,3 -3,0 z M 33,123 l 3,0 0,3 -3,0 z M 36,123 l 3,0 0,3 -3,0 z M 42,123 l 3,0 0,3 -3,0 z M 45,123 l 3,0 0,3 -3,0 z M 48,123 l 3,0 0,3 -3,0 z M 51,123 l 3,0 0,3 -3,0 z M 57,123 l 3,0 0,3 -3,0 z M 66,123 l 3,0 0,3 -3,0 z M 75,123 l 3,0 0,3 -3,0 z M 78,123 l 3,0 0,3 -3,0 z M 90,123 l 3,0 0,3 -3,0 z M 93,123 l 3,0 0,3 -3,0 z M 99,123 l 3,0 0,3 -3,0 z M 105,123 l 3,0 0,3 -3,0 z M 108,123 l 3,0 0,3 -3,0 z M 111,123 l 3,0 0,3 -3,0 z M 114,123 l 3,0 0,3 -3,0 z M 117,123 l 3,0 0,3 -3,0 z M 120,123 l 3,0 0,3 -3,0 z M 123,123 l 3,0 0,3 -3,0 z M 126,123 l 3,0 0,3 -3,0 z M 138,123 l 3,0 0,3 -3,0 z M 144,123 l 3,0 0,3 -3,0 z M 150,123 l 3,0 0,3 -3,0 z M 153,123 l 3,0 0,3 -3,0 z M 159,123 l 3,0 0,3 -3,0 z M 171,123 l 3,0 0,3 -3,0 z M 174,123 l 3,0 0,3 -3,0 z M 177,123 l 3,0 0,3 -3,0 z M 183,123 l 3,0 0,3 -3,0 z M 192,123 l 3,0 0,3 -3,0 z M 3,126 l 3,0 0,3 -3,0 z M 9,126 l 3,0 0,3 -3,0 z M 18,126 l 3,0 0,3 -3,0 z M 24,126 l 3,0 0,3 -3,0 z M 30,126 l 3,0 0,3 -3,0 z M 36,126 l 3,0 0,3 -3,0 z M 42,126 l 3,0 0,3 -3,0 z M 45,126 l 3,0 0,3 -3,0 z M 48,126 l 3,0 0,3 -3,0 z M 57,126 l 3,0 0,3 -3,0 z M 63,126 l 3,0 0,3 -3,0 z M 66,126 l 3,0 0,3 -3,0 z M 69,126 l 3,0 0,3 -3,0 z M 75,126 l 3,0 0,3 -3,0 z M 93,126 l 3,0 0,3 -3,0 z M 120,126 l 3,0 0,3 -3,0 z M 123,126 l 3,0 0,3 -3,0 z M 138,126 l 3,0 0,3 -3,0 z M 141,126 l 3,0 0,3 -3,0 z M 144,126 l 3,0 0,3 -3,0 z M 147,126 l 3,0 0,3 -3,0 z M 150,126 l 3,0 0,3 -3,0 z M 156,126 l 3,0 0,3 -3,0 z M 159,126 l 3,0 0,3 -3,0 z M 162,126 l 3,0 0,3 -3,0 z M 165,126 l 3,0 0,3 -3,0 z M 174,126 l 3,0 0,3 -3,0 z M 180,126 l 3,0 0,3 -3,0 z M 183,126 l 3,0 0,3 -3,0 z M 189,126 l 3,0 0,3 -3,0 z M 192,126 l 3,0 0,3 -3,0 z M 15,129 l 3,0 0,3 -3,0 z M 18,129 l 3,0 0,3 -3,0 z M 21,129 l 3,0 0,3 -3,0 z M 27,129 l 3,0 0,3 -3,0 z M 30,129 l 3,0 0,3 -3,0 z M 33,129 l 3,0 0,3 -3,0 z M 36,129 l 3,0 0,3 -3,0 z M 45,129 l 3,0 0,3 -3,0 z M 54,129 l 3,0 0,3 -3,0 z M 57,129 l 3,0 0,3 -3,0 z M 63,129 l 3,0 0,3 -3,0 z M 69,129 l 3,0 0,3 -3,0 z M 78,129 l 3,0 0,3 -3,0 z M 81,129 l 3,0 0,3 -3,0 z M 84,129 l 3,0 0,3 -3,0 z M 93,129 l 3,0 0,3 -3,0 z M 96,129 l 3,0 0,3 -3,0 z M 99,129 l 3,0 0,3 -3,0 z M 105,129 l 3,0 0,3 -3,0 z M 108,129 l 3,0 0,3 -3,0 z M 120,129 l 3,0 0,3 -3,0 z M 126,129 l 3,0 0,3 -3,0 z M 129,129 l 3,0 0,3 -3,0 z M 132,129 l 3,0 0,3 -3,0 z M 135,129 l 3,0 0,3 -3,0 z M 150,129 l 3,0 0,3 -3,0 z M 156,129 l 3,0 0,3 -3,0 z M 159,129 l 3,0 0,3 -3,0 z M 162,129 l 3,0 0,3 -3,0 z M 165,129 l 3,0 0,3 -3,0 z M 174,129 l 3,0 0,3 -3,0 z M 180,129 l 3,0 0,3 -3,0 z M 189,129 l 3,0 0,3 -3,0 z M 195,129 l 3,0 0,3 -3,0 z M 6,132 l 3,0 0,3 -3,0 z M 9,132 l 3,0 0,3 -3,0 z M 12,132 l 3,0 0,3 -3,0 z M 15,132 l 3,0 0,3 -3,0 z M 24,132 l 3,0 0,3 -3,0 z M 36,132 l 3,0 0,3 -3,0 z M 45,132 l 3,0 0,3 -3,0 z M 51,132 l 3,0 0,3 -3,0 z M 60,132 l 3,0 0,3 -3,0 z M 63,132 l 3,0 0,3 -3,0 z M 66,132 l 3,0 0,3 -3,0 z M 72,132 l 3,0 0,3 -3,0 z M 81,132 l 3,0 0,3 -3,0 z M 84,132 l 3,0 0,3 -3,0 z M 93,132 l 3,0 0,3 -3,0 z M 96,132 l 3,0 0,3 -3,0 z M 102,132 l 3,0 0,3 -3,0 z M 108,132 l 3,0 0,3 -3,0 z M 111,132 l 3,0 0,3 -3,0 z M 120,132 l 3,0 0,3 -3,0 z M 126,132 l 3,0 0,3 -3,0 z M 129,132 l 3,0 0,3 -3,0 z M 138,132 l 3,0 0,3 -3,0 z M 144,132 l 3,0 0,3 -3,0 z M 147,132 l 3,0 0,3 -3,0 z M 156,132 l 3,0 0,3 -3,0 z M 162,132 l 3,0 0,3 -3,0 z M 165,132 l 3,0 0,3 -3,0 z M 174,132 l 3,0 0,3 -3,0 z M 177,132 l 3,0 0,3 -3,0 z M 180,132 l 3,0 0,3 -3,0 z M 183,132 l 3,0 0,3 -3,0 z M 192,132 l 3,0 0,3 -3,0 z M 195,132 l 3,0 0,3 -3,0 z M 18,135 l 3,0 0,3 -3,0 z M 21,135 l 3,0 0,3 -3,0 z M 27,135 l 3,0 0,3 -3,0 z M 36,135 l 3,0 0,3 -3,0 z M 45,135 l 3,0 0,3 -3,0 z M 51,135 l 3,0 0,3 -3,0 z M 63,135 l 3,0 0,3 -3,0 z M 66,135 l 3,0 0,3 -3,0 z M 69,135 l 3,0 0,3 -3,0 z M 81,135 l 3,0 0,3 -3,0 z M 84,135 l 3,0 0,3 -3,0 z M 87,135 l 3,0 0,3 -3,0 z M 90,135 l 3,0 0,3 -3,0 z M 99,135 l 3,0 0,3 -3,0 z M 108,135 l 3,0 0,3 -3,0 z M 111,135 l 3,0 0,3 -3,0 z M 126,135 l 3,0 0,3 -3,0 z M 129,135 l 3,0 0,3 -3,0 z M 138,135 l 3,0 0,3 -3,0 z M 144,135 l 3,0 0,3 -3,0 z M 147,135 l 3,0 0,3 -3,0 z M 153,135 l 3,0 0,3 -3,0 z M 168,135 l 3,0 0,3 -3,0 z M 171,135 l 3,0 0,3 -3,0 z M 174,135 l 3,0 0,3 -3,0 z M 177,135 l 3,0 0,3 -3,0 z M 183,135 l 3,0 0,3 -3,0 z M 189,135 l 3,0 0,3 -3,0 z M 192,135 l 3,0 0,3 -3,0 z M 195,135 l 3,0 0,3 -3,0 z M 6,138 l 3,0 0,3 -3,0 z M 12,138 l 3,0 0,3 -3,0 z M 15,138 l 3,0 0,3 -3,0 z M 24,138 l 3,0 0,3 -3,0 z M 27,138 l 3,0 0,3 -3,0 z M 30,138 l 3,0 0,3 -3,0 z M 33,138 l 3,0 0,3 -3,0 z M 36,138 l 3,0 0,3 -3,0 z M 39,138 l 3,0 0,3 -3,0 z M 54,138 l 3,0 0,3 -3,0 z M 60,138 l 3,0 0,3 -3,0 z M 63,138 l 3,0 0,3 -3,0 z M 69,138 l 3,0 0,3 -3,0 z M 72,138 l 3,0 0,3 -3,0 z M 75,138 l 3,0 0,3 -3,0 z M 81,138 l 3,0 0,3 -3,0 z M 84,138 l 3,0 0,3 -3,0 z M 87,138 l 3,0 0,3 -3,0 z M 90,138 l 3,0 0,3 -3,0 z M 93,138 l 3,0 0,3 -3,0 z M 99,138 l 3,0 0,3 -3,0 z M 102,138 l 3,0 0,3 -3,0 z M 105,138 l 3,0 0,3 -3,0 z M 111,138 l 3,0 0,3 -3,0 z M 117,138 l 3,0 0,3 -3,0 z M 126,138 l 3,0 0,3 -3,0 z M 129,138 l 3,0 0,3 -3,0 z M 135,138 l 3,0 0,3 -3,0 z M 138,138 l 3,0 0,3 -3,0 z M 156,138 l 3,0 0,3 -3,0 z M 165,138 l 3,0 0,3 -3,0 z M 174,138 l 3,0 0,3 -3,0 z M 177,138 l 3,0 0,3 -3,0 z M 180,138 l 3,0 0,3 -3,0 z M 186,138 l 3,0 0,3 -3,0 z M 189,138 l 3,0 0,3 -3,0 z M 192,138 l 3,0 0,3 -3,0 z M 195,138 l 3,0 0,3 -3,0 z M 9,141 l 3,0 0,3 -3,0 z M 12,141 l 3,0 0,3 -3,0 z M 18,141 l 3,0 0,3 -3,0 z M 21,141 l 3,0 0,3 -3,0 z M 24,141 l 3,0 0,3 -3,0 z M 30,141 l 3,0 0,3 -3,0 z M 36,141 l 3,0 0,3 -3,0 z M 39,141 l 3,0 0,3 -3,0 z M 42,141 l 3,0 0,3 -3,0 z M 51,141 l 3,0 0,3 -3,0 z M 54,141 l 3,0 0,3 -3,0 z M 57,141 l 3,0 0,3 -3,0 z M 69,141 l 3,0 0,3 -3,0 z M 72,141 l 3,0 0,3 -3,0 z M 75,141 l 3,0 0,3 -3,0 z M 81,141 l 3,0 0,3 -3,0 z M 93,141 l 3,0 0,3 -3,0 z M 108,141 l 3,0 0,3 -3,0 z M 111,141 l 3,0 0,3 -3,0 z M 129,141 l 3,0 0,3 -3,0 z M 141,141 l 3,0 0,3 -3,0 z M 144,141 l 3,0 0,3 -3,0 z M 147,141 l 3,0 0,3 -3,0 z M 159,141 l 3,0 0,3 -3,0 z M 162,141 l 3,0 0,3 -3,0 z M 165,141 l 3,0 0,3 -3,0 z M 168,141 l 3,0 0,3 -3,0 z M 174,141 l 3,0 0,3 -3,0 z M 177,141 l 3,0 0,3 -3,0 z M 180,141 l 3,0 0,3 -3,0 z M 183,141 l 3,0 0,3 -3,0 z M 186,141 l 3,0 0,3 -3,0 z M 3,144 l 3,0 0,3 -3,0 z M 6,144 l 3,0 0,3 -3,0 z M 24,144 l 3,0 0,3 -3,0 z M 33,144 l 3,0 0,3 -3,0 z M 36,144 l 3,0 0,3 -3,0 z M 45,144 l 3,0 0,3 -3,0 z M 54,144 l 3,0 0,3 -3,0 z M 57,144 l 3,0 0,3 -3,0 z M 60,144 l 3,0 0,3 -3,0 z M 63,144 l 3,0 0,3 -3,0 z M 66,144 l 3,0 0,3 -3,0 z M 69,144 l 3,0 0,3 -3,0 z M 72,144 l 3,0 0,3 -3,0 z M 81,144 l 3,0 0,3 -3,0 z M 87,144 l 3,0 0,3 -3,0 z M 90,144 l 3,0 0,3 -3,0 z M 93,144 l 3,0 0,3 -3,0 z M 96,144 l 3,0 0,3 -3,0 z M 99,144 l 3,0 0,3 -3,0 z M 114,144 l 3,0 0,3 -3,0 z M 120,144 l 3,0 0,3 -3,0 z M 126,144 l 3,0 0,3 -3,0 z M 129,144 l 3,0 0,3 -3,0 z M 135,144 l 3,0 0,3 -3,0 z M 147,144 l 3,0 0,3 -3,0 z M 150,144 l 3,0 0,3 -3,0 z M 153,144 l 3,0 0,3 -3,0 z M 156,144 l 3,0 0,3 -3,0 z M 159,144 l 3,0 0,3 -3,0 z M 162,144 l 3,0 0,3 -3,0 z M 168,144 l 3,0 0,3 -3,0 z M 174,144 l 3,0 0,3 -3,0 z M 177,144 l 3,0 0,3 -3,0 z M 180,144 l 3,0 0,3 -3,0 z M 183,144 l 3,0 0,3 -3,0 z M 186,144 l 3,0 0,3 -3,0 z M 189,144 l 3,0 0,3 -3,0 z M 9,147 l 3,0 0,3 -3,0 z M 15,147 l 3,0 0,3 -3,0 z M 18,147 l 3,0 0,3 -3,0 z M 21,147 l 3,0 0,3 -3,0 z M 27,147 l 3,0 0,3 -3,0 z M 30,147 l 3,0 0,3 -3,0 z M 39,147 l 3,0 0,3 -3,0 z M 48,147 l 3,0 0,3 -3,0 z M 54,147 l 3,0 0,3 -3,0 z M 66,147 l 3,0 0,3 -3,0 z M 75,147 l 3,0 0,3 -3,0 z M 78,147 l 3,0 0,3 -3,0 z M 81,147 l 3,0 0,3 -3,0 z M 84,147 l 3,0 0,3 -3,0 z M 108,147 l 3,0 0,3 -3,0 z M 114,147 l 3,0 0,3 -3,0 z M 120,147 l 3,0 0,3 -3,0 z M 123,147 l 3,0 0,3 -3,0 z M 126,147 l 3,0 0,3 -3,0 z M 132,147 l 3,0 0,3 -3,0 z M 135,147 l 3,0 0,3 -3,0 z M 144,147 l 3,0 0,3 -3,0 z M 150,147 l 3,0 0,3 -3,0 z M 159,147 l 3,0 0,3 -3,0 z M 168,147 l 3,0 0,3 -3,0 z M 174,147 l 3,0 0,3 -3,0 z M 180,147 l 3,0 0,3 -3,0 z M 183,147 l 3,0 0,3 -3,0 z M 189,147 l 3,0 0,3 -3,0 z M 192,147 l 3,0 0,3 -3,0 z M 3,150 l 3,0 0,3 -3,0 z M 6,150 l 3,0 0,3 -3,0 z M 12,150 l 3,0 0,3 -3,0 z M 27,150 l 3,0 0,3 -3,0 z M 36,150 l 3,0 0,3 -3,0 z M 45,150 l 3,0 0,3 -3,0 z M 48,150 l 3,0 0,3 -3,0 z M 57,150 l 3,0 0,3 -3,0 z M 60,150 l 3,0 0,3 -3,0 z M 66,150 l 3,0 0,3 -3,0 z M 72,150 l 3,0 0,3 -3,0 z M 75,150 l 3,0 0,3 -3,0 z M 81,150 l 3,0 0,3 -3,0 z M 87,150 l 3,0 0,3 -3,0 z M 93,150 l 3,0 0,3 -3,0 z M 102,150 l 3,0 0,3 -3,0 z M 114,150 l 3,0 0,3 -3,0 z M 117,150 l 3,0 0,3 -3,0 z M 120,150 l 3,0 0,3 -3,0 z M 123,150 l 3,0 0,3 -3,0 z M 126,150 l 3,0 0,3 -3,0 z M 129,150 l 3,0 0,3 -3,0 z M 132,150 l 3,0 0,3 -3,0 z M 141,150 l 3,0 0,3 -3,0 z M 144,150 l 3,0 0,3 -3,0 z M 147,150 l 3,0 0,3 -3,0 z M 165,150 l 3,0 0,3 -3,0 z M 168,150 l 3,0 0,3 -3,0 z M 171,150 l 3,0 0,3 -3,0 z M 174,150 l 3,0 0,3 -3,0 z M 183,150 l 3,0 0,3 -3,0 z M 189,150 l 3,0 0,3 -3,0 z M 192,150 l 3,0 0,3 -3,0 z M 195,150 l 3,0 0,3 -3,0 z M 3,153 l 3,0 0,3 -3,0 z M 12,153 l 3,0 0,3 -3,0 z M 21,153 l 3,0 0,3 -3,0 z M 24,153 l 3,0 0,3 -3,0 z M 27,153 l 3,0 0,3 -3,0 z M 36,153 l 3,0 0,3 -3,0 z M 48,153 l 3,0 0,3 -3,0 z M 51,153 l 3,0 0,3 -3,0 z M 54,153 l 3,0 0,3 -3,0 z M 57,153 l 3,0 0,3 -3,0 z M 60,153 l 3,0 0,3 -3,0 z M 63,153 l 3,0 0,3 -3,0 z M 69,153 l 3,0 0,3 -3,0 z M 78,153 l 3,0 0,3 -3,0 z M 81,153 l 3,0 0,3 -3,0 z M 90,153 l 3,0 0,3 -3,0 z M 96,153 l 3,0 0,3 -3,0 z M 102,153 l 3,0 0,3 -3,0 z M 108,153 l 3,0 0,3 -3,0 z M 117,153 l 3,0 0,3 -3,0 z M 123,153 l 3,0 0,3 -3,0 z M 129,153 l 3,0 0,3 -3,0 z M 132,153 l 3,0 0,3 -3,0 z M 135,153 l 3,0 0,3 -3,0 z M 138,153 l 3,0 0,3 -3,0 z M 144,153 l 3,0 0,3 -3,0 z M 165,153 l 3,0 0,3 -3,0 z M 168,153 l 3,0 0,3 -3,0 z M 171,153 l 3,0 0,3 -3,0 z M 174,153 l 3,0 0,3 -3,0 z M 177,153 l 3,0 0,3 -3,0 z M 189,153 l 3,0 0,3 -3,0 z M 195,153 l 3,0 0,3 -3,0 z M 3,156 l 3,0 0,3 -3,0 z M 12,156 l 3,0 0,3 -3,0 z M 15,156 l 3,0 0,3 -3,0 z M 36,156 l 3,0 0,3 -3,0 z M 51,156 l 3,0 0,3 -3,0 z M 54,156 l 3,0 0,3 -3,0 z M 57,156 l 3,0 0,3 -3,0 z M 60,156 l 3,0 0,3 -3,0 z M 66,156 l 3,0 0,3 -3,0 z M 87,156 l 3,0 0,3 -3,0 z M 90,156 l 3,0 0,3 -3,0 z M 93,156 l 3,0 0,3 -3,0 z M 105,156 l 3,0 0,3 -3,0 z M 111,156 l 3,0 0,3 -3,0 z M 114,156 l 3,0 0,3 -3,0 z M 123,156 l 3,0 0,3 -3,0 z M 126,156 l 3,0 0,3 -3,0 z M 129,156 l 3,0 0,3 -3,0 z M 132,156 l 3,0 0,3 -3,0 z M 144,156 l 3,0 0,3 -3,0 z M 147,156 l 3,0 0,3 -3,0 z M 159,156 l 3,0 0,3 -3,0 z M 171,156 l 3,0 0,3 -3,0 z M 174,156 l 3,0 0,3 -3,0 z M 177,156 l 3,0 0,3 -3,0 z M 180,156 l 3,0 0,3 -3,0 z M 183,156 l 3,0 0,3 -3,0 z M 186,156 l 3,0 0,3 -3,0 z M 189,156 l 3,0 0,3 -3,0 z M 12,159 l 3,0 0,3 -3,0 z M 18,159 l 3,0 0,3 -3,0 z M 21,159 l 3,0 0,3 -3,0 z M 24,159 l 3,0 0,3 -3,0 z M 27,159 l 3,0 0,3 -3,0 z M 33,159 l 3,0 0,3 -3,0 z M 45,159 l 3,0 0,3 -3,0 z M 51,159 l 3,0 0,3 -3,0 z M 60,159 l 3,0 0,3 -3,0 z M 63,159 l 3,0 0,3 -3,0 z M 66,159 l 3,0 0,3 -3,0 z M 69,159 l 3,0 0,3 -3,0 z M 81,159 l 3,0 0,3 -3,0 z M 96,159 l 3,0 0,3 -3,0 z M 102,159 l 3,0 0,3 -3,0 z M 114,159 l 3,0 0,3 -3,0 z M 123,159 l 3,0 0,3 -3,0 z M 126,159 l 3,0 0,3 -3,0 z M 129,159 l 3,0 0,3 -3,0 z M 132,159 l 3,0 0,3 -3,0 z M 138,159 l 3,0 0,3 -3,0 z M 141,159 l 3,0 0,3 -3,0 z M 147,159 l 3,0 0,3 -3,0 z M 150,159 l 3,0 0,3 -3,0 z M 153,159 l 3,0 0,3 -3,0 z M 156,159 l 3,0 0,3 -3,0 z M 159,159 l 3,0 0,3 -3,0 z M 165,159 l 3,0 0,3 -3,0 z M 168,159 l 3,0 0,3 -3,0 z M 171,159 l 3,0 0,3 -3,0 z M 180,159 l 3,0 0,3 -3,0 z M 183,159 l 3,0 0,3 -3,0 z M 186,159 l 3,0 0,3 -3,0 z M 189,159 l 3,0 0,3 -3,0 z M 195,159 l 3,0 0,3 -3,0 z M 3,162 l 3,0 0,3 -3,0 z M 6,162 l 3,0 0,3 -3,0 z M 9,162 l 3,0 0,3 -3,0 z M 33,162 l 3,0 0,3 -3,0 z M 48,162 l 3,0 0,3 -3,0 z M 51,162 l 3,0 0,3 -3,0 z M 63,162 l 3,0 0,3 -3,0 z M 66,162 l 3,0 0,3 -3,0 z M 69,162 l 3,0 0,3 -3,0 z M 75,162 l 3,0 0,3 -3,0 z M 81,162 l 3,0 0,3 -3,0 z M 84,162 l 3,0 0,3 -3,0 z M 102,162 l 3,0 0,3 -3,0 z M 108,162 l 3,0 0,3 -3,0 z M 111,162 l 3,0 0,3 -3,0 z M 114,162 l 3,0 0,3 -3,0 z M 120,162 l 3,0 0,3 -3,0 z M 126,162 l 3,0 0,3 -3,0 z M 129,162 l 3,0 0,3 -3,0 z M 132,162 l 3,0 0,3 -3,0 z M 141,162 l 3,0 0,3 -3,0 z M 147,162 l 3,0 0,3 -3,0 z M 153,162 l 3,0 0,3 -3,0 z M 156,162 l 3,0 0,3 -3,0 z M 159,162 l 3,0 0,3 -3,0 z M 162,162 l 3,0 0,3 -3,0 z M 165,162 l 3,0 0,3 -3,0 z M 168,162 l 3,0 0,3 -3,0 z M 183,162 l 3,0 0,3 -3,0 z M 186,162 l 3,0 0,3 -3,0 z M 189,162 l 3,0 0,3 -3,0 z M 195,162 l 3,0 0,3 -3,0 z M 9,165 l 3,0 0,3 -3,0 z M 12,165 l 3,0 0,3 -3,0 z M 18,165 l 3,0 0,3 -3,0 z M 21,165 l 3,0 0,3 -3,0 z M 24,165 l 3,0 0,3 -3,0 z M 27,165 l 3,0 0,3 -3,0 z M 33,165 l 3,0 0,3 -3,0 z M 42,165 l 3,0 0,3 -3,0 z M 48,165 l 3,0 0,3 -3,0 z M 57,165 l 3,0 0,3 -3,0 z M 60,165 l 3,0 0,3 -3,0 z M 63,165 l 3,0 0,3 -3,0 z M 66,165 l 3,0 0,3 -3,0 z M 69,165 l 3,0 0,3 -3,0 z M 78,165 l 3,0 0,3 -3,0 z M 81,165 l 3,0 0,3 -3,0 z M 84,165 l 3,0 0,3 -3,0 z M 87,165 l 3,0 0,3 -3,0 z M 90,165 l 3,0 0,3 -3,0 z M 108,165 l 3,0 0,3 -3,0 z M 111,165 l 3,0 0,3 -3,0 z M 129,165 l 3,0 0,3 -3,0 z M 135,165 l 3,0 0,3 -3,0 z M 138,165 l 3,0 0,3 -3,0 z M 141,165 l 3,0 0,3 -3,0 z M 147,165 l 3,0 0,3 -3,0 z M 153,165 l 3,0 0,3 -3,0 z M 156,165 l 3,0 0,3 -3,0 z M 159,165 l 3,0 0,3 -3,0 z M 177,165 l 3,0 0,3 -3,0 z M 180,165 l 3,0 0,3 -3,0 z M 183,165 l 3,0 0,3 -3,0 z M 189,165 l 3,0 0,3 -3,0 z M 192,165 l 3,0 0,3 -3,0 z M 3,168 l 3,0 0,3 -3,0 z M 12,168 l 3,0 0,3 -3,0 z M 30,168 l 3,0 0,3 -3,0 z M 33,168 l 3,0 0,3 -3,0 z M 39,168 l 3,0 0,3 -3,0 z M 42,168 l 3,0 0,3 -3,0 z M 60,168 l 3,0 0,3 -3,0 z M 78,168 l 3,0 0,3 -3,0 z M 96,168 l 3,0 0,3 -3,0 z M 108,168 l 3,0 0,3 -3,0 z M 111,168 l 3,0 0,3 -3,0 z M 114,168 l 3,0 0,3 -3,0 z M 117,168 l 3,0 0,3 -3,0 z M 120,168 l 3,0 0,3 -3,0 z M 126,168 l 3,0 0,3 -3,0 z M 132,168 l 3,0 0,3 -3,0 z M 138,168 l 3,0 0,3 -3,0 z M 141,168 l 3,0 0,3 -3,0 z M 144,168 l 3,0 0,3 -3,0 z M 147,168 l 3,0 0,3 -3,0 z M 153,168 l 3,0 0,3 -3,0 z M 180,168 l 3,0 0,3 -3,0 z M 186,168 l 3,0 0,3 -3,0 z M 189,168 l 3,0 0,3 -3,0 z M 195,168 l 3,0 0,3 -3,0 z M 6,171 l 3,0 0,3 -3,0 z M 9,171 l 3,0 0,3 -3,0 z M 15,171 l 3,0 0,3 -3,0 z M 21,171 l 3,0 0,3 -3,0 z M 24,171 l 3,0 0,3 -3,0 z M 30,171 l 3,0 0,3 -3,0 z M 33,171 l 3,0 0,3 -3,0 z M 42,171 l 3,0 0,3 -3,0 z M 48,171 l 3,0 0,3 -3,0 z M 57,171 l 3,0 0,3 -3,0 z M 63,171 l 3,0 0,3 -3,0 z M 66,171 l 3,0 0,3 -3,0 z M 69,171 l 3,0 0,3 -3,0 z M 78,171 l 3,0 0,3 -3,0 z M 81,171 l 3,0 0,3 -3,0 z M 93,171 l 3,0 0,3 -3,0 z M 96,171 l 3,0 0,3 -3,0 z M 99,171 l 3,0 0,3 -3,0 z M 102,171 l 3,0 0,3 -3,0 z M 105,171 l 3,0 0,3 -3,0 z M 111,171 l 3,0 0,3 -3,0 z M 117,171 l 3,0 0,3 -3,0 z M 123,171 l 3,0 0,3 -3,0 z M 129,171 l 3,0 0,3 -3,0 z M 132,171 l 3,0 0,3 -3,0 z M 141,171 l 3,0 0,3 -3,0 z M 150,171 l 3,0 0,3 -3,0 z M 159,171 l 3,0 0,3 -3,0 z M 162,171 l 3,0 0,3 -3,0 z M 165,171 l 3,0 0,3 -3,0 z M 171,171 l 3,0 0,3 -3,0 z M 174,171 l 3,0 0,3 -3,0 z M 177,171 l 3,0 0,3 -3,0 z M 180,171 l 3,0 0,3 -3,0 z M 183,171 l 3,0 0,3 -3,0 z M 186,171 l 3,0 0,3 -3,0 z M 27,174 l 3,0 0,3 -3,0 z M 36,174 l 3,0 0,3 -3,0 z M 39,174 l 3,0 0,3 -3,0 z M 48,174 l 3,0 0,3 -3,0 z M 54,174 l 3,0 0,3 -3,0 z M 57,174 l 3,0 0,3 -3,0 z M 60,174 l 3,0 0,3 -3,0 z M 66,174 l 3,0 0,3 -3,0 z M 81,174 l 3,0 0,3 -3,0 z M 93,174 l 3,0 0,3 -3,0 z M 105,174 l 3,0 0,3 -3,0 z M 108,174 l 3,0 0,3 -3,0 z M 111,174 l 3,0 0,3 -3,0 z M 114,174 l 3,0 0,3 -3,0 z M 117,174 l 3,0 0,3 -3,0 z M 126,174 l 3,0 0,3 -3,0 z M 132,174 l 3,0 0,3 -3,0 z M 141,174 l 3,0 0,3 -3,0 z M 144,174 l 3,0 0,3 -3,0 z M 150,174 l 3,0 0,3 -3,0 z M 159,174 l 3,0 0,3 -3,0 z M 162,174 l 3,0 0,3 -3,0 z M 165,174 l 3,0 0,3 -3,0 z M 171,174 l 3,0 0,3 -3,0 z M 183,174 l 3,0 0,3 -3,0 z M 3,177 l 3,0 0,3 -3,0 z M 6,177 l 3,0 0,3 -3,0 z M 9,177 l 3,0 0,3 -3,0 z M 12,177 l 3,0 0,3 -3,0 z M 15,177 l 3,0 0,3 -3,0 z M 18,177 l 3,0 0,3 -3,0 z M 21,177 l 3,0 0,3 -3,0 z M 27,177 l 3,0 0,3 -3,0 z M 30,177 l 3,0 0,3 -3,0 z M 33,177 l 3,0 0,3 -3,0 z M 36,177 l 3,0 0,3 -3,0 z M 39,177 l 3,0 0,3 -3,0 z M 42,177 l 3,0 0,3 -3,0 z M 45,177 l 3,0 0,3 -3,0 z M 48,177 l 3,0 0,3 -3,0 z M 51,177 l 3,0 0,3 -3,0 z M 57,177 l 3,0 0,3 -3,0 z M 60,177 l 3,0 0,3 -3,0 z M 63,177 l 3,0 0,3 -3,0 z M 66,177 l 3,0 0,3 -3,0 z M 78,177 l 3,0 0,3 -3,0 z M 84,177 l 3,0 0,3 -3,0 z M 87,177 l 3,0 0,3 -3,0 z M 93,177 l 3,0 0,3 -3,0 z M 99,177 l 3,0 0,3 -3,0 z M 105,177 l 3,0 0,3 -3,0 z M 108,177 l 3,0 0,3 -3,0 z M 114,177 l 3,0 0,3 -3,0 z M 120,177 l 3,0 0,3 -3,0 z M 123,177 l 3,0 0,3 -3,0 z M 126,177 l 3,0 0,3 -3,0 z M 129,177 l 3,0 0,3 -3,0 z M 132,177 l 3,0 0,3 -3,0 z M 135,177 l 3,0 0,3 -3,0 z M 150,177 l 3,0 0,3 -3,0 z M 156,177 l 3,0 0,3 -3,0 z M 159,177 l 3,0 0,3 -3,0 z M 162,177 l 3,0 0,3 -3,0 z M 165,177 l 3,0 0,3 -3,0 z M 168,177 l 3,0 0,3 -3,0 z M 171,177 l 3,0 0,3 -3,0 z M 177,177 l 3,0 0,3 -3,0 z M 183,177 l 3,0 0,3 -3,0 z M 189,177 l 3,0 0,3 -3,0 z M 192,177 l 3,0 0,3 -3,0 z M 195,177 l 3,0 0,3 -3,0 z M 3,180 l 3,0 0,3 -3,0 z M 21,180 l 3,0 0,3 -3,0 z M 30,180 l 3,0 0,3 -3,0 z M 33,180 l 3,0 0,3 -3,0 z M 36,180 l 3,0 0,3 -3,0 z M 39,180 l 3,0 0,3 -3,0 z M 45,180 l 3,0 0,3 -3,0 z M 48,180 l 3,0 0,3 -3,0 z M 51,180 l 3,0 0,3 -3,0 z M 57,180 l 3,0 0,3 -3,0 z M 60,180 l 3,0 0,3 -3,0 z M 66,180 l 3,0 0,3 -3,0 z M 69,180 l 3,0 0,3 -3,0 z M 72,180 l 3,0 0,3 -3,0 z M 78,180 l 3,0 0,3 -3,0 z M 81,180 l 3,0 0,3 -3,0 z M 87,180 l 3,0 0,3 -3,0 z M 93,180 l 3,0 0,3 -3,0 z M 105,180 l 3,0 0,3 -3,0 z M 111,180 l 3,0 0,3 -3,0 z M 129,180 l 3,0 0,3 -3,0 z M 132,180 l 3,0 0,3 -3,0 z M 135,180 l 3,0 0,3 -3,0 z M 141,180 l 3,0 0,3 -3,0 z M 144,180 l 3,0 0,3 -3,0 z M 147,180 l 3,0 0,3 -3,0 z M 153,180 l 3,0 0,3 -3,0 z M 156,180 l 3,0 0,3 -3,0 z M 159,180 l 3,0 0,3 -3,0 z M 165,180 l 3,0 0,3 -3,0 z M 171,180 l 3,0 0,3 -3,0 z M 183,180 l 3,0 0,3 -3,0 z M 189,180 l 3,0 0,3 -3,0 z M 195,180 l 3,0 0,3 -3,0 z M 3,183 l 3,0 0,3 -3,0 z M 9,183 l 3,0 0,3 -3,0 z M 12,183 l 3,0 0,3 -3,0 z M 15,183 l 3,0 0,3 -3,0 z M 21,183 l 3,0 0,3 -3,0 z M 27,183 l 3,0 0,3 -3,0 z M 30,183 l 3,0 0,3 -3,0 z M 33,183 l 3,0 0,3 -3,0 z M 36,183 l 3,0 0,3 -3,0 z M 45,183 l 3,0 0,3 -3,0 z M 48,183 l 3,0 0,3 -3,0 z M 51,183 l 3,0 0,3 -3,0 z M 66,183 l 3,0 0,3 -3,0 z M 69,183 l 3,0 0,3 -3,0 z M 81,183 l 3,0 0,3 -3,0 z M 84,183 l 3,0 0,3 -3,0 z M 87,183 l 3,0 0,3 -3,0 z M 93,183 l 3,0 0,3 -3,0 z M 96,183 l 3,0 0,3 -3,0 z M 99,183 l 3,0 0,3 -3,0 z M 102,183 l 3,0 0,3 -3,0 z M 105,183 l 3,0 0,3 -3,0 z M 111,183 l 3,0 0,3 -3,0 z M 120,183 l 3,0 0,3 -3,0 z M 123,183 l 3,0 0,3 -3,0 z M 126,183 l 3,0 0,3 -3,0 z M 129,183 l 3,0 0,3 -3,0 z M 132,183 l 3,0 0,3 -3,0 z M 138,183 l 3,0 0,3 -3,0 z M 153,183 l 3,0 0,3 -3,0 z M 156,183 l 3,0 0,3 -3,0 z M 165,183 l 3,0 0,3 -3,0 z M 171,183 l 3,0 0,3 -3,0 z M 174,183 l 3,0 0,3 -3,0 z M 177,183 l 3,0 0,3 -3,0 z M 180,183 l 3,0 0,3 -3,0 z M 183,183 l 3,0 0,3 -3,0 z M 189,183 l 3,0 0,3 -3,0 z M 3,186 l 3,0 0,3 -3,0 z M 9,186 l 3,0 0,3 -3,0 z M 12,186 l 3,0 0,3 -3,0 z M 15,186 l 3,0 0,3 -3,0 z M 21,186 l 3,0 0,3 -3,0 z M 27,186 l 3,0 0,3 -3,0 z M 36,186 l 3,0 0,3 -3,0 z M 39,186 l 3,0 0,3 -3,0 z M 45,186 l 3,0 0,3 -3,0 z M 51,186 l 3,0 0,3 -3,0 z M 54,186 l 3,0 0,3 -3,0 z M 60,186 l 3,0 0,3 -3,0 z M 63,186 l 3,0 0,3 -3,0 z M 69,186 l 3,0 0,3 -3,0 z M 72,186 l 3,0 0,3 -3,0 z M 81,186 l 3,0 0,3 -3,0 z M 87,186 l 3,0 0,3 -3,0 z M 90,186 l 3,0 0,3 -3,0 z M 93,186 l 3,0 0,3 -3,0 z M 96,186 l 3,0 0,3 -3,0 z M 105,186 l 3,0 0,3 -3,0 z M 114,186 l 3,0 0,3 -3,0 z M 120,186 l 3,0 0,3 -3,0 z M 129,186 l 3,0 0,3 -3,0 z M 135,186 l 3,0 0,3 -3,0 z M 138,186 l 3,0 0,3 -3,0 z M 144,186 l 3,0 0,3 -3,0 z M 147,186 l 3,0 0,3 -3,0 z M 156,186 l 3,0 0,3 -3,0 z M 159,186 l 3,0 0,3 -3,0 z M 165,186 l 3,0 0,3 -3,0 z M 174,186 l 3,0 0,3 -3,0 z M 180,186 l 3,0 0,3 -3,0 z M 186,186 l 3,0 0,3 -3,0 z M 189,186 l 3,0 0,3 -3,0 z M 192,186 l 3,0 0,3 -3,0 z M 3,189 l 3,0 0,3 -3,0 z M 9,189 l 3,0 0,3 -3,0 z M 12,189 l 3,0 0,3 -3,0 z M 15,189 l 3,0 0,3 -3,0 z M 21,189 l 3,0 0,3 -3,0 z M 27,189 l 3,0 0,3 -3,0 z M 36,189 l 3,0 0,3 -3,0 z M 42,189 l 3,0 0,3 -3,0 z M 45,189 l 3,0 0,3 -3,0 z M 51,189 l 3,0 0,3 -3,0 z M 54,189 l 3,0 0,3 -3,0 z M 60,189 l 3,0 0,3 -3,0 z M 69,189 l 3,0 0,3 -3,0 z M 72,189 l 3,0 0,3 -3,0 z M 75,189 l 3,0 0,3 -3,0 z M 81,189 l 3,0 0,3 -3,0 z M 93,189 l 3,0 0,3 -3,0 z M 96,189 l 3,0 0,3 -3,0 z M 111,189 l 3,0 0,3 -3,0 z M 114,189 l 3,0 0,3 -3,0 z M 126,189 l 3,0 0,3 -3,0 z M 129,189 l 3,0 0,3 -3,0 z M 132,189 l 3,0 0,3 -3,0 z M 138,189 l 3,0 0,3 -3,0 z M 141,189 l 3,0 0,3 -3,0 z M 144,189 l 3,0 0,3 -3,0 z M 147,189 l 3,0 0,3 -3,0 z M 153,189 l 3,0 0,3 -3,0 z M 159,189 l 3,0 0,3 -3,0 z M 165,189 l 3,0 0,3 -3,0 z M 168,189 l 3,0 0,3 -3,0 z M 174,189 l 3,0 0,3 -3,0 z M 177,189 l 3,0 0,3 -3,0 z M 180,189 l 3,0 0,3 -3,0 z M 183,189 l 3,0 0,3 -3,0 z M 186,189 l 3,0 0,3 -3,0 z M 192,189 l 3,0 0,3 -3,0 z M 3,192 l 3,0 0,3 -3,0 z M 21,192 l 3,0 0,3 -3,0 z M 27,192 l 3,0 0,3 -3,0 z M 33,192 l 3,0 0,3 -3,0 z M 45,192 l 3,0 0,3 -3,0 z M 51,192 l 3,0 0,3 -3,0 z M 60,192 l 3,0 0,3 -3,0 z M 63,192 l 3,0 0,3 -3,0 z M 66,192 l 3,0 0,3 -3,0 z M 69,192 l 3,0 0,3 -3,0 z M 72,192 l 3,0 0,3 -3,0 z M 78,192 l 3,0 0,3 -3,0 z M 87,192 l 3,0 0,3 -3,0 z M 93,192 l 3,0 0,3 -3,0 z M 99,192 l 3,0 0,3 -3,0 z M 114,192 l 3,0 0,3 -3,0 z M 117,192 l 3,0 0,3 -3,0 z M 120,192 l 3,0 0,3 -3,0 z M 126,192 l 3,0 0,3 -3,0 z M 135,192 l 3,0 0,3 -3,0 z M 141,192 l 3,0 0,3 -3,0 z M 150,192 l 3,0 0,3 -3,0 z M 153,192 l 3,0 0,3 -3,0 z M 156,192 l 3,0 0,3 -3,0 z M 162,192 l 3,0 0,3 -3,0 z M 165,192 l 3,0 0,3 -3,0 z M 171,192 l 3,0 0,3 -3,0 z M 174,192 l 3,0 0,3 -3,0 z M 177,192 l 3,0 0,3 -3,0 z M 189,192 l 3,0 0,3 -3,0 z M 192,192 l 3,0 0,3 -3,0 z M 195,192 l 3,0 0,3 -3,0 z M 3,195 l 3,0 0,3 -3,0 z M 6,195 l 3,0 0,3 -3,0 z M 9,195 l 3,0 0,3 -3,0 z M 12,195 l 3,0 0,3 -3,0 z M 15,195 l 3,0 0,3 -3,0 z M 18,195 l 3,0 0,3 -3,0 z M 21,195 l 3,0 0,3 -3,0 z M 27,195 l 3,0 0,3 -3,0 z M 30,195 l 3,0 0,3 -3,0 z M 33,195 l 3,0 0,3 -3,0 z M 39,195 l 3,0 0,3 -3,0 z M 42,195 l 3,0 0,3 -3,0 z M 48,195 l 3,0 0,3 -3,0 z M 51,195 l 3,0 0,3 -3,0 z M 54,195 l 3,0 0,3 -3,0 z M 57,195 l 3,0 0,3 -3,0 z M 63,195 l 3,0 0,3 -3,0 z M 78,195 l 3,0 0,3 -3,0 z M 81,195 l 3,0 0,3 -3,0 z M 84,195 l 3,0 0,3 -3,0 z M 93,195 l 3,0 0,3 -3,0 z M 96,195 l 3,0 0,3 -3,0 z M 102,195 l 3,0 0,3 -3,0 z M 105,195 l 3,0 0,3 -3,0 z M 108,195 l 3,0 0,3 -3,0 z M 117,195 l 3,0 0,3 -3,0 z M 120,195 l 3,0 0,3 -3,0 z M 126,195 l 3,0 0,3 -3,0 z M 129,195 l 3,0 0,3 -3,0 z M 132,195 l 3,0 0,3 -3,0 z M 138,195 l 3,0 0,3 -3,0 z M 162,195 l 3,0 0,3 -3,0 z M 171,195 l 3,0 0,3 -3,0 z M 180,195 l 3,0 0,3 -3,0 z M 189,195 l 3,0 0,3 -3,0 z M 192,195 l 3,0 0,3 -3,0 z " />
	</g>
</svg>
