<?xml version="1.0" standalone="no"?>
<svg xmlns="http://www.w3.org/2000/svg" version="1.1" width="213" height="213">
	<!-- Created with https://api.qrserver.com (QR Code API, see goQR.me/api for information) -->
	<title>QR Code</title>
	<desc>BEGIN:VCARD
VERSION:3.0
N:Yeo;Kheng Meng
TITLE:Senior IoT Engineer II
ORG:SP Group
EMAIL;type=INTERNET;type=WORK;:yeokhengmeng@spgroup.com.sg
EMAIL;type=INTERNET;type=PERSONAL;:yeokm1@gmail.com
TEL;TYPE=WORK,VOICE:+65 69196184
TEL;TYPE=CELL,VOICE:+65 97390391
URL;WORK:https://www.spgroup.com.sg
URL:http://yeokhengmeng.com
URL:https://www.linkedin.com/in/yeokhengmeng
END:VCARD</desc>
	<rect style="fill:rgb(255, 255, 255);fill-opacity:1" x="0" y="0" width="213" height="213" />
	<g id="elements">
		<path style="fill:rgb(0, 0, 0)" d="M 3,3 l 3,0 0,3 -3,0 z M 6,3 l 3,0 0,3 -3,0 z M 9,3 l 3,0 0,3 -3,0 z M 12,3 l 3,0 0,3 -3,0 z M 15,3 l 3,0 0,3 -3,0 z M 18,3 l 3,0 0,3 -3,0 z M 21,3 l 3,0 0,3 -3,0 z M 30,3 l 3,0 0,3 -3,0 z M 36,3 l 3,0 0,3 -3,0 z M 42,3 l 3,0 0,3 -3,0 z M 45,3 l 3,0 0,3 -3,0 z M 54,3 l 3,0 0,3 -3,0 z M 57,3 l 3,0 0,3 -3,0 z M 66,3 l 3,0 0,3 -3,0 z M 69,3 l 3,0 0,3 -3,0 z M 75,3 l 3,0 0,3 -3,0 z M 87,3 l 3,0 0,3 -3,0 z M 90,3 l 3,0 0,3 -3,0 z M 96,3 l 3,0 0,3 -3,0 z M 105,3 l 3,0 0,3 -3,0 z M 117,3 l 3,0 0,3 -3,0 z M 120,3 l 3,0 0,3 -3,0 z M 126,3 l 3,0 0,3 -3,0 z M 135,3 l 3,0 0,3 -3,0 z M 138,3 l 3,0 0,3 -3,0 z M 150,3 l 3,0 0,3 -3,0 z M 156,3 l 3,0 0,3 -3,0 z M 159,3 l 3,0 0,3 -3,0 z M 171,3 l 3,0 0,3 -3,0 z M 177,3 l 3,0 0,3 -3,0 z M 180,3 l 3,0 0,3 -3,0 z M 183,3 l 3,0 0,3 -3,0 z M 189,3 l 3,0 0,3 -3,0 z M 192,3 l 3,0 0,3 -3,0 z M 195,3 l 3,0 0,3 -3,0 z M 198,3 l 3,0 0,3 -3,0 z M 201,3 l 3,0 0,3 -3,0 z M 204,3 l 3,0 0,3 -3,0 z M 207,3 l 3,0 0,3 -3,0 z M 3,6 l 3,0 0,3 -3,0 z M 21,6 l 3,0 0,3 -3,0 z M 27,6 l 3,0 0,3 -3,0 z M 33,6 l 3,0 0,3 -3,0 z M 36,6 l 3,0 0,3 -3,0 z M 45,6 l 3,0 0,3 -3,0 z M 60,6 l 3,0 0,3 -3,0 z M 66,6 l 3,0 0,3 -3,0 z M 75,6 l 3,0 0,3 -3,0 z M 78,6 l 3,0 0,3 -3,0 z M 81,6 l 3,0 0,3 -3,0 z M 84,6 l 3,0 0,3 -3,0 z M 87,6 l 3,0 0,3 -3,0 z M 90,6 l 3,0 0,3 -3,0 z M 96,6 l 3,0 0,3 -3,0 z M 102,6 l 3,0 0,3 -3,0 z M 105,6 l 3,0 0,3 -3,0 z M 111,6 l 3,0 0,3 -3,0 z M 114,6 l 3,0 0,3 -3,0 z M 132,6 l 3,0 0,3 -3,0 z M 138,6 l 3,0 0,3 -3,0 z M 141,6 l 3,0 0,3 -3,0 z M 144,6 l 3,0 0,3 -3,0 z M 150,6 l 3,0 0,3 -3,0 z M 171,6 l 3,0 0,3 -3,0 z M 174,6 l 3,0 0,3 -3,0 z M 189,6 l 3,0 0,3 -3,0 z M 207,6 l 3,0 0,3 -3,0 z M 3,9 l 3,0 0,3 -3,0 z M 9,9 l 3,0 0,3 -3,0 z M 12,9 l 3,0 0,3 -3,0 z M 15,9 l 3,0 0,3 -3,0 z M 21,9 l 3,0 0,3 -3,0 z M 30,9 l 3,0 0,3 -3,0 z M 33,9 l 3,0 0,3 -3,0 z M 36,9 l 3,0 0,3 -3,0 z M 39,9 l 3,0 0,3 -3,0 z M 42,9 l 3,0 0,3 -3,0 z M 48,9 l 3,0 0,3 -3,0 z M 69,9 l 3,0 0,3 -3,0 z M 72,9 l 3,0 0,3 -3,0 z M 78,9 l 3,0 0,3 -3,0 z M 87,9 l 3,0 0,3 -3,0 z M 93,9 l 3,0 0,3 -3,0 z M 96,9 l 3,0 0,3 -3,0 z M 99,9 l 3,0 0,3 -3,0 z M 102,9 l 3,0 0,3 -3,0 z M 105,9 l 3,0 0,3 -3,0 z M 108,9 l 3,0 0,3 -3,0 z M 117,9 l 3,0 0,3 -3,0 z M 120,9 l 3,0 0,3 -3,0 z M 126,9 l 3,0 0,3 -3,0 z M 132,9 l 3,0 0,3 -3,0 z M 141,9 l 3,0 0,3 -3,0 z M 144,9 l 3,0 0,3 -3,0 z M 147,9 l 3,0 0,3 -3,0 z M 153,9 l 3,0 0,3 -3,0 z M 156,9 l 3,0 0,3 -3,0 z M 168,9 l 3,0 0,3 -3,0 z M 174,9 l 3,0 0,3 -3,0 z M 177,9 l 3,0 0,3 -3,0 z M 189,9 l 3,0 0,3 -3,0 z M 195,9 l 3,0 0,3 -3,0 z M 198,9 l 3,0 0,3 -3,0 z M 201,9 l 3,0 0,3 -3,0 z M 207,9 l 3,0 0,3 -3,0 z M 3,12 l 3,0 0,3 -3,0 z M 9,12 l 3,0 0,3 -3,0 z M 12,12 l 3,0 0,3 -3,0 z M 15,12 l 3,0 0,3 -3,0 z M 21,12 l 3,0 0,3 -3,0 z M 27,12 l 3,0 0,3 -3,0 z M 30,12 l 3,0 0,3 -3,0 z M 33,12 l 3,0 0,3 -3,0 z M 42,12 l 3,0 0,3 -3,0 z M 48,12 l 3,0 0,3 -3,0 z M 57,12 l 3,0 0,3 -3,0 z M 60,12 l 3,0 0,3 -3,0 z M 66,12 l 3,0 0,3 -3,0 z M 75,12 l 3,0 0,3 -3,0 z M 78,12 l 3,0 0,3 -3,0 z M 81,12 l 3,0 0,3 -3,0 z M 90,12 l 3,0 0,3 -3,0 z M 108,12 l 3,0 0,3 -3,0 z M 111,12 l 3,0 0,3 -3,0 z M 114,12 l 3,0 0,3 -3,0 z M 117,12 l 3,0 0,3 -3,0 z M 120,12 l 3,0 0,3 -3,0 z M 126,12 l 3,0 0,3 -3,0 z M 132,12 l 3,0 0,3 -3,0 z M 138,12 l 3,0 0,3 -3,0 z M 141,12 l 3,0 0,3 -3,0 z M 144,12 l 3,0 0,3 -3,0 z M 147,12 l 3,0 0,3 -3,0 z M 156,12 l 3,0 0,3 -3,0 z M 159,12 l 3,0 0,3 -3,0 z M 162,12 l 3,0 0,3 -3,0 z M 174,12 l 3,0 0,3 -3,0 z M 183,12 l 3,0 0,3 -3,0 z M 189,12 l 3,0 0,3 -3,0 z M 195,12 l 3,0 0,3 -3,0 z M 198,12 l 3,0 0,3 -3,0 z M 201,12 l 3,0 0,3 -3,0 z M 207,12 l 3,0 0,3 -3,0 z M 3,15 l 3,0 0,3 -3,0 z M 9,15 l 3,0 0,3 -3,0 z M 12,15 l 3,0 0,3 -3,0 z M 15,15 l 3,0 0,3 -3,0 z M 21,15 l 3,0 0,3 -3,0 z M 36,15 l 3,0 0,3 -3,0 z M 45,15 l 3,0 0,3 -3,0 z M 51,15 l 3,0 0,3 -3,0 z M 57,15 l 3,0 0,3 -3,0 z M 60,15 l 3,0 0,3 -3,0 z M 63,15 l 3,0 0,3 -3,0 z M 66,15 l 3,0 0,3 -3,0 z M 81,15 l 3,0 0,3 -3,0 z M 87,15 l 3,0 0,3 -3,0 z M 90,15 l 3,0 0,3 -3,0 z M 93,15 l 3,0 0,3 -3,0 z M 96,15 l 3,0 0,3 -3,0 z M 99,15 l 3,0 0,3 -3,0 z M 102,15 l 3,0 0,3 -3,0 z M 105,15 l 3,0 0,3 -3,0 z M 108,15 l 3,0 0,3 -3,0 z M 111,15 l 3,0 0,3 -3,0 z M 114,15 l 3,0 0,3 -3,0 z M 120,15 l 3,0 0,3 -3,0 z M 123,15 l 3,0 0,3 -3,0 z M 126,15 l 3,0 0,3 -3,0 z M 129,15 l 3,0 0,3 -3,0 z M 132,15 l 3,0 0,3 -3,0 z M 135,15 l 3,0 0,3 -3,0 z M 144,15 l 3,0 0,3 -3,0 z M 150,15 l 3,0 0,3 -3,0 z M 153,15 l 3,0 0,3 -3,0 z M 159,15 l 3,0 0,3 -3,0 z M 174,15 l 3,0 0,3 -3,0 z M 177,15 l 3,0 0,3 -3,0 z M 183,15 l 3,0 0,3 -3,0 z M 189,15 l 3,0 0,3 -3,0 z M 195,15 l 3,0 0,3 -3,0 z M 198,15 l 3,0 0,3 -3,0 z M 201,15 l 3,0 0,3 -3,0 z M 207,15 l 3,0 0,3 -3,0 z M 3,18 l 3,0 0,3 -3,0 z M 21,18 l 3,0 0,3 -3,0 z M 27,18 l 3,0 0,3 -3,0 z M 30,18 l 3,0 0,3 -3,0 z M 33,18 l 3,0 0,3 -3,0 z M 36,18 l 3,0 0,3 -3,0 z M 45,18 l 3,0 0,3 -3,0 z M 48,18 l 3,0 0,3 -3,0 z M 51,18 l 3,0 0,3 -3,0 z M 60,18 l 3,0 0,3 -3,0 z M 63,18 l 3,0 0,3 -3,0 z M 66,18 l 3,0 0,3 -3,0 z M 72,18 l 3,0 0,3 -3,0 z M 75,18 l 3,0 0,3 -3,0 z M 81,18 l 3,0 0,3 -3,0 z M 84,18 l 3,0 0,3 -3,0 z M 90,18 l 3,0 0,3 -3,0 z M 99,18 l 3,0 0,3 -3,0 z M 111,18 l 3,0 0,3 -3,0 z M 114,18 l 3,0 0,3 -3,0 z M 120,18 l 3,0 0,3 -3,0 z M 123,18 l 3,0 0,3 -3,0 z M 129,18 l 3,0 0,3 -3,0 z M 135,18 l 3,0 0,3 -3,0 z M 147,18 l 3,0 0,3 -3,0 z M 150,18 l 3,0 0,3 -3,0 z M 156,18 l 3,0 0,3 -3,0 z M 159,18 l 3,0 0,3 -3,0 z M 162,18 l 3,0 0,3 -3,0 z M 165,18 l 3,0 0,3 -3,0 z M 177,18 l 3,0 0,3 -3,0 z M 189,18 l 3,0 0,3 -3,0 z M 207,18 l 3,0 0,3 -3,0 z M 3,21 l 3,0 0,3 -3,0 z M 6,21 l 3,0 0,3 -3,0 z M 9,21 l 3,0 0,3 -3,0 z M 12,21 l 3,0 0,3 -3,0 z M 15,21 l 3,0 0,3 -3,0 z M 18,21 l 3,0 0,3 -3,0 z M 21,21 l 3,0 0,3 -3,0 z M 27,21 l 3,0 0,3 -3,0 z M 33,21 l 3,0 0,3 -3,0 z M 39,21 l 3,0 0,3 -3,0 z M 45,21 l 3,0 0,3 -3,0 z M 51,21 l 3,0 0,3 -3,0 z M 57,21 l 3,0 0,3 -3,0 z M 63,21 l 3,0 0,3 -3,0 z M 69,21 l 3,0 0,3 -3,0 z M 75,21 l 3,0 0,3 -3,0 z M 81,21 l 3,0 0,3 -3,0 z M 87,21 l 3,0 0,3 -3,0 z M 93,21 l 3,0 0,3 -3,0 z M 99,21 l 3,0 0,3 -3,0 z M 105,21 l 3,0 0,3 -3,0 z M 111,21 l 3,0 0,3 -3,0 z M 117,21 l 3,0 0,3 -3,0 z M 123,21 l 3,0 0,3 -3,0 z M 129,21 l 3,0 0,3 -3,0 z M 135,21 l 3,0 0,3 -3,0 z M 141,21 l 3,0 0,3 -3,0 z M 147,21 l 3,0 0,3 -3,0 z M 153,21 l 3,0 0,3 -3,0 z M 159,21 l 3,0 0,3 -3,0 z M 165,21 l 3,0 0,3 -3,0 z M 171,21 l 3,0 0,3 -3,0 z M 177,21 l 3,0 0,3 -3,0 z M 183,21 l 3,0 0,3 -3,0 z M 189,21 l 3,0 0,3 -3,0 z M 192,21 l 3,0 0,3 -3,0 z M 195,21 l 3,0 0,3 -3,0 z M 198,21 l 3,0 0,3 -3,0 z M 201,21 l 3,0 0,3 -3,0 z M 204,21 l 3,0 0,3 -3,0 z M 207,21 l 3,0 0,3 -3,0 z M 36,24 l 3,0 0,3 -3,0 z M 42,24 l 3,0 0,3 -3,0 z M 45,24 l 3,0 0,3 -3,0 z M 51,24 l 3,0 0,3 -3,0 z M 54,24 l 3,0 0,3 -3,0 z M 63,24 l 3,0 0,3 -3,0 z M 78,24 l 3,0 0,3 -3,0 z M 81,24 l 3,0 0,3 -3,0 z M 84,24 l 3,0 0,3 -3,0 z M 87,24 l 3,0 0,3 -3,0 z M 96,24 l 3,0 0,3 -3,0 z M 99,24 l 3,0 0,3 -3,0 z M 111,24 l 3,0 0,3 -3,0 z M 114,24 l 3,0 0,3 -3,0 z M 120,24 l 3,0 0,3 -3,0 z M 132,24 l 3,0 0,3 -3,0 z M 156,24 l 3,0 0,3 -3,0 z M 159,24 l 3,0 0,3 -3,0 z M 162,24 l 3,0 0,3 -3,0 z M 165,24 l 3,0 0,3 -3,0 z M 171,24 l 3,0 0,3 -3,0 z M 174,24 l 3,0 0,3 -3,0 z M 177,24 l 3,0 0,3 -3,0 z M 3,27 l 3,0 0,3 -3,0 z M 6,27 l 3,0 0,3 -3,0 z M 9,27 l 3,0 0,3 -3,0 z M 12,27 l 3,0 0,3 -3,0 z M 15,27 l 3,0 0,3 -3,0 z M 21,27 l 3,0 0,3 -3,0 z M 24,27 l 3,0 0,3 -3,0 z M 27,27 l 3,0 0,3 -3,0 z M 33,27 l 3,0 0,3 -3,0 z M 42,27 l 3,0 0,3 -3,0 z M 45,27 l 3,0 0,3 -3,0 z M 54,27 l 3,0 0,3 -3,0 z M 57,27 l 3,0 0,3 -3,0 z M 60,27 l 3,0 0,3 -3,0 z M 63,27 l 3,0 0,3 -3,0 z M 66,27 l 3,0 0,3 -3,0 z M 75,27 l 3,0 0,3 -3,0 z M 78,27 l 3,0 0,3 -3,0 z M 84,27 l 3,0 0,3 -3,0 z M 87,27 l 3,0 0,3 -3,0 z M 90,27 l 3,0 0,3 -3,0 z M 99,27 l 3,0 0,3 -3,0 z M 102,27 l 3,0 0,3 -3,0 z M 105,27 l 3,0 0,3 -3,0 z M 108,27 l 3,0 0,3 -3,0 z M 111,27 l 3,0 0,3 -3,0 z M 120,27 l 3,0 0,3 -3,0 z M 126,27 l 3,0 0,3 -3,0 z M 150,27 l 3,0 0,3 -3,0 z M 165,27 l 3,0 0,3 -3,0 z M 171,27 l 3,0 0,3 -3,0 z M 174,27 l 3,0 0,3 -3,0 z M 177,27 l 3,0 0,3 -3,0 z M 180,27 l 3,0 0,3 -3,0 z M 186,27 l 3,0 0,3 -3,0 z M 192,27 l 3,0 0,3 -3,0 z M 198,27 l 3,0 0,3 -3,0 z M 204,27 l 3,0 0,3 -3,0 z M 3,30 l 3,0 0,3 -3,0 z M 6,30 l 3,0 0,3 -3,0 z M 18,30 l 3,0 0,3 -3,0 z M 30,30 l 3,0 0,3 -3,0 z M 33,30 l 3,0 0,3 -3,0 z M 36,30 l 3,0 0,3 -3,0 z M 42,30 l 3,0 0,3 -3,0 z M 45,30 l 3,0 0,3 -3,0 z M 54,30 l 3,0 0,3 -3,0 z M 57,30 l 3,0 0,3 -3,0 z M 72,30 l 3,0 0,3 -3,0 z M 81,30 l 3,0 0,3 -3,0 z M 93,30 l 3,0 0,3 -3,0 z M 105,30 l 3,0 0,3 -3,0 z M 111,30 l 3,0 0,3 -3,0 z M 114,30 l 3,0 0,3 -3,0 z M 120,30 l 3,0 0,3 -3,0 z M 123,30 l 3,0 0,3 -3,0 z M 147,30 l 3,0 0,3 -3,0 z M 150,30 l 3,0 0,3 -3,0 z M 156,30 l 3,0 0,3 -3,0 z M 159,30 l 3,0 0,3 -3,0 z M 162,30 l 3,0 0,3 -3,0 z M 174,30 l 3,0 0,3 -3,0 z M 186,30 l 3,0 0,3 -3,0 z M 189,30 l 3,0 0,3 -3,0 z M 207,30 l 3,0 0,3 -3,0 z M 6,33 l 3,0 0,3 -3,0 z M 9,33 l 3,0 0,3 -3,0 z M 12,33 l 3,0 0,3 -3,0 z M 15,33 l 3,0 0,3 -3,0 z M 18,33 l 3,0 0,3 -3,0 z M 21,33 l 3,0 0,3 -3,0 z M 24,33 l 3,0 0,3 -3,0 z M 27,33 l 3,0 0,3 -3,0 z M 30,33 l 3,0 0,3 -3,0 z M 51,33 l 3,0 0,3 -3,0 z M 54,33 l 3,0 0,3 -3,0 z M 81,33 l 3,0 0,3 -3,0 z M 87,33 l 3,0 0,3 -3,0 z M 90,33 l 3,0 0,3 -3,0 z M 96,33 l 3,0 0,3 -3,0 z M 102,33 l 3,0 0,3 -3,0 z M 105,33 l 3,0 0,3 -3,0 z M 108,33 l 3,0 0,3 -3,0 z M 114,33 l 3,0 0,3 -3,0 z M 120,33 l 3,0 0,3 -3,0 z M 129,33 l 3,0 0,3 -3,0 z M 138,33 l 3,0 0,3 -3,0 z M 147,33 l 3,0 0,3 -3,0 z M 153,33 l 3,0 0,3 -3,0 z M 156,33 l 3,0 0,3 -3,0 z M 174,33 l 3,0 0,3 -3,0 z M 177,33 l 3,0 0,3 -3,0 z M 180,33 l 3,0 0,3 -3,0 z M 183,33 l 3,0 0,3 -3,0 z M 192,33 l 3,0 0,3 -3,0 z M 198,33 l 3,0 0,3 -3,0 z M 6,36 l 3,0 0,3 -3,0 z M 9,36 l 3,0 0,3 -3,0 z M 15,36 l 3,0 0,3 -3,0 z M 18,36 l 3,0 0,3 -3,0 z M 33,36 l 3,0 0,3 -3,0 z M 45,36 l 3,0 0,3 -3,0 z M 51,36 l 3,0 0,3 -3,0 z M 60,36 l 3,0 0,3 -3,0 z M 63,36 l 3,0 0,3 -3,0 z M 69,36 l 3,0 0,3 -3,0 z M 72,36 l 3,0 0,3 -3,0 z M 78,36 l 3,0 0,3 -3,0 z M 81,36 l 3,0 0,3 -3,0 z M 87,36 l 3,0 0,3 -3,0 z M 90,36 l 3,0 0,3 -3,0 z M 93,36 l 3,0 0,3 -3,0 z M 102,36 l 3,0 0,3 -3,0 z M 105,36 l 3,0 0,3 -3,0 z M 120,36 l 3,0 0,3 -3,0 z M 123,36 l 3,0 0,3 -3,0 z M 138,36 l 3,0 0,3 -3,0 z M 144,36 l 3,0 0,3 -3,0 z M 147,36 l 3,0 0,3 -3,0 z M 153,36 l 3,0 0,3 -3,0 z M 162,36 l 3,0 0,3 -3,0 z M 177,36 l 3,0 0,3 -3,0 z M 180,36 l 3,0 0,3 -3,0 z M 186,36 l 3,0 0,3 -3,0 z M 192,36 l 3,0 0,3 -3,0 z M 3,39 l 3,0 0,3 -3,0 z M 6,39 l 3,0 0,3 -3,0 z M 9,39 l 3,0 0,3 -3,0 z M 12,39 l 3,0 0,3 -3,0 z M 18,39 l 3,0 0,3 -3,0 z M 21,39 l 3,0 0,3 -3,0 z M 27,39 l 3,0 0,3 -3,0 z M 30,39 l 3,0 0,3 -3,0 z M 33,39 l 3,0 0,3 -3,0 z M 36,39 l 3,0 0,3 -3,0 z M 39,39 l 3,0 0,3 -3,0 z M 54,39 l 3,0 0,3 -3,0 z M 57,39 l 3,0 0,3 -3,0 z M 60,39 l 3,0 0,3 -3,0 z M 72,39 l 3,0 0,3 -3,0 z M 75,39 l 3,0 0,3 -3,0 z M 78,39 l 3,0 0,3 -3,0 z M 81,39 l 3,0 0,3 -3,0 z M 84,39 l 3,0 0,3 -3,0 z M 90,39 l 3,0 0,3 -3,0 z M 93,39 l 3,0 0,3 -3,0 z M 96,39 l 3,0 0,3 -3,0 z M 102,39 l 3,0 0,3 -3,0 z M 108,39 l 3,0 0,3 -3,0 z M 123,39 l 3,0 0,3 -3,0 z M 126,39 l 3,0 0,3 -3,0 z M 129,39 l 3,0 0,3 -3,0 z M 132,39 l 3,0 0,3 -3,0 z M 138,39 l 3,0 0,3 -3,0 z M 144,39 l 3,0 0,3 -3,0 z M 150,39 l 3,0 0,3 -3,0 z M 153,39 l 3,0 0,3 -3,0 z M 156,39 l 3,0 0,3 -3,0 z M 159,39 l 3,0 0,3 -3,0 z M 165,39 l 3,0 0,3 -3,0 z M 168,39 l 3,0 0,3 -3,0 z M 171,39 l 3,0 0,3 -3,0 z M 174,39 l 3,0 0,3 -3,0 z M 180,39 l 3,0 0,3 -3,0 z M 183,39 l 3,0 0,3 -3,0 z M 186,39 l 3,0 0,3 -3,0 z M 195,39 l 3,0 0,3 -3,0 z M 198,39 l 3,0 0,3 -3,0 z M 201,39 l 3,0 0,3 -3,0 z M 204,39 l 3,0 0,3 -3,0 z M 207,39 l 3,0 0,3 -3,0 z M 6,42 l 3,0 0,3 -3,0 z M 9,42 l 3,0 0,3 -3,0 z M 15,42 l 3,0 0,3 -3,0 z M 27,42 l 3,0 0,3 -3,0 z M 30,42 l 3,0 0,3 -3,0 z M 33,42 l 3,0 0,3 -3,0 z M 39,42 l 3,0 0,3 -3,0 z M 48,42 l 3,0 0,3 -3,0 z M 54,42 l 3,0 0,3 -3,0 z M 57,42 l 3,0 0,3 -3,0 z M 66,42 l 3,0 0,3 -3,0 z M 69,42 l 3,0 0,3 -3,0 z M 78,42 l 3,0 0,3 -3,0 z M 90,42 l 3,0 0,3 -3,0 z M 102,42 l 3,0 0,3 -3,0 z M 111,42 l 3,0 0,3 -3,0 z M 120,42 l 3,0 0,3 -3,0 z M 126,42 l 3,0 0,3 -3,0 z M 129,42 l 3,0 0,3 -3,0 z M 132,42 l 3,0 0,3 -3,0 z M 144,42 l 3,0 0,3 -3,0 z M 153,42 l 3,0 0,3 -3,0 z M 159,42 l 3,0 0,3 -3,0 z M 162,42 l 3,0 0,3 -3,0 z M 168,42 l 3,0 0,3 -3,0 z M 174,42 l 3,0 0,3 -3,0 z M 183,42 l 3,0 0,3 -3,0 z M 186,42 l 3,0 0,3 -3,0 z M 192,42 l 3,0 0,3 -3,0 z M 195,42 l 3,0 0,3 -3,0 z M 201,42 l 3,0 0,3 -3,0 z M 204,42 l 3,0 0,3 -3,0 z M 6,45 l 3,0 0,3 -3,0 z M 9,45 l 3,0 0,3 -3,0 z M 12,45 l 3,0 0,3 -3,0 z M 15,45 l 3,0 0,3 -3,0 z M 18,45 l 3,0 0,3 -3,0 z M 21,45 l 3,0 0,3 -3,0 z M 24,45 l 3,0 0,3 -3,0 z M 30,45 l 3,0 0,3 -3,0 z M 36,45 l 3,0 0,3 -3,0 z M 39,45 l 3,0 0,3 -3,0 z M 42,45 l 3,0 0,3 -3,0 z M 45,45 l 3,0 0,3 -3,0 z M 48,45 l 3,0 0,3 -3,0 z M 54,45 l 3,0 0,3 -3,0 z M 63,45 l 3,0 0,3 -3,0 z M 69,45 l 3,0 0,3 -3,0 z M 75,45 l 3,0 0,3 -3,0 z M 84,45 l 3,0 0,3 -3,0 z M 87,45 l 3,0 0,3 -3,0 z M 90,45 l 3,0 0,3 -3,0 z M 93,45 l 3,0 0,3 -3,0 z M 96,45 l 3,0 0,3 -3,0 z M 108,45 l 3,0 0,3 -3,0 z M 126,45 l 3,0 0,3 -3,0 z M 129,45 l 3,0 0,3 -3,0 z M 135,45 l 3,0 0,3 -3,0 z M 150,45 l 3,0 0,3 -3,0 z M 156,45 l 3,0 0,3 -3,0 z M 159,45 l 3,0 0,3 -3,0 z M 162,45 l 3,0 0,3 -3,0 z M 165,45 l 3,0 0,3 -3,0 z M 168,45 l 3,0 0,3 -3,0 z M 171,45 l 3,0 0,3 -3,0 z M 180,45 l 3,0 0,3 -3,0 z M 183,45 l 3,0 0,3 -3,0 z M 186,45 l 3,0 0,3 -3,0 z M 192,45 l 3,0 0,3 -3,0 z M 198,45 l 3,0 0,3 -3,0 z M 201,45 l 3,0 0,3 -3,0 z M 204,45 l 3,0 0,3 -3,0 z M 30,48 l 3,0 0,3 -3,0 z M 33,48 l 3,0 0,3 -3,0 z M 39,48 l 3,0 0,3 -3,0 z M 42,48 l 3,0 0,3 -3,0 z M 48,48 l 3,0 0,3 -3,0 z M 66,48 l 3,0 0,3 -3,0 z M 69,48 l 3,0 0,3 -3,0 z M 72,48 l 3,0 0,3 -3,0 z M 75,48 l 3,0 0,3 -3,0 z M 78,48 l 3,0 0,3 -3,0 z M 87,48 l 3,0 0,3 -3,0 z M 93,48 l 3,0 0,3 -3,0 z M 99,48 l 3,0 0,3 -3,0 z M 102,48 l 3,0 0,3 -3,0 z M 111,48 l 3,0 0,3 -3,0 z M 126,48 l 3,0 0,3 -3,0 z M 129,48 l 3,0 0,3 -3,0 z M 132,48 l 3,0 0,3 -3,0 z M 138,48 l 3,0 0,3 -3,0 z M 147,48 l 3,0 0,3 -3,0 z M 150,48 l 3,0 0,3 -3,0 z M 156,48 l 3,0 0,3 -3,0 z M 165,48 l 3,0 0,3 -3,0 z M 168,48 l 3,0 0,3 -3,0 z M 180,48 l 3,0 0,3 -3,0 z M 192,48 l 3,0 0,3 -3,0 z M 198,48 l 3,0 0,3 -3,0 z M 201,48 l 3,0 0,3 -3,0 z M 207,48 l 3,0 0,3 -3,0 z M 3,51 l 3,0 0,3 -3,0 z M 6,51 l 3,0 0,3 -3,0 z M 12,51 l 3,0 0,3 -3,0 z M 18,51 l 3,0 0,3 -3,0 z M 21,51 l 3,0 0,3 -3,0 z M 36,51 l 3,0 0,3 -3,0 z M 45,51 l 3,0 0,3 -3,0 z M 48,51 l 3,0 0,3 -3,0 z M 51,51 l 3,0 0,3 -3,0 z M 54,51 l 3,0 0,3 -3,0 z M 93,51 l 3,0 0,3 -3,0 z M 96,51 l 3,0 0,3 -3,0 z M 99,51 l 3,0 0,3 -3,0 z M 108,51 l 3,0 0,3 -3,0 z M 117,51 l 3,0 0,3 -3,0 z M 123,51 l 3,0 0,3 -3,0 z M 132,51 l 3,0 0,3 -3,0 z M 138,51 l 3,0 0,3 -3,0 z M 147,51 l 3,0 0,3 -3,0 z M 153,51 l 3,0 0,3 -3,0 z M 156,51 l 3,0 0,3 -3,0 z M 159,51 l 3,0 0,3 -3,0 z M 168,51 l 3,0 0,3 -3,0 z M 171,51 l 3,0 0,3 -3,0 z M 174,51 l 3,0 0,3 -3,0 z M 192,51 l 3,0 0,3 -3,0 z M 201,51 l 3,0 0,3 -3,0 z M 204,51 l 3,0 0,3 -3,0 z M 207,51 l 3,0 0,3 -3,0 z M 3,54 l 3,0 0,3 -3,0 z M 6,54 l 3,0 0,3 -3,0 z M 12,54 l 3,0 0,3 -3,0 z M 15,54 l 3,0 0,3 -3,0 z M 18,54 l 3,0 0,3 -3,0 z M 27,54 l 3,0 0,3 -3,0 z M 33,54 l 3,0 0,3 -3,0 z M 39,54 l 3,0 0,3 -3,0 z M 48,54 l 3,0 0,3 -3,0 z M 51,54 l 3,0 0,3 -3,0 z M 57,54 l 3,0 0,3 -3,0 z M 60,54 l 3,0 0,3 -3,0 z M 63,54 l 3,0 0,3 -3,0 z M 66,54 l 3,0 0,3 -3,0 z M 69,54 l 3,0 0,3 -3,0 z M 72,54 l 3,0 0,3 -3,0 z M 75,54 l 3,0 0,3 -3,0 z M 78,54 l 3,0 0,3 -3,0 z M 84,54 l 3,0 0,3 -3,0 z M 93,54 l 3,0 0,3 -3,0 z M 99,54 l 3,0 0,3 -3,0 z M 102,54 l 3,0 0,3 -3,0 z M 108,54 l 3,0 0,3 -3,0 z M 111,54 l 3,0 0,3 -3,0 z M 114,54 l 3,0 0,3 -3,0 z M 117,54 l 3,0 0,3 -3,0 z M 123,54 l 3,0 0,3 -3,0 z M 135,54 l 3,0 0,3 -3,0 z M 138,54 l 3,0 0,3 -3,0 z M 141,54 l 3,0 0,3 -3,0 z M 144,54 l 3,0 0,3 -3,0 z M 150,54 l 3,0 0,3 -3,0 z M 153,54 l 3,0 0,3 -3,0 z M 156,54 l 3,0 0,3 -3,0 z M 159,54 l 3,0 0,3 -3,0 z M 162,54 l 3,0 0,3 -3,0 z M 168,54 l 3,0 0,3 -3,0 z M 174,54 l 3,0 0,3 -3,0 z M 180,54 l 3,0 0,3 -3,0 z M 183,54 l 3,0 0,3 -3,0 z M 192,54 l 3,0 0,3 -3,0 z M 198,54 l 3,0 0,3 -3,0 z M 204,54 l 3,0 0,3 -3,0 z M 207,54 l 3,0 0,3 -3,0 z M 3,57 l 3,0 0,3 -3,0 z M 9,57 l 3,0 0,3 -3,0 z M 18,57 l 3,0 0,3 -3,0 z M 21,57 l 3,0 0,3 -3,0 z M 24,57 l 3,0 0,3 -3,0 z M 27,57 l 3,0 0,3 -3,0 z M 30,57 l 3,0 0,3 -3,0 z M 33,57 l 3,0 0,3 -3,0 z M 36,57 l 3,0 0,3 -3,0 z M 39,57 l 3,0 0,3 -3,0 z M 42,57 l 3,0 0,3 -3,0 z M 54,57 l 3,0 0,3 -3,0 z M 63,57 l 3,0 0,3 -3,0 z M 69,57 l 3,0 0,3 -3,0 z M 72,57 l 3,0 0,3 -3,0 z M 75,57 l 3,0 0,3 -3,0 z M 78,57 l 3,0 0,3 -3,0 z M 81,57 l 3,0 0,3 -3,0 z M 90,57 l 3,0 0,3 -3,0 z M 96,57 l 3,0 0,3 -3,0 z M 102,57 l 3,0 0,3 -3,0 z M 105,57 l 3,0 0,3 -3,0 z M 120,57 l 3,0 0,3 -3,0 z M 126,57 l 3,0 0,3 -3,0 z M 129,57 l 3,0 0,3 -3,0 z M 132,57 l 3,0 0,3 -3,0 z M 138,57 l 3,0 0,3 -3,0 z M 141,57 l 3,0 0,3 -3,0 z M 144,57 l 3,0 0,3 -3,0 z M 147,57 l 3,0 0,3 -3,0 z M 153,57 l 3,0 0,3 -3,0 z M 165,57 l 3,0 0,3 -3,0 z M 174,57 l 3,0 0,3 -3,0 z M 177,57 l 3,0 0,3 -3,0 z M 183,57 l 3,0 0,3 -3,0 z M 186,57 l 3,0 0,3 -3,0 z M 192,57 l 3,0 0,3 -3,0 z M 201,57 l 3,0 0,3 -3,0 z M 204,57 l 3,0 0,3 -3,0 z M 6,60 l 3,0 0,3 -3,0 z M 9,60 l 3,0 0,3 -3,0 z M 15,60 l 3,0 0,3 -3,0 z M 18,60 l 3,0 0,3 -3,0 z M 30,60 l 3,0 0,3 -3,0 z M 51,60 l 3,0 0,3 -3,0 z M 54,60 l 3,0 0,3 -3,0 z M 57,60 l 3,0 0,3 -3,0 z M 60,60 l 3,0 0,3 -3,0 z M 63,60 l 3,0 0,3 -3,0 z M 66,60 l 3,0 0,3 -3,0 z M 69,60 l 3,0 0,3 -3,0 z M 81,60 l 3,0 0,3 -3,0 z M 84,60 l 3,0 0,3 -3,0 z M 93,60 l 3,0 0,3 -3,0 z M 99,60 l 3,0 0,3 -3,0 z M 102,60 l 3,0 0,3 -3,0 z M 114,60 l 3,0 0,3 -3,0 z M 117,60 l 3,0 0,3 -3,0 z M 132,60 l 3,0 0,3 -3,0 z M 138,60 l 3,0 0,3 -3,0 z M 141,60 l 3,0 0,3 -3,0 z M 144,60 l 3,0 0,3 -3,0 z M 147,60 l 3,0 0,3 -3,0 z M 153,60 l 3,0 0,3 -3,0 z M 168,60 l 3,0 0,3 -3,0 z M 174,60 l 3,0 0,3 -3,0 z M 177,60 l 3,0 0,3 -3,0 z M 183,60 l 3,0 0,3 -3,0 z M 186,60 l 3,0 0,3 -3,0 z M 189,60 l 3,0 0,3 -3,0 z M 201,60 l 3,0 0,3 -3,0 z M 204,60 l 3,0 0,3 -3,0 z M 3,63 l 3,0 0,3 -3,0 z M 6,63 l 3,0 0,3 -3,0 z M 9,63 l 3,0 0,3 -3,0 z M 15,63 l 3,0 0,3 -3,0 z M 18,63 l 3,0 0,3 -3,0 z M 21,63 l 3,0 0,3 -3,0 z M 30,63 l 3,0 0,3 -3,0 z M 36,63 l 3,0 0,3 -3,0 z M 39,63 l 3,0 0,3 -3,0 z M 42,63 l 3,0 0,3 -3,0 z M 48,63 l 3,0 0,3 -3,0 z M 57,63 l 3,0 0,3 -3,0 z M 66,63 l 3,0 0,3 -3,0 z M 69,63 l 3,0 0,3 -3,0 z M 81,63 l 3,0 0,3 -3,0 z M 93,63 l 3,0 0,3 -3,0 z M 96,63 l 3,0 0,3 -3,0 z M 99,63 l 3,0 0,3 -3,0 z M 102,63 l 3,0 0,3 -3,0 z M 111,63 l 3,0 0,3 -3,0 z M 114,63 l 3,0 0,3 -3,0 z M 117,63 l 3,0 0,3 -3,0 z M 120,63 l 3,0 0,3 -3,0 z M 123,63 l 3,0 0,3 -3,0 z M 129,63 l 3,0 0,3 -3,0 z M 132,63 l 3,0 0,3 -3,0 z M 135,63 l 3,0 0,3 -3,0 z M 144,63 l 3,0 0,3 -3,0 z M 147,63 l 3,0 0,3 -3,0 z M 150,63 l 3,0 0,3 -3,0 z M 153,63 l 3,0 0,3 -3,0 z M 162,63 l 3,0 0,3 -3,0 z M 168,63 l 3,0 0,3 -3,0 z M 171,63 l 3,0 0,3 -3,0 z M 180,63 l 3,0 0,3 -3,0 z M 183,63 l 3,0 0,3 -3,0 z M 189,63 l 3,0 0,3 -3,0 z M 192,63 l 3,0 0,3 -3,0 z M 195,63 l 3,0 0,3 -3,0 z M 198,63 l 3,0 0,3 -3,0 z M 201,63 l 3,0 0,3 -3,0 z M 204,63 l 3,0 0,3 -3,0 z M 3,66 l 3,0 0,3 -3,0 z M 9,66 l 3,0 0,3 -3,0 z M 15,66 l 3,0 0,3 -3,0 z M 18,66 l 3,0 0,3 -3,0 z M 33,66 l 3,0 0,3 -3,0 z M 36,66 l 3,0 0,3 -3,0 z M 39,66 l 3,0 0,3 -3,0 z M 51,66 l 3,0 0,3 -3,0 z M 60,66 l 3,0 0,3 -3,0 z M 63,66 l 3,0 0,3 -3,0 z M 75,66 l 3,0 0,3 -3,0 z M 81,66 l 3,0 0,3 -3,0 z M 84,66 l 3,0 0,3 -3,0 z M 87,66 l 3,0 0,3 -3,0 z M 90,66 l 3,0 0,3 -3,0 z M 93,66 l 3,0 0,3 -3,0 z M 96,66 l 3,0 0,3 -3,0 z M 102,66 l 3,0 0,3 -3,0 z M 108,66 l 3,0 0,3 -3,0 z M 111,66 l 3,0 0,3 -3,0 z M 114,66 l 3,0 0,3 -3,0 z M 117,66 l 3,0 0,3 -3,0 z M 120,66 l 3,0 0,3 -3,0 z M 129,66 l 3,0 0,3 -3,0 z M 132,66 l 3,0 0,3 -3,0 z M 144,66 l 3,0 0,3 -3,0 z M 147,66 l 3,0 0,3 -3,0 z M 150,66 l 3,0 0,3 -3,0 z M 153,66 l 3,0 0,3 -3,0 z M 156,66 l 3,0 0,3 -3,0 z M 159,66 l 3,0 0,3 -3,0 z M 165,66 l 3,0 0,3 -3,0 z M 168,66 l 3,0 0,3 -3,0 z M 180,66 l 3,0 0,3 -3,0 z M 186,66 l 3,0 0,3 -3,0 z M 189,66 l 3,0 0,3 -3,0 z M 192,66 l 3,0 0,3 -3,0 z M 195,66 l 3,0 0,3 -3,0 z M 201,66 l 3,0 0,3 -3,0 z M 204,66 l 3,0 0,3 -3,0 z M 3,69 l 3,0 0,3 -3,0 z M 6,69 l 3,0 0,3 -3,0 z M 15,69 l 3,0 0,3 -3,0 z M 18,69 l 3,0 0,3 -3,0 z M 21,69 l 3,0 0,3 -3,0 z M 36,69 l 3,0 0,3 -3,0 z M 39,69 l 3,0 0,3 -3,0 z M 42,69 l 3,0 0,3 -3,0 z M 54,69 l 3,0 0,3 -3,0 z M 57,69 l 3,0 0,3 -3,0 z M 60,69 l 3,0 0,3 -3,0 z M 63,69 l 3,0 0,3 -3,0 z M 69,69 l 3,0 0,3 -3,0 z M 72,69 l 3,0 0,3 -3,0 z M 75,69 l 3,0 0,3 -3,0 z M 78,69 l 3,0 0,3 -3,0 z M 81,69 l 3,0 0,3 -3,0 z M 87,69 l 3,0 0,3 -3,0 z M 93,69 l 3,0 0,3 -3,0 z M 96,69 l 3,0 0,3 -3,0 z M 102,69 l 3,0 0,3 -3,0 z M 108,69 l 3,0 0,3 -3,0 z M 111,69 l 3,0 0,3 -3,0 z M 129,69 l 3,0 0,3 -3,0 z M 135,69 l 3,0 0,3 -3,0 z M 147,69 l 3,0 0,3 -3,0 z M 150,69 l 3,0 0,3 -3,0 z M 156,69 l 3,0 0,3 -3,0 z M 159,69 l 3,0 0,3 -3,0 z M 162,69 l 3,0 0,3 -3,0 z M 165,69 l 3,0 0,3 -3,0 z M 171,69 l 3,0 0,3 -3,0 z M 192,69 l 3,0 0,3 -3,0 z M 201,69 l 3,0 0,3 -3,0 z M 204,69 l 3,0 0,3 -3,0 z M 3,72 l 3,0 0,3 -3,0 z M 12,72 l 3,0 0,3 -3,0 z M 18,72 l 3,0 0,3 -3,0 z M 45,72 l 3,0 0,3 -3,0 z M 48,72 l 3,0 0,3 -3,0 z M 57,72 l 3,0 0,3 -3,0 z M 63,72 l 3,0 0,3 -3,0 z M 66,72 l 3,0 0,3 -3,0 z M 69,72 l 3,0 0,3 -3,0 z M 78,72 l 3,0 0,3 -3,0 z M 84,72 l 3,0 0,3 -3,0 z M 87,72 l 3,0 0,3 -3,0 z M 90,72 l 3,0 0,3 -3,0 z M 93,72 l 3,0 0,3 -3,0 z M 102,72 l 3,0 0,3 -3,0 z M 114,72 l 3,0 0,3 -3,0 z M 120,72 l 3,0 0,3 -3,0 z M 129,72 l 3,0 0,3 -3,0 z M 144,72 l 3,0 0,3 -3,0 z M 156,72 l 3,0 0,3 -3,0 z M 159,72 l 3,0 0,3 -3,0 z M 165,72 l 3,0 0,3 -3,0 z M 168,72 l 3,0 0,3 -3,0 z M 171,72 l 3,0 0,3 -3,0 z M 174,72 l 3,0 0,3 -3,0 z M 186,72 l 3,0 0,3 -3,0 z M 192,72 l 3,0 0,3 -3,0 z M 195,72 l 3,0 0,3 -3,0 z M 201,72 l 3,0 0,3 -3,0 z M 204,72 l 3,0 0,3 -3,0 z M 6,75 l 3,0 0,3 -3,0 z M 15,75 l 3,0 0,3 -3,0 z M 18,75 l 3,0 0,3 -3,0 z M 21,75 l 3,0 0,3 -3,0 z M 27,75 l 3,0 0,3 -3,0 z M 30,75 l 3,0 0,3 -3,0 z M 39,75 l 3,0 0,3 -3,0 z M 45,75 l 3,0 0,3 -3,0 z M 48,75 l 3,0 0,3 -3,0 z M 54,75 l 3,0 0,3 -3,0 z M 57,75 l 3,0 0,3 -3,0 z M 69,75 l 3,0 0,3 -3,0 z M 72,75 l 3,0 0,3 -3,0 z M 75,75 l 3,0 0,3 -3,0 z M 84,75 l 3,0 0,3 -3,0 z M 87,75 l 3,0 0,3 -3,0 z M 93,75 l 3,0 0,3 -3,0 z M 96,75 l 3,0 0,3 -3,0 z M 102,75 l 3,0 0,3 -3,0 z M 108,75 l 3,0 0,3 -3,0 z M 111,75 l 3,0 0,3 -3,0 z M 117,75 l 3,0 0,3 -3,0 z M 138,75 l 3,0 0,3 -3,0 z M 144,75 l 3,0 0,3 -3,0 z M 147,75 l 3,0 0,3 -3,0 z M 150,75 l 3,0 0,3 -3,0 z M 162,75 l 3,0 0,3 -3,0 z M 168,75 l 3,0 0,3 -3,0 z M 171,75 l 3,0 0,3 -3,0 z M 174,75 l 3,0 0,3 -3,0 z M 195,75 l 3,0 0,3 -3,0 z M 198,75 l 3,0 0,3 -3,0 z M 201,75 l 3,0 0,3 -3,0 z M 207,75 l 3,0 0,3 -3,0 z M 6,78 l 3,0 0,3 -3,0 z M 9,78 l 3,0 0,3 -3,0 z M 12,78 l 3,0 0,3 -3,0 z M 15,78 l 3,0 0,3 -3,0 z M 24,78 l 3,0 0,3 -3,0 z M 27,78 l 3,0 0,3 -3,0 z M 39,78 l 3,0 0,3 -3,0 z M 42,78 l 3,0 0,3 -3,0 z M 51,78 l 3,0 0,3 -3,0 z M 54,78 l 3,0 0,3 -3,0 z M 57,78 l 3,0 0,3 -3,0 z M 60,78 l 3,0 0,3 -3,0 z M 66,78 l 3,0 0,3 -3,0 z M 75,78 l 3,0 0,3 -3,0 z M 78,78 l 3,0 0,3 -3,0 z M 81,78 l 3,0 0,3 -3,0 z M 90,78 l 3,0 0,3 -3,0 z M 93,78 l 3,0 0,3 -3,0 z M 102,78 l 3,0 0,3 -3,0 z M 105,78 l 3,0 0,3 -3,0 z M 108,78 l 3,0 0,3 -3,0 z M 111,78 l 3,0 0,3 -3,0 z M 114,78 l 3,0 0,3 -3,0 z M 117,78 l 3,0 0,3 -3,0 z M 132,78 l 3,0 0,3 -3,0 z M 138,78 l 3,0 0,3 -3,0 z M 141,78 l 3,0 0,3 -3,0 z M 156,78 l 3,0 0,3 -3,0 z M 159,78 l 3,0 0,3 -3,0 z M 171,78 l 3,0 0,3 -3,0 z M 174,78 l 3,0 0,3 -3,0 z M 180,78 l 3,0 0,3 -3,0 z M 183,78 l 3,0 0,3 -3,0 z M 192,78 l 3,0 0,3 -3,0 z M 195,78 l 3,0 0,3 -3,0 z M 207,78 l 3,0 0,3 -3,0 z M 3,81 l 3,0 0,3 -3,0 z M 9,81 l 3,0 0,3 -3,0 z M 21,81 l 3,0 0,3 -3,0 z M 27,81 l 3,0 0,3 -3,0 z M 39,81 l 3,0 0,3 -3,0 z M 48,81 l 3,0 0,3 -3,0 z M 51,81 l 3,0 0,3 -3,0 z M 60,81 l 3,0 0,3 -3,0 z M 69,81 l 3,0 0,3 -3,0 z M 72,81 l 3,0 0,3 -3,0 z M 75,81 l 3,0 0,3 -3,0 z M 81,81 l 3,0 0,3 -3,0 z M 90,81 l 3,0 0,3 -3,0 z M 105,81 l 3,0 0,3 -3,0 z M 111,81 l 3,0 0,3 -3,0 z M 117,81 l 3,0 0,3 -3,0 z M 126,81 l 3,0 0,3 -3,0 z M 129,81 l 3,0 0,3 -3,0 z M 132,81 l 3,0 0,3 -3,0 z M 135,81 l 3,0 0,3 -3,0 z M 144,81 l 3,0 0,3 -3,0 z M 147,81 l 3,0 0,3 -3,0 z M 156,81 l 3,0 0,3 -3,0 z M 159,81 l 3,0 0,3 -3,0 z M 174,81 l 3,0 0,3 -3,0 z M 186,81 l 3,0 0,3 -3,0 z M 192,81 l 3,0 0,3 -3,0 z M 198,81 l 3,0 0,3 -3,0 z M 201,81 l 3,0 0,3 -3,0 z M 3,84 l 3,0 0,3 -3,0 z M 18,84 l 3,0 0,3 -3,0 z M 33,84 l 3,0 0,3 -3,0 z M 39,84 l 3,0 0,3 -3,0 z M 42,84 l 3,0 0,3 -3,0 z M 45,84 l 3,0 0,3 -3,0 z M 51,84 l 3,0 0,3 -3,0 z M 54,84 l 3,0 0,3 -3,0 z M 57,84 l 3,0 0,3 -3,0 z M 60,84 l 3,0 0,3 -3,0 z M 66,84 l 3,0 0,3 -3,0 z M 69,84 l 3,0 0,3 -3,0 z M 75,84 l 3,0 0,3 -3,0 z M 78,84 l 3,0 0,3 -3,0 z M 81,84 l 3,0 0,3 -3,0 z M 96,84 l 3,0 0,3 -3,0 z M 99,84 l 3,0 0,3 -3,0 z M 105,84 l 3,0 0,3 -3,0 z M 108,84 l 3,0 0,3 -3,0 z M 111,84 l 3,0 0,3 -3,0 z M 132,84 l 3,0 0,3 -3,0 z M 138,84 l 3,0 0,3 -3,0 z M 147,84 l 3,0 0,3 -3,0 z M 153,84 l 3,0 0,3 -3,0 z M 156,84 l 3,0 0,3 -3,0 z M 162,84 l 3,0 0,3 -3,0 z M 168,84 l 3,0 0,3 -3,0 z M 177,84 l 3,0 0,3 -3,0 z M 180,84 l 3,0 0,3 -3,0 z M 183,84 l 3,0 0,3 -3,0 z M 186,84 l 3,0 0,3 -3,0 z M 198,84 l 3,0 0,3 -3,0 z M 204,84 l 3,0 0,3 -3,0 z M 207,84 l 3,0 0,3 -3,0 z M 9,87 l 3,0 0,3 -3,0 z M 12,87 l 3,0 0,3 -3,0 z M 15,87 l 3,0 0,3 -3,0 z M 18,87 l 3,0 0,3 -3,0 z M 21,87 l 3,0 0,3 -3,0 z M 27,87 l 3,0 0,3 -3,0 z M 42,87 l 3,0 0,3 -3,0 z M 45,87 l 3,0 0,3 -3,0 z M 54,87 l 3,0 0,3 -3,0 z M 57,87 l 3,0 0,3 -3,0 z M 66,87 l 3,0 0,3 -3,0 z M 69,87 l 3,0 0,3 -3,0 z M 72,87 l 3,0 0,3 -3,0 z M 75,87 l 3,0 0,3 -3,0 z M 78,87 l 3,0 0,3 -3,0 z M 84,87 l 3,0 0,3 -3,0 z M 90,87 l 3,0 0,3 -3,0 z M 93,87 l 3,0 0,3 -3,0 z M 99,87 l 3,0 0,3 -3,0 z M 102,87 l 3,0 0,3 -3,0 z M 111,87 l 3,0 0,3 -3,0 z M 114,87 l 3,0 0,3 -3,0 z M 117,87 l 3,0 0,3 -3,0 z M 123,87 l 3,0 0,3 -3,0 z M 126,87 l 3,0 0,3 -3,0 z M 138,87 l 3,0 0,3 -3,0 z M 141,87 l 3,0 0,3 -3,0 z M 156,87 l 3,0 0,3 -3,0 z M 165,87 l 3,0 0,3 -3,0 z M 168,87 l 3,0 0,3 -3,0 z M 171,87 l 3,0 0,3 -3,0 z M 174,87 l 3,0 0,3 -3,0 z M 180,87 l 3,0 0,3 -3,0 z M 183,87 l 3,0 0,3 -3,0 z M 192,87 l 3,0 0,3 -3,0 z M 195,87 l 3,0 0,3 -3,0 z M 201,87 l 3,0 0,3 -3,0 z M 207,87 l 3,0 0,3 -3,0 z M 3,90 l 3,0 0,3 -3,0 z M 6,90 l 3,0 0,3 -3,0 z M 24,90 l 3,0 0,3 -3,0 z M 36,90 l 3,0 0,3 -3,0 z M 48,90 l 3,0 0,3 -3,0 z M 51,90 l 3,0 0,3 -3,0 z M 54,90 l 3,0 0,3 -3,0 z M 57,90 l 3,0 0,3 -3,0 z M 66,90 l 3,0 0,3 -3,0 z M 72,90 l 3,0 0,3 -3,0 z M 75,90 l 3,0 0,3 -3,0 z M 84,90 l 3,0 0,3 -3,0 z M 90,90 l 3,0 0,3 -3,0 z M 93,90 l 3,0 0,3 -3,0 z M 96,90 l 3,0 0,3 -3,0 z M 99,90 l 3,0 0,3 -3,0 z M 105,90 l 3,0 0,3 -3,0 z M 108,90 l 3,0 0,3 -3,0 z M 111,90 l 3,0 0,3 -3,0 z M 120,90 l 3,0 0,3 -3,0 z M 144,90 l 3,0 0,3 -3,0 z M 150,90 l 3,0 0,3 -3,0 z M 153,90 l 3,0 0,3 -3,0 z M 156,90 l 3,0 0,3 -3,0 z M 165,90 l 3,0 0,3 -3,0 z M 168,90 l 3,0 0,3 -3,0 z M 177,90 l 3,0 0,3 -3,0 z M 183,90 l 3,0 0,3 -3,0 z M 189,90 l 3,0 0,3 -3,0 z M 192,90 l 3,0 0,3 -3,0 z M 201,90 l 3,0 0,3 -3,0 z M 204,90 l 3,0 0,3 -3,0 z M 3,93 l 3,0 0,3 -3,0 z M 6,93 l 3,0 0,3 -3,0 z M 9,93 l 3,0 0,3 -3,0 z M 12,93 l 3,0 0,3 -3,0 z M 21,93 l 3,0 0,3 -3,0 z M 24,93 l 3,0 0,3 -3,0 z M 27,93 l 3,0 0,3 -3,0 z M 30,93 l 3,0 0,3 -3,0 z M 33,93 l 3,0 0,3 -3,0 z M 45,93 l 3,0 0,3 -3,0 z M 51,93 l 3,0 0,3 -3,0 z M 57,93 l 3,0 0,3 -3,0 z M 66,93 l 3,0 0,3 -3,0 z M 72,93 l 3,0 0,3 -3,0 z M 75,93 l 3,0 0,3 -3,0 z M 78,93 l 3,0 0,3 -3,0 z M 81,93 l 3,0 0,3 -3,0 z M 84,93 l 3,0 0,3 -3,0 z M 87,93 l 3,0 0,3 -3,0 z M 93,93 l 3,0 0,3 -3,0 z M 102,93 l 3,0 0,3 -3,0 z M 105,93 l 3,0 0,3 -3,0 z M 111,93 l 3,0 0,3 -3,0 z M 114,93 l 3,0 0,3 -3,0 z M 120,93 l 3,0 0,3 -3,0 z M 123,93 l 3,0 0,3 -3,0 z M 126,93 l 3,0 0,3 -3,0 z M 129,93 l 3,0 0,3 -3,0 z M 132,93 l 3,0 0,3 -3,0 z M 135,93 l 3,0 0,3 -3,0 z M 150,93 l 3,0 0,3 -3,0 z M 159,93 l 3,0 0,3 -3,0 z M 162,93 l 3,0 0,3 -3,0 z M 165,93 l 3,0 0,3 -3,0 z M 168,93 l 3,0 0,3 -3,0 z M 171,93 l 3,0 0,3 -3,0 z M 174,93 l 3,0 0,3 -3,0 z M 180,93 l 3,0 0,3 -3,0 z M 183,93 l 3,0 0,3 -3,0 z M 186,93 l 3,0 0,3 -3,0 z M 198,93 l 3,0 0,3 -3,0 z M 6,96 l 3,0 0,3 -3,0 z M 15,96 l 3,0 0,3 -3,0 z M 24,96 l 3,0 0,3 -3,0 z M 27,96 l 3,0 0,3 -3,0 z M 36,96 l 3,0 0,3 -3,0 z M 48,96 l 3,0 0,3 -3,0 z M 51,96 l 3,0 0,3 -3,0 z M 54,96 l 3,0 0,3 -3,0 z M 57,96 l 3,0 0,3 -3,0 z M 60,96 l 3,0 0,3 -3,0 z M 69,96 l 3,0 0,3 -3,0 z M 72,96 l 3,0 0,3 -3,0 z M 75,96 l 3,0 0,3 -3,0 z M 81,96 l 3,0 0,3 -3,0 z M 84,96 l 3,0 0,3 -3,0 z M 93,96 l 3,0 0,3 -3,0 z M 96,96 l 3,0 0,3 -3,0 z M 99,96 l 3,0 0,3 -3,0 z M 105,96 l 3,0 0,3 -3,0 z M 111,96 l 3,0 0,3 -3,0 z M 114,96 l 3,0 0,3 -3,0 z M 117,96 l 3,0 0,3 -3,0 z M 126,96 l 3,0 0,3 -3,0 z M 129,96 l 3,0 0,3 -3,0 z M 132,96 l 3,0 0,3 -3,0 z M 135,96 l 3,0 0,3 -3,0 z M 138,96 l 3,0 0,3 -3,0 z M 144,96 l 3,0 0,3 -3,0 z M 147,96 l 3,0 0,3 -3,0 z M 150,96 l 3,0 0,3 -3,0 z M 159,96 l 3,0 0,3 -3,0 z M 171,96 l 3,0 0,3 -3,0 z M 174,96 l 3,0 0,3 -3,0 z M 177,96 l 3,0 0,3 -3,0 z M 180,96 l 3,0 0,3 -3,0 z M 192,96 l 3,0 0,3 -3,0 z M 198,96 l 3,0 0,3 -3,0 z M 201,96 l 3,0 0,3 -3,0 z M 204,96 l 3,0 0,3 -3,0 z M 3,99 l 3,0 0,3 -3,0 z M 6,99 l 3,0 0,3 -3,0 z M 15,99 l 3,0 0,3 -3,0 z M 18,99 l 3,0 0,3 -3,0 z M 21,99 l 3,0 0,3 -3,0 z M 24,99 l 3,0 0,3 -3,0 z M 27,99 l 3,0 0,3 -3,0 z M 33,99 l 3,0 0,3 -3,0 z M 36,99 l 3,0 0,3 -3,0 z M 39,99 l 3,0 0,3 -3,0 z M 42,99 l 3,0 0,3 -3,0 z M 45,99 l 3,0 0,3 -3,0 z M 48,99 l 3,0 0,3 -3,0 z M 57,99 l 3,0 0,3 -3,0 z M 60,99 l 3,0 0,3 -3,0 z M 78,99 l 3,0 0,3 -3,0 z M 81,99 l 3,0 0,3 -3,0 z M 84,99 l 3,0 0,3 -3,0 z M 93,99 l 3,0 0,3 -3,0 z M 96,99 l 3,0 0,3 -3,0 z M 99,99 l 3,0 0,3 -3,0 z M 102,99 l 3,0 0,3 -3,0 z M 105,99 l 3,0 0,3 -3,0 z M 108,99 l 3,0 0,3 -3,0 z M 111,99 l 3,0 0,3 -3,0 z M 117,99 l 3,0 0,3 -3,0 z M 123,99 l 3,0 0,3 -3,0 z M 138,99 l 3,0 0,3 -3,0 z M 141,99 l 3,0 0,3 -3,0 z M 147,99 l 3,0 0,3 -3,0 z M 153,99 l 3,0 0,3 -3,0 z M 156,99 l 3,0 0,3 -3,0 z M 159,99 l 3,0 0,3 -3,0 z M 168,99 l 3,0 0,3 -3,0 z M 174,99 l 3,0 0,3 -3,0 z M 180,99 l 3,0 0,3 -3,0 z M 183,99 l 3,0 0,3 -3,0 z M 186,99 l 3,0 0,3 -3,0 z M 189,99 l 3,0 0,3 -3,0 z M 192,99 l 3,0 0,3 -3,0 z M 195,99 l 3,0 0,3 -3,0 z M 198,99 l 3,0 0,3 -3,0 z M 204,99 l 3,0 0,3 -3,0 z M 207,99 l 3,0 0,3 -3,0 z M 12,102 l 3,0 0,3 -3,0 z M 15,102 l 3,0 0,3 -3,0 z M 27,102 l 3,0 0,3 -3,0 z M 30,102 l 3,0 0,3 -3,0 z M 36,102 l 3,0 0,3 -3,0 z M 45,102 l 3,0 0,3 -3,0 z M 54,102 l 3,0 0,3 -3,0 z M 57,102 l 3,0 0,3 -3,0 z M 66,102 l 3,0 0,3 -3,0 z M 69,102 l 3,0 0,3 -3,0 z M 72,102 l 3,0 0,3 -3,0 z M 75,102 l 3,0 0,3 -3,0 z M 87,102 l 3,0 0,3 -3,0 z M 99,102 l 3,0 0,3 -3,0 z M 111,102 l 3,0 0,3 -3,0 z M 117,102 l 3,0 0,3 -3,0 z M 126,102 l 3,0 0,3 -3,0 z M 132,102 l 3,0 0,3 -3,0 z M 138,102 l 3,0 0,3 -3,0 z M 144,102 l 3,0 0,3 -3,0 z M 147,102 l 3,0 0,3 -3,0 z M 150,102 l 3,0 0,3 -3,0 z M 156,102 l 3,0 0,3 -3,0 z M 171,102 l 3,0 0,3 -3,0 z M 180,102 l 3,0 0,3 -3,0 z M 183,102 l 3,0 0,3 -3,0 z M 195,102 l 3,0 0,3 -3,0 z M 204,102 l 3,0 0,3 -3,0 z M 207,102 l 3,0 0,3 -3,0 z M 15,105 l 3,0 0,3 -3,0 z M 21,105 l 3,0 0,3 -3,0 z M 27,105 l 3,0 0,3 -3,0 z M 33,105 l 3,0 0,3 -3,0 z M 36,105 l 3,0 0,3 -3,0 z M 51,105 l 3,0 0,3 -3,0 z M 54,105 l 3,0 0,3 -3,0 z M 57,105 l 3,0 0,3 -3,0 z M 60,105 l 3,0 0,3 -3,0 z M 66,105 l 3,0 0,3 -3,0 z M 69,105 l 3,0 0,3 -3,0 z M 72,105 l 3,0 0,3 -3,0 z M 75,105 l 3,0 0,3 -3,0 z M 78,105 l 3,0 0,3 -3,0 z M 81,105 l 3,0 0,3 -3,0 z M 84,105 l 3,0 0,3 -3,0 z M 87,105 l 3,0 0,3 -3,0 z M 96,105 l 3,0 0,3 -3,0 z M 99,105 l 3,0 0,3 -3,0 z M 105,105 l 3,0 0,3 -3,0 z M 111,105 l 3,0 0,3 -3,0 z M 114,105 l 3,0 0,3 -3,0 z M 126,105 l 3,0 0,3 -3,0 z M 132,105 l 3,0 0,3 -3,0 z M 138,105 l 3,0 0,3 -3,0 z M 144,105 l 3,0 0,3 -3,0 z M 147,105 l 3,0 0,3 -3,0 z M 150,105 l 3,0 0,3 -3,0 z M 153,105 l 3,0 0,3 -3,0 z M 165,105 l 3,0 0,3 -3,0 z M 171,105 l 3,0 0,3 -3,0 z M 174,105 l 3,0 0,3 -3,0 z M 177,105 l 3,0 0,3 -3,0 z M 180,105 l 3,0 0,3 -3,0 z M 183,105 l 3,0 0,3 -3,0 z M 189,105 l 3,0 0,3 -3,0 z M 195,105 l 3,0 0,3 -3,0 z M 198,105 l 3,0 0,3 -3,0 z M 201,105 l 3,0 0,3 -3,0 z M 204,105 l 3,0 0,3 -3,0 z M 207,105 l 3,0 0,3 -3,0 z M 3,108 l 3,0 0,3 -3,0 z M 6,108 l 3,0 0,3 -3,0 z M 15,108 l 3,0 0,3 -3,0 z M 27,108 l 3,0 0,3 -3,0 z M 33,108 l 3,0 0,3 -3,0 z M 54,108 l 3,0 0,3 -3,0 z M 66,108 l 3,0 0,3 -3,0 z M 69,108 l 3,0 0,3 -3,0 z M 75,108 l 3,0 0,3 -3,0 z M 81,108 l 3,0 0,3 -3,0 z M 87,108 l 3,0 0,3 -3,0 z M 90,108 l 3,0 0,3 -3,0 z M 93,108 l 3,0 0,3 -3,0 z M 96,108 l 3,0 0,3 -3,0 z M 99,108 l 3,0 0,3 -3,0 z M 111,108 l 3,0 0,3 -3,0 z M 114,108 l 3,0 0,3 -3,0 z M 117,108 l 3,0 0,3 -3,0 z M 126,108 l 3,0 0,3 -3,0 z M 129,108 l 3,0 0,3 -3,0 z M 132,108 l 3,0 0,3 -3,0 z M 138,108 l 3,0 0,3 -3,0 z M 141,108 l 3,0 0,3 -3,0 z M 144,108 l 3,0 0,3 -3,0 z M 147,108 l 3,0 0,3 -3,0 z M 153,108 l 3,0 0,3 -3,0 z M 168,108 l 3,0 0,3 -3,0 z M 174,108 l 3,0 0,3 -3,0 z M 177,108 l 3,0 0,3 -3,0 z M 180,108 l 3,0 0,3 -3,0 z M 183,108 l 3,0 0,3 -3,0 z M 195,108 l 3,0 0,3 -3,0 z M 198,108 l 3,0 0,3 -3,0 z M 201,108 l 3,0 0,3 -3,0 z M 204,108 l 3,0 0,3 -3,0 z M 207,108 l 3,0 0,3 -3,0 z M 9,111 l 3,0 0,3 -3,0 z M 12,111 l 3,0 0,3 -3,0 z M 15,111 l 3,0 0,3 -3,0 z M 18,111 l 3,0 0,3 -3,0 z M 21,111 l 3,0 0,3 -3,0 z M 24,111 l 3,0 0,3 -3,0 z M 27,111 l 3,0 0,3 -3,0 z M 36,111 l 3,0 0,3 -3,0 z M 39,111 l 3,0 0,3 -3,0 z M 42,111 l 3,0 0,3 -3,0 z M 45,111 l 3,0 0,3 -3,0 z M 48,111 l 3,0 0,3 -3,0 z M 66,111 l 3,0 0,3 -3,0 z M 84,111 l 3,0 0,3 -3,0 z M 90,111 l 3,0 0,3 -3,0 z M 99,111 l 3,0 0,3 -3,0 z M 102,111 l 3,0 0,3 -3,0 z M 105,111 l 3,0 0,3 -3,0 z M 108,111 l 3,0 0,3 -3,0 z M 111,111 l 3,0 0,3 -3,0 z M 117,111 l 3,0 0,3 -3,0 z M 120,111 l 3,0 0,3 -3,0 z M 123,111 l 3,0 0,3 -3,0 z M 129,111 l 3,0 0,3 -3,0 z M 135,111 l 3,0 0,3 -3,0 z M 141,111 l 3,0 0,3 -3,0 z M 150,111 l 3,0 0,3 -3,0 z M 153,111 l 3,0 0,3 -3,0 z M 156,111 l 3,0 0,3 -3,0 z M 171,111 l 3,0 0,3 -3,0 z M 177,111 l 3,0 0,3 -3,0 z M 180,111 l 3,0 0,3 -3,0 z M 183,111 l 3,0 0,3 -3,0 z M 186,111 l 3,0 0,3 -3,0 z M 189,111 l 3,0 0,3 -3,0 z M 192,111 l 3,0 0,3 -3,0 z M 195,111 l 3,0 0,3 -3,0 z M 201,111 l 3,0 0,3 -3,0 z M 204,111 l 3,0 0,3 -3,0 z M 6,114 l 3,0 0,3 -3,0 z M 9,114 l 3,0 0,3 -3,0 z M 15,114 l 3,0 0,3 -3,0 z M 18,114 l 3,0 0,3 -3,0 z M 27,114 l 3,0 0,3 -3,0 z M 33,114 l 3,0 0,3 -3,0 z M 39,114 l 3,0 0,3 -3,0 z M 42,114 l 3,0 0,3 -3,0 z M 48,114 l 3,0 0,3 -3,0 z M 54,114 l 3,0 0,3 -3,0 z M 57,114 l 3,0 0,3 -3,0 z M 63,114 l 3,0 0,3 -3,0 z M 75,114 l 3,0 0,3 -3,0 z M 84,114 l 3,0 0,3 -3,0 z M 90,114 l 3,0 0,3 -3,0 z M 93,114 l 3,0 0,3 -3,0 z M 96,114 l 3,0 0,3 -3,0 z M 102,114 l 3,0 0,3 -3,0 z M 108,114 l 3,0 0,3 -3,0 z M 114,114 l 3,0 0,3 -3,0 z M 117,114 l 3,0 0,3 -3,0 z M 129,114 l 3,0 0,3 -3,0 z M 132,114 l 3,0 0,3 -3,0 z M 135,114 l 3,0 0,3 -3,0 z M 141,114 l 3,0 0,3 -3,0 z M 150,114 l 3,0 0,3 -3,0 z M 162,114 l 3,0 0,3 -3,0 z M 165,114 l 3,0 0,3 -3,0 z M 168,114 l 3,0 0,3 -3,0 z M 171,114 l 3,0 0,3 -3,0 z M 174,114 l 3,0 0,3 -3,0 z M 177,114 l 3,0 0,3 -3,0 z M 180,114 l 3,0 0,3 -3,0 z M 183,114 l 3,0 0,3 -3,0 z M 198,114 l 3,0 0,3 -3,0 z M 201,114 l 3,0 0,3 -3,0 z M 204,114 l 3,0 0,3 -3,0 z M 3,117 l 3,0 0,3 -3,0 z M 12,117 l 3,0 0,3 -3,0 z M 18,117 l 3,0 0,3 -3,0 z M 21,117 l 3,0 0,3 -3,0 z M 24,117 l 3,0 0,3 -3,0 z M 30,117 l 3,0 0,3 -3,0 z M 33,117 l 3,0 0,3 -3,0 z M 39,117 l 3,0 0,3 -3,0 z M 42,117 l 3,0 0,3 -3,0 z M 48,117 l 3,0 0,3 -3,0 z M 63,117 l 3,0 0,3 -3,0 z M 66,117 l 3,0 0,3 -3,0 z M 75,117 l 3,0 0,3 -3,0 z M 84,117 l 3,0 0,3 -3,0 z M 90,117 l 3,0 0,3 -3,0 z M 108,117 l 3,0 0,3 -3,0 z M 117,117 l 3,0 0,3 -3,0 z M 126,117 l 3,0 0,3 -3,0 z M 135,117 l 3,0 0,3 -3,0 z M 147,117 l 3,0 0,3 -3,0 z M 156,117 l 3,0 0,3 -3,0 z M 159,117 l 3,0 0,3 -3,0 z M 162,117 l 3,0 0,3 -3,0 z M 165,117 l 3,0 0,3 -3,0 z M 171,117 l 3,0 0,3 -3,0 z M 189,117 l 3,0 0,3 -3,0 z M 198,117 l 3,0 0,3 -3,0 z M 201,117 l 3,0 0,3 -3,0 z M 204,117 l 3,0 0,3 -3,0 z M 3,120 l 3,0 0,3 -3,0 z M 6,120 l 3,0 0,3 -3,0 z M 12,120 l 3,0 0,3 -3,0 z M 15,120 l 3,0 0,3 -3,0 z M 24,120 l 3,0 0,3 -3,0 z M 27,120 l 3,0 0,3 -3,0 z M 33,120 l 3,0 0,3 -3,0 z M 42,120 l 3,0 0,3 -3,0 z M 48,120 l 3,0 0,3 -3,0 z M 54,120 l 3,0 0,3 -3,0 z M 57,120 l 3,0 0,3 -3,0 z M 60,120 l 3,0 0,3 -3,0 z M 63,120 l 3,0 0,3 -3,0 z M 78,120 l 3,0 0,3 -3,0 z M 87,120 l 3,0 0,3 -3,0 z M 96,120 l 3,0 0,3 -3,0 z M 99,120 l 3,0 0,3 -3,0 z M 102,120 l 3,0 0,3 -3,0 z M 111,120 l 3,0 0,3 -3,0 z M 114,120 l 3,0 0,3 -3,0 z M 123,120 l 3,0 0,3 -3,0 z M 126,120 l 3,0 0,3 -3,0 z M 129,120 l 3,0 0,3 -3,0 z M 135,120 l 3,0 0,3 -3,0 z M 156,120 l 3,0 0,3 -3,0 z M 159,120 l 3,0 0,3 -3,0 z M 162,120 l 3,0 0,3 -3,0 z M 165,120 l 3,0 0,3 -3,0 z M 174,120 l 3,0 0,3 -3,0 z M 189,120 l 3,0 0,3 -3,0 z M 195,120 l 3,0 0,3 -3,0 z M 198,120 l 3,0 0,3 -3,0 z M 201,120 l 3,0 0,3 -3,0 z M 204,120 l 3,0 0,3 -3,0 z M 207,120 l 3,0 0,3 -3,0 z M 6,123 l 3,0 0,3 -3,0 z M 9,123 l 3,0 0,3 -3,0 z M 18,123 l 3,0 0,3 -3,0 z M 21,123 l 3,0 0,3 -3,0 z M 24,123 l 3,0 0,3 -3,0 z M 30,123 l 3,0 0,3 -3,0 z M 33,123 l 3,0 0,3 -3,0 z M 39,123 l 3,0 0,3 -3,0 z M 42,123 l 3,0 0,3 -3,0 z M 54,123 l 3,0 0,3 -3,0 z M 57,123 l 3,0 0,3 -3,0 z M 66,123 l 3,0 0,3 -3,0 z M 75,123 l 3,0 0,3 -3,0 z M 78,123 l 3,0 0,3 -3,0 z M 84,123 l 3,0 0,3 -3,0 z M 87,123 l 3,0 0,3 -3,0 z M 90,123 l 3,0 0,3 -3,0 z M 96,123 l 3,0 0,3 -3,0 z M 102,123 l 3,0 0,3 -3,0 z M 105,123 l 3,0 0,3 -3,0 z M 111,123 l 3,0 0,3 -3,0 z M 117,123 l 3,0 0,3 -3,0 z M 123,123 l 3,0 0,3 -3,0 z M 126,123 l 3,0 0,3 -3,0 z M 129,123 l 3,0 0,3 -3,0 z M 132,123 l 3,0 0,3 -3,0 z M 144,123 l 3,0 0,3 -3,0 z M 156,123 l 3,0 0,3 -3,0 z M 162,123 l 3,0 0,3 -3,0 z M 165,123 l 3,0 0,3 -3,0 z M 174,123 l 3,0 0,3 -3,0 z M 180,123 l 3,0 0,3 -3,0 z M 186,123 l 3,0 0,3 -3,0 z M 189,123 l 3,0 0,3 -3,0 z M 192,123 l 3,0 0,3 -3,0 z M 207,123 l 3,0 0,3 -3,0 z M 3,126 l 3,0 0,3 -3,0 z M 9,126 l 3,0 0,3 -3,0 z M 24,126 l 3,0 0,3 -3,0 z M 27,126 l 3,0 0,3 -3,0 z M 36,126 l 3,0 0,3 -3,0 z M 39,126 l 3,0 0,3 -3,0 z M 42,126 l 3,0 0,3 -3,0 z M 45,126 l 3,0 0,3 -3,0 z M 48,126 l 3,0 0,3 -3,0 z M 54,126 l 3,0 0,3 -3,0 z M 57,126 l 3,0 0,3 -3,0 z M 60,126 l 3,0 0,3 -3,0 z M 72,126 l 3,0 0,3 -3,0 z M 93,126 l 3,0 0,3 -3,0 z M 114,126 l 3,0 0,3 -3,0 z M 120,126 l 3,0 0,3 -3,0 z M 123,126 l 3,0 0,3 -3,0 z M 126,126 l 3,0 0,3 -3,0 z M 129,126 l 3,0 0,3 -3,0 z M 132,126 l 3,0 0,3 -3,0 z M 135,126 l 3,0 0,3 -3,0 z M 153,126 l 3,0 0,3 -3,0 z M 156,126 l 3,0 0,3 -3,0 z M 159,126 l 3,0 0,3 -3,0 z M 180,126 l 3,0 0,3 -3,0 z M 183,126 l 3,0 0,3 -3,0 z M 189,126 l 3,0 0,3 -3,0 z M 6,129 l 3,0 0,3 -3,0 z M 9,129 l 3,0 0,3 -3,0 z M 12,129 l 3,0 0,3 -3,0 z M 15,129 l 3,0 0,3 -3,0 z M 18,129 l 3,0 0,3 -3,0 z M 21,129 l 3,0 0,3 -3,0 z M 24,129 l 3,0 0,3 -3,0 z M 33,129 l 3,0 0,3 -3,0 z M 36,129 l 3,0 0,3 -3,0 z M 39,129 l 3,0 0,3 -3,0 z M 42,129 l 3,0 0,3 -3,0 z M 69,129 l 3,0 0,3 -3,0 z M 81,129 l 3,0 0,3 -3,0 z M 93,129 l 3,0 0,3 -3,0 z M 102,129 l 3,0 0,3 -3,0 z M 105,129 l 3,0 0,3 -3,0 z M 108,129 l 3,0 0,3 -3,0 z M 111,129 l 3,0 0,3 -3,0 z M 114,129 l 3,0 0,3 -3,0 z M 117,129 l 3,0 0,3 -3,0 z M 126,129 l 3,0 0,3 -3,0 z M 129,129 l 3,0 0,3 -3,0 z M 132,129 l 3,0 0,3 -3,0 z M 135,129 l 3,0 0,3 -3,0 z M 138,129 l 3,0 0,3 -3,0 z M 144,129 l 3,0 0,3 -3,0 z M 147,129 l 3,0 0,3 -3,0 z M 153,129 l 3,0 0,3 -3,0 z M 156,129 l 3,0 0,3 -3,0 z M 159,129 l 3,0 0,3 -3,0 z M 162,129 l 3,0 0,3 -3,0 z M 165,129 l 3,0 0,3 -3,0 z M 177,129 l 3,0 0,3 -3,0 z M 180,129 l 3,0 0,3 -3,0 z M 183,129 l 3,0 0,3 -3,0 z M 189,129 l 3,0 0,3 -3,0 z M 195,129 l 3,0 0,3 -3,0 z M 198,129 l 3,0 0,3 -3,0 z M 204,129 l 3,0 0,3 -3,0 z M 3,132 l 3,0 0,3 -3,0 z M 6,132 l 3,0 0,3 -3,0 z M 9,132 l 3,0 0,3 -3,0 z M 15,132 l 3,0 0,3 -3,0 z M 18,132 l 3,0 0,3 -3,0 z M 27,132 l 3,0 0,3 -3,0 z M 30,132 l 3,0 0,3 -3,0 z M 39,132 l 3,0 0,3 -3,0 z M 42,132 l 3,0 0,3 -3,0 z M 48,132 l 3,0 0,3 -3,0 z M 54,132 l 3,0 0,3 -3,0 z M 60,132 l 3,0 0,3 -3,0 z M 69,132 l 3,0 0,3 -3,0 z M 72,132 l 3,0 0,3 -3,0 z M 78,132 l 3,0 0,3 -3,0 z M 81,132 l 3,0 0,3 -3,0 z M 84,132 l 3,0 0,3 -3,0 z M 87,132 l 3,0 0,3 -3,0 z M 93,132 l 3,0 0,3 -3,0 z M 96,132 l 3,0 0,3 -3,0 z M 102,132 l 3,0 0,3 -3,0 z M 108,132 l 3,0 0,3 -3,0 z M 111,132 l 3,0 0,3 -3,0 z M 114,132 l 3,0 0,3 -3,0 z M 117,132 l 3,0 0,3 -3,0 z M 120,132 l 3,0 0,3 -3,0 z M 123,132 l 3,0 0,3 -3,0 z M 132,132 l 3,0 0,3 -3,0 z M 138,132 l 3,0 0,3 -3,0 z M 144,132 l 3,0 0,3 -3,0 z M 147,132 l 3,0 0,3 -3,0 z M 153,132 l 3,0 0,3 -3,0 z M 168,132 l 3,0 0,3 -3,0 z M 177,132 l 3,0 0,3 -3,0 z M 183,132 l 3,0 0,3 -3,0 z M 186,132 l 3,0 0,3 -3,0 z M 192,132 l 3,0 0,3 -3,0 z M 195,132 l 3,0 0,3 -3,0 z M 207,132 l 3,0 0,3 -3,0 z M 12,135 l 3,0 0,3 -3,0 z M 15,135 l 3,0 0,3 -3,0 z M 21,135 l 3,0 0,3 -3,0 z M 24,135 l 3,0 0,3 -3,0 z M 39,135 l 3,0 0,3 -3,0 z M 54,135 l 3,0 0,3 -3,0 z M 63,135 l 3,0 0,3 -3,0 z M 66,135 l 3,0 0,3 -3,0 z M 72,135 l 3,0 0,3 -3,0 z M 75,135 l 3,0 0,3 -3,0 z M 81,135 l 3,0 0,3 -3,0 z M 84,135 l 3,0 0,3 -3,0 z M 90,135 l 3,0 0,3 -3,0 z M 93,135 l 3,0 0,3 -3,0 z M 99,135 l 3,0 0,3 -3,0 z M 102,135 l 3,0 0,3 -3,0 z M 105,135 l 3,0 0,3 -3,0 z M 114,135 l 3,0 0,3 -3,0 z M 120,135 l 3,0 0,3 -3,0 z M 123,135 l 3,0 0,3 -3,0 z M 126,135 l 3,0 0,3 -3,0 z M 129,135 l 3,0 0,3 -3,0 z M 132,135 l 3,0 0,3 -3,0 z M 141,135 l 3,0 0,3 -3,0 z M 144,135 l 3,0 0,3 -3,0 z M 147,135 l 3,0 0,3 -3,0 z M 150,135 l 3,0 0,3 -3,0 z M 153,135 l 3,0 0,3 -3,0 z M 162,135 l 3,0 0,3 -3,0 z M 165,135 l 3,0 0,3 -3,0 z M 168,135 l 3,0 0,3 -3,0 z M 171,135 l 3,0 0,3 -3,0 z M 174,135 l 3,0 0,3 -3,0 z M 177,135 l 3,0 0,3 -3,0 z M 183,135 l 3,0 0,3 -3,0 z M 186,135 l 3,0 0,3 -3,0 z M 192,135 l 3,0 0,3 -3,0 z M 195,135 l 3,0 0,3 -3,0 z M 198,135 l 3,0 0,3 -3,0 z M 201,135 l 3,0 0,3 -3,0 z M 15,138 l 3,0 0,3 -3,0 z M 18,138 l 3,0 0,3 -3,0 z M 24,138 l 3,0 0,3 -3,0 z M 30,138 l 3,0 0,3 -3,0 z M 42,138 l 3,0 0,3 -3,0 z M 45,138 l 3,0 0,3 -3,0 z M 54,138 l 3,0 0,3 -3,0 z M 57,138 l 3,0 0,3 -3,0 z M 63,138 l 3,0 0,3 -3,0 z M 66,138 l 3,0 0,3 -3,0 z M 69,138 l 3,0 0,3 -3,0 z M 78,138 l 3,0 0,3 -3,0 z M 84,138 l 3,0 0,3 -3,0 z M 90,138 l 3,0 0,3 -3,0 z M 93,138 l 3,0 0,3 -3,0 z M 102,138 l 3,0 0,3 -3,0 z M 108,138 l 3,0 0,3 -3,0 z M 111,138 l 3,0 0,3 -3,0 z M 117,138 l 3,0 0,3 -3,0 z M 120,138 l 3,0 0,3 -3,0 z M 126,138 l 3,0 0,3 -3,0 z M 135,138 l 3,0 0,3 -3,0 z M 138,138 l 3,0 0,3 -3,0 z M 150,138 l 3,0 0,3 -3,0 z M 153,138 l 3,0 0,3 -3,0 z M 162,138 l 3,0 0,3 -3,0 z M 168,138 l 3,0 0,3 -3,0 z M 174,138 l 3,0 0,3 -3,0 z M 177,138 l 3,0 0,3 -3,0 z M 180,138 l 3,0 0,3 -3,0 z M 192,138 l 3,0 0,3 -3,0 z M 195,138 l 3,0 0,3 -3,0 z M 204,138 l 3,0 0,3 -3,0 z M 3,141 l 3,0 0,3 -3,0 z M 6,141 l 3,0 0,3 -3,0 z M 9,141 l 3,0 0,3 -3,0 z M 12,141 l 3,0 0,3 -3,0 z M 18,141 l 3,0 0,3 -3,0 z M 21,141 l 3,0 0,3 -3,0 z M 27,141 l 3,0 0,3 -3,0 z M 30,141 l 3,0 0,3 -3,0 z M 33,141 l 3,0 0,3 -3,0 z M 36,141 l 3,0 0,3 -3,0 z M 42,141 l 3,0 0,3 -3,0 z M 54,141 l 3,0 0,3 -3,0 z M 60,141 l 3,0 0,3 -3,0 z M 63,141 l 3,0 0,3 -3,0 z M 69,141 l 3,0 0,3 -3,0 z M 84,141 l 3,0 0,3 -3,0 z M 93,141 l 3,0 0,3 -3,0 z M 99,141 l 3,0 0,3 -3,0 z M 102,141 l 3,0 0,3 -3,0 z M 105,141 l 3,0 0,3 -3,0 z M 111,141 l 3,0 0,3 -3,0 z M 114,141 l 3,0 0,3 -3,0 z M 117,141 l 3,0 0,3 -3,0 z M 129,141 l 3,0 0,3 -3,0 z M 132,141 l 3,0 0,3 -3,0 z M 135,141 l 3,0 0,3 -3,0 z M 138,141 l 3,0 0,3 -3,0 z M 150,141 l 3,0 0,3 -3,0 z M 159,141 l 3,0 0,3 -3,0 z M 162,141 l 3,0 0,3 -3,0 z M 165,141 l 3,0 0,3 -3,0 z M 168,141 l 3,0 0,3 -3,0 z M 171,141 l 3,0 0,3 -3,0 z M 174,141 l 3,0 0,3 -3,0 z M 186,141 l 3,0 0,3 -3,0 z M 192,141 l 3,0 0,3 -3,0 z M 195,141 l 3,0 0,3 -3,0 z M 204,141 l 3,0 0,3 -3,0 z M 207,141 l 3,0 0,3 -3,0 z M 6,144 l 3,0 0,3 -3,0 z M 9,144 l 3,0 0,3 -3,0 z M 12,144 l 3,0 0,3 -3,0 z M 24,144 l 3,0 0,3 -3,0 z M 36,144 l 3,0 0,3 -3,0 z M 42,144 l 3,0 0,3 -3,0 z M 45,144 l 3,0 0,3 -3,0 z M 48,144 l 3,0 0,3 -3,0 z M 51,144 l 3,0 0,3 -3,0 z M 60,144 l 3,0 0,3 -3,0 z M 69,144 l 3,0 0,3 -3,0 z M 75,144 l 3,0 0,3 -3,0 z M 78,144 l 3,0 0,3 -3,0 z M 84,144 l 3,0 0,3 -3,0 z M 90,144 l 3,0 0,3 -3,0 z M 93,144 l 3,0 0,3 -3,0 z M 105,144 l 3,0 0,3 -3,0 z M 108,144 l 3,0 0,3 -3,0 z M 117,144 l 3,0 0,3 -3,0 z M 126,144 l 3,0 0,3 -3,0 z M 129,144 l 3,0 0,3 -3,0 z M 135,144 l 3,0 0,3 -3,0 z M 138,144 l 3,0 0,3 -3,0 z M 144,144 l 3,0 0,3 -3,0 z M 147,144 l 3,0 0,3 -3,0 z M 159,144 l 3,0 0,3 -3,0 z M 165,144 l 3,0 0,3 -3,0 z M 171,144 l 3,0 0,3 -3,0 z M 177,144 l 3,0 0,3 -3,0 z M 183,144 l 3,0 0,3 -3,0 z M 192,144 l 3,0 0,3 -3,0 z M 198,144 l 3,0 0,3 -3,0 z M 207,144 l 3,0 0,3 -3,0 z M 3,147 l 3,0 0,3 -3,0 z M 6,147 l 3,0 0,3 -3,0 z M 15,147 l 3,0 0,3 -3,0 z M 21,147 l 3,0 0,3 -3,0 z M 30,147 l 3,0 0,3 -3,0 z M 33,147 l 3,0 0,3 -3,0 z M 36,147 l 3,0 0,3 -3,0 z M 42,147 l 3,0 0,3 -3,0 z M 54,147 l 3,0 0,3 -3,0 z M 93,147 l 3,0 0,3 -3,0 z M 99,147 l 3,0 0,3 -3,0 z M 105,147 l 3,0 0,3 -3,0 z M 117,147 l 3,0 0,3 -3,0 z M 123,147 l 3,0 0,3 -3,0 z M 126,147 l 3,0 0,3 -3,0 z M 135,147 l 3,0 0,3 -3,0 z M 153,147 l 3,0 0,3 -3,0 z M 156,147 l 3,0 0,3 -3,0 z M 159,147 l 3,0 0,3 -3,0 z M 174,147 l 3,0 0,3 -3,0 z M 177,147 l 3,0 0,3 -3,0 z M 183,147 l 3,0 0,3 -3,0 z M 198,147 l 3,0 0,3 -3,0 z M 204,147 l 3,0 0,3 -3,0 z M 207,147 l 3,0 0,3 -3,0 z M 3,150 l 3,0 0,3 -3,0 z M 6,150 l 3,0 0,3 -3,0 z M 15,150 l 3,0 0,3 -3,0 z M 24,150 l 3,0 0,3 -3,0 z M 27,150 l 3,0 0,3 -3,0 z M 30,150 l 3,0 0,3 -3,0 z M 36,150 l 3,0 0,3 -3,0 z M 39,150 l 3,0 0,3 -3,0 z M 57,150 l 3,0 0,3 -3,0 z M 60,150 l 3,0 0,3 -3,0 z M 63,150 l 3,0 0,3 -3,0 z M 66,150 l 3,0 0,3 -3,0 z M 69,150 l 3,0 0,3 -3,0 z M 72,150 l 3,0 0,3 -3,0 z M 75,150 l 3,0 0,3 -3,0 z M 78,150 l 3,0 0,3 -3,0 z M 84,150 l 3,0 0,3 -3,0 z M 90,150 l 3,0 0,3 -3,0 z M 99,150 l 3,0 0,3 -3,0 z M 108,150 l 3,0 0,3 -3,0 z M 120,150 l 3,0 0,3 -3,0 z M 123,150 l 3,0 0,3 -3,0 z M 129,150 l 3,0 0,3 -3,0 z M 132,150 l 3,0 0,3 -3,0 z M 135,150 l 3,0 0,3 -3,0 z M 138,150 l 3,0 0,3 -3,0 z M 144,150 l 3,0 0,3 -3,0 z M 147,150 l 3,0 0,3 -3,0 z M 159,150 l 3,0 0,3 -3,0 z M 165,150 l 3,0 0,3 -3,0 z M 171,150 l 3,0 0,3 -3,0 z M 174,150 l 3,0 0,3 -3,0 z M 180,150 l 3,0 0,3 -3,0 z M 183,150 l 3,0 0,3 -3,0 z M 186,150 l 3,0 0,3 -3,0 z M 189,150 l 3,0 0,3 -3,0 z M 195,150 l 3,0 0,3 -3,0 z M 198,150 l 3,0 0,3 -3,0 z M 207,150 l 3,0 0,3 -3,0 z M 3,153 l 3,0 0,3 -3,0 z M 18,153 l 3,0 0,3 -3,0 z M 21,153 l 3,0 0,3 -3,0 z M 24,153 l 3,0 0,3 -3,0 z M 30,153 l 3,0 0,3 -3,0 z M 33,153 l 3,0 0,3 -3,0 z M 36,153 l 3,0 0,3 -3,0 z M 63,153 l 3,0 0,3 -3,0 z M 69,153 l 3,0 0,3 -3,0 z M 72,153 l 3,0 0,3 -3,0 z M 75,153 l 3,0 0,3 -3,0 z M 90,153 l 3,0 0,3 -3,0 z M 96,153 l 3,0 0,3 -3,0 z M 99,153 l 3,0 0,3 -3,0 z M 102,153 l 3,0 0,3 -3,0 z M 108,153 l 3,0 0,3 -3,0 z M 111,153 l 3,0 0,3 -3,0 z M 114,153 l 3,0 0,3 -3,0 z M 123,153 l 3,0 0,3 -3,0 z M 144,153 l 3,0 0,3 -3,0 z M 156,153 l 3,0 0,3 -3,0 z M 174,153 l 3,0 0,3 -3,0 z M 177,153 l 3,0 0,3 -3,0 z M 180,153 l 3,0 0,3 -3,0 z M 195,153 l 3,0 0,3 -3,0 z M 198,153 l 3,0 0,3 -3,0 z M 204,153 l 3,0 0,3 -3,0 z M 3,156 l 3,0 0,3 -3,0 z M 6,156 l 3,0 0,3 -3,0 z M 9,156 l 3,0 0,3 -3,0 z M 15,156 l 3,0 0,3 -3,0 z M 18,156 l 3,0 0,3 -3,0 z M 24,156 l 3,0 0,3 -3,0 z M 27,156 l 3,0 0,3 -3,0 z M 30,156 l 3,0 0,3 -3,0 z M 36,156 l 3,0 0,3 -3,0 z M 42,156 l 3,0 0,3 -3,0 z M 45,156 l 3,0 0,3 -3,0 z M 51,156 l 3,0 0,3 -3,0 z M 60,156 l 3,0 0,3 -3,0 z M 63,156 l 3,0 0,3 -3,0 z M 72,156 l 3,0 0,3 -3,0 z M 78,156 l 3,0 0,3 -3,0 z M 84,156 l 3,0 0,3 -3,0 z M 93,156 l 3,0 0,3 -3,0 z M 99,156 l 3,0 0,3 -3,0 z M 111,156 l 3,0 0,3 -3,0 z M 117,156 l 3,0 0,3 -3,0 z M 123,156 l 3,0 0,3 -3,0 z M 126,156 l 3,0 0,3 -3,0 z M 129,156 l 3,0 0,3 -3,0 z M 132,156 l 3,0 0,3 -3,0 z M 138,156 l 3,0 0,3 -3,0 z M 141,156 l 3,0 0,3 -3,0 z M 147,156 l 3,0 0,3 -3,0 z M 153,156 l 3,0 0,3 -3,0 z M 168,156 l 3,0 0,3 -3,0 z M 174,156 l 3,0 0,3 -3,0 z M 177,156 l 3,0 0,3 -3,0 z M 180,156 l 3,0 0,3 -3,0 z M 183,156 l 3,0 0,3 -3,0 z M 192,156 l 3,0 0,3 -3,0 z M 198,156 l 3,0 0,3 -3,0 z M 201,156 l 3,0 0,3 -3,0 z M 204,156 l 3,0 0,3 -3,0 z M 3,159 l 3,0 0,3 -3,0 z M 15,159 l 3,0 0,3 -3,0 z M 18,159 l 3,0 0,3 -3,0 z M 21,159 l 3,0 0,3 -3,0 z M 33,159 l 3,0 0,3 -3,0 z M 36,159 l 3,0 0,3 -3,0 z M 39,159 l 3,0 0,3 -3,0 z M 42,159 l 3,0 0,3 -3,0 z M 45,159 l 3,0 0,3 -3,0 z M 48,159 l 3,0 0,3 -3,0 z M 54,159 l 3,0 0,3 -3,0 z M 66,159 l 3,0 0,3 -3,0 z M 78,159 l 3,0 0,3 -3,0 z M 96,159 l 3,0 0,3 -3,0 z M 102,159 l 3,0 0,3 -3,0 z M 108,159 l 3,0 0,3 -3,0 z M 111,159 l 3,0 0,3 -3,0 z M 114,159 l 3,0 0,3 -3,0 z M 120,159 l 3,0 0,3 -3,0 z M 129,159 l 3,0 0,3 -3,0 z M 132,159 l 3,0 0,3 -3,0 z M 138,159 l 3,0 0,3 -3,0 z M 141,159 l 3,0 0,3 -3,0 z M 144,159 l 3,0 0,3 -3,0 z M 150,159 l 3,0 0,3 -3,0 z M 153,159 l 3,0 0,3 -3,0 z M 162,159 l 3,0 0,3 -3,0 z M 168,159 l 3,0 0,3 -3,0 z M 180,159 l 3,0 0,3 -3,0 z M 183,159 l 3,0 0,3 -3,0 z M 192,159 l 3,0 0,3 -3,0 z M 198,159 l 3,0 0,3 -3,0 z M 201,159 l 3,0 0,3 -3,0 z M 3,162 l 3,0 0,3 -3,0 z M 9,162 l 3,0 0,3 -3,0 z M 12,162 l 3,0 0,3 -3,0 z M 15,162 l 3,0 0,3 -3,0 z M 18,162 l 3,0 0,3 -3,0 z M 36,162 l 3,0 0,3 -3,0 z M 45,162 l 3,0 0,3 -3,0 z M 48,162 l 3,0 0,3 -3,0 z M 57,162 l 3,0 0,3 -3,0 z M 90,162 l 3,0 0,3 -3,0 z M 93,162 l 3,0 0,3 -3,0 z M 96,162 l 3,0 0,3 -3,0 z M 99,162 l 3,0 0,3 -3,0 z M 108,162 l 3,0 0,3 -3,0 z M 117,162 l 3,0 0,3 -3,0 z M 123,162 l 3,0 0,3 -3,0 z M 129,162 l 3,0 0,3 -3,0 z M 132,162 l 3,0 0,3 -3,0 z M 141,162 l 3,0 0,3 -3,0 z M 144,162 l 3,0 0,3 -3,0 z M 147,162 l 3,0 0,3 -3,0 z M 153,162 l 3,0 0,3 -3,0 z M 168,162 l 3,0 0,3 -3,0 z M 177,162 l 3,0 0,3 -3,0 z M 180,162 l 3,0 0,3 -3,0 z M 183,162 l 3,0 0,3 -3,0 z M 189,162 l 3,0 0,3 -3,0 z M 201,162 l 3,0 0,3 -3,0 z M 204,162 l 3,0 0,3 -3,0 z M 12,165 l 3,0 0,3 -3,0 z M 21,165 l 3,0 0,3 -3,0 z M 30,165 l 3,0 0,3 -3,0 z M 33,165 l 3,0 0,3 -3,0 z M 39,165 l 3,0 0,3 -3,0 z M 45,165 l 3,0 0,3 -3,0 z M 57,165 l 3,0 0,3 -3,0 z M 69,165 l 3,0 0,3 -3,0 z M 72,165 l 3,0 0,3 -3,0 z M 75,165 l 3,0 0,3 -3,0 z M 93,165 l 3,0 0,3 -3,0 z M 99,165 l 3,0 0,3 -3,0 z M 108,165 l 3,0 0,3 -3,0 z M 117,165 l 3,0 0,3 -3,0 z M 123,165 l 3,0 0,3 -3,0 z M 126,165 l 3,0 0,3 -3,0 z M 129,165 l 3,0 0,3 -3,0 z M 135,165 l 3,0 0,3 -3,0 z M 150,165 l 3,0 0,3 -3,0 z M 156,165 l 3,0 0,3 -3,0 z M 159,165 l 3,0 0,3 -3,0 z M 162,165 l 3,0 0,3 -3,0 z M 165,165 l 3,0 0,3 -3,0 z M 171,165 l 3,0 0,3 -3,0 z M 195,165 l 3,0 0,3 -3,0 z M 204,165 l 3,0 0,3 -3,0 z M 207,165 l 3,0 0,3 -3,0 z M 6,168 l 3,0 0,3 -3,0 z M 9,168 l 3,0 0,3 -3,0 z M 12,168 l 3,0 0,3 -3,0 z M 24,168 l 3,0 0,3 -3,0 z M 39,168 l 3,0 0,3 -3,0 z M 45,168 l 3,0 0,3 -3,0 z M 51,168 l 3,0 0,3 -3,0 z M 57,168 l 3,0 0,3 -3,0 z M 60,168 l 3,0 0,3 -3,0 z M 63,168 l 3,0 0,3 -3,0 z M 66,168 l 3,0 0,3 -3,0 z M 69,168 l 3,0 0,3 -3,0 z M 87,168 l 3,0 0,3 -3,0 z M 90,168 l 3,0 0,3 -3,0 z M 93,168 l 3,0 0,3 -3,0 z M 96,168 l 3,0 0,3 -3,0 z M 102,168 l 3,0 0,3 -3,0 z M 114,168 l 3,0 0,3 -3,0 z M 126,168 l 3,0 0,3 -3,0 z M 129,168 l 3,0 0,3 -3,0 z M 144,168 l 3,0 0,3 -3,0 z M 147,168 l 3,0 0,3 -3,0 z M 153,168 l 3,0 0,3 -3,0 z M 162,168 l 3,0 0,3 -3,0 z M 165,168 l 3,0 0,3 -3,0 z M 174,168 l 3,0 0,3 -3,0 z M 177,168 l 3,0 0,3 -3,0 z M 198,168 l 3,0 0,3 -3,0 z M 204,168 l 3,0 0,3 -3,0 z M 3,171 l 3,0 0,3 -3,0 z M 6,171 l 3,0 0,3 -3,0 z M 12,171 l 3,0 0,3 -3,0 z M 15,171 l 3,0 0,3 -3,0 z M 18,171 l 3,0 0,3 -3,0 z M 21,171 l 3,0 0,3 -3,0 z M 30,171 l 3,0 0,3 -3,0 z M 33,171 l 3,0 0,3 -3,0 z M 36,171 l 3,0 0,3 -3,0 z M 45,171 l 3,0 0,3 -3,0 z M 48,171 l 3,0 0,3 -3,0 z M 54,171 l 3,0 0,3 -3,0 z M 57,171 l 3,0 0,3 -3,0 z M 60,171 l 3,0 0,3 -3,0 z M 69,171 l 3,0 0,3 -3,0 z M 72,171 l 3,0 0,3 -3,0 z M 75,171 l 3,0 0,3 -3,0 z M 78,171 l 3,0 0,3 -3,0 z M 87,171 l 3,0 0,3 -3,0 z M 93,171 l 3,0 0,3 -3,0 z M 102,171 l 3,0 0,3 -3,0 z M 105,171 l 3,0 0,3 -3,0 z M 111,171 l 3,0 0,3 -3,0 z M 117,171 l 3,0 0,3 -3,0 z M 120,171 l 3,0 0,3 -3,0 z M 123,171 l 3,0 0,3 -3,0 z M 129,171 l 3,0 0,3 -3,0 z M 138,171 l 3,0 0,3 -3,0 z M 144,171 l 3,0 0,3 -3,0 z M 147,171 l 3,0 0,3 -3,0 z M 150,171 l 3,0 0,3 -3,0 z M 153,171 l 3,0 0,3 -3,0 z M 156,171 l 3,0 0,3 -3,0 z M 168,171 l 3,0 0,3 -3,0 z M 174,171 l 3,0 0,3 -3,0 z M 186,171 l 3,0 0,3 -3,0 z M 189,171 l 3,0 0,3 -3,0 z M 198,171 l 3,0 0,3 -3,0 z M 201,171 l 3,0 0,3 -3,0 z M 207,171 l 3,0 0,3 -3,0 z M 6,174 l 3,0 0,3 -3,0 z M 9,174 l 3,0 0,3 -3,0 z M 15,174 l 3,0 0,3 -3,0 z M 18,174 l 3,0 0,3 -3,0 z M 24,174 l 3,0 0,3 -3,0 z M 27,174 l 3,0 0,3 -3,0 z M 33,174 l 3,0 0,3 -3,0 z M 42,174 l 3,0 0,3 -3,0 z M 51,174 l 3,0 0,3 -3,0 z M 57,174 l 3,0 0,3 -3,0 z M 60,174 l 3,0 0,3 -3,0 z M 66,174 l 3,0 0,3 -3,0 z M 75,174 l 3,0 0,3 -3,0 z M 81,174 l 3,0 0,3 -3,0 z M 90,174 l 3,0 0,3 -3,0 z M 93,174 l 3,0 0,3 -3,0 z M 96,174 l 3,0 0,3 -3,0 z M 108,174 l 3,0 0,3 -3,0 z M 117,174 l 3,0 0,3 -3,0 z M 120,174 l 3,0 0,3 -3,0 z M 132,174 l 3,0 0,3 -3,0 z M 135,174 l 3,0 0,3 -3,0 z M 141,174 l 3,0 0,3 -3,0 z M 156,174 l 3,0 0,3 -3,0 z M 159,174 l 3,0 0,3 -3,0 z M 162,174 l 3,0 0,3 -3,0 z M 165,174 l 3,0 0,3 -3,0 z M 183,174 l 3,0 0,3 -3,0 z M 189,174 l 3,0 0,3 -3,0 z M 195,174 l 3,0 0,3 -3,0 z M 204,174 l 3,0 0,3 -3,0 z M 3,177 l 3,0 0,3 -3,0 z M 9,177 l 3,0 0,3 -3,0 z M 15,177 l 3,0 0,3 -3,0 z M 18,177 l 3,0 0,3 -3,0 z M 21,177 l 3,0 0,3 -3,0 z M 45,177 l 3,0 0,3 -3,0 z M 48,177 l 3,0 0,3 -3,0 z M 51,177 l 3,0 0,3 -3,0 z M 63,177 l 3,0 0,3 -3,0 z M 69,177 l 3,0 0,3 -3,0 z M 72,177 l 3,0 0,3 -3,0 z M 75,177 l 3,0 0,3 -3,0 z M 78,177 l 3,0 0,3 -3,0 z M 81,177 l 3,0 0,3 -3,0 z M 84,177 l 3,0 0,3 -3,0 z M 87,177 l 3,0 0,3 -3,0 z M 90,177 l 3,0 0,3 -3,0 z M 96,177 l 3,0 0,3 -3,0 z M 105,177 l 3,0 0,3 -3,0 z M 114,177 l 3,0 0,3 -3,0 z M 126,177 l 3,0 0,3 -3,0 z M 129,177 l 3,0 0,3 -3,0 z M 132,177 l 3,0 0,3 -3,0 z M 135,177 l 3,0 0,3 -3,0 z M 138,177 l 3,0 0,3 -3,0 z M 144,177 l 3,0 0,3 -3,0 z M 147,177 l 3,0 0,3 -3,0 z M 150,177 l 3,0 0,3 -3,0 z M 156,177 l 3,0 0,3 -3,0 z M 159,177 l 3,0 0,3 -3,0 z M 162,177 l 3,0 0,3 -3,0 z M 165,177 l 3,0 0,3 -3,0 z M 180,177 l 3,0 0,3 -3,0 z M 186,177 l 3,0 0,3 -3,0 z M 195,177 l 3,0 0,3 -3,0 z M 201,177 l 3,0 0,3 -3,0 z M 204,177 l 3,0 0,3 -3,0 z M 3,180 l 3,0 0,3 -3,0 z M 24,180 l 3,0 0,3 -3,0 z M 33,180 l 3,0 0,3 -3,0 z M 36,180 l 3,0 0,3 -3,0 z M 51,180 l 3,0 0,3 -3,0 z M 63,180 l 3,0 0,3 -3,0 z M 66,180 l 3,0 0,3 -3,0 z M 69,180 l 3,0 0,3 -3,0 z M 75,180 l 3,0 0,3 -3,0 z M 84,180 l 3,0 0,3 -3,0 z M 87,180 l 3,0 0,3 -3,0 z M 93,180 l 3,0 0,3 -3,0 z M 102,180 l 3,0 0,3 -3,0 z M 105,180 l 3,0 0,3 -3,0 z M 108,180 l 3,0 0,3 -3,0 z M 117,180 l 3,0 0,3 -3,0 z M 120,180 l 3,0 0,3 -3,0 z M 129,180 l 3,0 0,3 -3,0 z M 132,180 l 3,0 0,3 -3,0 z M 141,180 l 3,0 0,3 -3,0 z M 144,180 l 3,0 0,3 -3,0 z M 147,180 l 3,0 0,3 -3,0 z M 153,180 l 3,0 0,3 -3,0 z M 162,180 l 3,0 0,3 -3,0 z M 168,180 l 3,0 0,3 -3,0 z M 174,180 l 3,0 0,3 -3,0 z M 177,180 l 3,0 0,3 -3,0 z M 180,180 l 3,0 0,3 -3,0 z M 186,180 l 3,0 0,3 -3,0 z M 192,180 l 3,0 0,3 -3,0 z M 195,180 l 3,0 0,3 -3,0 z M 198,180 l 3,0 0,3 -3,0 z M 204,180 l 3,0 0,3 -3,0 z M 207,180 l 3,0 0,3 -3,0 z M 3,183 l 3,0 0,3 -3,0 z M 12,183 l 3,0 0,3 -3,0 z M 15,183 l 3,0 0,3 -3,0 z M 21,183 l 3,0 0,3 -3,0 z M 24,183 l 3,0 0,3 -3,0 z M 30,183 l 3,0 0,3 -3,0 z M 33,183 l 3,0 0,3 -3,0 z M 39,183 l 3,0 0,3 -3,0 z M 42,183 l 3,0 0,3 -3,0 z M 45,183 l 3,0 0,3 -3,0 z M 54,183 l 3,0 0,3 -3,0 z M 63,183 l 3,0 0,3 -3,0 z M 66,183 l 3,0 0,3 -3,0 z M 75,183 l 3,0 0,3 -3,0 z M 78,183 l 3,0 0,3 -3,0 z M 81,183 l 3,0 0,3 -3,0 z M 84,183 l 3,0 0,3 -3,0 z M 90,183 l 3,0 0,3 -3,0 z M 99,183 l 3,0 0,3 -3,0 z M 102,183 l 3,0 0,3 -3,0 z M 105,183 l 3,0 0,3 -3,0 z M 108,183 l 3,0 0,3 -3,0 z M 111,183 l 3,0 0,3 -3,0 z M 117,183 l 3,0 0,3 -3,0 z M 120,183 l 3,0 0,3 -3,0 z M 138,183 l 3,0 0,3 -3,0 z M 141,183 l 3,0 0,3 -3,0 z M 144,183 l 3,0 0,3 -3,0 z M 150,183 l 3,0 0,3 -3,0 z M 153,183 l 3,0 0,3 -3,0 z M 159,183 l 3,0 0,3 -3,0 z M 165,183 l 3,0 0,3 -3,0 z M 168,183 l 3,0 0,3 -3,0 z M 171,183 l 3,0 0,3 -3,0 z M 177,183 l 3,0 0,3 -3,0 z M 183,183 l 3,0 0,3 -3,0 z M 186,183 l 3,0 0,3 -3,0 z M 189,183 l 3,0 0,3 -3,0 z M 192,183 l 3,0 0,3 -3,0 z M 195,183 l 3,0 0,3 -3,0 z M 198,183 l 3,0 0,3 -3,0 z M 201,183 l 3,0 0,3 -3,0 z M 204,183 l 3,0 0,3 -3,0 z M 207,183 l 3,0 0,3 -3,0 z M 27,186 l 3,0 0,3 -3,0 z M 33,186 l 3,0 0,3 -3,0 z M 39,186 l 3,0 0,3 -3,0 z M 42,186 l 3,0 0,3 -3,0 z M 45,186 l 3,0 0,3 -3,0 z M 48,186 l 3,0 0,3 -3,0 z M 54,186 l 3,0 0,3 -3,0 z M 57,186 l 3,0 0,3 -3,0 z M 63,186 l 3,0 0,3 -3,0 z M 66,186 l 3,0 0,3 -3,0 z M 72,186 l 3,0 0,3 -3,0 z M 78,186 l 3,0 0,3 -3,0 z M 84,186 l 3,0 0,3 -3,0 z M 87,186 l 3,0 0,3 -3,0 z M 93,186 l 3,0 0,3 -3,0 z M 99,186 l 3,0 0,3 -3,0 z M 111,186 l 3,0 0,3 -3,0 z M 120,186 l 3,0 0,3 -3,0 z M 132,186 l 3,0 0,3 -3,0 z M 141,186 l 3,0 0,3 -3,0 z M 144,186 l 3,0 0,3 -3,0 z M 150,186 l 3,0 0,3 -3,0 z M 159,186 l 3,0 0,3 -3,0 z M 168,186 l 3,0 0,3 -3,0 z M 171,186 l 3,0 0,3 -3,0 z M 177,186 l 3,0 0,3 -3,0 z M 180,186 l 3,0 0,3 -3,0 z M 183,186 l 3,0 0,3 -3,0 z M 195,186 l 3,0 0,3 -3,0 z M 198,186 l 3,0 0,3 -3,0 z M 3,189 l 3,0 0,3 -3,0 z M 6,189 l 3,0 0,3 -3,0 z M 9,189 l 3,0 0,3 -3,0 z M 12,189 l 3,0 0,3 -3,0 z M 15,189 l 3,0 0,3 -3,0 z M 18,189 l 3,0 0,3 -3,0 z M 21,189 l 3,0 0,3 -3,0 z M 27,189 l 3,0 0,3 -3,0 z M 48,189 l 3,0 0,3 -3,0 z M 51,189 l 3,0 0,3 -3,0 z M 57,189 l 3,0 0,3 -3,0 z M 69,189 l 3,0 0,3 -3,0 z M 72,189 l 3,0 0,3 -3,0 z M 75,189 l 3,0 0,3 -3,0 z M 78,189 l 3,0 0,3 -3,0 z M 81,189 l 3,0 0,3 -3,0 z M 84,189 l 3,0 0,3 -3,0 z M 99,189 l 3,0 0,3 -3,0 z M 105,189 l 3,0 0,3 -3,0 z M 111,189 l 3,0 0,3 -3,0 z M 114,189 l 3,0 0,3 -3,0 z M 117,189 l 3,0 0,3 -3,0 z M 120,189 l 3,0 0,3 -3,0 z M 123,189 l 3,0 0,3 -3,0 z M 129,189 l 3,0 0,3 -3,0 z M 132,189 l 3,0 0,3 -3,0 z M 135,189 l 3,0 0,3 -3,0 z M 156,189 l 3,0 0,3 -3,0 z M 159,189 l 3,0 0,3 -3,0 z M 162,189 l 3,0 0,3 -3,0 z M 165,189 l 3,0 0,3 -3,0 z M 171,189 l 3,0 0,3 -3,0 z M 174,189 l 3,0 0,3 -3,0 z M 183,189 l 3,0 0,3 -3,0 z M 189,189 l 3,0 0,3 -3,0 z M 195,189 l 3,0 0,3 -3,0 z M 204,189 l 3,0 0,3 -3,0 z M 207,189 l 3,0 0,3 -3,0 z M 3,192 l 3,0 0,3 -3,0 z M 21,192 l 3,0 0,3 -3,0 z M 33,192 l 3,0 0,3 -3,0 z M 45,192 l 3,0 0,3 -3,0 z M 48,192 l 3,0 0,3 -3,0 z M 51,192 l 3,0 0,3 -3,0 z M 54,192 l 3,0 0,3 -3,0 z M 57,192 l 3,0 0,3 -3,0 z M 60,192 l 3,0 0,3 -3,0 z M 63,192 l 3,0 0,3 -3,0 z M 81,192 l 3,0 0,3 -3,0 z M 84,192 l 3,0 0,3 -3,0 z M 87,192 l 3,0 0,3 -3,0 z M 90,192 l 3,0 0,3 -3,0 z M 96,192 l 3,0 0,3 -3,0 z M 99,192 l 3,0 0,3 -3,0 z M 111,192 l 3,0 0,3 -3,0 z M 114,192 l 3,0 0,3 -3,0 z M 117,192 l 3,0 0,3 -3,0 z M 120,192 l 3,0 0,3 -3,0 z M 129,192 l 3,0 0,3 -3,0 z M 132,192 l 3,0 0,3 -3,0 z M 141,192 l 3,0 0,3 -3,0 z M 147,192 l 3,0 0,3 -3,0 z M 150,192 l 3,0 0,3 -3,0 z M 159,192 l 3,0 0,3 -3,0 z M 171,192 l 3,0 0,3 -3,0 z M 177,192 l 3,0 0,3 -3,0 z M 183,192 l 3,0 0,3 -3,0 z M 195,192 l 3,0 0,3 -3,0 z M 198,192 l 3,0 0,3 -3,0 z M 201,192 l 3,0 0,3 -3,0 z M 3,195 l 3,0 0,3 -3,0 z M 9,195 l 3,0 0,3 -3,0 z M 12,195 l 3,0 0,3 -3,0 z M 15,195 l 3,0 0,3 -3,0 z M 21,195 l 3,0 0,3 -3,0 z M 27,195 l 3,0 0,3 -3,0 z M 30,195 l 3,0 0,3 -3,0 z M 33,195 l 3,0 0,3 -3,0 z M 36,195 l 3,0 0,3 -3,0 z M 42,195 l 3,0 0,3 -3,0 z M 45,195 l 3,0 0,3 -3,0 z M 51,195 l 3,0 0,3 -3,0 z M 57,195 l 3,0 0,3 -3,0 z M 60,195 l 3,0 0,3 -3,0 z M 66,195 l 3,0 0,3 -3,0 z M 78,195 l 3,0 0,3 -3,0 z M 81,195 l 3,0 0,3 -3,0 z M 84,195 l 3,0 0,3 -3,0 z M 93,195 l 3,0 0,3 -3,0 z M 96,195 l 3,0 0,3 -3,0 z M 99,195 l 3,0 0,3 -3,0 z M 102,195 l 3,0 0,3 -3,0 z M 105,195 l 3,0 0,3 -3,0 z M 108,195 l 3,0 0,3 -3,0 z M 111,195 l 3,0 0,3 -3,0 z M 114,195 l 3,0 0,3 -3,0 z M 120,195 l 3,0 0,3 -3,0 z M 132,195 l 3,0 0,3 -3,0 z M 138,195 l 3,0 0,3 -3,0 z M 141,195 l 3,0 0,3 -3,0 z M 144,195 l 3,0 0,3 -3,0 z M 159,195 l 3,0 0,3 -3,0 z M 162,195 l 3,0 0,3 -3,0 z M 165,195 l 3,0 0,3 -3,0 z M 171,195 l 3,0 0,3 -3,0 z M 174,195 l 3,0 0,3 -3,0 z M 183,195 l 3,0 0,3 -3,0 z M 186,195 l 3,0 0,3 -3,0 z M 189,195 l 3,0 0,3 -3,0 z M 192,195 l 3,0 0,3 -3,0 z M 195,195 l 3,0 0,3 -3,0 z M 198,195 l 3,0 0,3 -3,0 z M 204,195 l 3,0 0,3 -3,0 z M 207,195 l 3,0 0,3 -3,0 z M 3,198 l 3,0 0,3 -3,0 z M 9,198 l 3,0 0,3 -3,0 z M 12,198 l 3,0 0,3 -3,0 z M 15,198 l 3,0 0,3 -3,0 z M 21,198 l 3,0 0,3 -3,0 z M 27,198 l 3,0 0,3 -3,0 z M 33,198 l 3,0 0,3 -3,0 z M 39,198 l 3,0 0,3 -3,0 z M 42,198 l 3,0 0,3 -3,0 z M 45,198 l 3,0 0,3 -3,0 z M 48,198 l 3,0 0,3 -3,0 z M 54,198 l 3,0 0,3 -3,0 z M 57,198 l 3,0 0,3 -3,0 z M 66,198 l 3,0 0,3 -3,0 z M 72,198 l 3,0 0,3 -3,0 z M 75,198 l 3,0 0,3 -3,0 z M 87,198 l 3,0 0,3 -3,0 z M 90,198 l 3,0 0,3 -3,0 z M 99,198 l 3,0 0,3 -3,0 z M 123,198 l 3,0 0,3 -3,0 z M 129,198 l 3,0 0,3 -3,0 z M 150,198 l 3,0 0,3 -3,0 z M 153,198 l 3,0 0,3 -3,0 z M 156,198 l 3,0 0,3 -3,0 z M 159,198 l 3,0 0,3 -3,0 z M 162,198 l 3,0 0,3 -3,0 z M 171,198 l 3,0 0,3 -3,0 z M 180,198 l 3,0 0,3 -3,0 z M 183,198 l 3,0 0,3 -3,0 z M 195,198 l 3,0 0,3 -3,0 z M 198,198 l 3,0 0,3 -3,0 z M 201,198 l 3,0 0,3 -3,0 z M 3,201 l 3,0 0,3 -3,0 z M 9,201 l 3,0 0,3 -3,0 z M 12,201 l 3,0 0,3 -3,0 z M 15,201 l 3,0 0,3 -3,0 z M 21,201 l 3,0 0,3 -3,0 z M 27,201 l 3,0 0,3 -3,0 z M 33,201 l 3,0 0,3 -3,0 z M 39,201 l 3,0 0,3 -3,0 z M 60,201 l 3,0 0,3 -3,0 z M 69,201 l 3,0 0,3 -3,0 z M 72,201 l 3,0 0,3 -3,0 z M 81,201 l 3,0 0,3 -3,0 z M 84,201 l 3,0 0,3 -3,0 z M 87,201 l 3,0 0,3 -3,0 z M 96,201 l 3,0 0,3 -3,0 z M 99,201 l 3,0 0,3 -3,0 z M 105,201 l 3,0 0,3 -3,0 z M 108,201 l 3,0 0,3 -3,0 z M 111,201 l 3,0 0,3 -3,0 z M 114,201 l 3,0 0,3 -3,0 z M 120,201 l 3,0 0,3 -3,0 z M 129,201 l 3,0 0,3 -3,0 z M 132,201 l 3,0 0,3 -3,0 z M 138,201 l 3,0 0,3 -3,0 z M 141,201 l 3,0 0,3 -3,0 z M 144,201 l 3,0 0,3 -3,0 z M 147,201 l 3,0 0,3 -3,0 z M 150,201 l 3,0 0,3 -3,0 z M 174,201 l 3,0 0,3 -3,0 z M 192,201 l 3,0 0,3 -3,0 z M 195,201 l 3,0 0,3 -3,0 z M 198,201 l 3,0 0,3 -3,0 z M 201,201 l 3,0 0,3 -3,0 z M 3,204 l 3,0 0,3 -3,0 z M 21,204 l 3,0 0,3 -3,0 z M 27,204 l 3,0 0,3 -3,0 z M 33,204 l 3,0 0,3 -3,0 z M 42,204 l 3,0 0,3 -3,0 z M 45,204 l 3,0 0,3 -3,0 z M 72,204 l 3,0 0,3 -3,0 z M 75,204 l 3,0 0,3 -3,0 z M 87,204 l 3,0 0,3 -3,0 z M 90,204 l 3,0 0,3 -3,0 z M 96,204 l 3,0 0,3 -3,0 z M 105,204 l 3,0 0,3 -3,0 z M 111,204 l 3,0 0,3 -3,0 z M 120,204 l 3,0 0,3 -3,0 z M 132,204 l 3,0 0,3 -3,0 z M 138,204 l 3,0 0,3 -3,0 z M 141,204 l 3,0 0,3 -3,0 z M 144,204 l 3,0 0,3 -3,0 z M 147,204 l 3,0 0,3 -3,0 z M 150,204 l 3,0 0,3 -3,0 z M 153,204 l 3,0 0,3 -3,0 z M 168,204 l 3,0 0,3 -3,0 z M 174,204 l 3,0 0,3 -3,0 z M 177,204 l 3,0 0,3 -3,0 z M 198,204 l 3,0 0,3 -3,0 z M 207,204 l 3,0 0,3 -3,0 z M 3,207 l 3,0 0,3 -3,0 z M 6,207 l 3,0 0,3 -3,0 z M 9,207 l 3,0 0,3 -3,0 z M 12,207 l 3,0 0,3 -3,0 z M 15,207 l 3,0 0,3 -3,0 z M 18,207 l 3,0 0,3 -3,0 z M 21,207 l 3,0 0,3 -3,0 z M 27,207 l 3,0 0,3 -3,0 z M 33,207 l 3,0 0,3 -3,0 z M 42,207 l 3,0 0,3 -3,0 z M 48,207 l 3,0 0,3 -3,0 z M 54,207 l 3,0 0,3 -3,0 z M 57,207 l 3,0 0,3 -3,0 z M 60,207 l 3,0 0,3 -3,0 z M 66,207 l 3,0 0,3 -3,0 z M 81,207 l 3,0 0,3 -3,0 z M 90,207 l 3,0 0,3 -3,0 z M 96,207 l 3,0 0,3 -3,0 z M 99,207 l 3,0 0,3 -3,0 z M 111,207 l 3,0 0,3 -3,0 z M 138,207 l 3,0 0,3 -3,0 z M 141,207 l 3,0 0,3 -3,0 z M 144,207 l 3,0 0,3 -3,0 z M 159,207 l 3,0 0,3 -3,0 z M 168,207 l 3,0 0,3 -3,0 z M 177,207 l 3,0 0,3 -3,0 z M 180,207 l 3,0 0,3 -3,0 z M 189,207 l 3,0 0,3 -3,0 z M 192,207 l 3,0 0,3 -3,0 z M 195,207 l 3,0 0,3 -3,0 z M 198,207 l 3,0 0,3 -3,0 z M 201,207 l 3,0 0,3 -3,0 z " />
	</g>
</svg>
